<svg width="39" height="39" viewBox="0 0 39 39" fill="none" xmlns="http://www.w3.org/2000/svg">
<path d="M21.1856 1.40354L23.5187 14.1044C23.6471 14.8038 24.1962 15.3529 24.8956 15.4813L37.5965 17.8144C39.4678 18.1586 39.4678 20.8414 37.5965 21.1856L24.8956 23.5187C24.1962 23.6471 23.6471 24.1962 23.5187 24.8956L21.1856 37.5965C20.8414 39.4678 18.1586 39.4678 17.8144 37.5965L15.4813 24.8956C15.3529 24.1962 14.8038 23.6471 14.1044 23.5187L1.40354 21.1856C-0.467847 20.8414 -0.467847 18.1586 1.40354 17.8144L14.1044 15.4813C14.8038 15.3529 15.3529 14.8038 15.4813 14.1044L17.8144 1.40354C18.1586 -0.467847 20.8414 -0.467847 21.1856 1.40354Z" fill="#3579F8"/>
</svg>
