<svg width="418" height="407" viewBox="0 0 418 407" fill="none" xmlns="http://www.w3.org/2000/svg">
<rect width="346.943" height="713.378" rx="45.4798" transform="matrix(1 -7.98721e-05 -7.9894e-05 1 35.0574 9.02771)" fill="#3579F8" stroke="#222222" stroke-width="16.3055"/>
<path d="M311 31.6998C313.612 31.7 316.124 32.7094 318.017 34.5194C318.159 34.6592 318.387 34.6574 318.527 34.5155L319.89 33.1324C319.961 33.0604 320.001 32.9629 320 32.8614C319.999 32.7599 319.959 32.6629 319.887 32.5917C314.919 27.8028 307.081 27.8028 302.113 32.5917C302.042 32.6628 302.001 32.7599 302 32.8613C301.999 32.9628 302.039 33.0603 302.11 33.1324L303.473 34.5155C303.613 34.6576 303.841 34.6594 303.984 34.5194C305.877 32.7092 308.389 31.6998 311 31.6998ZM311 36.1997C312.435 36.1996 313.819 36.7361 314.883 37.7049C315.027 37.8424 315.253 37.8395 315.394 37.6982L316.754 36.3151C316.826 36.2426 316.866 36.1441 316.865 36.0419C316.864 35.9396 316.822 35.842 316.749 35.7709C313.51 32.7403 308.494 32.7403 305.255 35.7709C305.182 35.842 305.14 35.9396 305.139 36.0419C305.138 36.1442 305.178 36.2427 305.25 36.3151L306.61 37.6982C306.75 37.8395 306.977 37.8424 307.121 37.7049C308.184 36.7368 309.567 36.2003 311 36.1997ZM313.616 39.5006C313.689 39.4288 313.729 39.3299 313.727 39.2273C313.725 39.1248 313.68 39.0276 313.605 38.9588C312.101 37.6798 309.9 37.6798 308.396 38.9588C308.32 39.0276 308.276 39.1247 308.274 39.2272C308.272 39.3298 308.312 39.4287 308.385 39.5006L310.739 41.8902C310.808 41.9605 310.902 42 311 42C311.099 42 311.193 41.9605 311.262 41.8902L313.616 39.5006Z" fill="white"/>
<path d="M326.923 32.2051C326.923 31.4971 327.497 30.9231 328.205 30.9231H345.833C346.541 30.9231 347.115 31.4971 347.115 32.2051V38.2949C347.115 39.0029 346.541 39.5769 345.833 39.5769H328.205C327.497 39.5769 326.923 39.0029 326.923 38.2949V32.2051Z" fill="white"/>
<path opacity="0.4" fill-rule="evenodd" clip-rule="evenodd" d="M328.205 29.9615H345.833C347.072 29.9615 348.077 30.966 348.077 32.2051V38.2949C348.077 39.534 347.072 40.5385 345.833 40.5385H328.205C326.966 40.5385 325.962 39.534 325.962 38.2949V32.2051C325.962 30.966 326.966 29.9615 328.205 29.9615ZM325 32.2051C325 30.435 326.435 29 328.205 29H345.833C347.603 29 349.038 30.435 349.038 32.2051V38.2949C349.038 40.065 347.603 41.5 345.833 41.5H328.205C326.435 41.5 325 40.065 325 38.2949V32.2051ZM351.603 35.25C351.603 36.2351 350.919 37.0605 350 37.2776V33.2224C350.919 33.4395 351.603 34.2649 351.603 35.25Z" fill="white"/>
<path fill-rule="evenodd" clip-rule="evenodd" d="M293.85 30C293.298 30 292.85 30.4477 292.85 31V40C292.85 40.5523 293.298 41 293.85 41H295.15C295.702 41 296.15 40.5523 296.15 40V31C296.15 30.4477 295.702 30 295.15 30H293.85ZM287.9 33.1999C287.9 32.6476 288.348 32.1999 288.9 32.1999H290.2C290.752 32.1999 291.2 32.6476 291.2 33.1999V39.9999C291.2 40.5522 290.752 40.9999 290.2 40.9999H288.9C288.348 40.9999 287.9 40.5522 287.9 39.9999V33.1999ZM283.95 34.4C283.398 34.4 282.95 34.8478 282.95 35.4V40C282.95 40.5523 283.398 41 283.95 41H285.25C285.802 41 286.25 40.5523 286.25 40V35.4C286.25 34.8478 285.802 34.4 285.25 34.4H283.95ZM279.1 41C278.492 41 278 40.5075 278 39.9V37.15C278 36.5425 278.492 36.05 279.1 36.05H280.2C280.808 36.05 281.3 36.5425 281.3 37.15V39.9C281.3 40.5075 280.808 41 280.2 41H279.1Z" fill="white"/>
<path d="M69.4778 40.1982C67.6663 40.1982 66.2512 39.1182 65.9709 37.5322H67.7209C67.9397 38.2773 68.6438 38.7695 69.5051 38.7695C70.9612 38.7695 71.8362 37.4023 71.8088 35.0166C71.8088 35.0166 71.802 35.0166 71.7952 35.0166H71.7883H71.7815C71.3987 35.9805 70.387 36.6299 69.1086 36.6299C67.2356 36.6299 65.8342 35.2422 65.8342 33.3691C65.8342 31.373 67.386 29.9307 69.5188 29.9307C70.968 29.9307 72.1438 30.6279 72.8 31.8857C73.2649 32.6924 73.5041 33.7246 73.5041 34.9551C73.5041 38.2432 72.0071 40.1982 69.4778 40.1982ZM69.5256 35.249C70.6536 35.249 71.508 34.4287 71.508 33.3418C71.508 32.2412 70.6467 31.3799 69.5393 31.3799C68.4387 31.3799 67.5705 32.2344 67.5705 33.3145C67.5705 34.4287 68.4045 35.249 69.5256 35.249ZM77.0988 38.5576C76.545 38.5576 76.1144 38.127 76.1144 37.5732C76.1144 37.0264 76.545 36.5889 77.0988 36.5889C77.6456 36.5889 78.0763 37.0264 78.0763 37.5732C78.0763 38.127 77.6456 38.5576 77.0988 38.5576ZM77.0988 33.6221C76.545 33.6221 76.1144 33.1846 76.1144 32.6377C76.1144 32.0908 76.545 31.6533 77.0988 31.6533C77.6456 31.6533 78.0763 32.0908 78.0763 32.6377C78.0763 33.1846 77.6456 33.6221 77.0988 33.6221ZM85.5332 40V38.1338H80.6113V36.6162C81.4658 35.0029 82.5664 33.2461 84.7061 30.1357H87.2148V36.6914H88.541V38.1338H87.2148V40H85.5332ZM82.2109 36.6846V36.7324H85.5605V31.4414H85.5332C83.9404 33.752 82.9971 35.208 82.2109 36.6846ZM93.2636 40V31.8174H93.2225L90.6727 33.6084V31.9473L93.2499 30.1357H94.993V40H93.2636Z" fill="white"/>
<g filter="url(#filter0_bdd_1585_16002)">
<g clip-path="url(#clip0_1585_16002)">
<rect x="101" y="256" width="214" height="33" rx="6.1085" fill="white" fill-opacity="0.2" shape-rendering="crispEdges"/>
</g>
</g>
<g filter="url(#filter1_bdd_1585_16002)">
<g clip-path="url(#clip1_1585_16002)">
<rect x="93" y="246" width="230" height="34" rx="6.1085" fill="white" fill-opacity="0.42" shape-rendering="crispEdges"/>
</g>
</g>
<g filter="url(#filter2_bdd_1585_16002)">
<rect x="85" y="205" width="246" height="66" rx="8" fill="url(#paint0_linear_1585_16002)" shape-rendering="crispEdges"/>
<path d="M116.736 223.657C117.393 222.002 119.735 222.002 120.392 223.657L123.499 231.488C123.7 231.994 124.103 232.394 124.61 232.593L132.456 235.669C134.121 236.322 134.121 238.678 132.456 239.331L124.61 242.407C124.103 242.606 123.7 243.006 123.499 243.512L120.392 251.343C119.735 252.998 117.393 252.998 116.736 251.343L113.628 243.512C113.427 243.006 113.025 242.606 112.518 242.407L104.672 239.331C103.006 238.678 103.006 236.322 104.672 235.669L112.518 232.593C113.025 232.394 113.427 231.994 113.628 231.488L116.736 223.657Z" fill="#3579F8"/>
<path d="M152.175 228H150.589V221H150.541L147.69 227.918H146.487L143.636 221H143.589V228H141.996V218.136H144.04L147.061 225.58H147.116L150.137 218.136H152.175V228ZM154.553 230.693C154.458 230.693 153.972 230.687 153.884 230.666V229.319C153.972 229.34 154.273 229.347 154.376 229.347C155.08 229.347 155.442 229.08 155.634 228.41C155.634 228.39 155.736 228.027 155.729 228.007L153.152 220.754H155.011L156.72 226.551H156.748L158.457 220.754H160.248L157.63 228.287C157.008 230.085 156.208 230.693 154.553 230.693ZM165.58 217.972C168.451 217.972 170.256 219.934 170.256 223.071C170.256 226.209 168.451 228.164 165.58 228.164C162.702 228.164 160.897 226.209 160.897 223.071C160.897 219.934 162.702 217.972 165.58 217.972ZM165.58 219.476C163.816 219.476 162.702 220.87 162.702 223.071C162.702 225.266 163.816 226.66 165.58 226.66C167.337 226.66 168.458 225.266 168.458 223.071C168.458 220.87 167.337 219.476 165.58 219.476ZM171.541 228V218.136H173.243V228H171.541ZM174.733 228V220.754H176.435V228H174.733ZM175.581 219.804C175.054 219.804 174.637 219.394 174.637 218.881C174.637 218.361 175.054 217.951 175.581 217.951C176.114 217.951 176.531 218.361 176.531 218.881C176.531 219.394 176.114 219.804 175.581 219.804ZM177.864 228V220.754H179.498V222.012H179.532C179.846 221.171 180.612 220.617 181.596 220.617C182.622 220.617 183.353 221.144 183.62 222.073H183.661C184.01 221.178 184.871 220.617 185.917 220.617C187.345 220.617 188.282 221.581 188.282 223.03V228H186.58V223.447C186.58 222.559 186.115 222.053 185.281 222.053C184.461 222.053 183.9 222.654 183.9 223.522V228H182.246V223.358C182.246 222.552 181.754 222.053 180.961 222.053C180.14 222.053 179.566 222.688 179.566 223.563V228H177.864ZM193.628 220.631C195.467 220.631 196.635 222.06 196.635 224.377C196.635 226.688 195.473 228.116 193.655 228.116C192.602 228.116 191.782 227.61 191.385 226.797H191.351V230.386H189.649V220.754H191.31V222.005H191.344C191.755 221.164 192.575 220.631 193.628 220.631ZM193.108 226.722C194.209 226.722 194.892 225.812 194.892 224.377C194.892 222.948 194.209 222.032 193.108 222.032C192.049 222.032 191.344 222.969 191.338 224.377C191.344 225.799 192.049 226.722 193.108 226.722Z" fill="#222222"/>
<path d="M142.553 246.049C142.392 246.049 142.241 246.024 142.163 245.985V245.194C142.26 245.219 142.402 245.233 142.553 245.233C143.081 245.233 143.427 245.014 143.706 244.496L141.299 238.954H142.236L144.126 243.52H144.204L146.05 238.954H146.963L144.804 243.983C144.135 245.546 143.589 246.049 142.553 246.049ZM151.787 241.61H150.571V243.031H151.66C152.3 243.031 152.607 242.797 152.607 242.309C152.607 241.859 152.319 241.61 151.787 241.61ZM151.728 243.715H150.571V245.312H151.88C152.495 245.312 152.827 245.033 152.827 244.521C152.827 243.979 152.47 243.715 151.728 243.715ZM149.731 246V240.922H151.904C152.856 240.922 153.437 241.415 153.437 242.221C153.437 242.738 153.071 243.217 152.602 243.314V243.354C153.242 243.441 153.662 243.905 153.662 244.54C153.662 245.438 152.998 246 151.919 246H149.731ZM156.313 245.365C157.114 245.365 157.729 244.804 157.729 244.071V243.656L156.372 243.739C155.688 243.783 155.298 244.086 155.298 244.564C155.298 245.048 155.703 245.365 156.313 245.365ZM156.123 246.088C155.112 246.088 154.433 245.478 154.433 244.564C154.433 243.695 155.102 243.148 156.274 243.08L157.729 242.997V242.572C157.729 241.952 157.319 241.581 156.616 241.581C155.962 241.581 155.552 241.889 155.444 242.387H154.624C154.682 241.508 155.434 240.834 156.635 240.834C157.827 240.834 158.579 241.479 158.579 242.489V246H157.773V245.126H157.754C157.451 245.707 156.806 246.088 156.123 246.088ZM163.955 242.484H163.115C162.969 241.996 162.553 241.581 161.836 241.581C160.952 241.581 160.371 242.328 160.371 243.461C160.371 244.623 160.962 245.341 161.845 245.341C162.519 245.341 162.964 245.009 163.125 244.447H163.965C163.799 245.409 162.983 246.088 161.841 246.088C160.429 246.088 159.507 245.077 159.507 243.461C159.507 241.879 160.425 240.834 161.831 240.834C163.056 240.834 163.803 241.62 163.955 242.484ZM168.257 243.759C168.154 245.16 167.817 246.044 166.748 246.044C166.601 246.044 166.504 246.015 166.445 245.99V245.224C166.489 245.238 166.582 245.263 166.704 245.263C167.207 245.263 167.397 244.672 167.461 243.739L167.656 240.922H170.981V246H170.141V241.62H168.413L168.257 243.759ZM174.223 241.571C173.427 241.571 172.871 242.182 172.817 243.026H175.576C175.556 242.177 175.024 241.571 174.223 241.571ZM175.556 244.545H176.391C176.245 245.434 175.385 246.088 174.277 246.088C172.822 246.088 171.938 245.077 171.938 243.48C171.938 241.903 172.837 240.834 174.238 240.834C175.61 240.834 176.455 241.83 176.455 243.368V243.69H172.812V243.739C172.812 244.711 173.384 245.351 174.297 245.351C174.941 245.351 175.415 245.023 175.556 244.545ZM179.121 243.324L181.562 246H180.469L178.276 243.559H178.237V246H177.397V240.922H178.237V243.168H178.276L180.444 240.922H181.494L179.121 243.324ZM187.173 247.343H186.382V246H182.27V240.922H183.11V245.302H185.522V240.922H186.362V245.302H187.173V247.343ZM188.774 246H187.934V240.922H188.774V244.701H188.813L191.352 240.922H192.192V246H191.352V242.221H191.313L188.774 246ZM195.21 243.495H196.181V241.62H195.21C194.551 241.62 194.131 241.981 194.131 242.592C194.131 243.119 194.555 243.495 195.21 243.495ZM196.181 246V244.193H195.283L193.994 246H193.022L194.438 244.037C193.72 243.832 193.286 243.305 193.286 242.606C193.286 241.562 194.038 240.922 195.205 240.922H197.021V246H196.181ZM203.564 246V241.62H201.108V246H200.268V240.922H204.409V246H203.564ZM207.71 246.088C206.303 246.088 205.356 245.077 205.356 243.461C205.356 241.84 206.303 240.834 207.71 240.834C209.111 240.834 210.058 241.84 210.058 243.461C210.058 245.077 209.111 246.088 207.71 246.088ZM207.71 245.341C208.608 245.341 209.194 244.657 209.194 243.461C209.194 242.265 208.608 241.581 207.71 241.581C206.811 241.581 206.22 242.265 206.22 243.461C206.22 244.657 206.811 245.341 207.71 245.341ZM213.891 246H213.052V240.922H214.082L215.888 244.877H215.927L217.744 240.922H218.735V246H217.89V242.396H217.856L216.216 245.854H215.566L213.926 242.396H213.891V246ZM221.606 245.365C222.407 245.365 223.022 244.804 223.022 244.071V243.656L221.665 243.739C220.981 243.783 220.591 244.086 220.591 244.564C220.591 245.048 220.996 245.365 221.606 245.365ZM221.416 246.088C220.405 246.088 219.726 245.478 219.726 244.564C219.726 243.695 220.395 243.148 221.567 243.08L223.022 242.997V242.572C223.022 241.952 222.612 241.581 221.909 241.581C221.255 241.581 220.844 241.889 220.737 242.387H219.917C219.975 241.508 220.727 240.834 221.928 240.834C223.12 240.834 223.872 241.479 223.872 242.489V246H223.066V245.126H223.047C222.744 245.707 222.099 246.088 221.416 246.088ZM228.662 240.922V241.62H227.021V246H226.181V241.62H224.541V240.922H228.662ZM231.391 241.571C230.595 241.571 230.039 242.182 229.985 243.026H232.744C232.724 242.177 232.192 241.571 231.391 241.571ZM232.724 244.545H233.559C233.413 245.434 232.553 246.088 231.445 246.088C229.99 246.088 229.106 245.077 229.106 243.48C229.106 241.903 230.005 240.834 231.406 240.834C232.778 240.834 233.623 241.83 233.623 243.368V243.69H229.98V243.739C229.98 244.711 230.552 245.351 231.465 245.351C232.109 245.351 232.583 245.023 232.724 244.545ZM235.405 246H234.565V240.922H235.595L237.402 244.877H237.441L239.258 240.922H240.249V246H239.404V242.396H239.37L237.729 245.854H237.08L235.439 242.396H235.405V246ZM243.12 245.365C243.921 245.365 244.536 244.804 244.536 244.071V243.656L243.178 243.739C242.495 243.783 242.104 244.086 242.104 244.564C242.104 245.048 242.51 245.365 243.12 245.365ZM242.929 246.088C241.919 246.088 241.24 245.478 241.24 244.564C241.24 243.695 241.909 243.148 243.081 243.08L244.536 242.997V242.572C244.536 241.952 244.126 241.581 243.423 241.581C242.768 241.581 242.358 241.889 242.251 242.387H241.43C241.489 241.508 242.241 240.834 243.442 240.834C244.634 240.834 245.385 241.479 245.385 242.489V246H244.58V245.126H244.56C244.258 245.707 243.613 246.088 242.929 246.088ZM250.176 240.922V241.62H248.535V246H247.695V241.62H246.054V240.922H250.176ZM251.802 246H250.962V240.922H251.802V244.701H251.841L254.38 240.922H255.219V246H254.38V242.221H254.341L251.802 246ZM258.135 243.324L260.576 246H259.482L257.29 243.559H257.251V246H256.411V240.922H257.251V243.168H257.29L259.458 240.922H260.508L258.135 243.324ZM263.227 241.571C262.431 241.571 261.875 242.182 261.821 243.026H264.58C264.56 242.177 264.028 241.571 263.227 241.571ZM264.56 244.545H265.395C265.249 245.434 264.389 246.088 263.281 246.088C261.826 246.088 260.942 245.077 260.942 243.48C260.942 241.903 261.841 240.834 263.242 240.834C264.614 240.834 265.459 241.83 265.459 243.368V243.69H261.816V243.739C261.816 244.711 262.387 245.351 263.301 245.351C263.945 245.351 264.419 245.023 264.56 244.545ZM272.324 246H271.484V243.808H271.411C271.137 244.042 270.732 244.203 270.18 244.203C268.965 244.203 268.325 243.466 268.325 242.382V240.922H269.165V242.372C269.165 243.036 269.521 243.461 270.205 243.461C270.835 243.461 271.25 243.227 271.484 242.963V240.922H272.324V246ZM275.561 241.571C274.765 241.571 274.209 242.182 274.155 243.026H276.914C276.894 242.177 276.362 241.571 275.561 241.571ZM276.894 244.545H277.729C277.583 245.434 276.723 246.088 275.615 246.088C274.16 246.088 273.276 245.077 273.276 243.48C273.276 241.903 274.175 240.834 275.576 240.834C276.948 240.834 277.793 241.83 277.793 243.368V243.69H274.15V243.739C274.15 244.711 274.721 245.351 275.635 245.351C276.279 245.351 276.753 245.023 276.894 244.545ZM281.206 240.834C282.5 240.834 283.379 241.869 283.379 243.461C283.379 245.053 282.505 246.088 281.225 246.088C280.498 246.088 279.912 245.731 279.609 245.175H279.59V247.694H278.74V240.922H279.546V241.781H279.565C279.878 241.21 280.469 240.834 281.206 240.834ZM281.04 245.341C281.943 245.341 282.51 244.613 282.51 243.461C282.51 242.313 281.943 241.581 281.04 241.581C280.171 241.581 279.585 242.333 279.585 243.461C279.585 244.594 280.171 245.341 281.04 245.341ZM286.362 241.571C285.566 241.571 285.01 242.182 284.956 243.026H287.715C287.695 242.177 287.163 241.571 286.362 241.571ZM287.695 244.545H288.53C288.384 245.434 287.524 246.088 286.416 246.088C284.961 246.088 284.077 245.077 284.077 243.48C284.077 241.903 284.975 240.834 286.377 240.834C287.749 240.834 288.594 241.83 288.594 243.368V243.69H284.951V243.739C284.951 244.711 285.522 245.351 286.435 245.351C287.08 245.351 287.553 245.023 287.695 244.545ZM291.23 246.088C290.117 246.088 289.311 245.541 289.223 244.682H290.083C290.18 245.126 290.6 245.385 291.23 245.385C291.968 245.385 292.378 245.033 292.378 244.54C292.378 243.969 291.997 243.71 291.23 243.71H290.469V243.017H291.23C291.875 243.017 292.207 242.772 292.207 242.274C292.207 241.85 291.904 241.542 291.25 241.542C290.649 241.542 290.229 241.801 290.161 242.206H289.336C289.443 241.366 290.176 240.834 291.25 240.834C292.407 240.834 293.037 241.391 293.037 242.206C293.037 242.724 292.705 243.183 292.197 243.3V243.339C292.866 243.485 293.213 243.915 293.213 244.501C293.213 245.448 292.422 246.088 291.23 246.088ZM299.604 245.302V241.62H297.7L297.544 243.759C297.5 244.389 297.368 244.94 297.129 245.263V245.302H299.604ZM296.523 247.343H295.732V245.302H296.157C296.528 245.058 296.709 244.423 296.758 243.739L296.953 240.922H300.449V245.302H301.255V247.343H300.464V246H296.523V247.343ZM304.072 241.61H302.856V243.031H303.945C304.585 243.031 304.892 242.797 304.892 242.309C304.892 241.859 304.604 241.61 304.072 241.61ZM304.013 243.715H302.856V245.312H304.165C304.78 245.312 305.112 245.033 305.112 244.521C305.112 243.979 304.756 243.715 304.013 243.715ZM302.016 246V240.922H304.189C305.141 240.922 305.722 241.415 305.722 242.221C305.722 242.738 305.356 243.217 304.887 243.314V243.354C305.527 243.441 305.947 243.905 305.947 244.54C305.947 245.438 305.283 246 304.204 246H302.016ZM308.598 245.365C309.399 245.365 310.014 244.804 310.014 244.071V243.656L308.657 243.739C307.973 243.783 307.583 244.086 307.583 244.564C307.583 245.048 307.988 245.365 308.598 245.365ZM308.408 246.088C307.397 246.088 306.719 245.478 306.719 244.564C306.719 243.695 307.387 243.148 308.559 243.08L310.014 242.997V242.572C310.014 241.952 309.604 241.581 308.901 241.581C308.247 241.581 307.837 241.889 307.729 242.387H306.909C306.968 241.508 307.719 240.834 308.921 240.834C310.112 240.834 310.864 241.479 310.864 242.489V246H310.058V245.126H310.039C309.736 245.707 309.092 246.088 308.408 246.088ZM145.595 258H144.756V255.808H144.682C144.409 256.042 144.004 256.203 143.452 256.203C142.236 256.203 141.596 255.466 141.596 254.382V252.922H142.436V254.372C142.436 255.036 142.793 255.461 143.476 255.461C144.106 255.461 144.521 255.227 144.756 254.963V252.922H145.595V258ZM148.471 257.365C149.272 257.365 149.887 256.804 149.887 256.071V255.656L148.53 255.739C147.846 255.783 147.456 256.086 147.456 256.564C147.456 257.048 147.861 257.365 148.471 257.365ZM148.281 258.088C147.27 258.088 146.592 257.478 146.592 256.564C146.592 255.695 147.26 255.148 148.432 255.08L149.887 254.997V254.572C149.887 253.952 149.477 253.581 148.774 253.581C148.12 253.581 147.71 253.889 147.602 254.387H146.782C146.841 253.508 147.593 252.834 148.794 252.834C149.985 252.834 150.737 253.479 150.737 254.489V258H149.931V257.126H149.912C149.609 257.707 148.965 258.088 148.281 258.088ZM156.113 254.484H155.273C155.127 253.996 154.712 253.581 153.994 253.581C153.11 253.581 152.529 254.328 152.529 255.461C152.529 256.623 153.12 257.341 154.004 257.341C154.677 257.341 155.122 257.009 155.283 256.447H156.123C155.957 257.409 155.141 258.088 153.999 258.088C152.588 258.088 151.665 257.077 151.665 255.461C151.665 253.879 152.583 252.834 153.989 252.834C155.215 252.834 155.962 253.62 156.113 254.484ZM158.686 257.365C159.487 257.365 160.102 256.804 160.102 256.071V255.656L158.745 255.739C158.061 255.783 157.671 256.086 157.671 256.564C157.671 257.048 158.076 257.365 158.686 257.365ZM158.496 258.088C157.485 258.088 156.806 257.478 156.806 256.564C156.806 255.695 157.475 255.148 158.647 255.08L160.102 254.997V254.572C160.102 253.952 159.692 253.581 158.989 253.581C158.335 253.581 157.925 253.889 157.817 254.387H156.997C157.055 253.508 157.807 252.834 159.009 252.834C160.2 252.834 160.952 253.479 160.952 254.489V258H160.146V257.126H160.127C159.824 257.707 159.179 258.088 158.496 258.088ZM162.798 258.049C162.485 258.049 162.241 257.805 162.241 257.492C162.241 257.18 162.485 256.936 162.798 256.936C163.11 256.936 163.354 257.18 163.354 257.492C163.354 257.805 163.11 258.049 162.798 258.049ZM171.987 258H171.108V254.792H167.241V258H166.362V250.954H167.241V254.001H171.108V250.954H171.987V258ZM175.356 253.571C174.56 253.571 174.004 254.182 173.95 255.026H176.709C176.689 254.177 176.157 253.571 175.356 253.571ZM176.689 256.545H177.524C177.378 257.434 176.518 258.088 175.41 258.088C173.955 258.088 173.071 257.077 173.071 255.48C173.071 253.903 173.969 252.834 175.371 252.834C176.743 252.834 177.588 253.83 177.588 255.368V255.69H173.945V255.739C173.945 256.711 174.516 257.351 175.429 257.351C176.074 257.351 176.548 257.023 176.689 256.545ZM182.275 258.088C181.162 258.088 180.356 257.541 180.268 256.682H181.128C181.225 257.126 181.645 257.385 182.275 257.385C183.012 257.385 183.423 257.033 183.423 256.54C183.423 255.969 183.042 255.71 182.275 255.71H181.513V255.017H182.275C182.92 255.017 183.252 254.772 183.252 254.274C183.252 253.85 182.949 253.542 182.295 253.542C181.694 253.542 181.274 253.801 181.206 254.206H180.381C180.488 253.366 181.22 252.834 182.295 252.834C183.452 252.834 184.082 253.391 184.082 254.206C184.082 254.724 183.75 255.183 183.242 255.3V255.339C183.911 255.485 184.258 255.915 184.258 256.501C184.258 257.448 183.467 258.088 182.275 258.088ZM186.909 257.365C187.71 257.365 188.325 256.804 188.325 256.071V255.656L186.968 255.739C186.284 255.783 185.893 256.086 185.893 256.564C185.893 257.048 186.299 257.365 186.909 257.365ZM186.719 258.088C185.708 258.088 185.029 257.478 185.029 256.564C185.029 255.695 185.698 255.148 186.87 255.08L188.325 254.997V254.572C188.325 253.952 187.915 253.581 187.212 253.581C186.557 253.581 186.147 253.889 186.04 254.387H185.219C185.278 253.508 186.03 252.834 187.231 252.834C188.423 252.834 189.175 253.479 189.175 254.489V258H188.369V257.126H188.349C188.047 257.707 187.402 258.088 186.719 258.088ZM192.524 258.088C190.967 258.088 190.146 257.043 190.146 255.026C190.146 252.224 190.888 251.057 192.861 250.983L193.237 250.969C193.725 250.944 194.272 250.847 194.56 250.695V251.438C194.399 251.584 193.862 251.711 193.276 251.735L192.9 251.75C191.489 251.804 191.069 252.424 190.864 253.942H190.903C191.235 253.342 191.87 253.029 192.651 253.029C194.023 253.029 194.897 253.996 194.897 255.51C194.897 257.106 193.994 258.088 192.524 258.088ZM192.524 257.336C193.476 257.336 194.028 256.677 194.028 255.51C194.028 254.401 193.476 253.771 192.524 253.771C191.567 253.771 191.015 254.401 191.015 255.51C191.015 256.677 191.567 257.336 192.524 257.336ZM196.123 259.899C196.02 259.899 195.849 259.89 195.757 259.87V259.157C195.849 259.177 195.981 259.182 196.089 259.182C196.562 259.182 196.826 258.952 197.021 258.361L197.138 258.005L195.263 252.922H196.172L197.578 257.15H197.593L198.999 252.922H199.892L197.895 258.356C197.461 259.543 197.041 259.899 196.123 259.899ZM203.823 257.302V253.62H201.919L201.762 255.759C201.719 256.389 201.587 256.94 201.347 257.263V257.302H203.823ZM200.742 259.343H199.951V257.302H200.376C200.747 257.058 200.927 256.423 200.976 255.739L201.172 252.922H204.668V257.302H205.473V259.343H204.682V258H200.742V259.343ZM208.022 255.241H207.075V257.302H208.022C208.681 257.302 209.106 256.892 209.106 256.271C209.106 255.646 208.677 255.241 208.022 255.241ZM206.235 258V252.922H207.075V254.543H208.037C209.199 254.543 209.946 255.212 209.946 256.271C209.946 257.331 209.199 258 208.037 258H206.235ZM214.15 252.922V253.62H212.51V258H211.67V253.62H210.029V252.922H214.15ZM216.88 253.571C216.084 253.571 215.527 254.182 215.473 255.026H218.232C218.213 254.177 217.68 253.571 216.88 253.571ZM218.213 256.545H219.048C218.901 257.434 218.042 258.088 216.933 258.088C215.478 258.088 214.594 257.077 214.594 255.48C214.594 253.903 215.493 252.834 216.894 252.834C218.266 252.834 219.111 253.83 219.111 255.368V255.69H215.469V255.739C215.469 256.711 216.04 257.351 216.953 257.351C217.597 257.351 218.071 257.023 218.213 256.545Z" fill="#222222"/>
</g>
<g filter="url(#filter3_bdd_1585_16002)">
<rect x="12" y="91" width="394" height="96" rx="8" fill="url(#paint1_linear_1585_16002)" shape-rendering="crispEdges"/>
<path d="M56.391 113.038C57.1663 110.955 60.1115 110.955 60.8868 113.038L64.3686 122.389C64.6129 123.045 65.1316 123.562 65.7886 123.804L75.1563 127.249C77.2507 128.019 77.2507 130.981 75.1564 131.751L65.7886 135.196C65.1316 135.438 64.6129 135.955 64.3686 136.611L60.8868 145.962C60.1115 148.045 57.1663 148.045 56.391 145.962L52.9092 136.611C52.6649 135.955 52.1462 135.438 51.4892 135.196L42.1214 131.751C40.0271 130.981 40.0271 128.019 42.1214 127.249L51.4892 123.804C52.1462 123.562 52.6649 123.045 52.9092 122.389L56.391 113.038Z" fill="#3579F8"/>
<path d="M105.781 126H103.516V116H103.447L99.375 125.883H97.6562L93.584 116H93.5156V126H91.2402V111.908H94.1602L98.4766 122.543H98.5547L102.871 111.908H105.781V126ZM109.18 129.848C109.043 129.848 108.35 129.838 108.223 129.809V127.885C108.35 127.914 108.779 127.924 108.926 127.924C109.932 127.924 110.449 127.543 110.723 126.586C110.723 126.557 110.869 126.039 110.859 126.01L107.178 115.648H109.834L112.275 123.93H112.314L114.756 115.648H117.314L113.574 126.41C112.686 128.979 111.543 129.848 109.18 129.848ZM124.932 111.674C129.033 111.674 131.611 114.477 131.611 118.959C131.611 123.441 129.033 126.234 124.932 126.234C120.82 126.234 118.242 123.441 118.242 118.959C118.242 114.477 120.82 111.674 124.932 111.674ZM124.932 113.822C122.412 113.822 120.82 115.814 120.82 118.959C120.82 122.094 122.412 124.086 124.932 124.086C127.441 124.086 129.043 122.094 129.043 118.959C129.043 115.814 127.441 113.822 124.932 113.822ZM133.447 126V111.908H135.879V126H133.447ZM138.008 126V115.648H140.439V126H138.008ZM139.219 114.291C138.467 114.291 137.871 113.705 137.871 112.973C137.871 112.23 138.467 111.645 139.219 111.645C139.98 111.645 140.576 112.23 140.576 112.973C140.576 113.705 139.98 114.291 139.219 114.291ZM142.48 126V115.648H144.814V117.445H144.863C145.312 116.244 146.406 115.453 147.812 115.453C149.277 115.453 150.322 116.205 150.703 117.533H150.762C151.26 116.254 152.49 115.453 153.984 115.453C156.025 115.453 157.363 116.83 157.363 118.9V126H154.932V119.496C154.932 118.227 154.268 117.504 153.076 117.504C151.904 117.504 151.104 118.363 151.104 119.604V126H148.74V119.369C148.74 118.217 148.037 117.504 146.904 117.504C145.732 117.504 144.912 118.412 144.912 119.662V126H142.48ZM165 115.473C167.627 115.473 169.297 117.514 169.297 120.824C169.297 124.125 167.637 126.166 165.039 126.166C163.535 126.166 162.363 125.443 161.797 124.281H161.748V129.408H159.316V115.648H161.689V117.436H161.738C162.324 116.234 163.496 115.473 165 115.473ZM164.258 124.174C165.83 124.174 166.807 122.875 166.807 120.824C166.807 118.783 165.83 117.475 164.258 117.475C162.744 117.475 161.738 118.812 161.729 120.824C161.738 122.855 162.744 124.174 164.258 124.174Z" fill="#333333"/>
<path d="M98.3193 150H97.0889V145.57H96.9795C96.4258 146.008 95.5986 146.336 94.6211 146.336C92.1328 146.336 90.8545 144.729 90.8545 142.713V140.136H92.085V142.72C92.085 144.244 92.9805 145.201 94.6211 145.201C95.6875 145.201 96.5625 144.798 97.0889 144.271V140.136H98.3193V150ZM103.043 143.8C101.929 143.8 101.149 144.654 101.074 145.837H104.937C104.909 144.647 104.164 143.8 103.043 143.8ZM104.909 147.963H106.078C105.873 149.207 104.67 150.123 103.118 150.123C101.081 150.123 99.8438 148.708 99.8438 146.473C99.8438 144.265 101.102 142.768 103.063 142.768C104.984 142.768 106.167 144.162 106.167 146.315V146.767H101.067V146.835C101.067 148.195 101.867 149.091 103.146 149.091C104.048 149.091 104.711 148.633 104.909 147.963ZM110.945 142.768C112.757 142.768 113.987 144.217 113.987 146.445C113.987 148.674 112.764 150.123 110.973 150.123C109.954 150.123 109.134 149.624 108.71 148.845H108.683V152.372H107.493V142.891H108.621V144.094H108.648C109.086 143.294 109.913 142.768 110.945 142.768ZM110.713 149.077C111.978 149.077 112.771 148.059 112.771 146.445C112.771 144.839 111.978 143.813 110.713 143.813C109.496 143.813 108.676 144.866 108.676 146.445C108.676 148.031 109.496 149.077 110.713 149.077ZM118.164 143.8C117.05 143.8 116.271 144.654 116.195 145.837H120.058C120.03 144.647 119.285 143.8 118.164 143.8ZM120.03 147.963H121.199C120.994 149.207 119.791 150.123 118.239 150.123C116.202 150.123 114.965 148.708 114.965 146.473C114.965 144.265 116.223 142.768 118.185 142.768C120.105 142.768 121.288 144.162 121.288 146.315V146.767H116.188V146.835C116.188 148.195 116.988 149.091 118.267 149.091C119.169 149.091 119.832 148.633 120.03 147.963ZM124.979 150.123C123.421 150.123 122.293 149.357 122.17 148.154H123.373C123.51 148.776 124.098 149.139 124.979 149.139C126.012 149.139 126.586 148.646 126.586 147.956C126.586 147.156 126.053 146.794 124.979 146.794H123.913V145.823H124.979C125.882 145.823 126.347 145.481 126.347 144.784C126.347 144.189 125.923 143.759 125.007 143.759C124.166 143.759 123.578 144.121 123.482 144.688H122.327C122.478 143.513 123.503 142.768 125.007 142.768C126.627 142.768 127.509 143.547 127.509 144.688C127.509 145.413 127.044 146.056 126.333 146.22V146.274C127.27 146.479 127.755 147.081 127.755 147.901C127.755 149.228 126.647 150.123 124.979 150.123ZM136.703 149.022V143.868H134.037L133.818 146.862C133.757 147.744 133.572 148.517 133.237 148.968V149.022H136.703ZM132.39 151.88H131.282V149.022H131.877C132.396 148.681 132.649 147.792 132.718 146.835L132.991 142.891H137.886V149.022H139.014V151.88H137.906V150H132.39V151.88ZM142.958 143.854H141.256V145.844H142.78C143.676 145.844 144.106 145.516 144.106 144.832C144.106 144.203 143.703 143.854 142.958 143.854ZM142.876 146.801H141.256V149.036H143.088C143.949 149.036 144.414 148.646 144.414 147.929C144.414 147.17 143.915 146.801 142.876 146.801ZM140.08 150V142.891H143.122C144.455 142.891 145.269 143.581 145.269 144.709C145.269 145.434 144.756 146.104 144.1 146.24V146.295C144.995 146.418 145.583 147.067 145.583 147.956C145.583 149.214 144.653 150 143.143 150H140.08ZM149.801 143.8C148.687 143.8 147.907 144.654 147.832 145.837H151.694C151.667 144.647 150.922 143.8 149.801 143.8ZM151.667 147.963H152.836C152.631 149.207 151.428 150.123 149.876 150.123C147.839 150.123 146.602 148.708 146.602 146.473C146.602 144.265 147.859 142.768 149.821 142.768C151.742 142.768 152.925 144.162 152.925 146.315V146.767H147.825V146.835C147.825 148.195 148.625 149.091 149.903 149.091C150.806 149.091 151.469 148.633 151.667 147.963ZM161.798 150V146.801H158.291V150H157.115V142.891H158.291V145.823H161.798V142.891H162.974V150H161.798ZM167.506 143.8C166.392 143.8 165.612 144.654 165.537 145.837H169.399C169.372 144.647 168.627 143.8 167.506 143.8ZM169.372 147.963H170.541C170.336 149.207 169.133 150.123 167.581 150.123C165.544 150.123 164.307 148.708 164.307 146.473C164.307 144.265 165.564 142.768 167.526 142.768C169.447 142.768 170.63 144.162 170.63 146.315V146.767H165.53V146.835C165.53 148.195 166.33 149.091 167.608 149.091C168.511 149.091 169.174 148.633 169.372 147.963ZM176.529 149.022V143.868H173.863L173.645 146.862C173.583 147.744 173.398 148.517 173.063 148.968V149.022H176.529ZM172.216 151.88H171.108V149.022H171.703C172.223 148.681 172.476 147.792 172.544 146.835L172.817 142.891H177.712V149.022H178.84V151.88H177.732V150H172.216V151.88ZM182.764 143.8C181.649 143.8 180.87 144.654 180.795 145.837H184.657C184.63 144.647 183.885 143.8 182.764 143.8ZM184.63 147.963H185.799C185.594 149.207 184.391 150.123 182.839 150.123C180.802 150.123 179.564 148.708 179.564 146.473C179.564 144.265 180.822 142.768 182.784 142.768C184.705 142.768 185.888 144.162 185.888 146.315V146.767H180.788V146.835C180.788 148.195 181.588 149.091 182.866 149.091C183.769 149.091 184.432 148.633 184.63 147.963ZM188.834 146.862C188.69 148.824 188.219 150.062 186.722 150.062C186.517 150.062 186.38 150.021 186.298 149.986V148.913C186.359 148.934 186.489 148.968 186.66 148.968C187.364 148.968 187.631 148.141 187.72 146.835L187.993 142.891H192.648V150H191.473V143.868H189.053L188.834 146.862ZM195.506 150H194.33V142.891H195.506V148.182H195.561L199.115 142.891H200.291V150H199.115V144.709H199.061L195.506 150ZM205.425 152.659C205.281 152.659 205.042 152.646 204.912 152.618V151.62C205.042 151.647 205.227 151.654 205.377 151.654C206.04 151.654 206.409 151.333 206.683 150.506L206.847 150.007L204.222 142.891H205.493L207.462 148.811H207.482L209.451 142.891H210.702L207.906 150.499C207.298 152.16 206.71 152.659 205.425 152.659ZM218.55 150H214.824V140.136H218.563C220.252 140.136 221.394 141.12 221.394 142.597C221.394 143.622 220.642 144.579 219.691 144.75V144.805C221.031 144.976 221.893 145.919 221.893 147.231C221.893 148.968 220.648 150 218.55 150ZM216.055 141.223V144.388H217.9C219.356 144.388 220.149 143.807 220.149 142.74C220.149 141.763 219.479 141.223 218.283 141.223H216.055ZM216.055 148.913H218.365C219.849 148.913 220.628 148.312 220.628 147.17C220.628 146.028 219.821 145.447 218.249 145.447H216.055V148.913ZM225.584 149.111C226.705 149.111 227.566 148.325 227.566 147.3V146.719L225.666 146.835C224.709 146.896 224.162 147.32 224.162 147.99C224.162 148.667 224.729 149.111 225.584 149.111ZM225.317 150.123C223.902 150.123 222.952 149.269 222.952 147.99C222.952 146.773 223.889 146.008 225.529 145.912L227.566 145.796V145.201C227.566 144.333 226.992 143.813 226.008 143.813C225.092 143.813 224.518 144.244 224.367 144.941H223.219C223.301 143.711 224.354 142.768 226.035 142.768C227.703 142.768 228.756 143.67 228.756 145.085V150H227.628V148.776H227.601C227.177 149.59 226.274 150.123 225.317 150.123ZM236.282 145.078H235.106C234.901 144.395 234.32 143.813 233.315 143.813C232.078 143.813 231.265 144.859 231.265 146.445C231.265 148.072 232.092 149.077 233.329 149.077C234.272 149.077 234.895 148.612 235.12 147.826H236.296C236.063 149.173 234.922 150.123 233.322 150.123C231.347 150.123 230.055 148.708 230.055 146.445C230.055 144.23 231.34 142.768 233.309 142.768C235.024 142.768 236.07 143.868 236.282 145.078ZM242.776 150.123C241.218 150.123 240.09 149.357 239.967 148.154H241.17C241.307 148.776 241.895 149.139 242.776 149.139C243.809 149.139 244.383 148.646 244.383 147.956C244.383 147.156 243.85 146.794 242.776 146.794H241.71V145.823H242.776C243.679 145.823 244.144 145.481 244.144 144.784C244.144 144.189 243.72 143.759 242.804 143.759C241.963 143.759 241.375 144.121 241.279 144.688H240.124C240.274 143.513 241.3 142.768 242.804 142.768C244.424 142.768 245.306 143.547 245.306 144.688C245.306 145.413 244.841 146.056 244.13 146.22V146.274C245.066 146.479 245.552 147.081 245.552 147.901C245.552 149.228 244.444 150.123 242.776 150.123ZM249.264 149.111C250.385 149.111 251.246 148.325 251.246 147.3V146.719L249.346 146.835C248.389 146.896 247.842 147.32 247.842 147.99C247.842 148.667 248.409 149.111 249.264 149.111ZM248.997 150.123C247.582 150.123 246.632 149.269 246.632 147.99C246.632 146.773 247.568 146.008 249.209 145.912L251.246 145.796V145.201C251.246 144.333 250.672 143.813 249.688 143.813C248.771 143.813 248.197 144.244 248.047 144.941H246.898C246.98 143.711 248.033 142.768 249.715 142.768C251.383 142.768 252.436 143.67 252.436 145.085V150H251.308V148.776H251.28C250.856 149.59 249.954 150.123 248.997 150.123ZM256.489 146.254L259.907 150H258.376L255.307 146.582H255.252V150H254.076V142.891H255.252V146.035H255.307L258.342 142.891H259.812L256.489 146.254ZM262.73 146.862C262.587 148.824 262.115 150.062 260.618 150.062C260.413 150.062 260.276 150.021 260.194 149.986V148.913C260.256 148.934 260.386 148.968 260.557 148.968C261.261 148.968 261.527 148.141 261.616 146.835L261.89 142.891H266.545V150H265.369V143.868H262.949L262.73 146.862ZM273.9 150.123C272.014 150.123 270.811 148.872 270.681 146.801H269.402V150H268.227V142.891H269.402V145.823H270.708C270.92 143.909 272.096 142.768 273.9 142.768C275.896 142.768 277.127 144.155 277.127 146.445C277.127 148.729 275.896 150.123 273.9 150.123ZM273.9 149.07C275.186 149.07 275.91 148.113 275.91 146.445C275.91 144.771 275.186 143.82 273.9 143.82C272.615 143.82 271.891 144.771 271.891 146.445C271.891 148.113 272.615 149.07 273.9 149.07ZM283.806 150H282.63V146.931H282.527C282.145 147.259 281.577 147.484 280.805 147.484C279.103 147.484 278.207 146.452 278.207 144.935V142.891H279.383V144.921C279.383 145.851 279.882 146.445 280.839 146.445C281.721 146.445 282.302 146.117 282.63 145.748V142.891H283.806V150ZM286.656 150H285.48V142.891H286.656V148.182H286.711L290.266 142.891H291.441V150H290.266V144.709H290.211L286.656 150ZM298.312 142.891V143.868H296.015V150H294.839V143.868H292.542V142.891H298.312ZM302.133 143.8C301.019 143.8 300.239 144.654 300.164 145.837H304.026C303.999 144.647 303.254 143.8 302.133 143.8ZM303.999 147.963H305.168C304.963 149.207 303.76 150.123 302.208 150.123C300.171 150.123 298.934 148.708 298.934 146.473C298.934 144.265 300.191 142.768 302.153 142.768C304.074 142.768 305.257 144.162 305.257 146.315V146.767H300.157V146.835C300.157 148.195 300.957 149.091 302.235 149.091C303.138 149.091 303.801 148.633 303.999 147.963ZM308.203 146.862C308.06 148.824 307.588 150.062 306.091 150.062C305.886 150.062 305.749 150.021 305.667 149.986V148.913C305.729 148.934 305.858 148.968 306.029 148.968C306.733 148.968 307 148.141 307.089 146.835L307.362 142.891H312.018V150H310.842V143.868H308.422L308.203 146.862ZM316.201 146.138H314.875V149.022H316.201C317.124 149.022 317.719 148.448 317.719 147.58C317.719 146.705 317.117 146.138 316.201 146.138ZM313.699 150V142.891H314.875V145.16H316.222C317.849 145.16 318.895 146.097 318.895 147.58C318.895 149.063 317.849 150 316.222 150H313.699ZM324.876 150V146.801H321.369V150H320.193V142.891H321.369V145.823H324.876V142.891H326.052V150H324.876ZM333.811 150V142.891H334.986V150H333.811ZM330.229 146.138H328.902V149.022H330.229C331.151 149.022 331.746 148.448 331.746 147.58C331.746 146.705 331.145 146.138 330.229 146.138ZM327.727 150V142.891H328.902V145.16H330.249C331.876 145.16 332.922 146.097 332.922 147.58C332.922 149.063 331.876 150 330.249 150H327.727ZM337.83 150H336.654V142.891H337.83V148.182H337.885L341.439 142.891H342.615V150H341.439V144.709H341.385L337.83 150ZM337.563 139.814H338.438C338.438 140.607 338.951 141.229 339.765 141.229C340.578 141.229 341.091 140.607 341.091 139.814H341.966C341.966 141.072 341.07 141.934 339.765 141.934C338.459 141.934 337.563 141.072 337.563 139.814ZM347.893 147.833C348.118 148.619 348.747 149.077 349.684 149.077C350.818 149.077 351.659 148.257 351.734 146.794H348.515V145.823H351.7C351.55 144.552 350.75 143.813 349.697 143.813C348.692 143.813 348.091 144.381 347.906 145.078H346.73C346.929 143.861 347.988 142.768 349.704 142.768C351.666 142.768 352.958 144.23 352.958 146.445C352.958 148.708 351.666 150.123 349.69 150.123C348.091 150.123 346.956 149.18 346.717 147.833H347.893ZM359.22 142.891V143.868H356.923V150H355.747V143.868H353.45V142.891H359.22ZM362.398 149.111C363.52 149.111 364.381 148.325 364.381 147.3V146.719L362.48 146.835C361.523 146.896 360.977 147.32 360.977 147.99C360.977 148.667 361.544 149.111 362.398 149.111ZM362.132 150.123C360.717 150.123 359.767 149.269 359.767 147.99C359.767 146.773 360.703 146.008 362.344 145.912L364.381 145.796V145.201C364.381 144.333 363.807 143.813 362.822 143.813C361.906 143.813 361.332 144.244 361.182 144.941H360.033C360.115 143.711 361.168 142.768 362.85 142.768C364.518 142.768 365.57 143.67 365.57 145.085V150H364.442V148.776H364.415C363.991 149.59 363.089 150.123 362.132 150.123ZM371.825 150V143.868H368.387V150H367.211V142.891H373.008V150H371.825ZM95.1885 156.972C97.9844 156.972 99.7344 158.94 99.7344 162.071C99.7344 165.202 97.9844 167.164 95.1885 167.164C92.3926 167.164 90.6426 165.202 90.6426 162.071C90.6426 158.94 92.3926 156.972 95.1885 156.972ZM95.1885 158.106C93.1719 158.106 91.9072 159.638 91.9072 162.071C91.9072 164.498 93.1719 166.029 95.1885 166.029C97.2051 166.029 98.4697 164.498 98.4697 162.071C98.4697 159.638 97.2051 158.106 95.1885 158.106ZM111.123 167H109.975V159.398H109.927L106.782 166.932H105.743L102.599 159.398H102.551V167H101.402V157.136H102.831L106.235 165.366H106.29L109.694 157.136H111.123V167ZM122.895 167H121.746V159.398H121.698L118.554 166.932H117.515L114.37 159.398H114.322V167H113.174V157.136H114.603L118.007 165.366H118.062L121.466 157.136H122.895V167ZM129.108 156.972C131.904 156.972 133.654 158.94 133.654 162.071C133.654 165.202 131.904 167.164 129.108 167.164C126.312 167.164 124.562 165.202 124.562 162.071C124.562 158.94 126.312 156.972 129.108 156.972ZM129.108 158.106C127.092 158.106 125.827 159.638 125.827 162.071C125.827 164.498 127.092 166.029 129.108 166.029C131.125 166.029 132.39 164.498 132.39 162.071C132.39 159.638 131.125 158.106 129.108 158.106ZM135.049 167.068C134.611 167.068 134.27 166.727 134.27 166.289C134.27 165.852 134.611 165.51 135.049 165.51C135.486 165.51 135.828 165.852 135.828 166.289C135.828 166.727 135.486 167.068 135.049 167.068ZM147.771 167H146.554V158.257H141.276V167H140.039V157.136H147.771V167ZM152.59 167.123C150.621 167.123 149.295 165.708 149.295 163.445C149.295 161.176 150.621 159.768 152.59 159.768C154.552 159.768 155.878 161.176 155.878 163.445C155.878 165.708 154.552 167.123 152.59 167.123ZM152.59 166.077C153.848 166.077 154.668 165.12 154.668 163.445C154.668 161.771 153.848 160.813 152.59 160.813C151.332 160.813 150.505 161.771 150.505 163.445C150.505 165.12 151.332 166.077 152.59 166.077ZM161.777 166.022V160.868H159.111L158.893 163.862C158.831 164.744 158.646 165.517 158.312 165.968V166.022H161.777ZM157.464 168.88H156.356V166.022H156.951C157.471 165.681 157.724 164.792 157.792 163.835L158.065 159.891H162.96V166.022H164.088V168.88H162.98V167H157.464V168.88ZM169.728 160.868H166.33V167H165.154V159.891H169.728V160.868ZM173.699 167.123C171.73 167.123 170.404 165.708 170.404 163.445C170.404 161.176 171.73 159.768 173.699 159.768C175.661 159.768 176.987 161.176 176.987 163.445C176.987 165.708 175.661 167.123 173.699 167.123ZM173.699 166.077C174.957 166.077 175.777 165.12 175.777 163.445C175.777 161.771 174.957 160.813 173.699 160.813C172.441 160.813 171.614 161.771 171.614 163.445C171.614 165.12 172.441 166.077 173.699 166.077ZM183.235 159.891V160.868H180.938V167H179.763V160.868H177.466V159.891H183.235ZM187.152 167.123C185.184 167.123 183.857 165.708 183.857 163.445C183.857 161.176 185.184 159.768 187.152 159.768C189.114 159.768 190.44 161.176 190.44 163.445C190.44 165.708 189.114 167.123 187.152 167.123ZM187.152 166.077C188.41 166.077 189.23 165.12 189.23 163.445C189.23 161.771 188.41 160.813 187.152 160.813C185.895 160.813 185.067 161.771 185.067 163.445C185.067 165.12 185.895 166.077 187.152 166.077ZM194.638 160.854H192.936V162.844H194.46C195.355 162.844 195.786 162.516 195.786 161.832C195.786 161.203 195.383 160.854 194.638 160.854ZM194.556 163.801H192.936V166.036H194.768C195.629 166.036 196.094 165.646 196.094 164.929C196.094 164.17 195.595 163.801 194.556 163.801ZM191.76 167V159.891H194.802C196.135 159.891 196.948 160.581 196.948 161.709C196.948 162.434 196.436 163.104 195.779 163.24V163.295C196.675 163.418 197.263 164.067 197.263 164.956C197.263 166.214 196.333 167 194.822 167H191.76ZM201.125 163.138H199.799V166.022H201.125C202.048 166.022 202.643 165.448 202.643 164.58C202.643 163.705 202.041 163.138 201.125 163.138ZM198.623 167V159.891H199.799V162.16H201.146C202.772 162.16 203.818 163.097 203.818 164.58C203.818 166.063 202.772 167 201.146 167H198.623ZM209.704 159.891V160.868H207.407V167H206.231V160.868H203.935V159.891H209.704ZM213.525 160.8C212.411 160.8 211.632 161.654 211.557 162.837H215.419C215.392 161.647 214.646 160.8 213.525 160.8ZM215.392 164.963H216.561C216.355 166.207 215.152 167.123 213.601 167.123C211.563 167.123 210.326 165.708 210.326 163.473C210.326 161.265 211.584 159.768 213.546 159.768C215.467 159.768 216.649 161.162 216.649 163.315V163.767H211.55V163.835C211.55 165.195 212.35 166.091 213.628 166.091C214.53 166.091 215.193 165.633 215.392 164.963ZM223.854 162.078H222.679C222.474 161.395 221.893 160.813 220.888 160.813C219.65 160.813 218.837 161.859 218.837 163.445C218.837 165.072 219.664 166.077 220.901 166.077C221.845 166.077 222.467 165.612 222.692 164.826H223.868C223.636 166.173 222.494 167.123 220.895 167.123C218.919 167.123 217.627 165.708 217.627 163.445C217.627 161.23 218.912 159.768 220.881 159.768C222.597 159.768 223.643 160.868 223.854 162.078ZM227.607 163.138H226.281V166.022H227.607C228.53 166.022 229.125 165.448 229.125 164.58C229.125 163.705 228.523 163.138 227.607 163.138ZM225.105 167V159.891H226.281V162.16H227.628C229.255 162.16 230.301 163.097 230.301 164.58C230.301 166.063 229.255 167 227.628 167H225.105ZM237.349 160.854H235.646V162.844H237.171C238.066 162.844 238.497 162.516 238.497 161.832C238.497 161.203 238.094 160.854 237.349 160.854ZM237.267 163.801H235.646V166.036H237.479C238.34 166.036 238.805 165.646 238.805 164.929C238.805 164.17 238.306 163.801 237.267 163.801ZM234.471 167V159.891H237.513C238.846 159.891 239.659 160.581 239.659 161.709C239.659 162.434 239.146 163.104 238.49 163.24V163.295C239.386 163.418 239.974 164.067 239.974 164.956C239.974 166.214 239.044 167 237.533 167H234.471ZM242.51 167H241.334V159.891H242.776L245.306 165.428H245.36L247.903 159.891H249.291V167H248.108V161.955H248.061L245.764 166.795H244.854L242.558 161.955H242.51V167ZM253.816 160.8C252.702 160.8 251.923 161.654 251.848 162.837H255.71C255.683 161.647 254.938 160.8 253.816 160.8ZM255.683 164.963H256.852C256.646 166.207 255.443 167.123 253.892 167.123C251.854 167.123 250.617 165.708 250.617 163.473C250.617 161.265 251.875 159.768 253.837 159.768C255.758 159.768 256.94 161.162 256.94 163.315V163.767H251.841V163.835C251.841 165.195 252.641 166.091 253.919 166.091C254.821 166.091 255.484 165.633 255.683 164.963ZM264.146 162.078H262.97C262.765 161.395 262.184 160.813 261.179 160.813C259.941 160.813 259.128 161.859 259.128 163.445C259.128 165.072 259.955 166.077 261.192 166.077C262.136 166.077 262.758 165.612 262.983 164.826H264.159C263.927 166.173 262.785 167.123 261.186 167.123C259.21 167.123 257.918 165.708 257.918 163.445C257.918 161.23 259.203 159.768 261.172 159.768C262.888 159.768 263.934 160.868 264.146 162.078ZM270.462 159.891V160.868H268.165V167H266.989V160.868H264.692V159.891H270.462ZM274.283 160.8C273.169 160.8 272.39 161.654 272.314 162.837H276.177C276.149 161.647 275.404 160.8 274.283 160.8ZM276.149 164.963H277.318C277.113 166.207 275.91 167.123 274.358 167.123C272.321 167.123 271.084 165.708 271.084 163.473C271.084 161.265 272.342 159.768 274.304 159.768C276.225 159.768 277.407 161.162 277.407 163.315V163.767H272.308V163.835C272.308 165.195 273.107 166.091 274.386 166.091C275.288 166.091 275.951 165.633 276.149 164.963ZM287.483 162.078H286.308C286.103 161.395 285.521 160.813 284.517 160.813C283.279 160.813 282.466 161.859 282.466 163.445C282.466 165.072 283.293 166.077 284.53 166.077C285.474 166.077 286.096 165.612 286.321 164.826H287.497C287.265 166.173 286.123 167.123 284.523 167.123C282.548 167.123 281.256 165.708 281.256 163.445C281.256 161.23 282.541 159.768 284.51 159.768C286.226 159.768 287.271 160.868 287.483 162.078ZM296.288 167V163.801H292.781V167H291.605V159.891H292.781V162.823H296.288V159.891H297.464V167H296.288ZM301.49 166.111C302.611 166.111 303.473 165.325 303.473 164.3V163.719L301.572 163.835C300.615 163.896 300.068 164.32 300.068 164.99C300.068 165.667 300.636 166.111 301.49 166.111ZM301.224 167.123C299.809 167.123 298.858 166.269 298.858 164.99C298.858 163.773 299.795 163.008 301.436 162.912L303.473 162.796V162.201C303.473 161.333 302.898 160.813 301.914 160.813C300.998 160.813 300.424 161.244 300.273 161.941H299.125C299.207 160.711 300.26 159.768 301.941 159.768C303.609 159.768 304.662 160.67 304.662 162.085V167H303.534V165.776H303.507C303.083 166.59 302.181 167.123 301.224 167.123ZM307.479 167H306.303V159.891H307.745L310.274 165.428H310.329L312.872 159.891H314.26V167H313.077V161.955H313.029L310.732 166.795H309.823L307.526 161.955H307.479V167ZM317.104 167H315.928V159.891H317.104V165.182H317.158L320.713 159.891H321.889V167H320.713V161.709H320.658L317.104 167Z" fill="#333333"/>
<path d="M341.76 118.781H340.752C340.576 118.195 340.078 117.697 339.217 117.697C338.156 117.697 337.459 118.594 337.459 119.953C337.459 121.348 338.168 122.209 339.229 122.209C340.037 122.209 340.57 121.811 340.764 121.137H341.771C341.572 122.291 340.594 123.105 339.223 123.105C337.529 123.105 336.422 121.893 336.422 119.953C336.422 118.055 337.523 116.801 339.211 116.801C340.682 116.801 341.578 117.744 341.76 118.781ZM345.281 117.686C344.326 117.686 343.658 118.418 343.594 119.432H346.904C346.881 118.412 346.242 117.686 345.281 117.686ZM346.881 121.254H347.883C347.707 122.32 346.676 123.105 345.346 123.105C343.6 123.105 342.539 121.893 342.539 119.977C342.539 118.084 343.617 116.801 345.299 116.801C346.945 116.801 347.959 117.996 347.959 119.842V120.229H343.588V120.287C343.588 121.453 344.273 122.221 345.369 122.221C346.143 122.221 346.711 121.828 346.881 121.254ZM350.098 123H349.09V116.906H350.098V121.441H350.145L353.191 116.906H354.199V123H353.191V118.465H353.145L350.098 123ZM349.869 114.27H350.619C350.619 114.949 351.059 115.482 351.756 115.482C352.453 115.482 352.893 114.949 352.893 114.27H353.643C353.643 115.348 352.875 116.086 351.756 116.086C350.637 116.086 349.869 115.348 349.869 114.27ZM360.275 123H359.268V120.369H359.18C358.852 120.65 358.365 120.844 357.703 120.844C356.244 120.844 355.477 119.959 355.477 118.658V116.906H356.484V118.646C356.484 119.443 356.912 119.953 357.732 119.953C358.488 119.953 358.986 119.672 359.268 119.355V116.906H360.275V123ZM363.727 122.238C364.688 122.238 365.426 121.564 365.426 120.686V120.188L363.797 120.287C362.977 120.34 362.508 120.703 362.508 121.277C362.508 121.857 362.994 122.238 363.727 122.238ZM363.498 123.105C362.285 123.105 361.471 122.373 361.471 121.277C361.471 120.234 362.273 119.578 363.68 119.496L365.426 119.396V118.887C365.426 118.143 364.934 117.697 364.09 117.697C363.305 117.697 362.812 118.066 362.684 118.664H361.699C361.77 117.609 362.672 116.801 364.113 116.801C365.543 116.801 366.445 117.574 366.445 118.787V123H365.479V121.951H365.455C365.092 122.648 364.318 123.105 363.498 123.105ZM372.896 118.781H371.889C371.713 118.195 371.215 117.697 370.354 117.697C369.293 117.697 368.596 118.594 368.596 119.953C368.596 121.348 369.305 122.209 370.365 122.209C371.174 122.209 371.707 121.811 371.9 121.137H372.908C372.709 122.291 371.73 123.105 370.359 123.105C368.666 123.105 367.559 121.893 367.559 119.953C367.559 118.055 368.66 116.801 370.348 116.801C371.818 116.801 372.715 117.744 372.896 118.781Z" fill="white" fill-opacity="0.8"/>
</g>
<defs>
<filter id="filter0_bdd_1585_16002" x="70.4575" y="225.457" width="275.085" height="94.085" filterUnits="userSpaceOnUse" color-interpolation-filters="sRGB">
<feFlood flood-opacity="0" result="BackgroundImageFix"/>
<feGaussianBlur in="BackgroundImageFix" stdDeviation="15.2713"/>
<feComposite in2="SourceAlpha" operator="in" result="effect1_backgroundBlur_1585_16002"/>
<feColorMatrix in="SourceAlpha" type="matrix" values="0 0 0 0 0 0 0 0 0 0 0 0 0 0 0 0 0 0 127 0" result="hardAlpha"/>
<feMorphology radius="4.58138" operator="erode" in="SourceAlpha" result="effect2_dropShadow_1585_16002"/>
<feOffset dy="6.1085"/>
<feGaussianBlur stdDeviation="6.87207"/>
<feColorMatrix type="matrix" values="0 0 0 0 0.0941176 0 0 0 0 0.152941 0 0 0 0 0.294118 0 0 0 0.12 0"/>
<feBlend mode="normal" in2="effect1_backgroundBlur_1585_16002" result="effect2_dropShadow_1585_16002"/>
<feColorMatrix in="SourceAlpha" type="matrix" values="0 0 0 0 0 0 0 0 0 0 0 0 0 0 0 0 0 0 127 0" result="hardAlpha"/>
<feOffset dy="3.05425"/>
<feGaussianBlur stdDeviation="1.52713"/>
<feComposite in2="hardAlpha" operator="out"/>
<feColorMatrix type="matrix" values="0 0 0 0 0 0 0 0 0 0 0 0 0 0 0 0 0 0 0.25 0"/>
<feBlend mode="normal" in2="effect2_dropShadow_1585_16002" result="effect3_dropShadow_1585_16002"/>
<feBlend mode="normal" in="SourceGraphic" in2="effect3_dropShadow_1585_16002" result="shape"/>
</filter>
<filter id="filter1_bdd_1585_16002" x="62.4575" y="215.457" width="291.085" height="95.085" filterUnits="userSpaceOnUse" color-interpolation-filters="sRGB">
<feFlood flood-opacity="0" result="BackgroundImageFix"/>
<feGaussianBlur in="BackgroundImageFix" stdDeviation="15.2713"/>
<feComposite in2="SourceAlpha" operator="in" result="effect1_backgroundBlur_1585_16002"/>
<feColorMatrix in="SourceAlpha" type="matrix" values="0 0 0 0 0 0 0 0 0 0 0 0 0 0 0 0 0 0 127 0" result="hardAlpha"/>
<feMorphology radius="4.58138" operator="erode" in="SourceAlpha" result="effect2_dropShadow_1585_16002"/>
<feOffset dy="6.1085"/>
<feGaussianBlur stdDeviation="6.87207"/>
<feColorMatrix type="matrix" values="0 0 0 0 0.0941176 0 0 0 0 0.152941 0 0 0 0 0.294118 0 0 0 0.12 0"/>
<feBlend mode="normal" in2="effect1_backgroundBlur_1585_16002" result="effect2_dropShadow_1585_16002"/>
<feColorMatrix in="SourceAlpha" type="matrix" values="0 0 0 0 0 0 0 0 0 0 0 0 0 0 0 0 0 0 127 0" result="hardAlpha"/>
<feOffset dy="3.05425"/>
<feGaussianBlur stdDeviation="1.52713"/>
<feComposite in2="hardAlpha" operator="out"/>
<feColorMatrix type="matrix" values="0 0 0 0 0 0 0 0 0 0 0 0 0 0 0 0 0 0 0.25 0"/>
<feBlend mode="normal" in2="effect2_dropShadow_1585_16002" result="effect3_dropShadow_1585_16002"/>
<feBlend mode="normal" in="SourceGraphic" in2="effect3_dropShadow_1585_16002" result="shape"/>
</filter>
<filter id="filter2_bdd_1585_16002" x="52.2" y="172.2" width="311.6" height="131.6" filterUnits="userSpaceOnUse" color-interpolation-filters="sRGB">
<feFlood flood-opacity="0" result="BackgroundImageFix"/>
<feGaussianBlur in="BackgroundImageFix" stdDeviation="16.4"/>
<feComposite in2="SourceAlpha" operator="in" result="effect1_backgroundBlur_1585_16002"/>
<feColorMatrix in="SourceAlpha" type="matrix" values="0 0 0 0 0 0 0 0 0 0 0 0 0 0 0 0 0 0 127 0" result="hardAlpha"/>
<feMorphology radius="4.92" operator="erode" in="SourceAlpha" result="effect2_dropShadow_1585_16002"/>
<feOffset dy="6.56"/>
<feGaussianBlur stdDeviation="7.38"/>
<feColorMatrix type="matrix" values="0 0 0 0 0.0941176 0 0 0 0 0.152941 0 0 0 0 0.294118 0 0 0 0.12 0"/>
<feBlend mode="normal" in2="effect1_backgroundBlur_1585_16002" result="effect2_dropShadow_1585_16002"/>
<feColorMatrix in="SourceAlpha" type="matrix" values="0 0 0 0 0 0 0 0 0 0 0 0 0 0 0 0 0 0 127 0" result="hardAlpha"/>
<feOffset dy="3.28"/>
<feGaussianBlur stdDeviation="1.64"/>
<feComposite in2="hardAlpha" operator="out"/>
<feColorMatrix type="matrix" values="0 0 0 0 0 0 0 0 0 0 0 0 0 0 0 0 0 0 0.25 0"/>
<feBlend mode="normal" in2="effect2_dropShadow_1585_16002" result="effect3_dropShadow_1585_16002"/>
<feBlend mode="normal" in="SourceGraphic" in2="effect3_dropShadow_1585_16002" result="shape"/>
</filter>
<filter id="filter3_bdd_1585_16002" x="-28" y="51" width="474" height="176" filterUnits="userSpaceOnUse" color-interpolation-filters="sRGB">
<feFlood flood-opacity="0" result="BackgroundImageFix"/>
<feGaussianBlur in="BackgroundImageFix" stdDeviation="20"/>
<feComposite in2="SourceAlpha" operator="in" result="effect1_backgroundBlur_1585_16002"/>
<feColorMatrix in="SourceAlpha" type="matrix" values="0 0 0 0 0 0 0 0 0 0 0 0 0 0 0 0 0 0 127 0" result="hardAlpha"/>
<feMorphology radius="6" operator="erode" in="SourceAlpha" result="effect2_dropShadow_1585_16002"/>
<feOffset dy="8"/>
<feGaussianBlur stdDeviation="9"/>
<feColorMatrix type="matrix" values="0 0 0 0 0.0941176 0 0 0 0 0.152941 0 0 0 0 0.294118 0 0 0 0.12 0"/>
<feBlend mode="normal" in2="effect1_backgroundBlur_1585_16002" result="effect2_dropShadow_1585_16002"/>
<feColorMatrix in="SourceAlpha" type="matrix" values="0 0 0 0 0 0 0 0 0 0 0 0 0 0 0 0 0 0 127 0" result="hardAlpha"/>
<feOffset dy="4"/>
<feGaussianBlur stdDeviation="2"/>
<feComposite in2="hardAlpha" operator="out"/>
<feColorMatrix type="matrix" values="0 0 0 0 0 0 0 0 0 0 0 0 0 0 0 0 0 0 0.25 0"/>
<feBlend mode="normal" in2="effect2_dropShadow_1585_16002" result="effect3_dropShadow_1585_16002"/>
<feBlend mode="normal" in="SourceGraphic" in2="effect3_dropShadow_1585_16002" result="shape"/>
</filter>
<linearGradient id="paint0_linear_1585_16002" x1="-36.5" y1="172.5" x2="334.5" y2="267.5" gradientUnits="userSpaceOnUse">
<stop stop-color="white"/>
<stop offset="1" stop-color="white" stop-opacity="0.46"/>
</linearGradient>
<linearGradient id="paint1_linear_1585_16002" x1="568.5" y1="3.50001" x2="109.501" y2="504.416" gradientUnits="userSpaceOnUse">
<stop offset="3.79732e-05" stop-color="white" stop-opacity="0"/>
<stop offset="0.794792" stop-color="white"/>
</linearGradient>
<clipPath id="clip0_1585_16002">
<rect x="101" y="256" width="214" height="33" rx="6.1085" fill="white"/>
</clipPath>
<clipPath id="clip1_1585_16002">
<rect x="93" y="246" width="230" height="34" rx="6.1085" fill="white"/>
</clipPath>
</defs>
</svg>
