<svg width="459" height="459" viewBox="0 0 459 459" fill="none" xmlns="http://www.w3.org/2000/svg">
<path d="M37.6911 241.596C37.6911 241.596 39.8429 308.314 95.537 352.783C151.231 397.251 228.406 400.436 290.882 404.66C353.358 408.885 401.346 373.516 408.579 320.052C415.811 266.589 368.071 250.895 342.17 190.036C316.268 129.177 318.572 109.173 263.767 71.7426C208.961 34.3121 123.228 57.296 78.2768 121.42C33.3269 185.544 37.6911 241.596 37.6911 241.596Z" fill="#5297FF"/>
<path opacity="0.7" d="M37.6911 241.596C37.6911 241.596 39.8429 308.314 95.537 352.783C151.231 397.251 228.406 400.436 290.882 404.66C353.358 408.885 401.346 373.516 408.579 320.052C415.811 266.589 368.071 250.895 342.17 190.036C316.268 129.177 318.572 109.173 263.767 71.7426C208.961 34.3121 123.228 57.296 78.2768 121.42C33.3269 185.544 37.6911 241.596 37.6911 241.596Z" fill="white"/>
<path d="M63.0363 349.329H54.6118" stroke="#263238" stroke-width="1.1133" stroke-miterlimit="10"/>
<path d="M404.388 349.329H76.373" stroke="#263238" stroke-width="1.1133" stroke-miterlimit="10"/>
<path d="M280.97 384.555C296.381 384.555 308.873 381.119 308.873 376.881C308.873 372.643 296.381 369.208 280.97 369.208C265.56 369.208 253.068 372.643 253.068 376.881C253.068 381.119 265.56 384.555 280.97 384.555Z" fill="#263238"/>
<path d="M136.806 394.317C107.776 394.317 103.49 390.12 103.067 386.733C102.883 385.266 103.327 383.959 104.388 382.847C112.211 374.644 157.276 378.113 219.652 382.917C228.351 383.587 237.35 384.279 246.577 384.965C309.6 389.648 334.972 389.038 340.189 382.709C341.258 381.411 341.481 379.791 340.887 377.613C338.394 368.473 305.018 368.403 292.372 369.143C291.774 369.174 291.255 368.719 291.22 368.119C291.185 367.519 291.643 367.002 292.244 366.967C297.08 366.683 339.584 364.549 342.991 377.041C343.777 379.923 343.411 382.23 341.872 384.098C335.984 391.24 311.899 392.006 246.414 387.141C237.186 386.455 228.185 385.762 219.484 385.093C160.032 380.514 113.074 376.897 105.967 384.355C105.364 384.986 105.13 385.656 105.231 386.464C105.501 388.624 110.691 393.47 152.976 391.782C176.595 390.84 200.328 388.268 200.565 388.242C201.159 388.176 201.702 388.609 201.767 389.208C201.832 389.807 201.4 390.346 200.802 390.411C200.564 390.436 176.766 393.016 153.074 393.961C146.932 394.205 141.539 394.317 136.806 394.317Z" fill="white" stroke="#263238" stroke-width="1.1133" stroke-miterlimit="10"/>
<path d="M278.054 382.777C295.738 378.669 306.742 361.003 302.634 343.32C298.526 325.637 280.861 314.632 263.177 318.74C245.494 322.848 234.489 340.513 238.597 358.197C242.705 375.88 260.371 386.885 278.054 382.777Z" fill="white"/>
<mask id="mask0_3977_35893" style="mask-type:luminance" maskUnits="userSpaceOnUse" x="237" y="317" width="67" height="67">
<path d="M278.054 382.777C295.738 378.669 306.742 361.003 302.634 343.32C298.526 325.636 280.861 314.632 263.177 318.74C245.494 322.848 234.489 340.513 238.597 358.197C242.705 375.88 260.371 386.885 278.054 382.777Z" fill="white"/>
</mask>
<g mask="url(#mask0_3977_35893)">
<path d="M270.599 383.62C288.752 383.62 303.469 368.904 303.469 350.75C303.469 343.883 301.359 337.509 297.758 332.235C297.394 346.551 289.478 367.693 248.382 374.97C254.233 380.34 262.032 383.62 270.599 383.62Z" fill="#5297FF"/>
</g>
<mask id="mask1_3977_35893" style="mask-type:luminance" maskUnits="userSpaceOnUse" x="237" y="317" width="67" height="67">
<path d="M278.054 382.777C295.738 378.669 306.742 361.003 302.634 343.32C298.526 325.636 280.861 314.632 263.177 318.74C245.494 322.848 234.489 340.513 238.597 358.197C242.705 375.88 260.371 386.885 278.054 382.777Z" fill="white"/>
</mask>
<g mask="url(#mask1_3977_35893)">
<path opacity="0.3" d="M270.599 383.62C288.752 383.62 303.469 368.904 303.469 350.75C303.469 343.883 301.359 337.509 297.758 332.235C297.394 346.551 289.478 367.693 248.382 374.97C254.233 380.34 262.032 383.62 270.599 383.62Z" fill="white"/>
</g>
<mask id="mask2_3977_35893" style="mask-type:luminance" maskUnits="userSpaceOnUse" x="237" y="317" width="67" height="67">
<path d="M278.054 382.777C295.738 378.669 306.742 361.003 302.634 343.32C298.526 325.636 280.861 314.632 263.177 318.74C245.494 322.848 234.489 340.513 238.597 358.197C242.705 375.88 260.371 386.885 278.054 382.777Z" fill="white"/>
</mask>
<g mask="url(#mask2_3977_35893)">
<path d="M286.777 363.636C277.122 354.189 265.993 351.239 265.993 351.239M286.777 363.636C287.358 363.645 287.926 363.659 288.518 363.66C293.076 359.069 296.238 354.632 298.421 350.749M286.777 363.636C273.253 363.441 262.967 361.357 255.245 358.609C255.744 337.844 263.151 324.007 267.025 318.149C268.247 318.011 269.487 317.934 270.746 317.934C271.869 317.934 272.978 317.992 274.072 318.101M298.421 350.749C283.025 334.461 268.008 336.125 268.008 336.125C268.008 336.125 283.024 334.461 298.421 350.749ZM298.421 350.749C299.271 349.238 299.975 347.816 300.555 346.499C294.188 337.523 283.158 331.433 277.198 330.496L275.819 330.172M275.819 330.172C271.833 329.545 269.351 330.08 269.351 330.08M275.819 330.172L279.742 319.188C277.911 318.669 276.019 318.295 274.072 318.101M274.072 318.101C271.537 322.201 264.984 335.309 264.984 361.315M294.205 356.948C281.107 344.186 266.665 343.514 266.665 343.514" stroke="#263238" stroke-width="1.1133" stroke-miterlimit="10" stroke-linecap="round" stroke-linejoin="round"/>
<path d="M255.247 358.609C255.746 337.844 263.153 324.006 267.027 318.148C263.936 318.496 260.974 319.27 258.203 320.413C254.011 326.523 247.406 338.646 246.866 354.926C249.244 356.209 252.029 357.464 255.247 358.609Z" stroke="#263238" stroke-width="1.1133" stroke-miterlimit="10" stroke-linecap="round" stroke-linejoin="round"/>
<path d="M258.203 320.413C246.898 325.075 238.762 335.845 237.898 348.614C239.904 350.49 242.811 352.741 246.866 354.926C247.407 338.646 254.012 326.522 258.203 320.413Z" stroke="#263238" stroke-width="1.1133" stroke-miterlimit="10" stroke-linecap="round" stroke-linejoin="round"/>
<path d="M295.356 328.988C298.556 332.585 300.976 336.886 302.361 341.631C301.958 342.99 301.377 344.634 300.556 346.5C291.103 334.652 281.779 331.11 275.821 330.172L279.744 319.188C282.851 320.069 285.77 321.393 288.43 323.089M295.356 328.988L292.862 337.469M295.356 328.988C293.336 326.717 291.004 324.731 288.43 323.089M288.43 323.089L285.626 333.564" stroke="#263238" stroke-width="1.1133" stroke-miterlimit="10" stroke-linecap="round" stroke-linejoin="round"/>
<path d="M300.555 346.5C301.378 344.634 301.957 342.99 302.36 341.631C303.216 344.563 303.683 347.66 303.683 350.869C303.683 351.35 303.667 351.826 303.647 352.302C289.762 371.75 279.054 380.148 272.402 383.761C271.854 383.788 271.302 383.803 270.747 383.803C267.288 383.803 263.954 383.267 260.822 382.278C265.119 380.304 268.998 378.244 272.471 376.13M300.555 346.5C300.565 346.513 300.575 346.524 300.585 346.537M300.555 346.5C299.975 347.816 300.009 347.798 299.16 349.308C299.209 349.361 298.372 350.697 298.422 350.749C298.372 350.696 297.545 352.402 297.495 352.349C295.312 356.231 288.724 363.665 288.83 363.665C288.724 363.665 285.27 366.795 283.381 368.373M283.381 368.373C283.407 368.37 283.431 368.37 283.456 368.367M283.381 368.373C280.259 370.981 276.644 373.59 272.471 376.13M272.471 376.13C272.55 376.116 272.632 376.106 272.71 376.091" stroke="#263238" stroke-width="1.1133" stroke-miterlimit="10" stroke-linecap="round" stroke-linejoin="round"/>
<path d="M303.647 352.302C289.762 371.751 279.054 380.148 272.403 383.763C289.349 382.924 302.92 369.277 303.647 352.302Z" stroke="#263238" stroke-width="1.1133" stroke-miterlimit="10" stroke-linecap="round" stroke-linejoin="round"/>
<path d="M245.004 371.4C249.036 376.449 254.517 380.289 260.823 382.279C265.119 380.305 268.999 378.245 272.471 376.131C264.632 377.579 252.372 373.986 245.004 371.4Z" stroke="#263238" stroke-width="1.1133" stroke-miterlimit="10" stroke-linecap="round" stroke-linejoin="round"/>
<path d="M272.471 376.131C276.645 373.591 280.26 370.982 283.382 368.374C259.712 370.795 245.107 363.467 238.904 359.296C240.087 363.778 242.193 367.882 245.003 371.401C252.372 373.986 264.632 377.579 272.471 376.131Z" stroke="#263238" stroke-width="1.1133" stroke-miterlimit="10" stroke-linecap="round" stroke-linejoin="round"/>
<path d="M286.778 363.636C287.357 363.645 287.926 363.659 288.518 363.66C286.97 365.221 285.271 366.795 283.382 368.373C259.712 370.795 245.107 363.467 238.905 359.295C238.195 356.605 237.812 353.782 237.812 350.869C237.812 350.111 237.847 349.36 237.898 348.614C239.904 350.49 243.965 354.701 255.247 358.609M286.778 363.636C286.903 363.758 287.028 363.877 287.152 364.001M286.778 363.636C273.253 363.441 262.968 361.357 255.247 358.609M255.247 358.609C255.247 358.616 255.246 358.621 255.246 358.628" stroke="#263238" stroke-width="1.1133" stroke-miterlimit="10" stroke-linecap="round" stroke-linejoin="round"/>
</g>
<path d="M278.054 382.777C295.738 378.669 306.742 361.003 302.634 343.32C298.526 325.637 280.861 314.632 263.177 318.74C245.494 322.848 234.489 340.513 238.597 358.197C242.705 375.88 260.371 386.885 278.054 382.777Z" stroke="#263238" stroke-width="1.11335" stroke-miterlimit="10" stroke-linecap="round" stroke-linejoin="round"/>
<path d="M331.151 294.571C331.151 294.571 328.904 287.267 322.348 284.645C317.792 282.823 312.548 283.299 307.828 284.121C299.033 285.65 291.358 289.148 283.019 292.137C283.019 292.137 286.577 290.826 301.185 297.942C306.565 300.564 312.719 302.598 318.871 302.46C323.814 302.35 331.386 300.942 331.151 294.571Z" fill="#5297FF"/>
<path d="M331.944 273.113C331.944 273.113 331.901 265.472 326.383 261.067C322.548 258.007 317.39 256.948 312.633 256.371C303.771 255.295 295.413 256.425 286.566 256.878C286.566 256.878 290.352 256.651 302.281 267.684C306.675 271.748 311.978 275.473 317.908 277.118C322.673 278.44 330.329 279.28 331.944 273.113Z" fill="#5297FF"/>
<path d="M347.044 301.49C347.044 301.49 341.084 296.708 341.064 289.647C341.05 284.741 343.426 280.041 345.93 275.957C350.595 268.345 356.675 262.5 362.529 255.851C362.529 255.851 359.998 258.676 361.227 274.879C361.68 280.846 361.302 287.316 358.906 292.984C356.98 297.538 352.879 304.057 347.044 301.49Z" fill="#5297FF"/>
<path d="M368.154 313.225C368.154 313.225 367.312 305.63 372.284 300.617C375.739 297.134 380.741 295.486 385.399 294.362C394.077 292.269 402.51 292.424 411.35 291.851C411.35 291.851 407.563 292.063 396.989 304.402C393.095 308.947 388.258 313.26 382.558 315.58C377.978 317.444 370.471 319.164 368.154 313.225Z" fill="#5297FF"/>
<path d="M366.77 286.152C366.77 286.152 359.2 285.111 355.556 279.064C353.023 274.861 352.649 269.608 352.698 264.818C352.791 255.892 355.005 247.753 356.613 239.042C356.613 239.042 355.892 242.765 365.269 256.036C368.723 260.924 371.722 266.668 372.578 272.763C373.264 277.658 373.095 285.358 366.77 286.152Z" fill="#5297FF"/>
<path d="M388.559 272.555C388.559 272.555 394.004 277.917 401.018 277.113C405.893 276.554 410.283 273.645 414.047 270.681C421.062 265.16 426.158 258.438 432.078 251.849C432.078 251.849 429.568 254.692 413.332 255.363C407.352 255.611 400.971 256.741 395.622 259.783C391.323 262.228 385.327 267.061 388.559 272.555Z" fill="#5297FF"/>
<path d="M382.254 267.255C382.254 267.255 389.857 268.018 394.818 262.995C398.266 259.504 399.863 254.485 400.939 249.817C402.943 241.117 402.699 232.687 403.181 223.841C403.181 223.841 403.008 227.63 390.779 238.329C386.274 242.27 382.012 247.151 379.75 252.875C377.934 257.474 376.291 264.999 382.254 267.255Z" fill="#5297FF"/>
<path d="M355.107 341.257L341.984 308.954L326.841 271.603" stroke="#263238" stroke-width="1.1133" stroke-miterlimit="10" stroke-linecap="round" stroke-linejoin="round"/>
<path d="M358.136 335.705L371.259 290.783L385.391 263.023" stroke="#263238" stroke-width="1.1133" stroke-miterlimit="10" stroke-linecap="round" stroke-linejoin="round"/>
<path d="M363.183 318.039L376.306 310.468" stroke="#263238" stroke-width="1.1133" stroke-miterlimit="10" stroke-linecap="round" stroke-linejoin="round"/>
<path d="M371.259 290.783L364.697 276.145" stroke="#263238" stroke-width="1.1133" stroke-miterlimit="10" stroke-linecap="round" stroke-linejoin="round"/>
<path d="M379.47 276.218L395.487 269.08" stroke="#263238" stroke-width="1.1133" stroke-miterlimit="10" stroke-linecap="round" stroke-linejoin="round"/>
<path d="M344.507 315.011L350.059 292.802" stroke="#263238" stroke-width="1.1133" stroke-miterlimit="10" stroke-linecap="round" stroke-linejoin="round"/>
<path d="M337.144 298.131L324.317 291.288" stroke="#263238" stroke-width="1.1133" stroke-miterlimit="10" stroke-linecap="round" stroke-linejoin="round"/>
<path d="M361.842 357.409H350.895C347.204 357.409 344.034 354.784 343.347 351.157L339.46 330.657H373.277L369.39 351.157C368.703 354.784 365.533 357.409 361.842 357.409Z" fill="#263238" stroke="#263238" stroke-width="1.1133" stroke-miterlimit="10" stroke-linecap="round" stroke-linejoin="round"/>
<path d="M212.198 314.214C191.758 314.215 179.479 296.081 175.117 280.133L174.969 279.574C174.136 276.367 176.06 273.091 179.267 272.259C182.476 271.43 185.749 273.349 186.583 276.556L186.692 276.972C190.013 289.109 199.036 302.98 213.51 302.179C219.282 301.854 223.931 299.585 227.72 295.244C235.663 286.144 239.213 266.336 238.421 256.351C238.21 253.708 240.183 251.396 242.825 251.187C245.486 250.978 247.78 252.949 247.989 255.591C248.872 266.703 247.698 290.604 236.76 303.134C230.818 309.941 223.223 313.649 214.184 314.159C213.513 314.196 212.851 314.214 212.198 314.214Z" fill="white"/>
<mask id="mask3_3977_35893" style="mask-type:luminance" maskUnits="userSpaceOnUse" x="174" y="251" width="75" height="64">
<path d="M212.198 314.214C191.758 314.215 179.479 296.081 175.117 280.133L174.969 279.574C174.136 276.367 176.06 273.091 179.267 272.259C182.476 271.43 185.749 273.349 186.583 276.556L186.692 276.972C190.013 289.109 199.036 302.98 213.51 302.179C219.282 301.854 223.931 299.585 227.72 295.244C235.663 286.144 239.213 266.336 238.421 256.351C238.21 253.708 240.183 251.396 242.825 251.187C245.486 250.978 247.78 252.949 247.989 255.591C248.872 266.703 247.698 290.604 236.76 303.134C230.818 309.941 223.223 313.649 214.184 314.159C213.513 314.196 212.851 314.214 212.198 314.214Z" fill="white"/>
</mask>
<g mask="url(#mask3_3977_35893)">
<path d="M242.823 251.186C240.181 251.395 238.208 253.708 238.419 256.35C238.805 261.222 238.155 268.435 236.468 275.6C238.542 275.499 240.923 275.73 243.597 276.529C243.209 281.432 241.666 288.638 236.591 295.686C227.676 308.068 214.303 312.031 203.902 310.545C199.252 309.88 193.913 307.435 189.427 304.933C195.359 310.487 202.938 314.214 212.198 314.214C212.85 314.214 213.513 314.195 214.182 314.158C223.221 313.649 230.817 309.94 236.758 303.133C247.696 290.603 248.87 266.702 247.987 255.59C247.778 252.949 245.484 250.976 242.823 251.186Z" fill="#5297FF"/>
</g>
<mask id="mask4_3977_35893" style="mask-type:luminance" maskUnits="userSpaceOnUse" x="174" y="251" width="75" height="64">
<path d="M212.198 314.214C191.758 314.215 179.479 296.081 175.117 280.133L174.969 279.574C174.136 276.367 176.06 273.091 179.267 272.259C182.476 271.43 185.749 273.349 186.583 276.556L186.692 276.972C190.013 289.109 199.036 302.98 213.51 302.179C219.282 301.854 223.931 299.585 227.72 295.244C235.663 286.144 239.213 266.336 238.421 256.351C238.21 253.708 240.183 251.396 242.825 251.187C245.486 250.978 247.78 252.949 247.989 255.591C248.872 266.703 247.698 290.604 236.76 303.134C230.818 309.941 223.223 313.649 214.184 314.159C213.513 314.196 212.851 314.214 212.198 314.214Z" fill="white"/>
</mask>
<g mask="url(#mask4_3977_35893)">
<path opacity="0.5" d="M242.823 251.186C240.181 251.395 238.208 253.708 238.419 256.35C238.805 261.222 238.155 268.435 236.468 275.6C238.542 275.499 240.923 275.73 243.597 276.529C243.209 281.432 241.666 288.638 236.591 295.686C227.676 308.068 214.303 312.031 203.902 310.545C199.252 309.88 193.913 307.435 189.427 304.933C195.359 310.487 202.938 314.214 212.198 314.214C212.85 314.214 213.513 314.195 214.182 314.158C223.221 313.649 230.817 309.94 236.758 303.133C247.696 290.603 248.87 266.702 247.987 255.59C247.778 252.949 245.484 250.976 242.823 251.186Z" fill="white"/>
</g>
<path d="M212.198 314.214C191.758 314.215 179.479 296.081 175.117 280.133L174.969 279.574C174.136 276.367 176.06 273.091 179.267 272.259C182.476 271.43 185.749 273.349 186.583 276.556L186.692 276.972C190.013 289.109 199.036 302.98 213.51 302.179C219.282 301.854 223.931 299.585 227.72 295.244C235.663 286.144 239.213 266.336 238.421 256.351C238.21 253.708 240.183 251.396 242.825 251.187C245.486 250.978 247.78 252.949 247.989 255.591C248.872 266.703 247.698 290.604 236.76 303.134C230.818 309.941 223.223 313.649 214.184 314.159C213.513 314.196 212.851 314.214 212.198 314.214Z" stroke="#263238" stroke-width="1.1133" stroke-miterlimit="10" stroke-linecap="round" stroke-linejoin="round"/>
<path d="M200.409 301.79C200.891 299.542 195.511 303.061 191.004 306.336C192.672 307.737 194.462 308.991 196.368 310.068C197.978 307.457 199.944 303.963 200.409 301.79Z" fill="#5297FF" stroke="#263238" stroke-width="1.1133" stroke-miterlimit="10" stroke-linecap="round" stroke-linejoin="round"/>
<path d="M212.198 314.214C212.851 314.214 213.514 314.195 214.183 314.158C216.187 314.045 218.116 313.766 219.976 313.339C217.444 310.033 213.96 305.67 212.953 305.335C211.807 304.953 209.595 310.581 208.369 313.995C209.613 314.138 210.888 314.214 212.198 314.214Z" fill="#5297FF" stroke="#263238" stroke-width="1.1133" stroke-miterlimit="10" stroke-linecap="round" stroke-linejoin="round"/>
<path d="M186.691 276.972L186.581 276.556C185.748 273.349 182.474 271.43 179.266 272.259C176.059 273.091 174.134 276.368 174.968 279.574L175.116 280.133C176.564 285.427 178.89 290.96 182.092 295.993L193.026 290.787C190.084 286.545 187.966 281.631 186.691 276.972Z" fill="#5297FF" stroke="#263238" stroke-width="1.1133" stroke-miterlimit="10" stroke-linecap="round" stroke-linejoin="round"/>
<path d="M236.759 303.133C237.595 302.175 238.367 301.145 239.092 300.066C235.626 298.881 230.427 297.251 228.497 297.426C226.21 297.635 229.313 304.977 230.916 308.452C233.01 306.963 234.961 305.192 236.759 303.133Z" fill="#5297FF" stroke="#263238" stroke-width="1.1133" stroke-miterlimit="10" stroke-linecap="round" stroke-linejoin="round"/>
<path d="M236.95 283.519C236.587 284.247 241.076 287.521 244.105 289.622C245.069 286.786 245.83 283.837 246.42 280.88C242.745 281.611 237.309 282.802 236.95 283.519Z" fill="#5297FF" stroke="#263238" stroke-width="1.1133" stroke-miterlimit="10" stroke-linecap="round" stroke-linejoin="round"/>
<path d="M247.907 269.939C248.11 267.323 248.206 264.824 248.218 262.526C245.062 264.268 241.313 266.67 241.313 268.249C241.313 269.775 244.821 270.02 247.907 269.939Z" fill="#5297FF" stroke="#263238" stroke-width="1.1133" stroke-miterlimit="10" stroke-linecap="round" stroke-linejoin="round"/>
<path d="M198.479 198.913C198.479 198.913 189.569 224.727 194.367 244.83C199.164 264.932 216.754 271.557 216.754 271.557C216.754 271.557 203.733 276.126 206.703 283.208C209.673 290.289 220.866 285.72 224.521 283.436C228.176 281.152 232.745 274.298 233.43 269.73C234.115 265.161 233.888 262.648 233.888 262.648C233.888 262.648 248.736 261.049 258.787 252.825C258.787 252.825 267.697 259.907 274.093 258.536C280.49 257.166 289.627 245.744 288.713 235.464C287.8 225.185 281.86 225.185 278.205 226.784C274.55 228.383 273.179 229.982 273.179 229.982C273.179 229.982 278.434 223.585 273.179 214.676C267.925 205.767 258.559 205.081 258.559 205.081C258.559 205.081 255.818 190.461 247.593 184.979C239.37 179.496 210.129 173.785 198.479 198.913Z" fill="white"/>
<mask id="mask5_3977_35893" style="mask-type:luminance" maskUnits="userSpaceOnUse" x="192" y="180" width="97" height="108">
<path d="M198.479 198.913C198.479 198.913 189.569 224.727 194.367 244.83C199.164 264.932 216.754 271.557 216.754 271.557C216.754 271.557 203.733 276.126 206.703 283.208C209.673 290.289 220.866 285.72 224.521 283.436C228.176 281.152 232.745 274.298 233.43 269.73C234.115 265.161 233.888 262.648 233.888 262.648C233.888 262.648 248.736 261.049 258.787 252.825C258.787 252.825 267.697 259.907 274.093 258.536C280.49 257.166 289.627 245.744 288.713 235.464C287.8 225.185 281.86 225.185 278.205 226.784C274.55 228.383 273.179 229.982 273.179 229.982C273.179 229.982 278.434 223.585 273.179 214.676C267.925 205.767 258.559 205.081 258.559 205.081C258.559 205.081 255.818 190.461 247.593 184.979C239.37 179.496 210.129 173.785 198.479 198.913Z" fill="white"/>
</mask>
<g mask="url(#mask5_3977_35893)">
<path d="M266.351 207.793C259.878 218.572 246.748 230.969 226.089 232.781C207.91 234.376 197.719 230.795 193.023 228.309C193.656 212.906 198.48 198.914 198.48 198.914C210.13 173.786 239.37 179.497 247.594 184.979C255.818 190.461 258.56 205.081 258.56 205.081C258.56 205.081 262.282 205.358 266.351 207.793ZM278.204 226.783C274.549 228.382 273.178 229.981 273.178 229.981C273.178 229.981 274.765 228.034 275.32 224.804C262.972 230.949 263.936 244.098 262.399 244.098C260.512 244.098 259.57 237.496 259.57 237.496C259.57 237.496 257.212 246.927 243.065 253.529C228.918 260.13 212.885 254.943 212.885 254.943C212.885 254.943 216.186 262.488 207.697 261.546C204.829 261.227 202.675 260.259 201.061 259.12C207.917 268.22 216.753 271.556 216.753 271.556C216.753 271.556 203.732 276.125 206.702 283.207C209.672 290.288 220.865 285.719 224.52 283.435C228.175 281.151 232.744 274.298 233.43 269.729C234.114 265.16 233.887 262.647 233.887 262.647C233.887 262.647 248.735 261.048 258.787 252.825C258.787 252.825 267.696 259.906 274.092 258.535C280.489 257.165 289.626 245.743 288.713 235.463C287.799 225.184 281.86 225.184 278.204 226.783Z" fill="#5297FF"/>
</g>
<mask id="mask6_3977_35893" style="mask-type:luminance" maskUnits="userSpaceOnUse" x="192" y="180" width="97" height="108">
<path d="M198.479 198.913C198.479 198.913 189.569 224.727 194.367 244.83C199.164 264.932 216.754 271.557 216.754 271.557C216.754 271.557 203.733 276.126 206.703 283.208C209.673 290.289 220.866 285.72 224.521 283.436C228.176 281.152 232.745 274.298 233.43 269.73C234.115 265.161 233.888 262.648 233.888 262.648C233.888 262.648 248.736 261.049 258.787 252.825C258.787 252.825 267.697 259.907 274.093 258.536C280.49 257.166 289.627 245.744 288.713 235.464C287.8 225.185 281.86 225.185 278.205 226.784C274.55 228.383 273.179 229.982 273.179 229.982C273.179 229.982 278.434 223.585 273.179 214.676C267.925 205.767 258.559 205.081 258.559 205.081C258.559 205.081 255.818 190.461 247.593 184.979C239.37 179.496 210.129 173.785 198.479 198.913Z" fill="white"/>
</mask>
<g mask="url(#mask6_3977_35893)">
<path opacity="0.5" d="M266.351 207.793C259.878 218.572 246.748 230.969 226.089 232.781C207.91 234.376 197.719 230.795 193.023 228.309C193.656 212.906 198.48 198.914 198.48 198.914C210.13 173.786 239.37 179.497 247.594 184.979C255.818 190.461 258.56 205.081 258.56 205.081C258.56 205.081 262.282 205.358 266.351 207.793ZM278.204 226.783C274.549 228.382 273.178 229.981 273.178 229.981C273.178 229.981 274.765 228.034 275.32 224.804C262.972 230.949 263.936 244.098 262.399 244.098C260.512 244.098 259.57 237.496 259.57 237.496C259.57 237.496 257.212 246.927 243.065 253.529C228.918 260.13 212.885 254.943 212.885 254.943C212.885 254.943 216.186 262.488 207.697 261.546C204.829 261.227 202.675 260.259 201.061 259.12C207.917 268.22 216.753 271.556 216.753 271.556C216.753 271.556 203.732 276.125 206.702 283.207C209.672 290.288 220.865 285.719 224.52 283.435C228.175 281.151 232.744 274.298 233.43 269.729C234.114 265.16 233.887 262.647 233.887 262.647C233.887 262.647 248.735 261.048 258.787 252.825C258.787 252.825 267.696 259.906 274.092 258.535C280.489 257.165 289.626 245.743 288.713 235.463C287.799 225.184 281.86 225.184 278.204 226.783Z" fill="white"/>
</g>
<mask id="mask7_3977_35893" style="mask-type:luminance" maskUnits="userSpaceOnUse" x="192" y="180" width="97" height="108">
<path d="M198.479 198.913C198.479 198.913 189.569 224.727 194.367 244.83C199.164 264.932 216.754 271.557 216.754 271.557C216.754 271.557 203.733 276.126 206.703 283.208C209.673 290.289 220.866 285.72 224.521 283.436C228.176 281.152 232.745 274.298 233.43 269.73C234.115 265.161 233.888 262.648 233.888 262.648C233.888 262.648 248.736 261.049 258.787 252.825C258.787 252.825 267.697 259.907 274.093 258.536C280.49 257.166 289.627 245.744 288.713 235.464C287.8 225.185 281.86 225.185 278.205 226.784C274.55 228.383 273.179 229.982 273.179 229.982C273.179 229.982 278.434 223.585 273.179 214.676C267.925 205.767 258.559 205.081 258.559 205.081C258.559 205.081 255.818 190.461 247.593 184.979C239.37 179.496 210.129 173.785 198.479 198.913Z" fill="white"/>
</mask>
<g mask="url(#mask7_3977_35893)">
<path d="M233.887 262.648C233.887 262.648 218.68 263.886 208.045 250.796" stroke="#263238" stroke-width="1.1133" stroke-miterlimit="10" stroke-linecap="round" stroke-linejoin="round"/>
</g>
<path d="M198.479 198.913C198.479 198.913 189.569 224.727 194.367 244.83C199.164 264.932 216.754 271.557 216.754 271.557C216.754 271.557 203.733 276.126 206.703 283.208C209.673 290.289 220.866 285.72 224.521 283.436C228.176 281.152 232.745 274.298 233.43 269.73C234.115 265.161 233.888 262.648 233.888 262.648C233.888 262.648 248.736 261.049 258.787 252.825C258.787 252.825 267.697 259.907 274.093 258.536C280.49 257.166 289.627 245.744 288.713 235.464C287.8 225.185 281.86 225.185 278.205 226.784C274.55 228.383 273.179 229.982 273.179 229.982C273.179 229.982 278.434 223.585 273.179 214.676C267.925 205.767 258.559 205.081 258.559 205.081C258.559 205.081 255.818 190.461 247.593 184.979C239.37 179.496 210.129 173.785 198.479 198.913Z" stroke="#263238" stroke-width="1.1133" stroke-miterlimit="10" stroke-linecap="round" stroke-linejoin="round"/>
<path d="M273.179 229.981C273.179 229.981 268.382 233.179 266.098 243.002" stroke="#263238" stroke-width="1.1133" stroke-miterlimit="10" stroke-linecap="round" stroke-linejoin="round"/>
<path d="M281.984 234.182C281.419 235.855 279.891 236.851 278.57 236.405C277.249 235.96 276.636 234.241 277.2 232.568C277.765 230.894 279.293 229.898 280.614 230.345C281.935 230.79 282.549 232.507 281.984 234.182Z" fill="white" stroke="#263238" stroke-width="1.1133" stroke-miterlimit="10" stroke-linecap="round" stroke-linejoin="round"/>
<path d="M286.71 237.154C286.145 238.828 284.617 239.824 283.296 239.378C281.975 238.932 281.362 237.214 281.926 235.54C282.491 233.867 284.019 232.871 285.34 233.317C286.661 233.763 287.275 235.481 286.71 237.154Z" fill="white" stroke="#263238" stroke-width="1.1133" stroke-miterlimit="10" stroke-linecap="round" stroke-linejoin="round"/>
<path d="M287.717 241.606C287.306 242.821 286.196 243.545 285.237 243.22C284.278 242.896 283.833 241.649 284.242 240.433C284.652 239.218 285.762 238.495 286.722 238.819C287.682 239.143 288.127 240.39 287.717 241.606Z" fill="white" stroke="#263238" stroke-width="1.1133" stroke-miterlimit="10" stroke-linecap="round" stroke-linejoin="round"/>
<path d="M281.687 247.721C280.037 250.701 276.73 252.027 274.303 250.682C271.875 249.337 271.244 245.831 272.895 242.851C274.545 239.872 277.852 238.546 280.28 239.891C282.707 241.236 283.338 244.742 281.687 247.721Z" fill="white" stroke="#263238" stroke-width="1.1133" stroke-miterlimit="10" stroke-linecap="round" stroke-linejoin="round"/>
<path d="M216.754 271.557C216.754 271.557 220.866 273.841 226.577 272.242" stroke="#263238" stroke-width="1.1133" stroke-miterlimit="10" stroke-linecap="round" stroke-linejoin="round"/>
<path d="M206.703 283.208C206.703 283.208 207.617 279.324 213.327 276.582" stroke="#263238" stroke-width="1.1133" stroke-miterlimit="10" stroke-linecap="round" stroke-linejoin="round"/>
<path d="M212.414 286.635C212.414 286.635 214.698 281.152 218.582 278.639" stroke="#263238" stroke-width="1.1133" stroke-miterlimit="10" stroke-linecap="round" stroke-linejoin="round"/>
<path d="M122.33 223.437C120.36 221.861 119.375 219.695 119.375 216.936V195.168H63.2317C60.2106 195.168 57.765 194.151 55.8942 192.114C54.0224 190.08 53.0869 187.682 53.0869 184.925C53.0869 182.758 53.7102 180.723 54.9587 178.818L108.737 94.3089C112.741 88.0711 118.094 84.9517 124.792 84.9517C128.732 84.9517 132.015 86.102 134.641 88.3997C137.267 90.6993 138.581 94.1124 138.581 98.6437V180.789H152.863C155.161 180.789 156.934 181.496 158.182 182.907C159.429 184.32 160.053 186.01 160.053 187.98C160.053 189.95 159.429 191.642 158.182 193.053C156.934 194.465 155.161 195.17 152.863 195.17H138.484V216.939C138.484 219.697 137.531 221.863 135.627 223.439C133.721 225.016 131.523 225.803 129.028 225.803C126.531 225.8 124.299 225.013 122.33 223.437ZM119.375 180.788V105.143L72.2942 180.788H119.375Z" fill="#263238"/>
<path d="M200.239 223.88C194.395 221.221 189.651 217.675 186.007 213.242C182.362 208.81 179.373 203.41 177.043 197.04C174.712 190.671 173.087 184.137 172.168 177.439C171.247 170.742 170.789 163.421 170.789 155.474C170.789 107.08 187.302 82.8835 220.333 82.8835C253.295 82.8835 269.778 107.081 269.778 155.474C269.778 163.354 269.335 170.642 268.449 177.341C267.561 184.039 265.952 190.573 263.622 196.941C261.29 203.311 258.303 208.712 254.658 213.144C251.014 217.576 246.27 221.139 240.426 223.83C234.581 226.522 227.883 227.869 220.333 227.869C212.781 227.869 206.083 226.539 200.239 223.88ZM230.133 209.992C233.055 208.711 235.516 207.037 237.52 204.968C239.522 202.9 241.263 200.323 242.741 197.236C244.218 194.15 245.384 191.03 246.238 187.879C247.09 184.727 247.764 181.165 248.256 177.192C248.748 173.22 249.077 169.577 249.241 166.26C249.404 162.945 249.487 159.35 249.487 155.474C249.487 151.404 249.404 147.644 249.241 144.197C249.076 140.75 248.732 137.041 248.207 133.067C247.681 129.095 246.99 125.532 246.139 122.38C245.284 119.228 244.12 116.143 242.643 113.122C241.166 110.102 239.425 107.574 237.422 105.538C235.418 103.504 232.973 101.879 230.084 100.662C227.194 99.4479 223.944 98.8402 220.333 98.8402C216.72 98.8402 213.471 99.4479 210.582 100.662C207.692 101.879 205.263 103.486 203.294 105.488C201.323 107.492 199.582 110.004 198.073 113.024C196.562 116.045 195.396 119.131 194.575 122.282C193.754 125.434 193.081 129.014 192.557 133.018C192.031 137.024 191.686 140.751 191.522 144.198C191.357 147.646 191.276 151.405 191.276 155.475C191.276 159.35 191.357 162.961 191.522 166.309C191.686 169.658 192.014 173.319 192.507 177.292C192.999 181.266 193.671 184.826 194.526 187.978C195.379 191.13 196.545 194.25 198.022 197.335C199.5 200.422 201.224 202.983 203.193 205.017C205.163 207.053 207.608 208.711 210.531 209.991C213.452 211.271 216.719 211.912 220.331 211.912C223.944 211.913 227.211 211.273 230.133 209.992Z" fill="#263238"/>
<path d="M354.879 223.437C352.909 221.861 351.924 219.695 351.924 216.936V195.168H295.781C292.759 195.168 290.315 194.151 288.443 192.114C286.571 190.08 285.636 187.682 285.636 184.925C285.636 182.758 286.259 180.723 287.507 178.818L341.286 94.3089C345.29 88.0711 350.643 84.9517 357.341 84.9517C361.28 84.9517 364.563 86.102 367.19 88.3997C369.815 90.6993 371.13 94.1124 371.13 98.6437V180.789H385.411C387.709 180.789 389.483 181.496 390.73 182.907C391.978 184.32 392.602 186.01 392.602 187.98C392.602 189.95 391.978 191.642 390.73 193.053C389.483 194.465 387.709 195.17 385.411 195.17H371.031V216.939C371.031 219.697 370.079 221.863 368.175 223.439C366.269 225.016 364.071 225.803 361.575 225.803C359.08 225.8 356.849 225.013 354.879 223.437ZM351.924 180.788V105.143L304.842 180.788H351.924Z" fill="#263238"/>
<path d="M179.975 185.891C179.975 185.891 170.381 199.369 169.01 213.076C167.639 226.783 169.239 235.921 173.35 239.347C177.462 242.773 181.574 241.403 183.859 238.204C186.144 235.006 182.488 223.813 182.488 223.813C182.488 223.813 186.372 213.076 192.312 205.537C198.251 197.999 199.393 196.857 199.393 196.857C199.393 196.857 189.112 185.207 179.975 185.891Z" fill="white"/>
<mask id="mask8_3977_35893" style="mask-type:luminance" maskUnits="userSpaceOnUse" x="168" y="185" width="32" height="57">
<path d="M179.975 185.891C179.975 185.891 170.381 199.369 169.01 213.076C167.639 226.783 169.239 235.921 173.35 239.347C177.462 242.773 181.574 241.403 183.859 238.204C186.144 235.006 182.488 223.813 182.488 223.813C182.488 223.813 186.372 213.076 192.312 205.537C198.251 197.999 199.393 196.857 199.393 196.857C199.393 196.857 189.112 185.207 179.975 185.891Z" fill="white"/>
</mask>
<g mask="url(#mask8_3977_35893)">
<path d="M179.975 185.891C179.975 185.891 177.175 189.829 174.385 195.607C178.97 197.456 186.089 201.211 190.604 207.867C191.152 207.069 191.721 206.287 192.311 205.537C198.251 197.999 199.393 196.857 199.393 196.857C199.393 196.857 189.112 185.207 179.975 185.891Z" fill="#5297FF"/>
</g>
<mask id="mask9_3977_35893" style="mask-type:luminance" maskUnits="userSpaceOnUse" x="168" y="185" width="32" height="57">
<path d="M179.975 185.891C179.975 185.891 170.381 199.369 169.01 213.076C167.639 226.783 169.239 235.921 173.35 239.347C177.462 242.773 181.574 241.403 183.859 238.204C186.144 235.006 182.488 223.813 182.488 223.813C182.488 223.813 186.372 213.076 192.312 205.537C198.251 197.999 199.393 196.857 199.393 196.857C199.393 196.857 189.112 185.207 179.975 185.891Z" fill="white"/>
</mask>
<g mask="url(#mask9_3977_35893)">
<path opacity="0.5" d="M179.975 185.891C179.975 185.891 177.175 189.829 174.385 195.607C178.97 197.456 186.089 201.211 190.604 207.867C191.152 207.069 191.721 206.287 192.311 205.537C198.251 197.999 199.393 196.857 199.393 196.857C199.393 196.857 189.112 185.207 179.975 185.891Z" fill="white"/>
</g>
<path d="M179.975 185.891C179.975 185.891 170.381 199.369 169.01 213.076C167.639 226.783 169.239 235.921 173.35 239.347C177.462 242.773 181.574 241.403 183.859 238.204C186.144 235.006 182.488 223.813 182.488 223.813C182.488 223.813 186.372 213.076 192.312 205.537C198.251 197.999 199.393 196.857 199.393 196.857C199.393 196.857 189.112 185.207 179.975 185.891Z" stroke="#263238" stroke-width="1.1133" stroke-miterlimit="10" stroke-linecap="round" stroke-linejoin="round"/>
<path d="M173.35 239.347C173.35 239.347 171.751 235.692 171.751 229.981" stroke="#263238" stroke-width="1.1133" stroke-miterlimit="10" stroke-linecap="round" stroke-linejoin="round"/>
<path d="M179.518 240.718C179.518 240.718 177.234 236.835 177.006 230.21" stroke="#263238" stroke-width="1.1133" stroke-miterlimit="10" stroke-linecap="round" stroke-linejoin="round"/>
<path d="M182.945 210.335C182.945 207.926 178.357 203.226 171.974 201.192C171.148 203.371 170.41 205.678 169.859 208.045C171.58 208.372 174.665 209.087 177.006 210.336C180.431 212.163 182.945 213.076 182.945 210.335Z" fill="#5297FF" stroke="#263238" stroke-width="1.1133" stroke-miterlimit="10" stroke-linecap="round" stroke-linejoin="round"/>
<path d="M179.417 186.713C178.618 187.918 177.053 190.389 175.363 193.649C177.051 194.093 178.922 194.801 180.889 195.943C187.97 200.055 189.341 200.512 187.057 194.573C185.634 190.874 182.353 188.329 179.417 186.713Z" fill="#5297FF" stroke="#263238" stroke-width="1.1133" stroke-miterlimit="10" stroke-linecap="round" stroke-linejoin="round"/>
<path d="M255.113 179.239C255.113 179.239 265.983 191.711 268.692 205.216C271.4 218.722 270.705 227.972 266.949 231.786C263.194 235.599 258.967 234.638 256.38 231.679C253.793 228.721 256.332 217.223 256.332 217.223C256.332 217.223 251.414 206.919 244.764 199.999C238.114 193.079 236.865 192.055 236.865 192.055C236.865 192.055 245.952 179.452 255.113 179.239Z" fill="white"/>
<mask id="mask10_3977_35893" style="mask-type:luminance" maskUnits="userSpaceOnUse" x="236" y="179" width="35" height="56">
<path d="M255.113 179.239C255.113 179.239 265.983 191.711 268.692 205.216C271.4 218.722 270.705 227.972 266.949 231.786C263.194 235.599 258.967 234.638 256.38 231.679C253.793 228.721 256.332 217.223 256.332 217.223C256.332 217.223 251.414 206.919 244.764 199.999C238.114 193.079 236.865 192.055 236.865 192.055C236.865 192.055 245.952 179.452 255.113 179.239Z" fill="white"/>
</mask>
<g mask="url(#mask10_3977_35893)">
<path d="M255.113 179.238C245.952 179.452 236.865 192.055 236.865 192.055C236.865 192.055 238.113 193.079 244.763 199.999C246.001 201.287 247.178 202.693 248.275 204.128C250.602 200.247 255.18 194.137 262.653 190.085C258.964 183.659 255.113 179.238 255.113 179.238Z" fill="#5297FF"/>
</g>
<mask id="mask11_3977_35893" style="mask-type:luminance" maskUnits="userSpaceOnUse" x="236" y="179" width="35" height="56">
<path d="M255.113 179.239C255.113 179.239 265.983 191.711 268.692 205.216C271.4 218.722 270.705 227.972 266.949 231.786C263.194 235.599 258.967 234.638 256.38 231.679C253.793 228.721 256.332 217.223 256.332 217.223C256.332 217.223 251.414 206.919 244.764 199.999C238.114 193.079 236.865 192.055 236.865 192.055C236.865 192.055 245.952 179.452 255.113 179.239Z" fill="white"/>
</mask>
<g mask="url(#mask11_3977_35893)">
<path opacity="0.5" d="M255.113 179.238C245.952 179.452 236.865 192.055 236.865 192.055C236.865 192.055 238.113 193.079 244.763 199.999C246.001 201.287 247.178 202.693 248.275 204.128C250.602 200.247 255.18 194.137 262.653 190.085C258.964 183.659 255.113 179.238 255.113 179.238Z" fill="white"/>
</g>
<path d="M255.113 179.239C255.113 179.239 265.983 191.711 268.692 205.216C271.4 218.722 270.705 227.972 266.949 231.786C263.194 235.599 258.967 234.638 256.38 231.679C253.793 228.721 256.332 217.223 256.332 217.223C256.332 217.223 251.414 206.919 244.764 199.999C238.114 193.079 236.865 192.055 236.865 192.055C236.865 192.055 245.952 179.452 255.113 179.239Z" stroke="#263238" stroke-width="1.1133" stroke-miterlimit="10" stroke-linecap="round" stroke-linejoin="round"/>
<path d="M266.949 231.786C266.949 231.786 268.182 227.992 267.622 222.308" stroke="#263238" stroke-width="1.1133" stroke-miterlimit="10" stroke-linecap="round" stroke-linejoin="round"/>
<path d="M260.945 233.755C260.945 233.755 262.838 229.666 262.415 223.051" stroke="#263238" stroke-width="1.1133" stroke-miterlimit="10" stroke-linecap="round" stroke-linejoin="round"/>
<path d="M254.555 203.855C254.319 201.457 258.423 196.33 264.575 193.679C265.612 195.766 266.573 197.99 267.352 200.291C265.672 200.787 262.672 201.8 260.466 203.272C257.234 205.427 254.824 206.583 254.555 203.855Z" fill="#5297FF" stroke="#263238" stroke-width="1.1133" stroke-miterlimit="10" stroke-linecap="round" stroke-linejoin="round"/>
<path d="M255.748 180.001C256.662 181.122 258.462 183.427 260.462 186.506C258.826 187.113 257.033 188.002 255.188 189.331C248.544 194.118 247.225 194.707 248.916 188.572C249.969 184.752 252.985 181.897 255.748 180.001Z" fill="#5297FF" stroke="#263238" stroke-width="1.1133" stroke-miterlimit="10" stroke-linecap="round" stroke-linejoin="round"/>
<path d="M179.076 174.234C179.076 174.234 176.249 183.775 177.309 187.662C178.369 191.549 183.316 188.016 188.263 192.256C193.21 196.496 197.797 204.125 216.526 205.537C235.255 206.951 246.571 196.85 250.459 191.196C254.345 185.542 253.992 178.827 260.706 178.474C267.42 178.12 261.766 165.045 259.646 162.925C259.646 162.925 272.721 143.489 272.721 138.542C272.721 133.595 260.353 134.655 245.157 139.249C245.157 139.249 233.849 133.241 213.353 136.775C192.857 140.308 186.849 146.316 186.849 146.316C186.849 146.316 161.406 149.496 159.639 152.677C157.873 155.857 163.173 169.286 179.076 174.234Z" fill="white"/>
<mask id="mask12_3977_35893" style="mask-type:luminance" maskUnits="userSpaceOnUse" x="159" y="135" width="114" height="71">
<path d="M179.076 174.234C179.076 174.234 176.249 183.775 177.309 187.662C178.369 191.549 183.316 188.016 188.263 192.256C193.21 196.496 197.797 204.125 216.526 205.537C235.255 206.951 246.571 196.85 250.459 191.196C254.345 185.542 253.992 178.827 260.706 178.474C267.42 178.12 261.766 165.045 259.646 162.925C259.646 162.925 272.721 143.489 272.721 138.542C272.721 133.595 260.353 134.655 245.157 139.249C245.157 139.249 233.849 133.241 213.353 136.775C192.857 140.308 186.849 146.316 186.849 146.316C186.849 146.316 161.406 149.496 159.639 152.677C157.873 155.857 163.173 169.286 179.076 174.234Z" fill="white"/>
</mask>
<g mask="url(#mask12_3977_35893)">
<path d="M260.706 178.474C267.42 178.12 261.766 165.045 259.646 162.925C259.646 162.925 262.133 159.228 264.936 154.65C257.338 150.681 249.884 148.477 247.9 150.709C243.639 155.504 245.959 164.683 247.9 173.61C249.841 182.538 242.077 186.42 236.643 194.183C231.209 201.946 223.445 193.406 223.445 193.406C220.728 204.663 209.083 197.287 209.083 197.287C200.156 194.57 185.017 185.643 188.122 179.431C191.228 173.221 192.004 167.398 186.57 162.352C181.136 157.306 159.462 153.122 159.462 153.122C158.327 156.946 163.822 169.487 179.074 174.232C179.074 174.232 176.246 183.773 177.307 187.66C178.367 191.547 183.314 188.014 188.261 192.254C193.208 196.494 197.795 204.123 216.524 205.536C235.253 206.949 246.569 196.848 250.457 191.194C254.345 185.542 253.992 178.827 260.706 178.474Z" fill="#5297FF"/>
</g>
<mask id="mask13_3977_35893" style="mask-type:luminance" maskUnits="userSpaceOnUse" x="159" y="135" width="114" height="71">
<path d="M179.076 174.234C179.076 174.234 176.249 183.775 177.309 187.662C178.369 191.549 183.316 188.016 188.263 192.256C193.21 196.496 197.797 204.125 216.526 205.537C235.255 206.951 246.571 196.85 250.459 191.196C254.345 185.542 253.992 178.827 260.706 178.474C267.42 178.12 261.766 165.045 259.646 162.925C259.646 162.925 272.721 143.489 272.721 138.542C272.721 133.595 260.353 134.655 245.157 139.249C245.157 139.249 233.849 133.241 213.353 136.775C192.857 140.308 186.849 146.316 186.849 146.316C186.849 146.316 161.406 149.496 159.639 152.677C157.873 155.857 163.173 169.286 179.076 174.234Z" fill="white"/>
</mask>
<g mask="url(#mask13_3977_35893)">
<path opacity="0.5" d="M260.706 178.474C267.42 178.12 261.766 165.045 259.646 162.925C259.646 162.925 262.133 159.228 264.936 154.65C257.338 150.681 249.884 148.477 247.9 150.709C243.639 155.504 245.959 164.683 247.9 173.61C249.841 182.538 242.077 186.42 236.643 194.183C231.209 201.946 223.445 193.406 223.445 193.406C220.728 204.663 209.083 197.287 209.083 197.287C200.156 194.57 185.017 185.643 188.122 179.431C191.228 173.221 192.004 167.398 186.57 162.352C181.136 157.306 159.462 153.122 159.462 153.122C158.327 156.946 163.822 169.487 179.074 174.232C179.074 174.232 176.246 183.773 177.307 187.66C178.367 191.547 183.314 188.014 188.261 192.254C193.208 196.494 197.795 204.123 216.524 205.536C235.253 206.949 246.569 196.848 250.457 191.194C254.345 185.542 253.992 178.827 260.706 178.474Z" fill="white"/>
</g>
<mask id="mask14_3977_35893" style="mask-type:luminance" maskUnits="userSpaceOnUse" x="159" y="135" width="114" height="71">
<path d="M179.076 174.234C179.076 174.234 176.249 183.775 177.309 187.662C178.369 191.549 183.316 188.016 188.263 192.256C193.21 196.496 197.797 204.125 216.526 205.537C235.255 206.951 246.571 196.85 250.459 191.196C254.345 185.542 253.992 178.827 260.706 178.474C267.42 178.12 261.766 165.045 259.646 162.925C259.646 162.925 272.721 143.489 272.721 138.542C272.721 133.595 260.353 134.655 245.157 139.249C245.157 139.249 233.849 133.241 213.353 136.775C192.857 140.308 186.849 146.316 186.849 146.316C186.849 146.316 161.406 149.496 159.639 152.677C157.873 155.857 163.173 169.286 179.076 174.234Z" fill="white"/>
</mask>
<g mask="url(#mask14_3977_35893)">
<path d="M233.073 180.612C233.333 182.848 228.365 185.263 221.977 186.005C215.588 186.748 210.199 185.538 209.939 183.302C209.679 181.065 214.647 178.651 221.035 177.908C227.424 177.165 232.813 178.376 233.073 180.612Z" fill="#5297FF"/>
</g>
<mask id="mask15_3977_35893" style="mask-type:luminance" maskUnits="userSpaceOnUse" x="159" y="135" width="114" height="71">
<path d="M179.076 174.234C179.076 174.234 176.249 183.775 177.309 187.662C178.369 191.549 183.316 188.016 188.263 192.256C193.21 196.496 197.797 204.125 216.526 205.537C235.255 206.951 246.571 196.85 250.459 191.196C254.345 185.542 253.992 178.827 260.706 178.474C267.42 178.12 261.766 165.045 259.646 162.925C259.646 162.925 272.721 143.489 272.721 138.542C272.721 133.595 260.353 134.655 245.157 139.249C245.157 139.249 233.849 133.241 213.353 136.775C192.857 140.308 186.849 146.316 186.849 146.316C186.849 146.316 161.406 149.496 159.639 152.677C157.873 155.857 163.173 169.286 179.076 174.234Z" fill="white"/>
</mask>
<g mask="url(#mask15_3977_35893)">
<path opacity="0.5" d="M233.073 180.612C233.333 182.848 228.365 185.263 221.977 186.005C215.588 186.748 210.199 185.538 209.939 183.302C209.679 181.065 214.647 178.651 221.035 177.908C227.424 177.165 232.813 178.376 233.073 180.612Z" fill="white"/>
</g>
<path d="M179.076 174.234C179.076 174.234 176.249 183.775 177.309 187.662C178.369 191.549 183.316 188.016 188.263 192.256C193.21 196.496 197.797 204.125 216.526 205.537C235.255 206.951 246.571 196.85 250.459 191.196C254.345 185.542 253.992 178.827 260.706 178.474C267.42 178.12 261.766 165.045 259.646 162.925C259.646 162.925 272.721 143.489 272.721 138.542C272.721 133.595 260.353 134.655 245.157 139.249C245.157 139.249 233.849 133.241 213.353 136.775C192.857 140.308 186.849 146.316 186.849 146.316C186.849 146.316 161.406 149.496 159.639 152.677C157.873 155.857 163.173 169.286 179.076 174.234Z" stroke="#263238" stroke-width="1.1133" stroke-miterlimit="10"/>
<path d="M252.162 145.914C243.024 152.082 246.223 158.25 250.334 161.676C252.845 163.768 256.882 163.475 259.65 162.929C259.648 162.929 259.647 162.926 259.646 162.925C259.646 162.925 272.721 143.489 272.721 138.542C272.721 138.542 261.3 139.747 252.162 145.914Z" fill="#5297FF" stroke="#263238" stroke-width="1.1133" stroke-miterlimit="10"/>
<path d="M159.463 153.123C158.328 156.948 163.823 169.489 179.075 174.234C179.075 174.234 190.711 173.099 186.827 163.734C183.205 154.995 164.873 152.819 159.463 153.123Z" fill="#5297FF" stroke="#263238" stroke-width="1.1133" stroke-miterlimit="10"/>
<path d="M213.353 136.775C212.146 136.983 210.993 137.201 209.884 137.424C211.712 146.694 214.74 162.134 217.439 162.134C220.234 162.134 222.201 145.209 223.084 135.724C220.117 135.847 216.873 136.168 213.353 136.775Z" fill="#5297FF" stroke="#263238" stroke-width="1.1133" stroke-miterlimit="10"/>
<path d="M202.819 159.392C205.63 157.739 205.21 145.32 204.762 138.583C201.35 139.449 198.529 140.365 196.209 141.253C197.237 147.561 199.824 161.155 202.819 159.392Z" fill="#5297FF" stroke="#263238" stroke-width="1.1133" stroke-miterlimit="10"/>
<path d="M230.004 153.681C232.883 154.689 234.491 144.363 235.402 136.411C232.924 136.004 229.993 135.707 226.625 135.668C226.537 142.202 226.895 152.594 230.004 153.681Z" fill="#5297FF" stroke="#263238" stroke-width="1.1133" stroke-miterlimit="10"/>
<path d="M226.159 189.434C224.605 189.057 221.273 188.588 218.196 190.41C217.742 190.679 217.664 191.311 218.049 191.672L222.931 196.248C223.323 196.615 223.96 196.49 224.183 196L226.677 190.519C226.88 190.075 226.634 189.549 226.159 189.434Z" fill="#5297FF" stroke="#263238" stroke-width="1.1133" stroke-miterlimit="10" stroke-linecap="round" stroke-linejoin="round"/>
<path d="M214.57 181.773C215.244 183.541 214.979 185.285 213.976 185.666C212.974 186.048 211.615 184.925 210.941 183.157C210.268 181.389 210.533 179.645 211.535 179.263C212.538 178.881 213.896 180.005 214.57 181.773Z" fill="#263238"/>
<path d="M227.866 180.508C227.518 182.368 228.09 184.036 229.143 184.233C230.197 184.431 231.335 183.083 231.684 181.223C232.032 179.363 231.46 177.695 230.406 177.498C229.352 177.301 228.215 178.648 227.866 180.508Z" fill="#263238"/>
<path d="M224.183 196C224.183 196 217.668 204.853 211.729 195.943" stroke="#263238" stroke-width="1.1133" stroke-miterlimit="10" stroke-linecap="round" stroke-linejoin="round"/>
<path d="M222.932 196.248C222.932 196.248 227.263 200.741 231.832 198.227C236.401 195.715 233.659 191.831 233.659 191.831" stroke="#263238" stroke-width="1.1133" stroke-miterlimit="10" stroke-linecap="round" stroke-linejoin="round"/>
<path d="M203.048 174.698C203.048 174.698 204.647 168.987 212.186 170.358" stroke="#263238" stroke-width="3.3399" stroke-miterlimit="10" stroke-linecap="round" stroke-linejoin="round"/>
<path d="M225.892 169.444C225.892 169.444 231.603 166.018 236.858 171.501" stroke="#263238" stroke-width="3.3399" stroke-miterlimit="10" stroke-linecap="round" stroke-linejoin="round"/>
<path d="M198.708 190.004L204.19 191.375" stroke="#263238" stroke-width="1.1133" stroke-miterlimit="10" stroke-linecap="round"/>
<path d="M203.505 193.43L198.708 194.344" stroke="#263238" stroke-width="1.1133" stroke-miterlimit="10" stroke-linecap="round"/>
<path d="M204.418 195.943L200.991 197.77" stroke="#263238" stroke-width="1.1133" stroke-miterlimit="10" stroke-linecap="round"/>
<path d="M239.142 187.491L243.938 186.349" stroke="#263238" stroke-width="1.1133" stroke-miterlimit="10" stroke-linecap="round"/>
<path d="M240.055 189.775H243.253" stroke="#263238" stroke-width="1.1133" stroke-miterlimit="10" stroke-linecap="round"/>
<path d="M240.741 192.059L245.081 193.202" stroke="#263238" stroke-width="1.1133" stroke-miterlimit="10" stroke-linecap="round"/>
</svg>
