<svg width="351" height="257" viewBox="0 0 351 257" fill="none" xmlns="http://www.w3.org/2000/svg">
<path d="M58.7581 234.777C58.7581 237.142 56.9348 239.598 54.6849 239.598H54.5351C52.2843 239.598 50.4609 237.142 50.4609 234.777L53.0532 212.575C53.0532 210.211 58.2118 208.682 60.4604 208.682H60.6118C62.8614 208.682 64.6853 210.211 64.6853 212.575L58.7581 234.777Z" fill="#222222"/>
<path d="M109.729 234.777C109.729 237.142 107.905 239.598 105.655 239.598H105.504C103.255 239.598 101.432 237.142 101.432 234.777L104.024 212.575C104.024 210.211 109.182 208.682 111.432 208.682H111.582C113.831 208.682 115.656 210.211 115.656 212.575L109.729 234.777Z" fill="#222222"/>
<path d="M288.947 234.777C288.947 237.142 290.77 239.598 293.019 239.598H293.169C295.42 239.598 297.244 237.142 297.244 234.777L294.651 212.575C294.651 210.211 289.493 208.682 287.243 208.682H287.093C284.843 208.682 283.02 210.211 283.02 212.575L288.947 234.777Z" fill="#222222"/>
<path d="M237.978 234.777C237.978 237.142 239.802 239.598 242.05 239.598H242.202C244.451 239.598 246.275 237.142 246.275 234.777L243.683 212.575C243.683 210.211 238.525 208.682 236.276 208.682H236.125C233.875 208.682 232.051 210.211 232.051 212.575L237.978 234.777Z" fill="#222222"/>
<path d="M268.795 157.733C268.795 167.477 261.269 175.812 251.999 175.812H110.189L106.171 155.74C106.171 145.996 98.6447 137.736 89.3751 137.736H43.1234L37.4219 108.286C37.4219 98.5417 44.9492 90.873 54.2187 90.873H242.517C251.785 90.873 257.357 99.9479 259.313 108.209L265.014 137.955L268.795 157.733Z" fill="#3579F8"/>
<path d="M328.063 155.318L319.765 195.013C319.765 204.756 312.238 212.912 302.969 212.912H44.7354C35.4668 212.912 27.9398 204.719 27.9398 194.974L19.6426 155.458C19.6426 145.713 27.1696 137.736 36.4388 137.736H43.1238L43.1715 137.974C44.0717 137.811 44.9846 137.736 45.921 137.736H89.3756C98.6451 137.736 106.172 145.996 106.172 155.74L110.19 175.813H252C261.269 175.813 268.796 167.553 268.796 157.809L265.014 137.736H311.266C320.535 137.736 328.063 145.574 328.063 155.318Z" fill="#3579F8"/>
<path d="M315.501 166.856C315.501 159.636 310.287 153.783 303.419 153.783L105.994 155.938C107.314 164.896 109.964 175.812 112.108 181.345H303.774C310.643 181.345 315.501 174.098 315.501 166.878V166.856Z" fill="#0341B3"/>
<path d="M125.839 182.972C111.592 181.025 112.091 181.658 111.592 181.025C109.974 178.975 109.043 172.919 107.965 165.907C106.949 159.305 105.9 152.476 104.246 149.295C101.015 143.08 94.6167 139.828 91.3446 138.887C88.8013 138.156 55.6827 138.657 43.1368 138.912C42.7557 138.902 42.4598 138.609 42.4533 138.22C42.4461 137.831 42.7402 137.509 43.1111 137.501C44.961 137.464 88.4487 136.592 91.6991 137.526C95.1752 138.526 101.977 141.988 105.423 148.618C107.188 152.012 108.256 158.962 109.29 165.682C110.237 171.846 111.217 177.978 112.575 179.821C118.526 182.721 239.827 181.344 305.794 179.392C305.797 179.392 305.801 179.392 305.801 179.392C306.17 179.392 306.469 179.94 306.475 180.325C306.48 180.714 306.184 181.155 305.815 181.16C305.211 181.17 244.759 182.175 184.718 182.645C160.731 182.833 141.403 182.972 125.839 182.972Z" fill="#222222"/>
<path d="M309.909 156.441C309.555 156.441 309.259 156.149 309.24 155.772C308.613 143.035 315.057 139.693 315.332 139.557C315.667 139.392 316.066 139.543 316.225 139.895C316.383 140.246 316.24 140.665 315.907 140.832C315.665 140.955 310.003 143.973 310.58 155.7C310.6 156.089 310.315 156.42 309.945 156.44C309.933 156.441 309.921 156.441 309.909 156.441Z" fill="#222222"/>
<path d="M47.3508 139.098C47.041 139.098 46.7633 138.872 46.6955 138.541C46.4714 137.449 41.2268 111.725 42.4641 104.9C43.8713 97.1434 50.0784 94.7231 53.6523 93.9707C54.0176 93.8949 54.3695 94.1419 54.4423 94.5243C54.5153 94.9057 54.2798 95.278 53.9163 95.3542C50.6721 96.0366 45.0427 98.219 43.7828 105.164C42.596 111.71 47.9532 137.979 48.0071 138.244C48.0857 138.625 47.8557 139.001 47.4932 139.082C47.4452 139.093 47.3976 139.098 47.3508 139.098Z" fill="#222222"/>
<path d="M93.2376 179.221C92.9822 179.221 92.7392 179.067 92.6262 178.808C85.1648 161.602 86.0715 153.314 88.145 149.392C90.0352 145.817 93.0243 145.374 93.1509 145.357C93.5168 145.309 93.8549 145.581 93.9022 145.967C93.949 146.352 93.6914 146.705 93.3258 146.756C93.21 146.773 90.8379 147.165 89.2953 150.12C87.3934 153.766 86.6393 161.601 93.8468 178.223C94.0007 178.578 93.8521 178.996 93.5153 179.158C93.4246 179.201 93.3302 179.221 93.2376 179.221Z" fill="#222222"/>
<path d="M268.796 154.736C268.488 154.736 268.212 154.513 268.142 154.185C268.073 153.868 261.343 122.337 258.656 108.339C256.048 94.7623 246.185 91.5617 246.085 91.5307C245.73 91.4214 245.526 91.0289 245.631 90.655C245.736 90.2814 246.109 90.0669 246.464 90.1776C246.902 90.3129 257.206 93.6575 259.971 108.06C262.655 122.043 269.383 153.559 269.451 153.877C269.532 154.256 269.305 154.634 268.943 154.719C268.893 154.73 268.844 154.736 268.796 154.736Z" fill="#222222"/>
<path d="M155.432 202.596L139.885 221.391C139.885 221.391 128.961 231.881 132.286 244.119C133.256 247.689 140.257 252.423 143.813 242.37C147.369 232.318 148.462 226.229 148.462 226.229L168.347 211.629L155.432 202.596Z" fill="#3E98D4"/>
<path d="M241.287 194.833L252.955 211.629C252.955 211.629 260.001 227.54 272.105 227.312C275.636 227.245 281.791 221.353 273.466 215.152C265.141 208.952 262.654 205.824 262.654 205.824L254.887 184.334L241.287 194.833Z" fill="#3E98D4"/>
<path d="M190.268 28.6214C190.268 20.05 183.661 13.1016 175.512 13.1016C171.428 13.1016 167.732 14.8469 165.06 17.6665C162.701 20.1571 161.143 23.4863 160.821 27.1914C158.056 32.7085 155.737 36.6636 153.264 40.3863C151.41 42.2256 149.867 44.408 148.726 46.8371C148.726 46.8371 148.726 46.8371 148.726 46.8381C147.31 49.8519 146.514 53.2453 146.514 56.8352C146.514 69.3203 156.136 79.441 168.007 79.441C179.877 79.441 189.5 69.3203 189.5 56.8352C189.5 50.906 187.329 45.5103 183.778 41.4784C187.694 38.6881 190.268 33.9709 190.268 28.6214Z" fill="#222222"/>
<path d="M153.615 76.0249C155.333 73.9161 152.337 68.2569 146.925 63.3846C141.512 58.5124 135.732 56.2722 134.014 58.3809C132.297 60.4897 135.292 66.149 140.705 71.0212C146.118 75.8934 151.898 78.1337 153.615 76.0249Z" fill="#222222"/>
<path d="M187.399 56.5273L202.49 96.3062L249.788 91.3339C249.788 91.3339 256.094 102.226 250.914 105.068C245.734 107.909 209.922 118.564 207.219 119.274C204.517 119.984 188.909 121.363 188.909 121.363C188.909 121.363 172.985 83.0469 174.561 73.1022C176.137 63.1568 187.399 56.5273 187.399 56.5273Z" fill="#FFE0CF"/>
<path d="M208.07 89.5703L208.813 110.551C208.813 110.982 211.803 111.289 215.491 111.289C219.18 111.289 222.171 111.003 222.171 110.572L223.161 89.5706L208.07 89.5703Z" fill="#0341B3"/>
<path d="M215.616 90.1812C219.783 90.1812 223.161 89.832 223.161 89.4012C223.161 88.9703 219.783 88.6211 215.616 88.6211C211.448 88.6211 208.07 88.9703 208.07 89.4012C208.07 89.832 211.448 90.1812 215.616 90.1812Z" fill="#AC0D1A"/>
<path d="M197.679 61.8179C197.679 61.8179 196.045 78.9779 189.794 80.0333C189.751 80.8352 189.7 81.5345 189.653 82.0989C189.201 87.3085 182.163 93.3707 182.163 93.3707C182.163 93.3707 172.085 118.8 169.832 119.51C167.58 120.221 136.723 130.877 132.669 123.772C128.615 116.669 158.346 46.1094 158.346 46.1094C173.226 48.1723 180.153 50.7335 184.036 53.433L197.679 61.8179Z" fill="#3E98D4"/>
<path d="M120.279 105.777C120.279 105.777 142.352 43.5043 158.343 46.1088C174.334 48.7133 161.271 70.7337 156.091 79.968C150.911 89.2029 148.884 97.9633 148.884 97.9633L184.92 92.9907C184.92 92.9907 190.776 92.7541 191.227 100.805C191.677 108.855 174.426 111.557 161.588 114.635C148.75 117.713 127.262 124.72 122.531 119.747C117.802 114.775 120.279 105.777 120.279 105.777Z" fill="#FFE0CF"/>
<path d="M190.435 43.1313C188.284 50.4849 181.559 45.5812 181.559 45.5812C181.559 45.5812 179.675 54.7273 179.405 55.5747C179.405 55.5747 183.442 66.6048 176.715 64.0605C169.991 61.515 168.375 51.3333 168.375 51.3333L172.113 42.5654L171.13 39.2173C169.955 39.8447 168.187 39.0425 167.051 37.3252C165.848 35.5021 165.812 33.3369 166.974 32.4885C167.561 32.0602 168.338 32.0476 169.12 32.373L168.375 29.8378C168.375 29.8378 170.259 19.0899 177.522 18.8081C190.435 18.526 192.589 35.7774 190.435 43.1313Z" fill="#FFE0CF"/>
<path d="M124.997 121.301C124.997 121.301 121.497 141.504 128.491 154.403C141.507 158.763 175.447 158.695 182.6 156.441C200.921 150.667 207.444 146.503 207.444 146.503L246.409 202.146C246.409 202.146 254.742 204.987 258.571 197.647C261.739 191.575 230.078 136.577 219.04 117.748C216.733 113.814 215.328 111.459 215.328 111.459C215.328 111.459 212.791 99.0414 197.535 104.593C176.89 112.105 124.997 121.301 124.997 121.301Z" fill="#222222"/>
<path d="M151.361 205.699C151.361 205.699 156.316 218.959 165.1 215.644C173.884 212.329 215.965 162.017 233.16 142.371C247.309 126.205 233.796 103.61 215.327 118.565C199.207 131.617 151.361 205.699 151.361 205.699Z" fill="#222222"/>
<path d="M244.89 106.253C244.89 106.253 252.938 106.446 256.847 104.972C260.756 103.497 263.806 103.806 264.966 101.874C266.126 99.942 264.687 97.5562 262.146 97.8087C259.606 98.0616 257.925 99.9029 257.425 95.5007C256.924 91.0998 263.119 93.2643 265.357 93.6425C267.596 94.0207 270.753 92.8419 268.059 89.8775C265.364 86.9128 261.836 88.0043 261.836 88.0043C261.836 88.0043 261.884 85.8105 259.957 85.2947C258.029 84.7776 254.007 87.1321 253.941 87.1982C253.875 87.2649 255.09 82.8262 254.153 81.3143C253.216 79.8023 251.581 79.6064 250.958 80.8456C250.334 82.0852 250.801 88.0531 248.134 90.7327C245.466 93.4124 241.118 94.5625 240.739 94.7887C240.362 95.0145 241.721 104.531 244.89 106.253Z" fill="#FFE0CF"/>
<path d="M269.038 91.8041C268.934 91.8041 268.832 91.7491 268.773 91.6499C267.077 88.7818 264.502 87.6314 261.121 88.2295C258.552 88.6842 256.458 90.0266 256.436 90.0399C256.289 90.135 256.097 90.0875 256.007 89.9329C255.917 89.7789 255.963 89.5772 256.109 89.4821C256.196 89.4255 264.915 83.8856 269.303 91.3029C269.394 91.4566 269.349 91.6587 269.203 91.7543C269.151 91.7885 269.094 91.8041 269.038 91.8041Z" fill="#222222"/>
<path d="M187.48 93.4805L199.706 95.9375C199.706 95.9375 203.242 93.1713 208.225 93.7675C208.779 93.8342 208.382 97.9168 208.411 99.0614C208.419 99.4356 208.018 99.561 208.086 99.7744C208.086 99.7744 214.669 97.9168 215.389 102.991C215.838 106.156 216.636 105.91 215.568 106.448C214.5 106.985 216.016 112.489 210.437 115.038C204.858 117.589 200.617 112.489 197.64 109.773C194.663 107.058 183.038 108.253 183.038 108.253C183.038 108.253 177.625 96.6929 187.48 93.4805Z" fill="#FFE0CF"/>
<path d="M212.645 110.909C212.298 110.909 211.923 110.853 211.521 110.742C211.355 110.695 211.255 110.516 211.3 110.341C211.344 110.166 211.514 110.062 211.681 110.108C212.583 110.359 213.304 110.283 213.826 109.884C214.677 109.232 214.754 107.923 214.754 107.91C214.757 107.851 214.775 107.795 214.805 107.747C216.276 105.407 215.619 101.997 214.457 100.84C213.615 100.001 212.913 100.016 210.588 100.069C209.918 100.084 209.084 100.102 208.089 100.102C207.916 100.102 207.777 99.9557 207.777 99.7744C207.777 99.5935 207.916 99.4467 208.089 99.4467C209.078 99.4467 209.908 99.4285 210.575 99.4128C212.964 99.3588 213.858 99.3387 214.887 100.363C216.174 101.647 217.008 105.342 215.369 108.036C215.334 108.395 215.145 109.685 214.193 110.414C213.762 110.744 213.245 110.909 212.645 110.909Z" fill="#222222"/>
<path d="M211.169 114.458C210.583 114.458 209.959 114.281 209.303 113.927C209.149 113.845 209.089 113.648 209.167 113.486C209.246 113.325 209.434 113.262 209.587 113.344C210.548 113.862 211.407 113.939 212.142 113.574C213.778 112.762 214.36 110.038 214.365 110.01C214.402 109.833 214.569 109.721 214.737 109.76C214.905 109.798 215.012 109.972 214.976 110.149C214.95 110.274 214.325 113.214 212.41 114.166C212.019 114.361 211.605 114.458 211.169 114.458Z" fill="#222222"/>
<path d="M134.477 57.7861C134.477 57.7861 158.073 79.3864 156.264 83.0411C154.455 86.6954 170.028 60.4193 168.197 53.906C166.366 47.3933 159.889 43.3719 151.408 46.2663C142.926 49.1607 134.477 57.7861 134.477 57.7861Z" fill="#3E98D4"/>
<path d="M181.556 17.2753C181.556 17.2753 185.316 27.7651 174.451 29.9504C163.586 32.1358 151.265 29.0763 154.1 20.7718C156.934 12.467 186.904 3.09729 189.589 23.9543L181.556 17.2753Z" fill="#222222"/>
<path d="M159.702 24.8164C159.702 24.8164 155.099 24.9697 152.113 28.0467C149.127 31.1234 147.685 34.6658 148.89 35.9584C150.096 37.251 153.494 35.8048 156.479 32.7281C159.465 29.6511 159.702 24.8164 159.702 24.8164Z" fill="#222222"/>
<path d="M246.408 202.474C246.312 202.474 246.218 202.428 246.157 202.341L207.334 146.901L185.474 155.86C185.313 155.926 185.133 155.842 185.07 155.673C185.008 155.505 185.088 155.315 185.247 155.249L207.33 146.198C207.462 146.144 207.611 146.19 207.695 146.309L246.659 201.952C246.761 202.098 246.732 202.303 246.593 202.41C246.537 202.453 246.472 202.474 246.408 202.474Z" fill="#FFE0CF"/>
<path d="M206.929 146.831C206.819 146.831 206.715 146.77 206.658 146.666L200.185 134.709C200.1 134.551 200.153 134.351 200.302 134.261C200.452 134.172 200.601 134.227 200.687 134.384L206.535 145.265V137.91C206.535 137.728 206.673 137.582 206.845 137.582C207.017 137.582 207.155 137.728 207.155 137.91V146.503C207.155 146.652 207.102 146.782 206.966 146.82C206.939 146.828 206.956 146.831 206.929 146.831Z" fill="#FFE0CF"/>
<path d="M241.287 157.475C241.181 157.475 241.077 157.418 241.019 157.315L218.771 117.915C218.682 117.76 218.732 117.558 218.88 117.466C219.028 117.373 219.219 117.425 219.307 117.581L241.555 156.98C241.643 157.136 241.595 157.337 241.446 157.429C241.396 157.461 241.341 157.475 241.287 157.475Z" fill="#FFE0CF"/>
<path d="M247.154 199.717C247.056 199.717 246.96 199.669 246.899 199.579L211.346 146.693C211.247 146.545 211.28 146.34 211.421 146.236C211.561 146.131 211.757 146.167 211.855 146.314L247.408 199.201C247.508 199.349 247.474 199.553 247.334 199.657C247.279 199.698 247.216 199.717 247.154 199.717Z" fill="#FFE0CF"/>
<path d="M155.432 206.191C155.371 206.191 155.309 206.172 155.254 206.132C155.113 206.029 155.079 205.824 155.177 205.676L185.105 160.531C185.203 160.382 185.398 160.346 185.539 160.45C185.68 160.553 185.715 160.757 185.616 160.905L155.688 206.05C155.628 206.142 155.531 206.191 155.432 206.191Z" fill="#FFE0CF"/>
<path d="M156.265 83.3679C156.183 83.3679 156.102 83.3341 156.041 83.2693C155.944 83.1639 155.925 83.0025 155.996 82.8752L161.965 72.1293C162.052 71.9731 162.243 71.9203 162.392 72.0115C162.541 72.1026 162.59 72.3034 162.505 72.4596L157.108 82.1719L166.76 76.5331C166.91 76.4449 167.1 76.5022 167.184 76.6603C167.268 76.8185 167.214 77.018 167.063 77.1059L156.417 83.3266C156.369 83.3539 156.316 83.3679 156.265 83.3679Z" fill="#222222"/>
<path d="M179.007 68.4981C178.579 68.4981 178.146 68.4271 177.708 68.2846C171.715 66.3407 166.821 51.6173 166.617 50.9915C166.56 50.8203 166.647 50.6338 166.81 50.5749C166.973 50.5154 167.15 50.6062 167.207 50.7777C167.255 50.9277 172.2 65.8122 177.892 67.6581C179.099 68.0493 180.225 67.8241 181.336 66.9685C184.297 62.8996 181.311 56.74 181.279 56.6782C181.2 56.5171 181.26 56.3192 181.412 56.2359C181.565 56.1526 181.753 56.2151 181.833 56.3758C181.966 56.6443 185.048 63.0086 181.803 67.4052C181.785 67.4287 181.765 67.4498 181.743 67.4674C180.866 68.1534 179.95 68.4981 179.007 68.4981Z" fill="#222222"/>
<path d="M187.729 37.4125C187.587 37.4125 187.457 37.3086 187.425 37.1554C187.388 36.979 187.494 36.8036 187.662 36.7645C187.803 36.7316 187.976 36.7128 188.16 36.6929C188.529 36.6532 189.147 36.5872 189.248 36.3532C189.273 36.2959 189.323 36.0625 188.92 35.468C187.643 33.5811 186.569 26.7941 186.524 26.5064C186.495 26.3274 186.611 26.1592 186.781 26.1295C186.95 26.0996 187.111 26.2207 187.139 26.399C187.15 26.4683 188.234 33.3233 189.428 35.0885C189.86 35.7257 189.987 36.2279 189.816 36.6233C189.567 37.2009 188.822 37.281 188.223 37.3451C188.059 37.3633 187.902 37.3796 187.797 37.4047C187.774 37.4099 187.751 37.4125 187.729 37.4125Z" fill="#222222"/>
<path d="M170.237 37.4142C170.105 37.4142 169.983 37.325 169.941 37.1857C169.19 34.7085 166.901 34.4185 166.878 34.4156C166.706 34.3957 166.583 34.2343 166.601 34.0543C166.62 33.8744 166.773 33.7439 166.945 33.7637C167.056 33.7767 169.663 34.1071 170.535 36.9865C170.587 37.1593 170.496 37.3435 170.332 37.3989C170.301 37.4089 170.269 37.4142 170.237 37.4142Z" fill="#222222"/>
<path d="M188.925 39.906C187.954 40.3922 185.828 40.7313 185.828 40.7313C185.828 40.7313 187.815 42.336 188.601 42.336C189.387 42.336 189.589 41.7535 189.017 41.1667C189.693 41.0619 189.895 39.4204 188.925 39.906Z" fill="#AC0D1A"/>
<path d="M140.827 242.822C140.746 242.822 140.665 242.789 140.605 242.724C138.694 240.673 133.519 239.549 133.466 239.538C133.298 239.502 133.189 239.328 133.223 239.151C133.257 238.974 133.422 238.859 133.591 238.895C133.811 238.942 139.006 240.072 141.05 242.265C141.171 242.394 141.168 242.602 141.045 242.728C140.985 242.791 140.906 242.822 140.827 242.822Z" fill="#222222"/>
<path d="M269.095 225.833C268.989 225.833 268.885 225.776 268.827 225.673C266.32 221.238 274.211 216.111 274.547 215.896C274.694 215.801 274.886 215.85 274.976 216.005C275.066 216.159 275.019 216.361 274.872 216.455C274.795 216.505 267.169 221.457 269.363 225.338C269.45 225.493 269.402 225.694 269.253 225.787C269.204 225.818 269.15 225.833 269.095 225.833Z" fill="#222222"/>
<path d="M154.9 156.054C141.836 156.054 132.248 150.397 132.133 150.328C131.984 150.238 131.932 150.038 132.017 149.881C132.104 149.724 132.294 149.669 132.443 149.759C132.578 149.84 146.175 157.855 163.008 154.638C179.936 151.402 197.402 145.105 197.577 145.042C197.738 144.982 197.917 145.073 197.972 145.245C198.029 145.416 197.942 145.603 197.779 145.662C197.605 145.725 180.096 152.038 163.12 155.283C160.272 155.827 157.516 156.054 154.9 156.054Z" fill="#FFE0CF"/>
<path d="M134.477 134.874C134.413 134.874 134.349 134.854 134.294 134.811C134.155 134.705 134.124 134.5 134.225 134.354C134.29 134.26 140.636 125.126 147.781 117.487C143.704 120.823 134.459 128.97 127.944 134.796C127.813 134.914 127.615 134.897 127.504 134.759C127.392 134.621 127.408 134.414 127.539 134.297C127.594 134.248 133.008 129.409 138.402 124.686C141.57 121.911 144.111 119.719 145.955 118.171C149.652 115.066 149.737 115.161 149.986 115.445C150.227 115.719 150.143 115.921 148.705 117.437C141.4 125.138 134.795 134.645 134.73 134.74C134.669 134.828 134.573 134.874 134.477 134.874Z" fill="#FFE0CF"/>
<path d="M202.044 95.6221C201.985 95.6221 201.925 95.6046 201.871 95.5668C200.555 94.6445 187.79 94.1619 179.532 94.062C179.359 94.0601 179.221 93.9116 179.223 93.7304C179.225 93.5494 179.36 93.4092 179.538 93.4062C181.66 93.432 200.324 93.6946 202.217 95.0211C202.361 95.1219 202.399 95.3254 202.304 95.4757C202.244 95.5711 202.145 95.6221 202.044 95.6221Z" fill="#222222"/>
<path d="M312.012 147.525C307.548 156.547 295.219 161.418 286.55 158.394C282.957 157.42 281.083 154.317 281.083 154.317C281.083 154.317 281.057 154.36 281.004 154.442C280.525 155.166 277.834 158.77 271.621 159.008C264.713 159.272 262.913 157.154 262.913 157.154C262.913 157.154 256.829 160.417 255.149 152.857C255.13 152.782 255.114 152.707 255.098 152.631C255.024 148.631 256.708 147.857 256.708 147.857C256.708 147.857 254.115 145.905 254.564 141.972C254.615 141.491 254.717 140.98 254.873 140.44C256.303 135.485 259.365 133.081 260.978 131.631C262.59 130.182 267.253 125.528 267.991 124.28C268.728 123.034 269.216 122.433 269.913 123.697C270.641 125.016 272.087 127.216 272.246 129.551C272.286 130.118 275.352 126.41 276.089 124.978C276.823 123.545 277.81 122.971 278.542 124.558C279.267 126.13 279.324 128.868 279.05 129.339C279.266 129.061 282.768 124.586 286.646 122.483C291.984 119.59 301.65 116.386 308.863 122.953C309.419 123.458 309.934 123.979 310.409 124.514C311.154 125.349 311.8 126.216 312.354 127.114C316.042 133.073 315.59 140.288 312.012 147.525Z" fill="#222222"/>
<path d="M281.094 154.709C280.949 154.712 280.812 154.627 280.748 154.482C280.709 154.396 279.807 152.338 279.228 149.629C278.441 145.954 277.226 137.209 282.917 135.363C284.425 134.873 285.656 135.029 286.576 135.823C288.397 137.394 288.348 140.884 288.157 142.825C287.614 148.336 290.75 150.831 293.866 151.329C298.675 152.097 303.798 146.479 304.273 145.765C304.356 145.603 304.54 145.52 304.714 145.578C304.91 145.643 305.02 145.863 304.958 146.069C304.851 146.426 299.331 152.995 293.754 152.104C290.298 151.552 286.818 148.804 287.415 142.744C287.713 139.709 287.236 137.406 286.103 136.429C285.387 135.811 284.389 135.706 283.137 136.113C278.042 137.765 279.214 145.996 279.954 149.457C280.517 152.084 281.415 154.131 281.424 154.152C281.51 154.348 281.43 154.581 281.242 154.673C281.194 154.696 281.143 154.708 281.094 154.709Z" fill="white"/>
<path d="M268.795 132.849C268.639 132.852 268.492 132.751 268.436 132.589C268.366 132.385 268.468 132.161 268.661 132.088C268.681 132.081 270.647 131.177 271.948 129.32C272.071 129.145 272.304 129.108 272.47 129.236C272.636 129.365 272.672 129.61 272.55 129.784C271.234 131.662 269.25 132.699 268.913 132.826C268.875 132.84 268.835 132.848 268.795 132.849Z" fill="white"/>
<path d="M276.449 134.91C276.359 134.911 276.267 134.879 276.195 134.81C276.04 134.668 276.025 134.42 276.162 134.257C276.181 134.234 278.112 131.914 278.677 129.266C278.722 129.054 278.923 128.921 279.122 128.969C279.323 129.016 279.45 129.226 279.405 129.437C278.798 132.286 276.805 134.676 276.72 134.777C276.649 134.862 276.55 134.907 276.449 134.91Z" fill="white"/>
<path d="M259.227 139.39C258.447 139.406 257.851 139.162 257.452 138.664C256.7 137.723 256.997 136.242 257.009 136.179C257.054 135.969 257.253 135.834 257.453 135.88C257.655 135.926 257.782 136.135 257.738 136.346C257.735 136.357 257.508 137.518 258.024 138.161C258.281 138.481 258.708 138.632 259.284 138.603C259.48 138.606 259.664 138.762 259.673 138.978C259.681 139.195 259.522 139.378 259.316 139.387C259.286 139.389 259.257 139.39 259.227 139.39Z" fill="white"/>
<path d="M265.955 142.938C265.328 142.951 264.811 142.787 264.408 142.446C263.508 141.685 263.577 140.349 263.581 140.292C263.594 140.076 263.775 139.914 263.976 139.925C264.182 139.939 264.338 140.125 264.326 140.34C264.325 140.361 264.284 141.338 264.88 141.838C265.324 142.212 266.036 142.255 266.994 141.969C270.132 141.032 271.104 139.308 271.114 139.291C271.217 139.104 271.444 139.038 271.623 139.146C271.802 139.253 271.863 139.493 271.761 139.681C271.716 139.763 270.626 141.7 267.198 142.724C266.746 142.859 266.33 142.93 265.955 142.938Z" fill="white"/>
<path d="M263.032 150.768C263.025 150.768 263.018 150.768 263.01 150.768C262.844 150.762 258.915 150.569 256.455 148.142C256.303 147.994 256.296 147.747 256.437 147.589C256.58 147.431 256.815 147.423 256.965 147.571C259.219 149.794 263.003 149.984 263.04 149.985C263.246 149.994 263.406 150.176 263.398 150.393C263.389 150.601 263.228 150.764 263.032 150.768Z" fill="white"/>
<path d="M262.922 157.545C262.833 157.547 262.743 157.516 262.67 157.45C262.662 157.446 262.621 157.426 262.57 157.399C261.987 157.094 260.21 156.168 260.593 152.895C260.716 151.842 261.112 151.139 261.768 150.81C263.069 150.154 264.868 151.312 264.944 151.363C265.12 151.477 265.173 151.718 265.065 151.902C264.956 152.086 264.727 152.143 264.551 152.029C264.13 151.754 262.863 151.127 262.089 151.517C261.677 151.724 261.423 152.22 261.333 152.991C261.015 155.712 262.336 156.402 262.901 156.697C263.017 156.757 263.094 156.797 263.16 156.856C263.315 156.999 263.332 157.247 263.197 157.411C263.125 157.497 263.024 157.543 262.922 157.545Z" fill="white"/>
<path d="M282.893 128.619C282.831 128.62 282.768 128.605 282.709 128.572C282.528 128.468 282.461 128.23 282.559 128.04C282.648 127.869 283.446 126.358 284.309 125.93C284.496 125.838 284.718 125.922 284.806 126.117C284.894 126.313 284.814 126.547 284.627 126.639C284.082 126.909 283.408 128.04 283.214 128.414C283.148 128.542 283.023 128.616 282.893 128.619Z" fill="white"/>
<path d="M285.856 127.326C285.761 127.328 285.665 127.291 285.59 127.216C285.443 127.066 285.438 126.819 285.58 126.663C285.61 126.63 286.335 125.848 287.834 125.119C288.022 125.027 288.243 125.113 288.329 125.309C288.415 125.505 288.334 125.739 288.147 125.83C286.787 126.492 286.124 127.2 286.117 127.207C286.046 127.284 285.952 127.324 285.856 127.326Z" fill="white"/>
<path d="M286.893 124.718C286.8 124.72 286.706 124.685 286.632 124.613C286.482 124.465 286.474 124.217 286.614 124.059C286.652 124.015 287.581 122.981 288.873 122.498C289.068 122.425 289.28 122.532 289.349 122.735C289.417 122.94 289.316 123.163 289.122 123.236C288.006 123.653 287.167 124.585 287.159 124.594C287.088 124.675 286.991 124.716 286.893 124.718Z" fill="white"/>
<path d="M291.281 122.718C291.131 122.721 290.989 122.63 290.929 122.476C290.85 122.275 290.941 122.047 291.13 121.964C291.187 121.939 292.535 121.358 294.034 121.202C294.247 121.178 294.423 121.337 294.443 121.552C294.463 121.768 294.314 121.96 294.109 121.982C292.718 122.127 291.429 122.684 291.416 122.688C291.371 122.708 291.326 122.717 291.281 122.718Z" fill="white"/>
<path d="M301.465 122.171C301.443 122.171 301.422 122.17 301.4 122.167C299.234 121.812 297.568 121.779 297.26 121.86C297.118 121.957 296.927 121.941 296.799 121.813C296.651 121.662 296.647 121.414 296.79 121.258C297.294 120.708 301.472 121.385 301.515 121.391C301.718 121.425 301.857 121.625 301.826 121.839C301.797 122.03 301.642 122.168 301.465 122.171Z" fill="white"/>
<path d="M289.979 125.209C289.84 125.213 289.705 125.133 289.638 124.994C289.545 124.8 289.619 124.565 289.803 124.467C289.956 124.386 291.317 123.671 291.989 123.528C292.19 123.483 292.388 123.622 292.428 123.834C292.47 124.047 292.339 124.254 292.137 124.297C291.652 124.4 290.53 124.96 290.139 125.168C290.087 125.195 290.032 125.208 289.979 125.209Z" fill="white"/>
<path d="M295.226 123.839C295.067 123.842 294.917 123.737 294.865 123.571C294.8 123.365 294.906 123.143 295.101 123.075C295.452 122.952 296.641 122.561 297.17 122.687C297.371 122.735 297.496 122.946 297.45 123.157C297.404 123.367 297.202 123.498 297.003 123.452C296.786 123.4 295.965 123.598 295.336 123.818C295.3 123.831 295.263 123.838 295.226 123.839Z" fill="white"/>
<path d="M303.673 124.375C303.608 124.376 303.542 124.359 303.48 124.323C302.401 123.671 301.51 123.707 301.505 123.71C301.5 123.71 301.497 123.71 301.493 123.711C301.293 123.715 301.124 123.55 301.114 123.338C301.104 123.122 301.262 122.938 301.468 122.927C301.512 122.925 302.587 122.88 303.852 123.643C304.03 123.75 304.092 123.99 303.99 124.178C303.922 124.302 303.8 124.372 303.673 124.375Z" fill="white"/>
<path d="M284.733 140.53C284.723 140.53 284.714 140.53 284.704 140.529C284.498 140.517 284.342 140.331 284.354 140.115C284.429 138.723 284.144 138.415 284.098 138.375C283.922 138.333 283.797 138.161 283.809 137.967C283.823 137.75 284 137.589 284.207 137.602C284.448 137.619 285.222 137.855 285.098 140.16C285.087 140.365 284.926 140.525 284.733 140.53Z" fill="white"/>
<path d="M286.581 141.043C286.56 141.043 286.538 141.042 286.517 141.038C286.313 141.005 286.173 140.805 286.205 140.591C286.38 139.393 285.803 138.728 285.797 138.723C285.653 138.567 285.657 138.319 285.804 138.168C285.952 138.016 286.188 138.02 286.331 138.176C286.366 138.214 287.176 139.111 286.942 140.71C286.914 140.901 286.759 141.039 286.581 141.043Z" fill="white"/>
<path d="M285.337 146.738C285.285 146.74 285.233 146.729 285.182 146.706C284.993 146.62 284.907 146.39 284.988 146.191C285.115 145.881 285.094 144.906 284.925 143.294C284.907 143.122 284.896 143.004 284.895 142.968C284.89 142.751 285.054 142.573 285.261 142.568C285.465 142.564 285.635 142.735 285.64 142.95C285.643 142.986 285.652 143.078 285.666 143.208C285.803 144.511 285.911 145.922 285.673 146.501C285.612 146.647 285.478 146.736 285.337 146.738Z" fill="white"/>
<path d="M280.637 145.91C280.47 145.914 280.315 145.799 280.27 145.621C280.07 144.844 280.192 142.935 280.206 142.72C280.221 142.503 280.396 142.342 280.605 142.356C280.81 142.372 280.965 142.559 280.951 142.776C280.914 143.323 280.848 144.866 280.99 145.416C281.044 145.626 280.926 145.84 280.727 145.897C280.697 145.906 280.667 145.91 280.637 145.91Z" fill="white"/>
<path d="M271.568 146.65C271.558 146.65 271.547 146.65 271.535 146.649L260.732 145.885C260.527 145.87 260.371 145.683 260.386 145.467C260.399 145.251 260.576 145.088 260.783 145.102L271.585 145.867C271.791 145.882 271.947 146.068 271.933 146.284C271.92 146.489 271.76 146.646 271.568 146.65Z" fill="white"/>
<path d="M269.123 150.642C269.071 150.643 269.019 150.633 268.968 150.611L260.628 146.838C260.44 146.753 260.351 146.522 260.433 146.323C260.515 146.124 260.732 146.032 260.923 146.118L269.263 149.89C269.452 149.976 269.54 150.206 269.458 150.405C269.398 150.551 269.265 150.639 269.123 150.642Z" fill="white"/>
<path d="M269.19 154.338C269.114 154.339 269.037 154.317 268.97 154.267L260.586 148.094C260.416 147.97 260.375 147.726 260.493 147.548C260.611 147.371 260.844 147.327 261.013 147.452L269.398 153.625C269.567 153.749 269.608 153.994 269.489 154.171C269.418 154.277 269.306 154.335 269.19 154.338Z" fill="white"/>
<path d="M256.27 143.136C256.218 143.137 256.165 143.126 256.115 143.103L247.317 139.104C247.129 139.018 247.041 138.787 247.122 138.588C247.204 138.389 247.424 138.298 247.614 138.384L256.411 142.383C256.6 142.469 256.687 142.7 256.605 142.899C256.545 143.045 256.411 143.132 256.27 143.136Z" fill="#222222"/>
<path d="M254.551 143.98C254.515 143.981 254.478 143.975 254.441 143.965L247.41 141.825C247.212 141.765 247.097 141.547 247.156 141.339C247.212 141.132 247.42 141.012 247.617 141.072L254.648 143.212C254.846 143.272 254.959 143.489 254.903 143.697C254.856 143.866 254.711 143.976 254.551 143.98Z" fill="#222222"/>
<path d="M254.712 144.964C254.697 144.964 254.684 144.963 254.668 144.962L247.381 144.244C247.176 144.223 247.026 144.032 247.045 143.817C247.063 143.602 247.239 143.442 247.451 143.463L254.738 144.182C254.943 144.202 255.094 144.393 255.075 144.608C255.057 144.809 254.898 144.96 254.712 144.964Z" fill="#222222"/>
<path d="M258.977 146.908C258.07 146.927 257.662 146.395 257.466 145.522C257.181 145.706 256.816 145.778 256.374 145.737L256.315 145.732C256.111 145.726 255.944 145.551 255.945 145.339C255.946 145.125 256.102 144.952 256.305 144.948C256.336 144.948 256.382 144.95 256.441 144.956C256.804 144.991 257.172 144.979 257.352 144.442C257.41 144.268 257.577 144.16 257.75 144.183C257.924 144.205 258.059 144.352 258.075 144.535C258.218 146.14 258.581 146.133 258.963 146.125C259.17 146.121 259.34 146.292 259.344 146.509C259.348 146.725 259.184 146.905 258.977 146.908Z" fill="white"/>
</svg>
