<svg width="593" height="557" viewBox="0 0 593 557" fill="none" xmlns="http://www.w3.org/2000/svg">
<g filter="url(#filter0_dd_4019_1047)">
<rect x="59.7402" y="149.154" width="240" height="128" rx="20" transform="rotate(-10 59.7402 149.154)" fill="white" fill-opacity="0.8"/>
</g>
<g filter="url(#filter1_dd_4019_1047)">
<rect x="84.7461" y="290.967" width="240" height="128" rx="20" transform="rotate(-10 84.7461 290.967)" fill="white" fill-opacity="0.8"/>
</g>
<rect x="329.652" y="117.539" width="145.537" height="16" rx="8" transform="rotate(-10 329.652 117.539)" fill="white" fill-opacity="0.4"/>
<rect x="354.486" y="258.361" width="145.537" height="16" rx="8" transform="rotate(-10 354.486 258.361)" fill="white" fill-opacity="0.4"/>
<rect x="385.191" y="163.594" width="99" height="16" rx="8" transform="rotate(-10 385.191 163.594)" fill="white" fill-opacity="0.4"/>
<rect x="410.023" y="304.421" width="99" height="16" rx="8" transform="rotate(-10 410.023 304.421)" fill="white" fill-opacity="0.4"/>
<rect x="333.816" y="139.024" width="90.6273" height="16" rx="8" transform="rotate(-10 333.816 139.024)" fill="white" fill-opacity="0.4"/>
<rect x="358.65" y="279.856" width="90.6273" height="16" rx="8" transform="rotate(-10 358.65 279.856)" fill="white" fill-opacity="0.4"/>
<rect x="389.012" y="185.256" width="63" height="16" rx="8" transform="rotate(-10 389.012 185.256)" fill="white" fill-opacity="0.4"/>
<rect x="413.844" y="326.083" width="63" height="16" rx="8" transform="rotate(-10 413.844 326.083)" fill="white" fill-opacity="0.4"/>
<circle cx="360.917" cy="187.163" r="19" transform="rotate(-10 360.917 187.163)" fill="white" fill-opacity="0.4"/>
<circle cx="385.749" cy="327.995" r="19" transform="rotate(-10 385.749 327.995)" fill="white" fill-opacity="0.4"/>
<g filter="url(#filter2_bd_4019_1047)">
<rect x="47.7715" y="123.409" width="486" height="376" rx="20" transform="rotate(-10 47.7715 123.409)" fill="#F3F3F3" fill-opacity="0.81"/>
</g>
<g filter="url(#filter3_dd_4019_1047)">
<rect x="78.0059" y="156.664" width="438" height="64" rx="32" transform="rotate(-10 78.0059 156.664)" fill="white" fill-opacity="0.8"/>
<circle cx="113.505" cy="181.52" r="8.64286" transform="rotate(-10 113.505 181.52)" stroke="#A0A0A0" stroke-width="2.5"/>
<path d="M119.877 185.98L128.979 192.354" stroke="#A0A0A0" stroke-width="2.5"/>
<path d="M154.472 182.996C152.712 183.306 151.199 182.975 149.933 182.003C148.672 181.029 147.878 179.613 147.55 177.755C147.198 175.759 147.457 174.071 148.327 172.692C149.196 171.313 150.56 170.46 152.418 170.132C154.132 169.83 155.613 170.164 156.86 171.133C158.114 172.102 158.905 173.519 159.234 175.383C159.591 177.408 159.337 179.104 158.471 180.47C157.605 181.837 156.272 182.679 154.472 182.996ZM152.546 171.466C151.242 171.696 150.266 172.353 149.618 173.437C148.97 174.521 148.781 175.827 149.051 177.357C149.321 178.886 149.933 180.048 150.888 180.843C151.849 181.632 152.966 181.914 154.241 181.689C155.603 181.449 156.598 180.815 157.226 179.788C157.854 178.761 158.028 177.449 157.746 175.85C157.457 174.211 156.853 173.012 155.933 172.252C155.014 171.492 153.885 171.23 152.546 171.466ZM169.072 180.208L167.661 180.456L166.31 172.796L164.25 173.159C164.519 176.069 164.468 178.155 164.095 179.416C163.728 180.677 163.06 181.392 162.091 181.563C161.797 181.615 161.536 181.62 161.308 181.577L161.093 180.356C161.313 180.424 161.541 180.438 161.778 180.396C163.047 180.172 163.406 177.429 162.852 172.165L167.509 171.344L169.072 180.208ZM179.381 178.39L178.1 178.616L176.853 171.544C176.769 171.815 176.638 172.198 176.457 172.694L173.426 179.44L171.954 179.699L170.391 170.836L171.69 170.607L172.921 177.592C172.961 177.413 173.061 177.1 173.22 176.656L176.346 169.786L177.818 169.527L179.381 178.39ZM191.827 176.195L190.425 176.442L189.137 169.137C189.075 169.529 188.975 170.106 188.835 170.868L187.621 176.937L186.348 177.161L183.062 171.886C182.887 171.602 182.595 171.094 182.187 170.363L183.475 177.668L182.254 177.883L180.691 169.02L182.5 168.701L185.857 174.071C186.098 174.462 186.415 175.008 186.806 175.706L187.135 173.881L188.377 167.665L190.264 167.332L191.827 176.195ZM202.058 174.391L200.639 174.641L199.289 166.99L194.771 167.787L196.12 175.438L194.701 175.688L193.138 166.825L200.495 165.528L202.058 174.391ZM212.358 172.575L211.077 172.801L209.83 165.729C209.747 166 209.615 166.383 209.435 166.879L206.403 173.625L204.932 173.884L203.369 165.021L204.667 164.792L205.899 171.777C205.939 171.598 206.038 171.286 206.198 170.841L209.324 163.971L210.795 163.712L212.358 172.575ZM221.576 170.95L220.157 171.2L219.913 169.815L219.878 169.821C219.448 170.992 218.633 171.683 217.432 171.894C216.549 172.05 215.816 171.939 215.231 171.56C214.653 171.18 214.295 170.603 214.159 169.83C213.867 168.174 214.672 167.038 216.575 166.423L219.166 165.582C218.901 164.076 218.159 163.431 216.942 163.645C215.874 163.834 214.975 164.367 214.243 165.246L213.987 163.792C214.76 163.084 215.715 162.63 216.852 162.43C218.935 162.062 220.171 162.981 220.56 165.185L221.576 170.95ZM219.366 166.716L217.28 167.388C216.639 167.596 216.171 167.848 215.878 168.143C215.584 168.433 215.49 168.875 215.595 169.47C215.671 169.902 215.886 170.23 216.241 170.453C216.601 170.67 217.037 170.733 217.551 170.642C218.255 170.518 218.791 170.17 219.161 169.599C219.535 169.022 219.655 168.355 219.522 167.599L219.366 166.716ZM232.55 172.344L231.346 172.556L230.777 169.327L224.182 170.49L224.751 173.719L223.539 173.932L222.758 169.501L223.545 169.362C224.673 166.914 224.99 164.225 224.497 161.296L229.102 160.484L230.452 168.144L231.768 167.912L232.55 172.344ZM229.033 168.394L227.894 161.937L225.93 162.284C226.195 164.7 225.902 166.971 225.051 169.096L229.033 168.394ZM243.639 167.059L242.237 167.306L240.674 158.443L242.076 158.196L243.639 167.059ZM233.945 168.769L232.382 159.905L233.802 159.655L234.402 163.057L236.79 162.635C237.696 162.476 238.457 162.586 239.071 162.965C239.691 163.344 240.076 163.957 240.225 164.805C240.376 165.659 240.227 166.382 239.777 166.973C239.328 167.564 238.694 167.931 237.875 168.076L233.945 168.769ZM234.617 164.277L235.151 167.307L237.28 166.931C238.457 166.724 238.954 166.1 238.771 165.062C238.598 164.081 237.917 163.695 236.729 163.905L234.617 164.277Z" fill="#565656"/>
<rect x="244" y="145.331" width="1" height="32" transform="rotate(-10 244 145.331)" fill="#565656"/>
</g>
<g filter="url(#filter4_d_4019_1047)">
<g clip-path="url(#clip0_4019_1047)">
<rect x="89.8145" y="223.63" width="438" height="221" rx="4" transform="rotate(-10 89.8145 223.63)" fill="white" fill-opacity="0.8"/>
<line x1="113.691" y1="359.041" x2="545.036" y2="282.984" stroke="#DADADA"/>
</g>
</g>
<g filter="url(#filter5_dd_4019_1047)">
<rect x="156.662" y="234.183" width="312" height="16" rx="8" transform="rotate(-10 156.662 234.183)" fill="white" fill-opacity="0.9"/>
</g>
<g filter="url(#filter6_dd_4019_1047)">
<rect x="166.734" y="291.301" width="312" height="16" rx="8" transform="rotate(-10 166.734 291.301)" fill="white" fill-opacity="0.9"/>
</g>
<g filter="url(#filter7_dd_4019_1047)">
<rect x="160.83" y="257.818" width="148" height="16" rx="8" transform="rotate(-10 160.83 257.818)" fill="white" fill-opacity="0.9"/>
</g>
<g filter="url(#filter8_dd_4019_1047)">
<rect x="170.902" y="314.937" width="148" height="16" rx="8" transform="rotate(-10 170.902 314.937)" fill="white" fill-opacity="0.9"/>
</g>
<g filter="url(#filter9_dd_4019_1047)">
<rect x="180.105" y="367.132" width="69" height="16" rx="8" transform="rotate(-10 180.105 367.132)" fill="white" fill-opacity="0.9"/>
</g>
<g filter="url(#filter10_dd_4019_1047)">
<rect x="184.967" y="394.707" width="69" height="16" rx="8" transform="rotate(-10 184.967 394.707)" fill="white" fill-opacity="0.9"/>
</g>
<g filter="url(#filter11_dd_4019_1047)">
<rect x="252.98" y="354.282" width="69" height="16" rx="8" transform="rotate(-10 252.98 354.282)" fill="white" fill-opacity="0.9"/>
</g>
<g filter="url(#filter12_dd_4019_1047)">
<rect x="257.844" y="381.857" width="93" height="16" rx="8" transform="rotate(-10 257.844 381.857)" fill="white" fill-opacity="0.9"/>
</g>
<g filter="url(#filter13_bd_4019_1047)">
<rect x="213.473" y="186.698" width="486" height="376" rx="20" transform="rotate(-10 213.473 186.698)" fill="#F3F3F3" fill-opacity="0.81"/>
</g>
<g filter="url(#filter14_dd_4019_1047)">
<rect x="266.576" y="309.339" width="145" height="16" rx="8" transform="rotate(-10 266.576 309.339)" fill="#ECECEC"/>
</g>
<g filter="url(#filter15_dd_4019_1047)">
<rect x="282.898" y="401.912" width="113" height="16" rx="8" transform="rotate(-10 282.898 401.912)" fill="#ECECEC"/>
</g>
<g filter="url(#filter16_dd_4019_1047)">
<rect x="287.066" y="425.547" width="158" height="16" rx="8" transform="rotate(-10 287.066 425.547)" fill="#ECECEC"/>
</g>
<g filter="url(#filter17_dd_4019_1047)">
<rect x="291.234" y="449.182" width="78" height="16" rx="8" transform="rotate(-10 291.234 449.182)" fill="#ECECEC"/>
</g>
<g filter="url(#filter18_dd_4019_1047)">
<rect x="261.193" y="278.81" width="191" height="16" rx="8" transform="rotate(-10 261.193 278.81)" fill="#ECECEC"/>
</g>
<g filter="url(#filter19_dd_4019_1047)">
<rect x="270.744" y="332.975" width="34" height="16" rx="8" transform="rotate(-10 270.744 332.975)" fill="#ECECEC"/>
</g>
<g filter="url(#filter20_dd_4019_1047)">
<rect x="309.15" y="326.203" width="85" height="16" rx="8" transform="rotate(-10 309.15 326.203)" fill="#ECECEC"/>
</g>
<g filter="url(#filter21_dd_4019_1047)">
<rect x="274.912" y="356.61" width="34" height="16" rx="8" transform="rotate(-10 274.912 356.61)" fill="#ECECEC"/>
</g>
<g filter="url(#filter22_dd_4019_1047)">
<rect x="313.318" y="349.838" width="85" height="16" rx="8" transform="rotate(-10 313.318 349.838)" fill="#ECECEC"/>
</g>
<path d="M266.735 220.969L265.29 221.224L263.822 212.898C263.706 212.24 263.604 211.428 263.517 210.461L263.482 210.467C263.443 211.052 263.389 211.474 263.322 211.736L260.763 222.022L260.053 222.148L254.151 213.425C253.981 213.169 253.782 212.767 253.554 212.218L253.52 212.224C253.653 212.712 253.819 213.519 254.018 214.644L255.483 222.953L254.081 223.201L251.892 210.789L253.814 210.45L259.148 218.434C259.56 219.045 259.838 219.508 259.982 219.822L260.034 219.813C260.162 219.088 260.272 218.545 260.363 218.184L262.729 208.878L264.547 208.557L266.735 220.969ZM273.558 219.981C272.248 220.211 271.128 219.984 270.198 219.297C269.272 218.603 268.689 217.573 268.448 216.205C268.185 214.716 268.387 213.482 269.053 212.502C269.719 211.522 270.745 210.909 272.129 210.665C273.451 210.432 274.553 210.657 275.435 211.341C276.323 212.023 276.894 213.086 277.148 214.528C277.397 215.942 277.196 217.146 276.545 218.142C275.898 219.131 274.902 219.743 273.558 219.981ZM272.236 211.878C271.324 212.039 270.658 212.477 270.237 213.194C269.815 213.905 269.7 214.806 269.893 215.897C270.078 216.947 270.492 217.728 271.136 218.239C271.779 218.75 272.551 218.926 273.451 218.768C274.369 218.606 275.02 218.185 275.406 217.504C275.797 216.822 275.896 215.933 275.703 214.836C275.508 213.729 275.109 212.918 274.507 212.406C273.911 211.892 273.154 211.716 272.236 211.878ZM286.608 213.262L280.35 214.365C280.547 215.348 280.947 216.063 281.549 216.51C282.152 216.957 282.897 217.102 283.786 216.945C284.784 216.769 285.644 216.279 286.364 215.473L286.599 216.806C285.92 217.509 284.94 217.974 283.659 218.199C282.407 218.42 281.352 218.193 280.495 217.517C279.637 216.835 279.079 215.764 278.822 214.304C278.579 212.925 278.77 211.734 279.397 210.731C280.028 209.722 280.923 209.115 282.083 208.91C283.243 208.705 284.207 208.922 284.974 209.561C285.741 210.199 286.242 211.184 286.477 212.517L286.608 213.262ZM284.942 212.315C284.791 211.497 284.48 210.894 284.007 210.507C283.54 210.12 282.96 209.987 282.268 210.109C281.599 210.227 281.072 210.567 280.69 211.128C280.307 211.689 280.128 212.366 280.155 213.159L284.942 212.315ZM298.088 215.655C296.778 215.886 295.658 215.658 294.727 214.972C293.802 214.278 293.219 213.247 292.977 211.88C292.715 210.391 292.917 209.157 293.583 208.176C294.249 207.196 295.274 206.584 296.659 206.34C297.981 206.107 299.082 206.332 299.964 207.015C300.852 207.698 301.423 208.76 301.678 210.203C301.927 211.617 301.726 212.821 301.074 213.817C300.428 214.805 299.432 215.418 298.088 215.655ZM296.766 207.553C295.854 207.713 295.188 208.152 294.767 208.869C294.345 209.58 294.23 210.481 294.422 211.571C294.608 212.622 295.022 213.402 295.665 213.914C296.309 214.425 297.081 214.601 297.981 214.442C298.898 214.281 299.55 213.859 299.936 213.179C300.327 212.497 300.426 211.608 300.233 210.511C300.037 209.403 299.639 208.593 299.037 208.08C298.44 207.567 297.683 207.391 296.766 207.553ZM309.256 199.835L309.491 201.168C309.285 201.383 308.927 201.58 308.417 201.759C307.154 202.184 306.278 202.535 305.792 202.811C305.31 203.08 304.954 203.542 304.724 204.195C304.5 204.847 304.442 205.753 304.551 206.912L304.586 206.906C305.101 205.779 306 205.103 307.281 204.878C308.452 204.671 309.466 204.906 310.323 205.582C311.18 206.258 311.724 207.253 311.956 208.569C312.196 209.925 312.013 211.082 311.408 212.039C310.808 212.99 309.876 213.577 308.613 213.799C307.251 214.039 306.116 213.743 305.207 212.909C304.303 212.069 303.693 210.752 303.377 208.957C303.131 207.561 303.055 206.355 303.149 205.338C303.243 204.316 303.48 203.519 303.861 202.946C304.248 202.372 304.71 201.942 305.249 201.657C305.794 201.371 306.742 200.98 308.095 200.486C308.626 200.261 309.013 200.044 309.256 199.835ZM304.781 208.317L304.998 209.546C305.085 210.007 305.234 210.447 305.445 210.868C305.656 211.289 305.916 211.648 306.224 211.945C306.532 212.241 306.868 212.444 307.233 212.552C307.603 212.66 308.004 212.675 308.437 212.599C309.227 212.459 309.813 212.053 310.194 211.379C310.58 210.698 310.691 209.896 310.528 208.973C310.349 207.957 309.956 207.196 309.349 206.69C308.747 206.178 308.022 205.996 307.174 206.146C305.985 206.355 305.188 207.079 304.781 208.317ZM320.49 202.352L318.226 213.354C317.823 215.317 316.963 216.414 315.648 216.646C315.278 216.712 314.963 216.728 314.702 216.697L314.477 215.425C314.801 215.475 315.09 215.477 315.344 215.433C316.06 215.306 316.521 214.785 316.728 213.868L317.142 212.063L312.12 203.828L313.695 203.55L317.296 209.948C317.34 210.029 317.44 210.244 317.596 210.591L317.648 210.582C317.653 210.438 317.672 210.209 317.705 209.894L319.019 202.612L320.49 202.352ZM330.726 209.686L329.315 209.935L328.686 206.369C327.747 207.117 326.839 207.569 325.962 207.724C323.977 208.074 322.799 207.199 322.429 205.098L321.901 202.103L323.32 201.853L323.836 204.779C324.065 206.077 324.739 206.627 325.859 206.43C326.713 206.279 327.586 205.869 328.48 205.2L327.752 201.072L329.163 200.823L330.726 209.686ZM340.013 203.845L333.755 204.948C333.952 205.931 334.351 206.646 334.954 207.093C335.556 207.54 336.302 207.685 337.19 207.529C338.189 207.353 339.048 206.862 339.769 206.057L340.004 207.39C339.325 208.092 338.345 208.557 337.063 208.783C335.811 209.004 334.757 208.776 333.9 208.1C333.042 207.418 332.484 206.348 332.227 204.888C331.984 203.509 332.175 202.318 332.802 201.315C333.433 200.305 334.328 199.698 335.488 199.493C336.648 199.289 337.611 199.506 338.378 200.144C339.145 200.782 339.646 201.768 339.881 203.101L340.013 203.845ZM338.346 202.898C338.196 202.08 337.885 201.477 337.412 201.091C336.945 200.703 336.365 200.57 335.673 200.692C335.003 200.81 334.477 201.15 334.094 201.711C333.711 202.273 333.533 202.95 333.56 203.742L338.346 202.898ZM350.244 206.244L348.824 206.495L348.115 202.47L343.596 203.267L344.306 207.291L342.887 207.542L341.324 198.678L342.743 198.428L343.384 202.064L347.903 201.267L347.262 197.632L348.681 197.381L350.244 206.244ZM360.544 204.428L359.263 204.654L358.016 197.583C357.933 197.853 357.801 198.236 357.621 198.732L354.589 205.478L353.118 205.738L351.555 196.875L352.853 196.646L354.085 203.631C354.124 203.451 354.224 203.139 354.384 202.694L357.51 195.824L358.981 195.565L360.544 204.428ZM369.822 198.589L363.564 199.692C363.761 200.675 364.161 201.39 364.764 201.837C365.366 202.284 366.111 202.429 367 202.273C367.998 202.096 368.858 201.606 369.579 200.8L369.814 202.133C369.134 202.836 368.154 203.301 366.873 203.526C365.621 203.747 364.566 203.52 363.709 202.844C362.852 202.162 362.294 201.091 362.036 199.631C361.793 198.252 361.985 197.061 362.611 196.058C363.242 195.049 364.138 194.442 365.298 194.237C366.457 194.033 367.421 194.249 368.188 194.888C368.955 195.526 369.456 196.511 369.691 197.844L369.822 198.589ZM368.156 197.642C368.006 196.824 367.694 196.221 367.221 195.834C366.754 195.447 366.175 195.314 365.482 195.436C364.813 195.554 364.287 195.894 363.904 196.455C363.521 197.017 363.343 197.693 363.369 198.486L368.156 197.642Z" fill="#565656"/>
<g clip-path="url(#clip1_4019_1047)">
<path d="M268.186 256.07L266.577 256.353L265.839 252.166L261.295 252.967L262.033 257.155L260.431 257.437L258.728 247.783L260.331 247.501L261.047 251.56L265.591 250.759L264.875 246.7L266.484 246.416L268.186 256.07ZM273.479 255.303C272.415 255.491 271.508 255.32 270.758 254.79C270.011 254.256 269.544 253.456 269.356 252.393C269.152 251.235 269.323 250.272 269.868 249.505C270.417 248.737 271.253 248.254 272.375 248.057C273.452 247.867 274.347 248.035 275.06 248.562C275.773 249.089 276.228 249.913 276.426 251.035C276.62 252.135 276.45 253.074 275.917 253.853C275.387 254.627 274.574 255.11 273.479 255.303ZM272.5 249.319C271.89 249.426 271.445 249.725 271.166 250.213C270.886 250.702 270.813 251.321 270.945 252.071C271.072 252.794 271.352 253.332 271.785 253.686C272.217 254.036 272.733 254.157 273.335 254.051C273.95 253.943 274.385 253.656 274.64 253.189C274.901 252.722 274.964 252.112 274.831 251.358C274.697 250.599 274.428 250.043 274.023 249.689C273.623 249.334 273.115 249.21 272.5 249.319ZM278.634 254.227L277.419 247.334L280.711 246.753C281.451 246.623 282.063 246.67 282.547 246.895C283.031 247.119 283.319 247.492 283.411 248.013C283.566 248.892 283.209 249.506 282.34 249.853C283.437 249.799 284.066 250.234 284.229 251.158C284.33 251.728 284.188 252.249 283.803 252.719C283.418 253.185 282.889 253.477 282.216 253.596L278.634 254.227ZM279.175 248.162L279.478 249.879L280.858 249.636C281.639 249.498 281.976 249.126 281.869 248.52C281.774 247.982 281.386 247.773 280.703 247.893L279.175 248.162ZM279.669 250.963L280 252.841L281.602 252.559C282.401 252.418 282.744 252.024 282.63 251.378C282.523 250.772 282.037 250.546 281.17 250.698L279.669 250.963ZM289.34 252.506C288.276 252.694 287.369 252.523 286.619 251.994C285.872 251.459 285.405 250.66 285.217 249.596C285.013 248.438 285.183 247.476 285.728 246.708C286.278 245.941 287.114 245.458 288.236 245.26C289.313 245.07 290.208 245.238 290.921 245.765C291.634 246.292 292.089 247.116 292.287 248.238C292.481 249.338 292.311 250.277 291.777 251.056C291.247 251.83 290.435 252.313 289.34 252.506ZM288.361 246.522C287.751 246.63 287.306 246.928 287.026 247.417C286.747 247.906 286.673 248.525 286.806 249.274C286.933 249.997 287.213 250.535 287.646 250.889C288.077 251.239 288.594 251.361 289.195 251.255C289.81 251.146 290.246 250.859 290.501 250.393C290.761 249.926 290.825 249.315 290.692 248.561C290.558 247.803 290.289 247.246 289.884 246.892C289.483 246.537 288.976 246.414 288.361 246.522ZM299.374 250.244C298.878 250.66 298.253 250.935 297.499 251.068C296.476 251.248 295.594 251.075 294.853 250.549C294.112 250.018 293.651 249.243 293.471 248.224C293.271 247.088 293.447 246.118 293.999 245.313C294.555 244.502 295.399 243.997 296.53 243.797C297.158 243.687 297.732 243.699 298.251 243.834L298.507 245.288C297.963 245.014 297.42 244.925 296.877 245.02C296.217 245.137 295.716 245.456 295.373 245.98C295.03 246.498 294.922 247.119 295.049 247.842C295.175 248.555 295.472 249.084 295.94 249.427C296.412 249.769 296.982 249.882 297.651 249.764C298.212 249.665 298.706 249.372 299.134 248.884L299.374 250.244ZM304.688 243.81L302.722 244.156L303.718 249.804L302.149 250.081L301.153 244.433L299.174 244.782L298.955 243.536L304.468 242.564L304.688 243.81ZM313.183 248.136L311.77 248.385L310.878 243.329C310.82 243.524 310.727 243.798 310.599 244.149L308.457 248.969L306.922 249.239L305.707 242.346L307.141 242.093L308.015 247.048C308.043 246.922 308.113 246.702 308.224 246.386L310.399 241.518L311.968 241.242L313.183 248.136Z" fill="#565656"/>
<path d="M337.75 243.804L336.606 244.005L335.089 235.402L330.046 236.291L331.563 244.895L330.426 245.095L328.723 235.441L336.048 234.15L337.75 243.804ZM343.016 243.042C341.997 243.221 341.126 243.044 340.403 242.51C339.683 241.97 339.229 241.169 339.042 240.105C338.837 238.947 338.994 237.987 339.512 237.225C340.031 236.462 340.828 235.986 341.905 235.796C342.933 235.615 343.79 235.79 344.476 236.322C345.167 236.853 345.611 237.679 345.809 238.801C346.002 239.901 345.846 240.837 345.339 241.612C344.836 242.381 344.062 242.857 343.016 243.042ZM341.988 236.74C341.279 236.865 340.761 237.206 340.433 237.763C340.105 238.317 340.016 239.017 340.165 239.865C340.31 240.682 340.632 241.289 341.132 241.687C341.633 242.085 342.233 242.222 342.933 242.098C343.647 241.973 344.154 241.645 344.454 241.115C344.758 240.585 344.835 239.894 344.685 239.041C344.533 238.179 344.223 237.549 343.754 237.15C343.291 236.751 342.702 236.614 341.988 236.74ZM349.14 240.768L349.113 240.773L349.848 244.94L348.744 245.135L346.969 235.07L348.073 234.875L348.287 236.087L348.314 236.082C348.696 235.071 349.409 234.473 350.455 234.289C351.344 234.132 352.092 234.32 352.699 234.851C353.306 235.378 353.7 236.16 353.883 237.197C354.087 238.35 353.969 239.324 353.531 240.119C353.092 240.909 352.385 241.39 351.411 241.561C350.518 241.719 349.761 241.454 349.14 240.768ZM348.623 237.992L348.793 238.955C348.893 239.525 349.163 239.977 349.601 240.312C350.043 240.641 350.549 240.755 351.119 240.655C351.788 240.537 352.266 240.189 352.553 239.611C352.844 239.032 352.909 238.287 352.749 237.376C352.613 236.608 352.33 236.038 351.899 235.666C351.467 235.293 350.949 235.16 350.343 235.267C349.701 235.38 349.224 235.695 348.913 236.213C348.601 236.726 348.504 237.319 348.623 237.992ZM359.57 233.82L357.503 234.184L358.552 240.136L357.448 240.33L356.399 234.379L354.325 234.745L354.159 233.802L359.404 232.878L359.57 233.82ZM366.08 238.975L366.624 242.058L365.628 242.234L365.084 239.151L364.869 239.189C363.863 239.366 362.994 239.184 362.259 238.642C361.525 238.101 361.066 237.305 360.881 236.254C360.683 235.137 360.838 234.189 361.344 233.41C361.853 232.626 362.622 232.143 363.65 231.962L363.811 231.934L363.325 229.174L364.321 228.998L364.808 231.758L364.956 231.732C365.993 231.549 366.882 231.737 367.624 232.296C368.369 232.849 368.841 233.689 369.04 234.816C369.225 235.866 369.068 236.771 368.567 237.53C368.067 238.289 367.317 238.757 366.316 238.933L366.08 238.975ZM364.972 232.687L365.917 238.046L366.065 238.02C366.765 237.896 367.282 237.562 367.616 237.017C367.95 236.468 368.045 235.787 367.902 234.975C367.751 234.122 367.427 233.492 366.93 233.085C366.437 232.676 365.845 232.533 365.153 232.655L364.972 232.687ZM364.92 238.222L363.975 232.863L363.814 232.891C363.123 233.013 362.611 233.353 362.279 233.912C361.946 234.465 361.855 235.166 362.004 236.015C362.146 236.818 362.468 237.423 362.97 237.83C363.476 238.231 364.081 238.369 364.786 238.245L364.92 238.222ZM374.32 237.522C373.302 237.702 372.43 237.524 371.707 236.99C370.987 236.451 370.533 235.649 370.346 234.585C370.142 233.428 370.299 232.467 370.817 231.705C371.335 230.943 372.132 230.467 373.209 230.277C374.237 230.095 375.094 230.271 375.78 230.802C376.471 231.333 376.915 232.159 377.113 233.281C377.307 234.381 377.15 235.318 376.644 236.092C376.14 236.861 375.366 237.338 374.32 237.522ZM373.292 231.22C372.583 231.345 372.065 231.686 371.738 232.244C371.409 232.797 371.32 233.497 371.47 234.346C371.614 235.162 371.936 235.77 372.436 236.167C372.937 236.565 373.537 236.702 374.237 236.579C374.951 236.453 375.458 236.125 375.758 235.596C376.062 235.065 376.139 234.374 375.989 233.521C375.837 232.659 375.527 232.029 375.059 231.63C374.595 231.231 374.006 231.094 373.292 231.22ZM384.518 235.557L383.421 235.751L382.37 229.793L380.768 230.075C380.977 232.338 380.937 233.96 380.647 234.942C380.362 235.922 379.842 236.479 379.088 236.612C378.859 236.652 378.656 236.656 378.479 236.622L378.312 235.673C378.483 235.726 378.661 235.736 378.845 235.704C379.832 235.53 380.111 233.396 379.681 229.302L383.302 228.664L384.518 235.557ZM392.536 234.143L391.54 234.319L390.57 228.819C390.505 229.029 390.403 229.327 390.262 229.713L387.904 234.96L386.76 235.162L385.544 228.268L386.554 228.09L387.512 233.523C387.543 233.383 387.62 233.141 387.745 232.795L390.176 227.452L391.32 227.25L392.536 234.143ZM397.681 233.403C396.662 233.582 395.791 233.405 395.067 232.871C394.347 232.332 393.894 231.53 393.706 230.466C393.502 229.308 393.659 228.348 394.177 227.586C394.695 226.824 395.493 226.347 396.57 226.158C397.598 225.976 398.454 226.151 399.141 226.683C399.831 227.214 400.275 228.04 400.473 229.162C400.667 230.262 400.511 231.199 400.004 231.973C399.501 232.742 398.726 233.218 397.681 233.403ZM396.653 227.101C395.944 227.226 395.425 227.567 395.098 228.125C394.77 228.678 394.68 229.378 394.83 230.227C394.974 231.043 395.296 231.651 395.797 232.048C396.297 232.446 396.898 232.583 397.598 232.46C398.311 232.334 398.818 232.006 399.118 231.477C399.423 230.946 399.5 230.255 399.349 229.402C399.197 228.54 398.887 227.91 398.419 227.511C397.955 227.112 397.366 226.975 396.653 227.101Z" fill="#808080"/>
<path d="M427.916 227.905L426.792 228.103L425.65 221.627C425.56 221.115 425.481 220.484 425.413 219.732L425.386 219.737C425.355 220.191 425.314 220.52 425.262 220.724L423.271 228.724L422.719 228.821L418.129 222.037C417.996 221.838 417.842 221.525 417.665 221.098L417.638 221.103C417.742 221.483 417.871 222.11 418.025 222.985L419.165 229.448L418.074 229.64L416.372 219.987L417.866 219.723L422.016 225.933C422.335 226.409 422.552 226.769 422.664 227.012L422.704 227.005C422.804 226.442 422.889 226.019 422.96 225.739L424.8 218.5L426.214 218.251L427.916 227.905ZM435.248 226.612L434.144 226.807L433.954 225.73L433.927 225.735C433.592 226.645 432.958 227.183 432.025 227.347C431.338 227.468 430.767 227.381 430.313 227.087C429.863 226.791 429.585 226.343 429.479 225.741C429.251 224.453 429.878 223.57 431.357 223.092L433.373 222.438C433.167 221.266 432.59 220.764 431.643 220.931C430.813 221.078 430.113 221.493 429.544 222.176L429.345 221.045C429.946 220.495 430.689 220.141 431.573 219.986C433.194 219.7 434.155 220.414 434.457 222.129L435.248 226.612ZM433.529 223.32L431.906 223.842C431.407 224.004 431.044 224.2 430.816 224.43C430.587 224.655 430.514 224.999 430.595 225.461C430.655 225.798 430.822 226.053 431.098 226.226C431.378 226.395 431.717 226.444 432.117 226.373C432.664 226.277 433.082 226.006 433.369 225.562C433.66 225.113 433.753 224.594 433.65 224.006L433.529 223.32ZM440.607 219.531L438.54 219.895L439.59 225.847L438.486 226.041L437.436 220.09L435.363 220.456L435.197 219.513L440.441 218.589L440.607 219.531ZM447.964 221.101L443.097 221.959C443.25 222.723 443.561 223.279 444.03 223.627C444.498 223.975 445.078 224.088 445.769 223.966C446.546 223.829 447.214 223.447 447.775 222.821L447.957 223.858C447.429 224.404 446.667 224.765 445.67 224.941C444.697 225.113 443.876 224.936 443.21 224.41C442.543 223.88 442.109 223.047 441.909 221.912C441.719 220.839 441.868 219.913 442.356 219.133C442.846 218.347 443.543 217.875 444.445 217.716C445.347 217.557 446.097 217.726 446.693 218.222C447.29 218.718 447.679 219.485 447.862 220.522L447.964 221.101ZM446.668 220.364C446.551 219.728 446.309 219.259 445.941 218.958C445.578 218.657 445.127 218.554 444.589 218.649C444.068 218.74 443.659 219.005 443.361 219.441C443.063 219.878 442.925 220.404 442.945 221.021L446.668 220.364ZM451.155 222.78L451.128 222.785L451.863 226.952L450.759 227.147L448.984 217.082L450.088 216.888L450.302 218.099L450.329 218.095C450.71 217.083 451.424 216.485 452.47 216.301C453.358 216.144 454.106 216.332 454.714 216.863C455.32 217.39 455.715 218.172 455.898 219.209C456.101 220.362 455.984 221.336 455.545 222.131C455.106 222.921 454.4 223.402 453.426 223.574C452.533 223.731 451.776 223.467 451.155 222.78ZM450.638 220.004L450.807 220.967C450.908 221.537 451.177 221.989 451.616 222.324C452.058 222.653 452.564 222.768 453.134 222.667C453.803 222.549 454.281 222.201 454.567 221.623C454.859 221.044 454.924 220.299 454.763 219.388C454.628 218.621 454.345 218.051 453.913 217.678C453.482 217.305 452.963 217.172 452.358 217.279C451.716 217.392 451.239 217.707 450.928 218.225C450.616 218.738 450.519 219.331 450.638 220.004ZM464.081 221.528L463.085 221.704L462.115 216.204C462.05 216.414 461.948 216.712 461.808 217.098L459.449 222.345L458.305 222.547L457.089 215.653L458.099 215.475L459.057 220.908C459.088 220.768 459.166 220.525 459.29 220.18L461.721 214.836L462.866 214.635L464.081 221.528ZM471.251 220.264L470.147 220.459L469.957 219.382L469.93 219.386C469.595 220.297 468.961 220.834 468.028 220.999C467.341 221.12 466.77 221.033 466.316 220.738C465.866 220.443 465.588 219.995 465.482 219.393C465.255 218.105 465.881 217.222 467.361 216.743L469.376 216.09C469.17 214.918 468.593 214.416 467.646 214.583C466.816 214.729 466.116 215.144 465.547 215.828L465.348 214.697C465.949 214.146 466.692 213.793 467.577 213.637C469.197 213.352 470.158 214.066 470.46 215.78L471.251 220.264ZM469.532 216.971L467.909 217.494C467.41 217.656 467.047 217.852 466.819 218.081C466.591 218.307 466.517 218.651 466.598 219.113C466.658 219.45 466.825 219.705 467.101 219.878C467.381 220.046 467.72 220.095 468.12 220.025C468.667 219.928 469.085 219.658 469.372 219.214C469.663 218.765 469.757 218.246 469.653 217.658L469.532 216.971ZM478.36 219.01L477.263 219.204L476.212 213.246L474.61 213.529C474.819 215.792 474.779 217.414 474.489 218.395C474.204 219.375 473.684 219.932 472.93 220.065C472.701 220.105 472.498 220.109 472.321 220.075L472.154 219.126C472.325 219.179 472.503 219.189 472.687 219.157C473.674 218.983 473.953 216.849 473.523 212.755L477.144 212.117L478.36 219.01ZM488.142 217.286L487.051 217.478L485.835 210.584L486.926 210.392L488.142 217.286ZM480.602 218.615L479.386 211.721L480.49 211.527L480.957 214.173L482.815 213.845C483.519 213.721 484.111 213.806 484.588 214.101C485.071 214.396 485.37 214.873 485.486 215.533C485.603 216.197 485.487 216.759 485.138 217.218C484.789 217.678 484.295 217.964 483.658 218.076L480.602 218.615ZM481.124 215.122L481.54 217.478L483.196 217.186C484.111 217.025 484.498 216.54 484.355 215.732C484.221 214.969 483.691 214.669 482.767 214.832L481.124 215.122Z" fill="#808080"/>
<path d="M512.44 213.001L510.865 213.279L506.357 209.52C506.188 209.379 506.083 209.282 506.041 209.229L506.014 209.233L506.853 213.986L505.722 214.186L504.019 204.532L505.15 204.333L505.95 208.87L505.977 208.865C506.023 208.755 506.089 208.63 506.175 208.49L509.041 203.646L510.448 203.398L507.125 208.76L512.44 213.001ZM518.506 211.932L517.402 212.126L517.212 211.049L517.185 211.054C516.85 211.964 516.216 212.502 515.283 212.666C514.596 212.788 514.025 212.701 513.571 212.406C513.121 212.111 512.843 211.662 512.737 211.061C512.51 209.773 513.136 208.889 514.616 208.411L516.631 207.757C516.425 206.586 515.848 206.084 514.901 206.251C514.071 206.397 513.371 206.812 512.802 207.495L512.603 206.364C513.204 205.814 513.947 205.461 514.831 205.305C516.452 205.019 517.413 205.734 517.715 207.448L518.506 211.932ZM516.787 208.639L515.164 209.161C514.665 209.323 514.302 209.519 514.074 209.749C513.845 209.974 513.772 210.318 513.853 210.781C513.913 211.117 514.08 211.372 514.356 211.546C514.636 211.714 514.975 211.763 515.375 211.692C515.922 211.596 516.34 211.326 516.627 210.882C516.918 210.432 517.012 209.914 516.908 209.326L516.787 208.639ZM525.615 210.678L524.518 210.872L523.467 204.914L521.865 205.196C522.074 207.459 522.034 209.081 521.744 210.063C521.459 211.043 520.939 211.6 520.185 211.733C519.956 211.773 519.753 211.776 519.576 211.743L519.409 210.794C519.58 210.847 519.758 210.857 519.942 210.825C520.929 210.65 521.208 208.517 520.777 204.423L524.399 203.784L525.615 210.678ZM532.838 206.135L527.971 206.993C528.124 207.758 528.435 208.314 528.903 208.661C529.372 209.009 529.952 209.122 530.643 209C531.419 208.863 532.088 208.482 532.649 207.855L532.831 208.892C532.303 209.439 531.541 209.8 530.544 209.975C529.57 210.147 528.75 209.97 528.084 209.444C527.416 208.914 526.983 208.081 526.782 206.946C526.593 205.873 526.742 204.947 527.229 204.167C527.72 203.382 528.417 202.909 529.319 202.75C530.221 202.591 530.97 202.76 531.567 203.256C532.163 203.753 532.553 204.519 532.736 205.556L532.838 206.135ZM531.542 205.399C531.425 204.762 531.183 204.294 530.815 203.993C530.452 203.691 530.001 203.588 529.463 203.683C528.942 203.775 528.533 204.039 528.235 204.476C527.937 204.912 527.798 205.439 527.819 206.055L531.542 205.399ZM540.796 208.001L539.692 208.196L539.14 205.066L535.626 205.685L536.178 208.816L535.073 209.01L533.858 202.117L534.962 201.922L535.461 204.749L538.975 204.13L538.476 201.302L539.58 201.108L540.796 208.001ZM549.485 209.058L548.55 209.223L548.107 206.712L542.977 207.617L543.42 210.128L542.477 210.294L541.869 206.847L542.482 206.739C543.359 204.835 543.606 202.744 543.222 200.465L546.804 199.834L547.854 205.792L548.878 205.611L549.485 209.058ZM546.75 205.986L545.865 200.964L544.336 201.234C544.543 203.113 544.315 204.879 543.653 206.532L546.75 205.986ZM555.505 205.408L554.401 205.602L554.211 204.525L554.184 204.53C553.85 205.44 553.216 205.978 552.282 206.142C551.596 206.264 551.025 206.177 550.57 205.882C550.12 205.587 549.842 205.138 549.736 204.537C549.509 203.249 550.135 202.365 551.615 201.887L553.631 201.233C553.424 200.062 552.848 199.56 551.901 199.726C551.07 199.873 550.371 200.288 549.802 200.971L549.602 199.84C550.204 199.29 550.947 198.937 551.831 198.781C553.451 198.495 554.412 199.21 554.715 200.924L555.505 205.408ZM553.786 202.115L552.164 202.637C551.665 202.799 551.302 202.995 551.074 203.225C550.845 203.45 550.771 203.794 550.853 204.257C550.912 204.593 551.08 204.848 551.356 205.022C551.635 205.19 551.975 205.239 552.374 205.168C552.922 205.072 553.339 204.802 553.626 204.357C553.917 203.908 554.011 203.39 553.907 202.802L553.786 202.115ZM558.541 203.845L558.514 203.85L559.249 208.017L558.145 208.212L556.37 198.147L557.474 197.952L557.688 199.164L557.715 199.159C558.096 198.148 558.81 197.55 559.856 197.366C560.744 197.209 561.492 197.397 562.1 197.928C562.706 198.455 563.101 199.237 563.284 200.274C563.487 201.427 563.37 202.401 562.931 203.196C562.492 203.986 561.786 204.467 560.812 204.638C559.919 204.796 559.162 204.531 558.541 203.845ZM558.024 201.069L558.193 202.032C558.294 202.602 558.563 203.054 559.002 203.389C559.444 203.718 559.95 203.832 560.52 203.732C561.189 203.614 561.667 203.266 561.953 202.688C562.245 202.109 562.31 201.364 562.149 200.453C562.014 199.686 561.731 199.115 561.299 198.743C560.868 198.37 560.349 198.237 559.743 198.344C559.102 198.457 558.625 198.772 558.314 199.29C558.002 199.803 557.905 200.396 558.024 201.069ZM565.691 203.612L564.475 196.718L565.579 196.523L566.046 199.169L567.904 198.841C568.609 198.717 569.2 198.803 569.678 199.098C570.16 199.392 570.459 199.869 570.576 200.529C570.693 201.193 570.577 201.755 570.227 202.215C569.878 202.674 569.385 202.96 568.747 203.073L565.691 203.612ZM566.213 200.118L566.629 202.474L568.285 202.182C569.2 202.021 569.587 201.536 569.445 200.728C569.31 199.965 568.781 199.665 567.856 199.829L566.213 200.118Z" fill="#808080"/>
</g>
<g filter="url(#filter23_dd_4019_1047)">
<rect x="462.904" y="242.228" width="226" height="80" rx="10" transform="rotate(-10 462.904 242.228)" fill="white" fill-opacity="0.8"/>
</g>
<g filter="url(#filter24_dd_4019_1047)">
<rect x="478.533" y="330.86" width="226" height="103" rx="10" transform="rotate(-10 478.533 330.86)" fill="white" fill-opacity="0.8"/>
</g>
<g filter="url(#filter25_dd_4019_1047)">
<rect x="497.936" y="366.026" width="49" height="16" rx="8" transform="rotate(-10 497.936 366.026)" fill="white" fill-opacity="0.9"/>
</g>
<g filter="url(#filter26_dd_4019_1047)">
<rect x="557.023" y="355.607" width="94" height="16" rx="8" transform="rotate(-10 557.023 355.607)" fill="white" fill-opacity="0.9"/>
</g>
<g filter="url(#filter27_dd_4019_1047)">
<rect x="501.754" y="387.691" width="49" height="16" rx="8" transform="rotate(-10 501.754 387.691)" fill="white" fill-opacity="0.9"/>
</g>
<g filter="url(#filter28_dd_4019_1047)">
<rect x="560.844" y="377.272" width="94" height="16" rx="8" transform="rotate(-10 560.844 377.272)" fill="white" fill-opacity="0.9"/>
</g>
<path d="M481.241 264.38L479.539 254.726L482.602 254.186C483.536 254.022 484.31 254.096 484.925 254.408C485.545 254.72 485.912 255.204 486.028 255.859C486.124 256.407 486.053 256.91 485.815 257.368C485.576 257.827 485.198 258.189 484.681 258.457L484.686 258.484C485.363 258.443 485.936 258.596 486.405 258.944C486.877 259.286 487.172 259.79 487.289 260.454C487.435 261.28 487.227 262.006 486.667 262.632C486.106 263.259 485.33 263.659 484.338 263.834L481.241 264.38ZM481.361 255.731L481.846 258.478L482.882 258.295C483.439 258.197 483.851 257.99 484.119 257.674C484.391 257.353 484.485 256.952 484.4 256.472C484.255 255.646 483.63 255.331 482.526 255.526L481.361 255.731ZM482.072 259.763L482.611 262.82L483.978 262.579C484.575 262.474 485.011 262.256 485.285 261.925C485.564 261.589 485.661 261.178 485.575 260.694C485.399 259.693 484.617 259.315 483.23 259.559L482.072 259.763ZM497.795 261.461L496.234 261.737L495.018 254.843L496.58 254.568L497.795 261.461ZM489.401 262.941L488.185 256.048L489.747 255.772L490.196 258.317L492.081 257.985C492.794 257.859 493.395 257.947 493.883 258.25C494.371 258.548 494.674 259.032 494.792 259.7C494.913 260.387 494.789 260.969 494.419 261.446C494.053 261.917 493.539 262.212 492.874 262.329L489.401 262.941ZM490.394 259.441L490.764 261.542L492.191 261.29C492.981 261.151 493.312 260.72 493.185 259.997C493.066 259.32 492.606 259.051 491.808 259.192L490.394 259.441ZM506.096 259.998L504.682 260.247L503.791 255.191C503.733 255.386 503.64 255.66 503.512 256.011L501.37 260.831L499.835 261.102L498.62 254.208L500.054 253.955L500.927 258.91C500.956 258.784 501.026 258.564 501.137 258.248L503.312 253.381L504.881 253.104L506.096 259.998ZM511.28 253.26L508.715 253.712L509.711 259.36L508.143 259.637L506.927 252.743L511.061 252.014L511.28 253.26ZM515.005 257.379L514.978 257.383L515.717 261.571L514.155 261.846L512.38 251.782L513.942 251.506L514.156 252.718L514.183 252.713C514.555 251.703 515.255 251.108 516.283 250.927C517.158 250.772 517.895 250.96 518.492 251.488C519.09 252.017 519.48 252.799 519.663 253.836C519.866 254.985 519.752 255.954 519.322 256.742C518.891 257.531 518.198 258.009 517.242 258.178C516.363 258.333 515.617 258.067 515.005 257.379ZM514.485 254.666L514.636 255.521C514.725 256.024 514.959 256.422 515.339 256.716C515.724 257.009 516.164 257.112 516.657 257.025C517.236 256.923 517.65 256.618 517.898 256.112C518.151 255.6 518.206 254.94 518.063 254.132C517.944 253.455 517.695 252.952 517.318 252.625C516.945 252.293 516.496 252.173 515.971 252.266C515.414 252.364 515 252.641 514.729 253.096C514.462 253.55 514.381 254.073 514.485 254.666ZM527.033 256.306L525.518 256.573L525.328 255.496L525.301 255.501C524.971 256.41 524.346 256.946 523.426 257.108C522.748 257.228 522.184 257.138 521.733 256.838C521.287 256.537 521.01 256.084 520.903 255.478C520.674 254.176 521.29 253.286 522.751 252.806L524.746 252.156C524.573 251.173 524.019 250.764 523.086 250.928C522.265 251.073 521.574 251.486 521.014 252.168L520.773 250.801C521.424 250.242 522.225 249.879 523.177 249.711C524.918 249.404 525.94 250.108 526.242 251.822L527.033 256.306ZM524.928 253.186L523.516 253.643C523.078 253.78 522.758 253.95 522.558 254.152C522.361 254.348 522.298 254.647 522.368 255.046C522.42 255.338 522.565 255.56 522.805 255.712C523.048 255.859 523.345 255.901 523.695 255.839C524.171 255.755 524.534 255.52 524.785 255.133C525.04 254.741 525.123 254.292 525.033 253.785L524.928 253.186ZM535.084 254.886L533.516 255.163L532.984 252.147L529.982 252.676L530.513 255.692L528.945 255.969L527.729 249.075L529.298 248.799L529.775 251.505L532.778 250.975L532.3 248.269L533.869 247.993L535.084 254.886ZM543.257 253.445L541.689 253.722L541.157 250.706L538.154 251.235L538.686 254.251L537.118 254.528L535.902 247.634L537.471 247.357L537.948 250.064L540.95 249.534L540.473 246.828L542.042 246.551L543.257 253.445ZM553.685 251.606L552.123 251.882L550.908 244.988L552.47 244.713L553.685 251.606ZM545.29 253.087L544.075 246.193L545.637 245.918L546.085 248.462L547.97 248.13C548.684 248.004 549.285 248.092 549.773 248.395C550.261 248.693 550.564 249.177 550.681 249.845C550.803 250.532 550.678 251.114 550.309 251.591C549.943 252.063 549.428 252.357 548.764 252.474L545.29 253.087ZM546.284 249.587L546.654 251.687L548.081 251.435C548.871 251.296 549.202 250.865 549.075 250.143C548.955 249.465 548.496 249.196 547.697 249.337L546.284 249.587ZM561.029 247.195L556.33 248.023C556.46 248.658 556.742 249.115 557.175 249.394C557.613 249.674 558.16 249.755 558.815 249.64C559.551 249.51 560.188 249.171 560.725 248.623L560.947 249.882C560.389 250.387 559.593 250.731 558.561 250.913C557.547 251.092 556.695 250.921 556.006 250.399C555.321 249.872 554.878 249.041 554.678 247.905C554.489 246.832 554.651 245.904 555.165 245.119C555.683 244.329 556.413 243.851 557.356 243.685C558.298 243.518 559.081 243.693 559.704 244.208C560.327 244.723 560.733 245.519 560.923 246.596L561.029 247.195ZM559.326 246.357C559.223 245.796 559.014 245.384 558.699 245.121C558.383 244.852 557.996 244.759 557.538 244.839C557.09 244.918 556.737 245.15 556.481 245.533C556.229 245.915 556.114 246.377 556.135 246.919L559.326 246.357ZM569.931 248.908C568.868 249.096 567.961 248.925 567.21 248.396C566.463 247.861 565.996 247.062 565.809 245.998C565.604 244.84 565.775 243.878 566.32 243.11C566.869 242.343 567.705 241.86 568.827 241.662C569.904 241.472 570.799 241.64 571.512 242.167C572.225 242.694 572.681 243.518 572.878 244.64C573.072 245.74 572.902 246.679 572.369 247.458C571.839 248.232 571.026 248.715 569.931 248.908ZM568.952 242.924C568.342 243.032 567.897 243.33 567.618 243.819C567.338 244.308 567.265 244.927 567.397 245.676C567.524 246.399 567.804 246.937 568.237 247.291C568.669 247.641 569.186 247.763 569.787 247.657C570.402 247.548 570.837 247.261 571.093 246.795C571.353 246.328 571.416 245.717 571.283 244.963C571.15 244.205 570.88 243.648 570.475 243.294C570.075 242.939 569.567 242.816 568.952 242.924ZM580.789 246.827L579.22 247.104L578.215 241.402L576.808 241.65C576.986 243.817 576.911 245.375 576.584 246.326C576.26 247.272 575.694 247.816 574.887 247.958C574.617 248.006 574.379 248.008 574.173 247.966L573.968 246.801C574.138 246.85 574.313 246.858 574.493 246.827C575.458 246.657 575.735 244.609 575.325 240.683L579.573 239.934L580.789 246.827ZM589.089 245.364L587.676 245.613L586.784 240.557C586.726 240.753 586.633 241.026 586.505 241.377L584.363 246.197L582.828 246.468L581.613 239.574L583.047 239.321L583.92 244.276C583.949 244.151 584.019 243.93 584.13 243.614L586.305 238.747L587.874 238.47L589.089 245.364ZM599.248 243.572L597.753 243.836L596.78 238.316C596.739 238.61 596.675 239.045 596.587 239.62L595.788 244.183L594.401 244.427L592.06 240.404C591.934 240.186 591.725 239.799 591.432 239.245L592.408 244.778L591.136 245.003L589.92 238.109L591.953 237.751L594.286 241.726C594.452 242.016 594.672 242.42 594.943 242.936L595.152 241.601L595.945 237.047L598.032 236.679L599.248 243.572ZM607.427 242.13L605.859 242.407L604.853 236.705L601.851 237.234L602.856 242.936L601.288 243.213L600.072 236.319L606.212 235.237L607.427 242.13ZM615.721 240.668L614.308 240.917L613.416 235.861C613.358 236.057 613.265 236.33 613.137 236.681L610.995 241.501L609.461 241.772L608.245 234.878L609.679 234.625L610.553 239.58C610.581 239.455 610.651 239.234 610.762 238.918L612.937 234.051L614.506 233.774L615.721 240.668ZM623.059 239.374L621.545 239.641L621.355 238.564L621.328 238.569C620.998 239.478 620.373 240.014 619.453 240.176C618.775 240.296 618.211 240.206 617.76 239.906C617.313 239.605 617.037 239.152 616.93 238.546C616.7 237.244 617.316 236.354 618.777 235.874L620.773 235.223C620.599 234.241 620.046 233.831 619.112 233.996C618.291 234.141 617.6 234.554 617.04 235.236L616.799 233.869C617.451 233.31 618.252 232.947 619.203 232.779C620.945 232.472 621.966 233.176 622.269 234.89L623.059 239.374ZM620.954 236.254L619.542 236.711C619.104 236.848 618.785 237.018 618.584 237.22C618.387 237.416 618.324 237.714 618.395 238.114C618.446 238.406 618.592 238.628 618.831 238.78C619.075 238.926 619.371 238.969 619.722 238.907C620.197 238.823 620.561 238.588 620.812 238.201C621.067 237.809 621.149 237.36 621.06 236.853L620.954 236.254ZM632.011 240.384L630.712 240.614L630.269 238.103L625.362 238.968L625.804 241.479L624.519 241.706L623.866 238.003L624.478 237.895C625.291 236.076 625.515 234.077 625.149 231.897L629.296 231.166L630.302 236.868L631.359 236.682L632.011 240.384ZM628.74 237.144L627.943 232.626L626.631 232.858C626.817 234.546 626.625 236.133 626.054 237.617L628.74 237.144ZM641.364 236.146L639.802 236.422L638.586 229.528L640.148 229.253L641.364 236.146ZM632.969 237.627L631.753 230.733L633.315 230.457L633.764 233.002L635.649 232.67C636.363 232.544 636.964 232.632 637.452 232.935C637.939 233.233 638.242 233.717 638.36 234.385C638.481 235.072 638.357 235.654 637.988 236.131C637.622 236.602 637.107 236.897 636.443 237.014L632.969 237.627ZM633.962 234.126L634.333 236.227L635.76 235.975C636.55 235.836 636.881 235.405 636.754 234.682C636.634 234.005 636.175 233.736 635.376 233.877L633.962 234.126Z" fill="#808080"/>
<path d="M504.105 351.737L502.503 352.019L501.044 343.746L498.701 344.159C498.784 346.546 498.817 348.239 498.798 349.237C498.779 350.23 498.714 350.973 498.601 351.465C498.488 351.952 498.285 352.337 497.993 352.62C497.7 352.899 497.322 353.079 496.859 353.16C496.465 353.23 496.112 353.239 495.802 353.187L495.561 351.82C495.796 351.895 496.046 351.908 496.311 351.862C496.585 351.813 496.813 351.609 496.994 351.248C497.176 350.888 497.272 350.017 497.283 348.636C497.298 347.25 497.252 345.375 497.145 343.01L502.403 342.083L504.105 351.737ZM512.594 350.24L511.181 350.489L510.289 345.434C510.231 345.629 510.138 345.902 510.01 346.253L507.868 351.073L506.334 351.344L505.118 344.45L506.552 344.198L507.426 349.152C507.454 349.027 507.524 348.806 507.635 348.491L509.81 343.623L511.379 343.346L512.594 350.24ZM520.612 348.826L519.05 349.102L518.592 346.503C517.882 347.068 517.197 347.409 516.537 347.525C514.984 347.799 514.059 347.092 513.762 345.404L513.338 343.001L514.866 342.732L515.252 344.919C515.424 345.893 515.891 346.313 516.654 346.179C517.219 346.079 517.798 345.803 518.389 345.352L517.835 342.208L519.397 341.933L520.612 348.826ZM528.792 347.384L527.223 347.661L526.691 344.645L523.689 345.174L524.221 348.19L522.652 348.467L521.437 341.573L523.005 341.296L523.482 344.003L526.485 343.473L526.008 340.767L527.576 340.49L528.792 347.384ZM539.22 345.545L537.658 345.821L536.442 338.927L538.004 338.652L539.22 345.545ZM530.825 347.026L529.609 340.132L531.171 339.856L531.62 342.401L533.505 342.069C534.218 341.943 534.819 342.031 535.308 342.334C535.795 342.632 536.098 343.116 536.216 343.784C536.337 344.471 536.213 345.053 535.843 345.53C535.478 346.001 534.963 346.296 534.299 346.413L530.825 347.026ZM531.818 343.525L532.188 345.626L533.616 345.374C534.406 345.235 534.737 344.804 534.609 344.081C534.49 343.404 534.031 343.135 533.232 343.276L531.818 343.525ZM546.563 341.134L541.864 341.962C541.995 342.596 542.277 343.053 542.71 343.333C543.148 343.612 543.694 343.694 544.35 343.579C545.086 343.449 545.722 343.11 546.26 342.562L546.482 343.821C545.923 344.326 545.128 344.67 544.095 344.852C543.081 345.031 542.229 344.86 541.54 344.338C540.855 343.811 540.412 342.98 540.212 341.844C540.023 340.771 540.186 339.843 540.7 339.058C541.218 338.268 541.948 337.79 542.89 337.624C543.833 337.457 544.615 337.632 545.238 338.147C545.861 338.661 546.268 339.457 546.458 340.535L546.563 341.134ZM544.861 340.296C544.757 339.735 544.548 339.323 544.233 339.06C543.917 338.791 543.531 338.698 543.073 338.778C542.624 338.857 542.272 339.088 542.015 339.472C541.763 339.854 541.648 340.316 541.67 340.858L544.861 340.296ZM559.421 344.572L558.122 344.801L557.679 342.29L552.771 343.156L553.214 345.667L551.928 345.894L551.275 342.191L551.888 342.083C552.701 340.264 552.925 338.265 552.559 336.085L556.706 335.354L557.711 341.056L558.768 340.87L559.421 344.572ZM556.15 341.331L555.353 336.814L554.04 337.046C554.227 338.734 554.035 340.321 553.463 341.805L556.15 341.331ZM563.464 341.437C562.4 341.625 561.493 341.454 560.742 340.924C559.996 340.39 559.528 339.59 559.341 338.527C559.137 337.369 559.307 336.406 559.852 335.639C560.402 334.871 561.237 334.388 562.359 334.191C563.436 334.001 564.332 334.169 565.045 334.696C565.757 335.223 566.213 336.047 566.411 337.169C566.605 338.269 566.435 339.208 565.901 339.987C565.371 340.761 564.559 341.244 563.464 341.437ZM562.485 335.453C561.874 335.56 561.429 335.859 561.15 336.347C560.871 336.836 560.797 337.455 560.929 338.205C561.057 338.928 561.337 339.466 561.769 339.82C562.201 340.17 562.718 340.291 563.319 340.185C563.934 340.077 564.369 339.79 564.625 339.323C564.885 338.856 564.949 338.246 564.816 337.492C564.682 336.733 564.413 336.177 564.008 335.823C563.607 335.468 563.1 335.344 562.485 335.453ZM573.498 339.175C573.002 339.591 572.377 339.865 571.623 339.998C570.6 340.179 569.718 340.006 568.977 339.479C568.235 338.948 567.775 338.173 567.595 337.155C567.395 336.019 567.571 335.049 568.123 334.243C568.679 333.433 569.522 332.928 570.653 332.728C571.282 332.617 571.855 332.63 572.374 332.765L572.631 334.219C572.087 333.945 571.544 333.855 571.001 333.951C570.341 334.067 569.84 334.387 569.497 334.91C569.154 335.429 569.045 336.05 569.173 336.772C569.299 337.486 569.595 338.014 570.063 338.358C570.535 338.7 571.106 338.812 571.775 338.694C572.336 338.595 572.83 338.302 573.258 337.815L573.498 339.175ZM578.812 332.74L576.846 333.087L577.842 338.735L576.273 339.012L575.277 333.364L573.298 333.713L573.078 332.467L578.592 331.495L578.812 332.74ZM587.307 337.066L585.893 337.315L585.002 332.26C584.944 332.455 584.851 332.728 584.723 333.079L582.581 337.9L581.046 338.17L579.831 331.277L581.265 331.024L582.138 335.978C582.167 335.853 582.237 335.633 582.348 335.317L584.523 330.449L586.091 330.173L587.307 337.066ZM599.23 334.964L597.277 335.308L593.98 332.356L593.953 332.361L594.557 335.788L593.036 336.056L592.432 332.629L592.412 332.633L590.316 336.536L588.377 336.877L590.802 332.757L587.303 329.959L589.202 329.624L592.366 332.412L592.393 332.407L591.82 329.162L593.342 328.894L593.914 332.139L593.941 332.134L595.961 328.432L597.859 328.098L595.521 331.925L599.23 334.964ZM605.321 330.773L600.622 331.602C600.752 332.236 601.034 332.693 601.468 332.973C601.906 333.252 602.452 333.334 603.107 333.218C603.843 333.088 604.48 332.749 605.017 332.201L605.239 333.46C604.681 333.966 603.885 334.31 602.853 334.492C601.839 334.67 600.987 334.499 600.298 333.977C599.613 333.45 599.17 332.619 598.97 331.484C598.781 330.411 598.943 329.482 599.457 328.697C599.975 327.907 600.705 327.429 601.648 327.263C602.59 327.097 603.373 327.271 603.996 327.786C604.619 328.301 605.025 329.097 605.215 330.174L605.321 330.773ZM603.618 329.935C603.515 329.375 603.306 328.963 602.991 328.699C602.675 328.431 602.288 328.337 601.831 328.418C601.382 328.497 601.029 328.728 600.773 329.111C600.521 329.493 600.406 329.955 600.427 330.498L603.618 329.935ZM613.481 332.451L611.913 332.728L611.381 329.712L608.378 330.241L608.91 333.257L607.342 333.534L606.126 326.64L607.695 326.363L608.172 329.07L611.174 328.54L610.697 325.834L612.266 325.557L613.481 332.451ZM621.775 330.989L620.362 331.238L619.47 326.182C619.412 326.377 619.319 326.651 619.191 327.002L617.049 331.822L615.514 332.092L614.299 325.199L615.733 324.946L616.607 329.901C616.635 329.775 616.705 329.555 616.816 329.239L618.991 324.371L620.56 324.095L621.775 330.989ZM629.133 329.691L627.578 329.965L627.098 327.239L626.296 327.38C625.911 327.448 625.621 327.855 625.429 328.602L624.906 330.437L623.135 330.749L623.865 328.51C624.081 327.926 624.392 327.51 624.797 327.263C624.237 327.287 623.783 327.166 623.435 326.899C623.091 326.626 622.876 326.248 622.791 325.763C622.682 325.148 622.841 324.618 623.267 324.173C623.697 323.727 624.327 323.431 625.158 323.284L627.918 322.797L629.133 329.691ZM626.908 326.162L626.562 324.203L625.485 324.393C624.641 324.541 624.276 324.937 624.389 325.578C624.506 326.243 624.98 326.502 625.81 326.355L626.908 326.162Z" fill="#808080"/>
<rect x="258.414" y="263.054" width="64" height="1" transform="rotate(-10 258.414 263.054)" fill="#565656"/>
<defs>
<filter id="filter0_dd_4019_1047" x="54.9062" y="103.644" width="268.249" height="177.399" filterUnits="userSpaceOnUse" color-interpolation-filters="sRGB">
<feFlood flood-opacity="0" result="BackgroundImageFix"/>
<feColorMatrix in="SourceAlpha" type="matrix" values="0 0 0 0 0 0 0 0 0 0 0 0 0 0 0 0 0 0 127 0" result="hardAlpha"/>
<feOffset dy="1"/>
<feGaussianBlur stdDeviation="4"/>
<feColorMatrix type="matrix" values="0 0 0 0 0.435294 0 0 0 0 0.180392 0 0 0 0 0.0392157 0 0 0 0.1 0"/>
<feBlend mode="normal" in2="BackgroundImageFix" result="effect1_dropShadow_4019_1047"/>
<feColorMatrix in="SourceAlpha" type="matrix" values="0 0 0 0 0 0 0 0 0 0 0 0 0 0 0 0 0 0 127 0" result="hardAlpha"/>
<feOffset dy="1"/>
<feGaussianBlur stdDeviation="1"/>
<feColorMatrix type="matrix" values="0 0 0 0 0.435294 0 0 0 0 0.180392 0 0 0 0 0.0392157 0 0 0 0.14 0"/>
<feBlend mode="normal" in2="effect1_dropShadow_4019_1047" result="effect2_dropShadow_4019_1047"/>
<feBlend mode="normal" in="SourceGraphic" in2="effect2_dropShadow_4019_1047" result="shape"/>
</filter>
<filter id="filter1_dd_4019_1047" x="79.9121" y="245.457" width="268.249" height="177.399" filterUnits="userSpaceOnUse" color-interpolation-filters="sRGB">
<feFlood flood-opacity="0" result="BackgroundImageFix"/>
<feColorMatrix in="SourceAlpha" type="matrix" values="0 0 0 0 0 0 0 0 0 0 0 0 0 0 0 0 0 0 127 0" result="hardAlpha"/>
<feOffset dy="1"/>
<feGaussianBlur stdDeviation="4"/>
<feColorMatrix type="matrix" values="0 0 0 0 0.435294 0 0 0 0 0.180392 0 0 0 0 0.0392157 0 0 0 0.1 0"/>
<feBlend mode="normal" in2="BackgroundImageFix" result="effect1_dropShadow_4019_1047"/>
<feColorMatrix in="SourceAlpha" type="matrix" values="0 0 0 0 0 0 0 0 0 0 0 0 0 0 0 0 0 0 127 0" result="hardAlpha"/>
<feOffset dy="1"/>
<feGaussianBlur stdDeviation="1"/>
<feColorMatrix type="matrix" values="0 0 0 0 0.435294 0 0 0 0 0.180392 0 0 0 0 0.0392157 0 0 0 0.14 0"/>
<feBlend mode="normal" in2="effect1_dropShadow_4019_1047" result="effect2_dropShadow_4019_1047"/>
<feBlend mode="normal" in="SourceGraphic" in2="effect2_dropShadow_4019_1047" result="shape"/>
</filter>
<filter id="filter2_bd_4019_1047" x="0.9375" y="12.1814" width="637.576" height="548.349" filterUnits="userSpaceOnUse" color-interpolation-filters="sRGB">
<feFlood flood-opacity="0" result="BackgroundImageFix"/>
<feGaussianBlur in="BackgroundImageFix" stdDeviation="6"/>
<feComposite in2="SourceAlpha" operator="in" result="effect1_backgroundBlur_4019_1047"/>
<feColorMatrix in="SourceAlpha" type="matrix" values="0 0 0 0 0 0 0 0 0 0 0 0 0 0 0 0 0 0 127 0" result="hardAlpha"/>
<feOffset dy="20"/>
<feGaussianBlur stdDeviation="25"/>
<feColorMatrix type="matrix" values="0 0 0 0 0.225 0 0 0 0 0.0886448 0 0 0 0 0.013125 0 0 0 0.29 0"/>
<feBlend mode="normal" in2="effect1_backgroundBlur_4019_1047" result="effect2_dropShadow_4019_1047"/>
<feBlend mode="normal" in="SourceGraphic" in2="effect2_dropShadow_4019_1047" result="shape"/>
</filter>
<filter id="filter3_dd_4019_1047" x="54.0059" y="60.6056" width="490.459" height="187.086" filterUnits="userSpaceOnUse" color-interpolation-filters="sRGB">
<feFlood flood-opacity="0" result="BackgroundImageFix"/>
<feColorMatrix in="SourceAlpha" type="matrix" values="0 0 0 0 0 0 0 0 0 0 0 0 0 0 0 0 0 0 127 0" result="hardAlpha"/>
<feOffset dy="4"/>
<feGaussianBlur stdDeviation="12"/>
<feColorMatrix type="matrix" values="0 0 0 0 0.435294 0 0 0 0 0.180392 0 0 0 0 0.0392157 0 0 0 0.1 0"/>
<feBlend mode="normal" in2="BackgroundImageFix" result="effect1_dropShadow_4019_1047"/>
<feColorMatrix in="SourceAlpha" type="matrix" values="0 0 0 0 0 0 0 0 0 0 0 0 0 0 0 0 0 0 127 0" result="hardAlpha"/>
<feOffset/>
<feGaussianBlur stdDeviation="2"/>
<feColorMatrix type="matrix" values="0 0 0 0 0.435294 0 0 0 0 0.180392 0 0 0 0 0.0392157 0 0 0 0.1 0"/>
<feBlend mode="normal" in2="effect1_dropShadow_4019_1047" result="effect2_dropShadow_4019_1047"/>
<feBlend mode="normal" in="SourceGraphic" in2="effect2_dropShadow_4019_1047" result="shape"/>
</filter>
<filter id="filter4_d_4019_1047" x="77.8145" y="139.573" width="493.722" height="317.7" filterUnits="userSpaceOnUse" color-interpolation-filters="sRGB">
<feFlood flood-opacity="0" result="BackgroundImageFix"/>
<feColorMatrix in="SourceAlpha" type="matrix" values="0 0 0 0 0 0 0 0 0 0 0 0 0 0 0 0 0 0 127 0" result="hardAlpha"/>
<feOffset dy="4"/>
<feGaussianBlur stdDeviation="6"/>
<feColorMatrix type="matrix" values="0 0 0 0 0.435294 0 0 0 0 0.180392 0 0 0 0 0.0392157 0 0 0 0.2 0"/>
<feBlend mode="normal" in2="BackgroundImageFix" result="effect1_dropShadow_4019_1047"/>
<feBlend mode="normal" in="SourceGraphic" in2="effect1_dropShadow_4019_1047" result="shape"/>
</filter>
<filter id="filter5_dd_4019_1047" x="149.929" y="174.271" width="323.506" height="83.4025" filterUnits="userSpaceOnUse" color-interpolation-filters="sRGB">
<feFlood flood-opacity="0" result="BackgroundImageFix"/>
<feColorMatrix in="SourceAlpha" type="matrix" values="0 0 0 0 0 0 0 0 0 0 0 0 0 0 0 0 0 0 127 0" result="hardAlpha"/>
<feOffset dy="1"/>
<feGaussianBlur stdDeviation="4"/>
<feColorMatrix type="matrix" values="0 0 0 0 0.435294 0 0 0 0 0.180392 0 0 0 0 0.0392157 0 0 0 0.1 0"/>
<feBlend mode="normal" in2="BackgroundImageFix" result="effect1_dropShadow_4019_1047"/>
<feColorMatrix in="SourceAlpha" type="matrix" values="0 0 0 0 0 0 0 0 0 0 0 0 0 0 0 0 0 0 127 0" result="hardAlpha"/>
<feOffset dy="1"/>
<feGaussianBlur stdDeviation="1"/>
<feColorMatrix type="matrix" values="0 0 0 0 0.435294 0 0 0 0 0.180392 0 0 0 0 0.0392157 0 0 0 0.14 0"/>
<feBlend mode="normal" in2="effect1_dropShadow_4019_1047" result="effect2_dropShadow_4019_1047"/>
<feBlend mode="normal" in="SourceGraphic" in2="effect2_dropShadow_4019_1047" result="shape"/>
</filter>
<filter id="filter6_dd_4019_1047" x="160.001" y="231.389" width="323.506" height="83.4025" filterUnits="userSpaceOnUse" color-interpolation-filters="sRGB">
<feFlood flood-opacity="0" result="BackgroundImageFix"/>
<feColorMatrix in="SourceAlpha" type="matrix" values="0 0 0 0 0 0 0 0 0 0 0 0 0 0 0 0 0 0 127 0" result="hardAlpha"/>
<feOffset dy="1"/>
<feGaussianBlur stdDeviation="4"/>
<feColorMatrix type="matrix" values="0 0 0 0 0.435294 0 0 0 0 0.180392 0 0 0 0 0.0392157 0 0 0 0.1 0"/>
<feBlend mode="normal" in2="BackgroundImageFix" result="effect1_dropShadow_4019_1047"/>
<feColorMatrix in="SourceAlpha" type="matrix" values="0 0 0 0 0 0 0 0 0 0 0 0 0 0 0 0 0 0 127 0" result="hardAlpha"/>
<feOffset dy="1"/>
<feGaussianBlur stdDeviation="1"/>
<feColorMatrix type="matrix" values="0 0 0 0 0.435294 0 0 0 0 0.180392 0 0 0 0 0.0392157 0 0 0 0.14 0"/>
<feBlend mode="normal" in2="effect1_dropShadow_4019_1047" result="effect2_dropShadow_4019_1047"/>
<feBlend mode="normal" in="SourceGraphic" in2="effect2_dropShadow_4019_1047" result="shape"/>
</filter>
<filter id="filter7_dd_4019_1047" x="154.097" y="226.385" width="161.997" height="54.9242" filterUnits="userSpaceOnUse" color-interpolation-filters="sRGB">
<feFlood flood-opacity="0" result="BackgroundImageFix"/>
<feColorMatrix in="SourceAlpha" type="matrix" values="0 0 0 0 0 0 0 0 0 0 0 0 0 0 0 0 0 0 127 0" result="hardAlpha"/>
<feOffset dy="1"/>
<feGaussianBlur stdDeviation="4"/>
<feColorMatrix type="matrix" values="0 0 0 0 0.435294 0 0 0 0 0.180392 0 0 0 0 0.0392157 0 0 0 0.1 0"/>
<feBlend mode="normal" in2="BackgroundImageFix" result="effect1_dropShadow_4019_1047"/>
<feColorMatrix in="SourceAlpha" type="matrix" values="0 0 0 0 0 0 0 0 0 0 0 0 0 0 0 0 0 0 127 0" result="hardAlpha"/>
<feOffset dy="1"/>
<feGaussianBlur stdDeviation="1"/>
<feColorMatrix type="matrix" values="0 0 0 0 0.435294 0 0 0 0 0.180392 0 0 0 0 0.0392157 0 0 0 0.14 0"/>
<feBlend mode="normal" in2="effect1_dropShadow_4019_1047" result="effect2_dropShadow_4019_1047"/>
<feBlend mode="normal" in="SourceGraphic" in2="effect2_dropShadow_4019_1047" result="shape"/>
</filter>
<filter id="filter8_dd_4019_1047" x="164.169" y="283.504" width="161.997" height="54.9242" filterUnits="userSpaceOnUse" color-interpolation-filters="sRGB">
<feFlood flood-opacity="0" result="BackgroundImageFix"/>
<feColorMatrix in="SourceAlpha" type="matrix" values="0 0 0 0 0 0 0 0 0 0 0 0 0 0 0 0 0 0 127 0" result="hardAlpha"/>
<feOffset dy="1"/>
<feGaussianBlur stdDeviation="4"/>
<feColorMatrix type="matrix" values="0 0 0 0 0.435294 0 0 0 0 0.180392 0 0 0 0 0.0392157 0 0 0 0.1 0"/>
<feBlend mode="normal" in2="BackgroundImageFix" result="effect1_dropShadow_4019_1047"/>
<feColorMatrix in="SourceAlpha" type="matrix" values="0 0 0 0 0 0 0 0 0 0 0 0 0 0 0 0 0 0 127 0" result="hardAlpha"/>
<feOffset dy="1"/>
<feGaussianBlur stdDeviation="1"/>
<feColorMatrix type="matrix" values="0 0 0 0 0.435294 0 0 0 0 0.180392 0 0 0 0 0.0392157 0 0 0 0.14 0"/>
<feBlend mode="normal" in2="effect1_dropShadow_4019_1047" result="effect2_dropShadow_4019_1047"/>
<feBlend mode="normal" in="SourceGraphic" in2="effect2_dropShadow_4019_1047" result="shape"/>
</filter>
<filter id="filter9_dd_4019_1047" x="173.372" y="349.417" width="84.1973" height="41.206" filterUnits="userSpaceOnUse" color-interpolation-filters="sRGB">
<feFlood flood-opacity="0" result="BackgroundImageFix"/>
<feColorMatrix in="SourceAlpha" type="matrix" values="0 0 0 0 0 0 0 0 0 0 0 0 0 0 0 0 0 0 127 0" result="hardAlpha"/>
<feOffset dy="1"/>
<feGaussianBlur stdDeviation="4"/>
<feColorMatrix type="matrix" values="0 0 0 0 0.435294 0 0 0 0 0.180392 0 0 0 0 0.0392157 0 0 0 0.1 0"/>
<feBlend mode="normal" in2="BackgroundImageFix" result="effect1_dropShadow_4019_1047"/>
<feColorMatrix in="SourceAlpha" type="matrix" values="0 0 0 0 0 0 0 0 0 0 0 0 0 0 0 0 0 0 127 0" result="hardAlpha"/>
<feOffset dy="1"/>
<feGaussianBlur stdDeviation="1"/>
<feColorMatrix type="matrix" values="0 0 0 0 0.435294 0 0 0 0 0.180392 0 0 0 0 0.0392157 0 0 0 0.14 0"/>
<feBlend mode="normal" in2="effect1_dropShadow_4019_1047" result="effect2_dropShadow_4019_1047"/>
<feBlend mode="normal" in="SourceGraphic" in2="effect2_dropShadow_4019_1047" result="shape"/>
</filter>
<filter id="filter10_dd_4019_1047" x="178.233" y="376.991" width="84.1973" height="41.206" filterUnits="userSpaceOnUse" color-interpolation-filters="sRGB">
<feFlood flood-opacity="0" result="BackgroundImageFix"/>
<feColorMatrix in="SourceAlpha" type="matrix" values="0 0 0 0 0 0 0 0 0 0 0 0 0 0 0 0 0 0 127 0" result="hardAlpha"/>
<feOffset dy="1"/>
<feGaussianBlur stdDeviation="4"/>
<feColorMatrix type="matrix" values="0 0 0 0 0.435294 0 0 0 0 0.180392 0 0 0 0 0.0392157 0 0 0 0.1 0"/>
<feBlend mode="normal" in2="BackgroundImageFix" result="effect1_dropShadow_4019_1047"/>
<feColorMatrix in="SourceAlpha" type="matrix" values="0 0 0 0 0 0 0 0 0 0 0 0 0 0 0 0 0 0 127 0" result="hardAlpha"/>
<feOffset dy="1"/>
<feGaussianBlur stdDeviation="1"/>
<feColorMatrix type="matrix" values="0 0 0 0 0.435294 0 0 0 0 0.180392 0 0 0 0 0.0392157 0 0 0 0.14 0"/>
<feBlend mode="normal" in2="effect1_dropShadow_4019_1047" result="effect2_dropShadow_4019_1047"/>
<feBlend mode="normal" in="SourceGraphic" in2="effect2_dropShadow_4019_1047" result="shape"/>
</filter>
<filter id="filter11_dd_4019_1047" x="246.247" y="336.566" width="84.1973" height="41.206" filterUnits="userSpaceOnUse" color-interpolation-filters="sRGB">
<feFlood flood-opacity="0" result="BackgroundImageFix"/>
<feColorMatrix in="SourceAlpha" type="matrix" values="0 0 0 0 0 0 0 0 0 0 0 0 0 0 0 0 0 0 127 0" result="hardAlpha"/>
<feOffset dy="1"/>
<feGaussianBlur stdDeviation="4"/>
<feColorMatrix type="matrix" values="0 0 0 0 0.435294 0 0 0 0 0.180392 0 0 0 0 0.0392157 0 0 0 0.1 0"/>
<feBlend mode="normal" in2="BackgroundImageFix" result="effect1_dropShadow_4019_1047"/>
<feColorMatrix in="SourceAlpha" type="matrix" values="0 0 0 0 0 0 0 0 0 0 0 0 0 0 0 0 0 0 127 0" result="hardAlpha"/>
<feOffset dy="1"/>
<feGaussianBlur stdDeviation="1"/>
<feColorMatrix type="matrix" values="0 0 0 0 0.435294 0 0 0 0 0.180392 0 0 0 0 0.0392157 0 0 0 0.14 0"/>
<feBlend mode="normal" in2="effect1_dropShadow_4019_1047" result="effect2_dropShadow_4019_1047"/>
<feBlend mode="normal" in="SourceGraphic" in2="effect2_dropShadow_4019_1047" result="shape"/>
</filter>
<filter id="filter12_dd_4019_1047" x="251.11" y="359.974" width="107.833" height="45.3736" filterUnits="userSpaceOnUse" color-interpolation-filters="sRGB">
<feFlood flood-opacity="0" result="BackgroundImageFix"/>
<feColorMatrix in="SourceAlpha" type="matrix" values="0 0 0 0 0 0 0 0 0 0 0 0 0 0 0 0 0 0 127 0" result="hardAlpha"/>
<feOffset dy="1"/>
<feGaussianBlur stdDeviation="4"/>
<feColorMatrix type="matrix" values="0 0 0 0 0.435294 0 0 0 0 0.180392 0 0 0 0 0.0392157 0 0 0 0.1 0"/>
<feBlend mode="normal" in2="BackgroundImageFix" result="effect1_dropShadow_4019_1047"/>
<feColorMatrix in="SourceAlpha" type="matrix" values="0 0 0 0 0 0 0 0 0 0 0 0 0 0 0 0 0 0 127 0" result="hardAlpha"/>
<feOffset dy="1"/>
<feGaussianBlur stdDeviation="1"/>
<feColorMatrix type="matrix" values="0 0 0 0 0.435294 0 0 0 0 0.180392 0 0 0 0 0.0392157 0 0 0 0.14 0"/>
<feBlend mode="normal" in2="effect1_dropShadow_4019_1047" result="effect2_dropShadow_4019_1047"/>
<feBlend mode="normal" in="SourceGraphic" in2="effect2_dropShadow_4019_1047" result="shape"/>
</filter>
<filter id="filter13_bd_4019_1047" x="166.639" y="75.4705" width="637.576" height="548.349" filterUnits="userSpaceOnUse" color-interpolation-filters="sRGB">
<feFlood flood-opacity="0" result="BackgroundImageFix"/>
<feGaussianBlur in="BackgroundImageFix" stdDeviation="6"/>
<feComposite in2="SourceAlpha" operator="in" result="effect1_backgroundBlur_4019_1047"/>
<feColorMatrix in="SourceAlpha" type="matrix" values="0 0 0 0 0 0 0 0 0 0 0 0 0 0 0 0 0 0 127 0" result="hardAlpha"/>
<feOffset dy="20"/>
<feGaussianBlur stdDeviation="25"/>
<feColorMatrix type="matrix" values="0 0 0 0 0.225 0 0 0 0 0.0886448 0 0 0 0 0.013125 0 0 0 0.29 0"/>
<feBlend mode="normal" in2="effect1_backgroundBlur_4019_1047" result="effect2_dropShadow_4019_1047"/>
<feBlend mode="normal" in="SourceGraphic" in2="effect2_dropShadow_4019_1047" result="shape"/>
</filter>
<filter id="filter14_dd_4019_1047" x="259.843" y="278.427" width="159.043" height="54.4033" filterUnits="userSpaceOnUse" color-interpolation-filters="sRGB">
<feFlood flood-opacity="0" result="BackgroundImageFix"/>
<feColorMatrix in="SourceAlpha" type="matrix" values="0 0 0 0 0 0 0 0 0 0 0 0 0 0 0 0 0 0 127 0" result="hardAlpha"/>
<feOffset dy="1"/>
<feGaussianBlur stdDeviation="4"/>
<feColorMatrix type="matrix" values="0 0 0 0 0.435294 0 0 0 0 0.180392 0 0 0 0 0.0392157 0 0 0 0.1 0"/>
<feBlend mode="normal" in2="BackgroundImageFix" result="effect1_dropShadow_4019_1047"/>
<feColorMatrix in="SourceAlpha" type="matrix" values="0 0 0 0 0 0 0 0 0 0 0 0 0 0 0 0 0 0 127 0" result="hardAlpha"/>
<feOffset dy="1"/>
<feGaussianBlur stdDeviation="1"/>
<feColorMatrix type="matrix" values="0 0 0 0 0.435294 0 0 0 0 0.180392 0 0 0 0 0.0392157 0 0 0 0.14 0"/>
<feBlend mode="normal" in2="effect1_dropShadow_4019_1047" result="effect2_dropShadow_4019_1047"/>
<feBlend mode="normal" in="SourceGraphic" in2="effect2_dropShadow_4019_1047" result="shape"/>
</filter>
<filter id="filter15_dd_4019_1047" x="276.165" y="376.556" width="127.528" height="48.8465" filterUnits="userSpaceOnUse" color-interpolation-filters="sRGB">
<feFlood flood-opacity="0" result="BackgroundImageFix"/>
<feColorMatrix in="SourceAlpha" type="matrix" values="0 0 0 0 0 0 0 0 0 0 0 0 0 0 0 0 0 0 127 0" result="hardAlpha"/>
<feOffset dy="1"/>
<feGaussianBlur stdDeviation="4"/>
<feColorMatrix type="matrix" values="0 0 0 0 0.435294 0 0 0 0 0.180392 0 0 0 0 0.0392157 0 0 0 0.1 0"/>
<feBlend mode="normal" in2="BackgroundImageFix" result="effect1_dropShadow_4019_1047"/>
<feColorMatrix in="SourceAlpha" type="matrix" values="0 0 0 0 0 0 0 0 0 0 0 0 0 0 0 0 0 0 127 0" result="hardAlpha"/>
<feOffset dy="1"/>
<feGaussianBlur stdDeviation="1"/>
<feColorMatrix type="matrix" values="0 0 0 0 0.435294 0 0 0 0 0.180392 0 0 0 0 0.0392157 0 0 0 0.14 0"/>
<feBlend mode="normal" in2="effect1_dropShadow_4019_1047" result="effect2_dropShadow_4019_1047"/>
<feBlend mode="normal" in="SourceGraphic" in2="effect2_dropShadow_4019_1047" result="shape"/>
</filter>
<filter id="filter16_dd_4019_1047" x="280.333" y="392.377" width="171.845" height="56.6607" filterUnits="userSpaceOnUse" color-interpolation-filters="sRGB">
<feFlood flood-opacity="0" result="BackgroundImageFix"/>
<feColorMatrix in="SourceAlpha" type="matrix" values="0 0 0 0 0 0 0 0 0 0 0 0 0 0 0 0 0 0 127 0" result="hardAlpha"/>
<feOffset dy="1"/>
<feGaussianBlur stdDeviation="4"/>
<feColorMatrix type="matrix" values="0 0 0 0 0.435294 0 0 0 0 0.180392 0 0 0 0 0.0392157 0 0 0 0.1 0"/>
<feBlend mode="normal" in2="BackgroundImageFix" result="effect1_dropShadow_4019_1047"/>
<feColorMatrix in="SourceAlpha" type="matrix" values="0 0 0 0 0 0 0 0 0 0 0 0 0 0 0 0 0 0 127 0" result="hardAlpha"/>
<feOffset dy="1"/>
<feGaussianBlur stdDeviation="1"/>
<feColorMatrix type="matrix" values="0 0 0 0 0.435294 0 0 0 0 0.180392 0 0 0 0 0.0392157 0 0 0 0.14 0"/>
<feBlend mode="normal" in2="effect1_dropShadow_4019_1047" result="effect2_dropShadow_4019_1047"/>
<feBlend mode="normal" in="SourceGraphic" in2="effect2_dropShadow_4019_1047" result="shape"/>
</filter>
<filter id="filter17_dd_4019_1047" x="284.501" y="429.904" width="93.0605" height="42.7689" filterUnits="userSpaceOnUse" color-interpolation-filters="sRGB">
<feFlood flood-opacity="0" result="BackgroundImageFix"/>
<feColorMatrix in="SourceAlpha" type="matrix" values="0 0 0 0 0 0 0 0 0 0 0 0 0 0 0 0 0 0 127 0" result="hardAlpha"/>
<feOffset dy="1"/>
<feGaussianBlur stdDeviation="4"/>
<feColorMatrix type="matrix" values="0 0 0 0 0.435294 0 0 0 0 0.180392 0 0 0 0 0.0392157 0 0 0 0.1 0"/>
<feBlend mode="normal" in2="BackgroundImageFix" result="effect1_dropShadow_4019_1047"/>
<feColorMatrix in="SourceAlpha" type="matrix" values="0 0 0 0 0 0 0 0 0 0 0 0 0 0 0 0 0 0 127 0" result="hardAlpha"/>
<feOffset dy="1"/>
<feGaussianBlur stdDeviation="1"/>
<feColorMatrix type="matrix" values="0 0 0 0 0.435294 0 0 0 0 0.180392 0 0 0 0 0.0392157 0 0 0 0.14 0"/>
<feBlend mode="normal" in2="effect1_dropShadow_4019_1047" result="effect2_dropShadow_4019_1047"/>
<feBlend mode="normal" in="SourceGraphic" in2="effect2_dropShadow_4019_1047" result="shape"/>
</filter>
<filter id="filter18_dd_4019_1047" x="254.46" y="239.91" width="204.344" height="62.3911" filterUnits="userSpaceOnUse" color-interpolation-filters="sRGB">
<feFlood flood-opacity="0" result="BackgroundImageFix"/>
<feColorMatrix in="SourceAlpha" type="matrix" values="0 0 0 0 0 0 0 0 0 0 0 0 0 0 0 0 0 0 127 0" result="hardAlpha"/>
<feOffset dy="1"/>
<feGaussianBlur stdDeviation="4"/>
<feColorMatrix type="matrix" values="0 0 0 0 0.435294 0 0 0 0 0.180392 0 0 0 0 0.0392157 0 0 0 0.1 0"/>
<feBlend mode="normal" in2="BackgroundImageFix" result="effect1_dropShadow_4019_1047"/>
<feColorMatrix in="SourceAlpha" type="matrix" values="0 0 0 0 0 0 0 0 0 0 0 0 0 0 0 0 0 0 127 0" result="hardAlpha"/>
<feOffset dy="1"/>
<feGaussianBlur stdDeviation="1"/>
<feColorMatrix type="matrix" values="0 0 0 0 0.435294 0 0 0 0 0.180392 0 0 0 0 0.0392157 0 0 0 0.14 0"/>
<feBlend mode="normal" in2="effect1_dropShadow_4019_1047" result="effect2_dropShadow_4019_1047"/>
<feBlend mode="normal" in="SourceGraphic" in2="effect2_dropShadow_4019_1047" result="shape"/>
</filter>
<filter id="filter19_dd_4019_1047" x="264.011" y="321.337" width="49.7285" height="35.1283" filterUnits="userSpaceOnUse" color-interpolation-filters="sRGB">
<feFlood flood-opacity="0" result="BackgroundImageFix"/>
<feColorMatrix in="SourceAlpha" type="matrix" values="0 0 0 0 0 0 0 0 0 0 0 0 0 0 0 0 0 0 127 0" result="hardAlpha"/>
<feOffset dy="1"/>
<feGaussianBlur stdDeviation="4"/>
<feColorMatrix type="matrix" values="0 0 0 0 0.435294 0 0 0 0 0.180392 0 0 0 0 0.0392157 0 0 0 0.1 0"/>
<feBlend mode="normal" in2="BackgroundImageFix" result="effect1_dropShadow_4019_1047"/>
<feColorMatrix in="SourceAlpha" type="matrix" values="0 0 0 0 0 0 0 0 0 0 0 0 0 0 0 0 0 0 127 0" result="hardAlpha"/>
<feOffset dy="1"/>
<feGaussianBlur stdDeviation="1"/>
<feColorMatrix type="matrix" values="0 0 0 0 0.435294 0 0 0 0 0.180392 0 0 0 0 0.0392157 0 0 0 0.14 0"/>
<feBlend mode="normal" in2="effect1_dropShadow_4019_1047" result="effect2_dropShadow_4019_1047"/>
<feBlend mode="normal" in="SourceGraphic" in2="effect2_dropShadow_4019_1047" result="shape"/>
</filter>
<filter id="filter20_dd_4019_1047" x="302.417" y="305.709" width="99.9541" height="43.9844" filterUnits="userSpaceOnUse" color-interpolation-filters="sRGB">
<feFlood flood-opacity="0" result="BackgroundImageFix"/>
<feColorMatrix in="SourceAlpha" type="matrix" values="0 0 0 0 0 0 0 0 0 0 0 0 0 0 0 0 0 0 127 0" result="hardAlpha"/>
<feOffset dy="1"/>
<feGaussianBlur stdDeviation="4"/>
<feColorMatrix type="matrix" values="0 0 0 0 0.435294 0 0 0 0 0.180392 0 0 0 0 0.0392157 0 0 0 0.1 0"/>
<feBlend mode="normal" in2="BackgroundImageFix" result="effect1_dropShadow_4019_1047"/>
<feColorMatrix in="SourceAlpha" type="matrix" values="0 0 0 0 0 0 0 0 0 0 0 0 0 0 0 0 0 0 127 0" result="hardAlpha"/>
<feOffset dy="1"/>
<feGaussianBlur stdDeviation="1"/>
<feColorMatrix type="matrix" values="0 0 0 0 0.435294 0 0 0 0 0.180392 0 0 0 0 0.0392157 0 0 0 0.14 0"/>
<feBlend mode="normal" in2="effect1_dropShadow_4019_1047" result="effect2_dropShadow_4019_1047"/>
<feBlend mode="normal" in="SourceGraphic" in2="effect2_dropShadow_4019_1047" result="shape"/>
</filter>
<filter id="filter21_dd_4019_1047" x="268.179" y="344.973" width="49.7285" height="35.1283" filterUnits="userSpaceOnUse" color-interpolation-filters="sRGB">
<feFlood flood-opacity="0" result="BackgroundImageFix"/>
<feColorMatrix in="SourceAlpha" type="matrix" values="0 0 0 0 0 0 0 0 0 0 0 0 0 0 0 0 0 0 127 0" result="hardAlpha"/>
<feOffset dy="1"/>
<feGaussianBlur stdDeviation="4"/>
<feColorMatrix type="matrix" values="0 0 0 0 0.435294 0 0 0 0 0.180392 0 0 0 0 0.0392157 0 0 0 0.1 0"/>
<feBlend mode="normal" in2="BackgroundImageFix" result="effect1_dropShadow_4019_1047"/>
<feColorMatrix in="SourceAlpha" type="matrix" values="0 0 0 0 0 0 0 0 0 0 0 0 0 0 0 0 0 0 127 0" result="hardAlpha"/>
<feOffset dy="1"/>
<feGaussianBlur stdDeviation="1"/>
<feColorMatrix type="matrix" values="0 0 0 0 0.435294 0 0 0 0 0.180392 0 0 0 0 0.0392157 0 0 0 0.14 0"/>
<feBlend mode="normal" in2="effect1_dropShadow_4019_1047" result="effect2_dropShadow_4019_1047"/>
<feBlend mode="normal" in="SourceGraphic" in2="effect2_dropShadow_4019_1047" result="shape"/>
</filter>
<filter id="filter22_dd_4019_1047" x="306.585" y="329.344" width="99.9541" height="43.9844" filterUnits="userSpaceOnUse" color-interpolation-filters="sRGB">
<feFlood flood-opacity="0" result="BackgroundImageFix"/>
<feColorMatrix in="SourceAlpha" type="matrix" values="0 0 0 0 0 0 0 0 0 0 0 0 0 0 0 0 0 0 127 0" result="hardAlpha"/>
<feOffset dy="1"/>
<feGaussianBlur stdDeviation="4"/>
<feColorMatrix type="matrix" values="0 0 0 0 0.435294 0 0 0 0 0.180392 0 0 0 0 0.0392157 0 0 0 0.1 0"/>
<feBlend mode="normal" in2="BackgroundImageFix" result="effect1_dropShadow_4019_1047"/>
<feColorMatrix in="SourceAlpha" type="matrix" values="0 0 0 0 0 0 0 0 0 0 0 0 0 0 0 0 0 0 127 0" result="hardAlpha"/>
<feOffset dy="1"/>
<feGaussianBlur stdDeviation="1"/>
<feColorMatrix type="matrix" values="0 0 0 0 0.435294 0 0 0 0 0.180392 0 0 0 0 0.0392157 0 0 0 0.14 0"/>
<feBlend mode="normal" in2="effect1_dropShadow_4019_1047" result="effect2_dropShadow_4019_1047"/>
<feBlend mode="normal" in="SourceGraphic" in2="effect2_dropShadow_4019_1047" result="shape"/>
</filter>
<filter id="filter23_dd_4019_1047" x="456.487" y="197.566" width="249.293" height="130.863" filterUnits="userSpaceOnUse" color-interpolation-filters="sRGB">
<feFlood flood-opacity="0" result="BackgroundImageFix"/>
<feColorMatrix in="SourceAlpha" type="matrix" values="0 0 0 0 0 0 0 0 0 0 0 0 0 0 0 0 0 0 127 0" result="hardAlpha"/>
<feOffset dy="1"/>
<feGaussianBlur stdDeviation="4"/>
<feColorMatrix type="matrix" values="0 0 0 0 0.435294 0 0 0 0 0.180392 0 0 0 0 0.0392157 0 0 0 0.1 0"/>
<feBlend mode="normal" in2="BackgroundImageFix" result="effect1_dropShadow_4019_1047"/>
<feColorMatrix in="SourceAlpha" type="matrix" values="0 0 0 0 0 0 0 0 0 0 0 0 0 0 0 0 0 0 127 0" result="hardAlpha"/>
<feOffset dy="1"/>
<feGaussianBlur stdDeviation="1"/>
<feColorMatrix type="matrix" values="0 0 0 0 0.435294 0 0 0 0 0.180392 0 0 0 0 0.0392157 0 0 0 0.14 0"/>
<feBlend mode="normal" in2="effect1_dropShadow_4019_1047" result="effect2_dropShadow_4019_1047"/>
<feBlend mode="normal" in="SourceGraphic" in2="effect2_dropShadow_4019_1047" result="shape"/>
</filter>
<filter id="filter24_dd_4019_1047" x="472.116" y="286.199" width="253.286" height="153.514" filterUnits="userSpaceOnUse" color-interpolation-filters="sRGB">
<feFlood flood-opacity="0" result="BackgroundImageFix"/>
<feColorMatrix in="SourceAlpha" type="matrix" values="0 0 0 0 0 0 0 0 0 0 0 0 0 0 0 0 0 0 127 0" result="hardAlpha"/>
<feOffset dy="1"/>
<feGaussianBlur stdDeviation="4"/>
<feColorMatrix type="matrix" values="0 0 0 0 0.435294 0 0 0 0 0.180392 0 0 0 0 0.0392157 0 0 0 0.1 0"/>
<feBlend mode="normal" in2="BackgroundImageFix" result="effect1_dropShadow_4019_1047"/>
<feColorMatrix in="SourceAlpha" type="matrix" values="0 0 0 0 0 0 0 0 0 0 0 0 0 0 0 0 0 0 127 0" result="hardAlpha"/>
<feOffset dy="1"/>
<feGaussianBlur stdDeviation="1"/>
<feColorMatrix type="matrix" values="0 0 0 0 0.435294 0 0 0 0 0.180392 0 0 0 0 0.0392157 0 0 0 0.14 0"/>
<feBlend mode="normal" in2="effect1_dropShadow_4019_1047" result="effect2_dropShadow_4019_1047"/>
<feBlend mode="normal" in="SourceGraphic" in2="effect2_dropShadow_4019_1047" result="shape"/>
</filter>
<filter id="filter25_dd_4019_1047" x="491.202" y="351.783" width="64.501" height="37.7331" filterUnits="userSpaceOnUse" color-interpolation-filters="sRGB">
<feFlood flood-opacity="0" result="BackgroundImageFix"/>
<feColorMatrix in="SourceAlpha" type="matrix" values="0 0 0 0 0 0 0 0 0 0 0 0 0 0 0 0 0 0 127 0" result="hardAlpha"/>
<feOffset dy="1"/>
<feGaussianBlur stdDeviation="4"/>
<feColorMatrix type="matrix" values="0 0 0 0 0.435294 0 0 0 0 0.180392 0 0 0 0 0.0392157 0 0 0 0.1 0"/>
<feBlend mode="normal" in2="BackgroundImageFix" result="effect1_dropShadow_4019_1047"/>
<feColorMatrix in="SourceAlpha" type="matrix" values="0 0 0 0 0 0 0 0 0 0 0 0 0 0 0 0 0 0 127 0" result="hardAlpha"/>
<feOffset dy="1"/>
<feGaussianBlur stdDeviation="1"/>
<feColorMatrix type="matrix" values="0 0 0 0 0.435294 0 0 0 0 0.180392 0 0 0 0 0.0392157 0 0 0 0.14 0"/>
<feBlend mode="normal" in2="effect1_dropShadow_4019_1047" result="effect2_dropShadow_4019_1047"/>
<feBlend mode="normal" in="SourceGraphic" in2="effect2_dropShadow_4019_1047" result="shape"/>
</filter>
<filter id="filter26_dd_4019_1047" x="550.29" y="333.55" width="108.817" height="45.5472" filterUnits="userSpaceOnUse" color-interpolation-filters="sRGB">
<feFlood flood-opacity="0" result="BackgroundImageFix"/>
<feColorMatrix in="SourceAlpha" type="matrix" values="0 0 0 0 0 0 0 0 0 0 0 0 0 0 0 0 0 0 127 0" result="hardAlpha"/>
<feOffset dy="1"/>
<feGaussianBlur stdDeviation="4"/>
<feColorMatrix type="matrix" values="0 0 0 0 0.435294 0 0 0 0 0.180392 0 0 0 0 0.0392157 0 0 0 0.1 0"/>
<feBlend mode="normal" in2="BackgroundImageFix" result="effect1_dropShadow_4019_1047"/>
<feColorMatrix in="SourceAlpha" type="matrix" values="0 0 0 0 0 0 0 0 0 0 0 0 0 0 0 0 0 0 127 0" result="hardAlpha"/>
<feOffset dy="1"/>
<feGaussianBlur stdDeviation="1"/>
<feColorMatrix type="matrix" values="0 0 0 0 0.435294 0 0 0 0 0.180392 0 0 0 0 0.0392157 0 0 0 0.14 0"/>
<feBlend mode="normal" in2="effect1_dropShadow_4019_1047" result="effect2_dropShadow_4019_1047"/>
<feBlend mode="normal" in="SourceGraphic" in2="effect2_dropShadow_4019_1047" result="shape"/>
</filter>
<filter id="filter27_dd_4019_1047" x="495.021" y="373.449" width="64.501" height="37.7331" filterUnits="userSpaceOnUse" color-interpolation-filters="sRGB">
<feFlood flood-opacity="0" result="BackgroundImageFix"/>
<feColorMatrix in="SourceAlpha" type="matrix" values="0 0 0 0 0 0 0 0 0 0 0 0 0 0 0 0 0 0 127 0" result="hardAlpha"/>
<feOffset dy="1"/>
<feGaussianBlur stdDeviation="4"/>
<feColorMatrix type="matrix" values="0 0 0 0 0.435294 0 0 0 0 0.180392 0 0 0 0 0.0392157 0 0 0 0.1 0"/>
<feBlend mode="normal" in2="BackgroundImageFix" result="effect1_dropShadow_4019_1047"/>
<feColorMatrix in="SourceAlpha" type="matrix" values="0 0 0 0 0 0 0 0 0 0 0 0 0 0 0 0 0 0 127 0" result="hardAlpha"/>
<feOffset dy="1"/>
<feGaussianBlur stdDeviation="1"/>
<feColorMatrix type="matrix" values="0 0 0 0 0.435294 0 0 0 0 0.180392 0 0 0 0 0.0392157 0 0 0 0.14 0"/>
<feBlend mode="normal" in2="effect1_dropShadow_4019_1047" result="effect2_dropShadow_4019_1047"/>
<feBlend mode="normal" in="SourceGraphic" in2="effect2_dropShadow_4019_1047" result="shape"/>
</filter>
<filter id="filter28_dd_4019_1047" x="554.11" y="355.216" width="108.817" height="45.5472" filterUnits="userSpaceOnUse" color-interpolation-filters="sRGB">
<feFlood flood-opacity="0" result="BackgroundImageFix"/>
<feColorMatrix in="SourceAlpha" type="matrix" values="0 0 0 0 0 0 0 0 0 0 0 0 0 0 0 0 0 0 127 0" result="hardAlpha"/>
<feOffset dy="1"/>
<feGaussianBlur stdDeviation="4"/>
<feColorMatrix type="matrix" values="0 0 0 0 0.435294 0 0 0 0 0.180392 0 0 0 0 0.0392157 0 0 0 0.1 0"/>
<feBlend mode="normal" in2="BackgroundImageFix" result="effect1_dropShadow_4019_1047"/>
<feColorMatrix in="SourceAlpha" type="matrix" values="0 0 0 0 0 0 0 0 0 0 0 0 0 0 0 0 0 0 127 0" result="hardAlpha"/>
<feOffset dy="1"/>
<feGaussianBlur stdDeviation="1"/>
<feColorMatrix type="matrix" values="0 0 0 0 0.435294 0 0 0 0 0.180392 0 0 0 0 0.0392157 0 0 0 0.14 0"/>
<feBlend mode="normal" in2="effect1_dropShadow_4019_1047" result="effect2_dropShadow_4019_1047"/>
<feBlend mode="normal" in="SourceGraphic" in2="effect2_dropShadow_4019_1047" result="shape"/>
</filter>
<clipPath id="clip0_4019_1047">
<rect x="89.8145" y="223.63" width="438" height="221" rx="4" transform="rotate(-10 89.8145 223.63)" fill="white"/>
</clipPath>
<clipPath id="clip1_4019_1047">
<rect width="318" height="22" fill="white" transform="translate(256.287 240.906) rotate(-10)"/>
</clipPath>
</defs>
</svg>
