<svg width="593" height="557" viewBox="0 0 593 557" fill="none" xmlns="http://www.w3.org/2000/svg">
<g filter="url(#filter0_bd_3920_1537)">
<rect x="47.772" y="123.409" width="486" height="376" rx="20" transform="rotate(-10 47.772 123.409)" fill="#F3F3F3" fill-opacity="0.81"/>
</g>
<g filter="url(#filter1_dd_3920_1537)">
<rect x="78.0059" y="156.664" width="438" height="64" rx="32" transform="rotate(-10 78.0059 156.664)" fill="white" fill-opacity="0.8"/>
<circle cx="113.504" cy="181.52" r="8.64286" transform="rotate(-10 113.504 181.52)" stroke="#A0A0A0" stroke-width="2.5"/>
<path d="M119.877 185.981L128.98 192.354" stroke="#A0A0A0" stroke-width="2.5"/>
<path d="M154.472 182.997C152.712 183.307 151.199 182.976 149.933 182.003C148.673 181.029 147.879 179.614 147.551 177.756C147.199 175.759 147.458 174.071 148.327 172.692C149.197 171.313 150.56 170.46 152.418 170.132C154.132 169.83 155.613 170.164 156.861 171.134C158.115 172.103 158.906 173.519 159.234 175.383C159.592 177.409 159.337 179.104 158.472 180.471C157.606 181.837 156.273 182.679 154.472 182.997ZM152.546 171.466C151.242 171.696 150.266 172.353 149.619 173.437C148.971 174.521 148.782 175.828 149.051 177.357C149.321 178.886 149.934 180.049 150.889 180.844C151.849 181.633 152.967 181.914 154.242 181.69C155.604 181.449 156.599 180.816 157.227 179.789C157.855 178.762 158.028 177.449 157.746 175.851C157.457 174.212 156.853 173.013 155.934 172.252C155.014 171.492 153.885 171.23 152.546 171.466ZM169.072 180.208L167.661 180.457L166.311 172.797L164.251 173.16C164.52 176.069 164.468 178.155 164.096 179.417C163.729 180.677 163.061 181.393 162.091 181.564C161.797 181.616 161.536 181.62 161.308 181.577L161.093 180.357C161.313 180.425 161.542 180.438 161.778 180.396C163.048 180.173 163.406 177.429 162.853 172.166L167.509 171.345L169.072 180.208ZM179.381 178.39L178.1 178.616L176.853 171.545C176.77 171.815 176.638 172.198 176.458 172.694L173.426 179.44L171.955 179.7L170.392 170.837L171.69 170.608L172.922 177.593C172.961 177.413 173.061 177.101 173.221 176.656L176.347 169.787L177.818 169.527L179.381 178.39ZM191.828 176.196L190.426 176.443L189.137 169.138C189.076 169.529 188.975 170.106 188.836 170.869L187.621 176.937L186.349 177.162L183.063 171.887C182.887 171.602 182.596 171.094 182.187 170.363L183.475 177.668L182.255 177.884L180.692 169.02L182.501 168.701L185.857 174.071C186.099 174.463 186.415 175.008 186.806 175.707L187.136 173.881L188.378 167.665L190.265 167.332L191.828 176.196ZM202.059 174.392L200.639 174.642L199.29 166.99L194.772 167.787L196.121 175.439L194.701 175.689L193.139 166.826L200.496 165.528L202.059 174.392ZM212.359 172.575L211.078 172.801L209.831 165.73C209.748 166 209.616 166.384 209.435 166.879L206.404 173.626L204.932 173.885L203.369 165.022L204.668 164.793L205.899 171.778C205.939 171.598 206.039 171.286 206.198 170.842L209.324 163.972L210.796 163.712L212.359 172.575ZM221.577 170.95L220.157 171.2L219.913 169.815L219.878 169.822C219.448 170.992 218.633 171.683 217.433 171.895C216.55 172.051 215.816 171.939 215.232 171.56C214.653 171.18 214.296 170.604 214.159 169.83C213.867 168.174 214.673 167.039 216.575 166.424L219.167 165.583C218.901 164.077 218.16 163.431 216.942 163.646C215.875 163.834 214.975 164.368 214.243 165.246L213.987 163.792C214.761 163.085 215.716 162.63 216.853 162.43C218.936 162.063 220.172 162.981 220.56 165.185L221.577 170.95ZM219.367 166.717L217.281 167.388C216.639 167.596 216.172 167.848 215.879 168.144C215.585 168.434 215.49 168.876 215.595 169.47C215.671 169.903 215.887 170.231 216.242 170.454C216.601 170.67 217.038 170.733 217.551 170.643C218.255 170.518 218.792 170.171 219.161 169.6C219.535 169.022 219.656 168.356 219.522 167.6L219.367 166.717ZM232.55 172.344L231.347 172.556L230.778 169.328L224.182 170.491L224.751 173.719L223.54 173.933L222.758 169.501L223.546 169.362C224.673 166.915 224.99 164.226 224.498 161.296L229.102 160.484L230.453 168.144L231.769 167.912L232.55 172.344ZM229.033 168.395L227.895 161.938L225.93 162.284C226.196 164.701 225.903 166.971 225.052 169.097L229.033 168.395ZM243.64 167.06L242.238 167.307L240.675 158.444L242.077 158.197L243.64 167.06ZM233.946 168.769L232.383 159.906L233.802 159.656L234.402 163.057L236.791 162.636C237.697 162.476 238.457 162.586 239.071 162.966C239.691 163.344 240.076 163.958 240.226 164.806C240.376 165.66 240.227 166.382 239.778 166.973C239.329 167.564 238.695 167.932 237.875 168.076L233.946 168.769ZM234.617 164.278L235.151 167.307L237.281 166.932C238.458 166.724 238.955 166.101 238.772 165.062C238.599 164.081 237.918 163.696 236.729 163.905L234.617 164.278Z" fill="#565656"/>
<rect x="244" y="145.332" width="1" height="32" transform="rotate(-10 244 145.332)" fill="#565656"/>
</g>
<g filter="url(#filter2_d_3920_1537)">
<g clip-path="url(#clip0_3920_1537)">
<rect x="89.814" y="223.631" width="438" height="221" rx="4" transform="rotate(-10 89.814 223.631)" fill="white" fill-opacity="0.8"/>
<line x1="113.691" y1="359.042" x2="545.036" y2="282.984" stroke="#DADADA"/>
</g>
</g>
<g filter="url(#filter3_dd_3920_1537)">
<rect x="156.662" y="234.183" width="312" height="16" rx="8" transform="rotate(-10 156.662 234.183)" fill="white" fill-opacity="0.9"/>
</g>
<g filter="url(#filter4_dd_3920_1537)">
<rect x="166.733" y="291.302" width="312" height="16" rx="8" transform="rotate(-10 166.733 291.302)" fill="white" fill-opacity="0.9"/>
</g>
<g filter="url(#filter5_dd_3920_1537)">
<rect x="160.83" y="257.819" width="148" height="16" rx="8" transform="rotate(-10 160.83 257.819)" fill="white" fill-opacity="0.9"/>
</g>
<g filter="url(#filter6_dd_3920_1537)">
<rect x="170.901" y="314.937" width="148" height="16" rx="8" transform="rotate(-10 170.901 314.937)" fill="white" fill-opacity="0.9"/>
</g>
<g filter="url(#filter7_dd_3920_1537)">
<rect x="180.104" y="367.132" width="69" height="16" rx="8" transform="rotate(-10 180.104 367.132)" fill="white" fill-opacity="0.9"/>
</g>
<g filter="url(#filter8_dd_3920_1537)">
<rect x="184.967" y="394.707" width="69" height="16" rx="8" transform="rotate(-10 184.967 394.707)" fill="white" fill-opacity="0.9"/>
</g>
<g filter="url(#filter9_dd_3920_1537)">
<rect x="252.98" y="354.282" width="69" height="16" rx="8" transform="rotate(-10 252.98 354.282)" fill="white" fill-opacity="0.9"/>
</g>
<g filter="url(#filter10_dd_3920_1537)">
<rect x="257.842" y="381.857" width="93" height="16" rx="8" transform="rotate(-10 257.842 381.857)" fill="white" fill-opacity="0.9"/>
</g>
<g clip-path="url(#clip1_3920_1537)">
<g filter="url(#filter11_bd_3920_1537)">
<rect x="213.474" y="186.698" width="486" height="376" rx="20" transform="rotate(-10 213.474 186.698)" fill="#F3F3F3" fill-opacity="0.81"/>
</g>
<g filter="url(#filter12_dd_3920_1537)">
<rect x="266.577" y="309.339" width="145" height="16" rx="8" transform="rotate(-10 266.577 309.339)" fill="#ECECEC"/>
</g>
<g filter="url(#filter13_dd_3920_1537)">
<rect x="282.9" y="401.911" width="113" height="16" rx="8" transform="rotate(-10 282.9 401.911)" fill="#ECECEC"/>
</g>
<g filter="url(#filter14_dd_3920_1537)">
<rect x="287.068" y="425.547" width="158" height="16" rx="8" transform="rotate(-10 287.068 425.547)" fill="#ECECEC"/>
</g>
<g filter="url(#filter15_dd_3920_1537)">
<rect x="291.235" y="449.182" width="78" height="16" rx="8" transform="rotate(-10 291.235 449.182)" fill="#ECECEC"/>
</g>
<g filter="url(#filter16_dd_3920_1537)">
<rect x="261.194" y="278.811" width="191" height="16" rx="8" transform="rotate(-10 261.194 278.811)" fill="#ECECEC"/>
</g>
<g filter="url(#filter17_dd_3920_1537)">
<rect x="270.745" y="332.975" width="34" height="16" rx="8" transform="rotate(-10 270.745 332.975)" fill="#ECECEC"/>
</g>
<g filter="url(#filter18_dd_3920_1537)">
<rect x="309.152" y="326.203" width="85" height="16" rx="8" transform="rotate(-10 309.152 326.203)" fill="#ECECEC"/>
</g>
<g filter="url(#filter19_dd_3920_1537)">
<rect x="274.912" y="356.61" width="34" height="16" rx="8" transform="rotate(-10 274.912 356.61)" fill="#ECECEC"/>
</g>
<g filter="url(#filter20_dd_3920_1537)">
<rect x="313.32" y="349.838" width="85" height="16" rx="8" transform="rotate(-10 313.32 349.838)" fill="#ECECEC"/>
</g>
<path d="M266.736 220.969L265.291 221.224L263.823 212.898C263.707 212.24 263.605 211.428 263.518 210.461L263.483 210.468C263.443 211.052 263.39 211.475 263.323 211.736L260.764 222.023L260.054 222.148L254.152 213.425C253.982 213.169 253.783 212.767 253.555 212.218L253.521 212.224C253.654 212.712 253.82 213.519 254.019 214.644L255.484 222.954L254.082 223.201L251.893 210.789L253.815 210.45L259.149 218.434C259.561 219.046 259.839 219.508 259.983 219.822L260.035 219.813C260.163 219.088 260.273 218.545 260.364 218.184L262.73 208.878L264.548 208.557L266.736 220.969ZM273.559 219.981C272.249 220.212 271.129 219.984 270.199 219.297C269.273 218.603 268.69 217.573 268.449 216.205C268.186 214.716 268.388 213.482 269.054 212.502C269.72 211.522 270.746 210.909 272.13 210.665C273.452 210.432 274.554 210.657 275.436 211.341C276.323 212.023 276.895 213.086 277.149 214.528C277.398 215.942 277.197 217.147 276.546 218.142C275.899 219.131 274.903 219.744 273.559 219.981ZM272.237 211.878C271.325 212.039 270.659 212.478 270.238 213.194C269.816 213.905 269.701 214.806 269.894 215.897C270.079 216.947 270.493 217.728 271.137 218.239C271.78 218.75 272.552 218.927 273.452 218.768C274.37 218.606 275.021 218.185 275.407 217.504C275.798 216.822 275.897 215.933 275.704 214.837C275.509 213.729 275.11 212.918 274.508 212.406C273.912 211.892 273.155 211.716 272.237 211.878ZM286.609 213.262L280.351 214.365C280.548 215.348 280.948 216.063 281.55 216.51C282.153 216.957 282.898 217.102 283.787 216.946C284.785 216.77 285.645 216.279 286.365 215.474L286.6 216.806C285.921 217.509 284.941 217.974 283.66 218.2C282.408 218.42 281.353 218.193 280.496 217.517C279.638 216.835 279.08 215.764 278.823 214.305C278.58 212.925 278.771 211.734 279.398 210.731C280.029 209.722 280.924 209.115 282.084 208.91C283.244 208.706 284.208 208.923 284.975 209.561C285.742 210.199 286.243 211.185 286.478 212.518L286.609 213.262ZM284.943 212.315C284.792 211.497 284.481 210.894 284.008 210.508C283.541 210.12 282.961 209.987 282.269 210.109C281.6 210.227 281.073 210.567 280.69 211.128C280.308 211.69 280.129 212.367 280.156 213.159L284.943 212.315ZM298.089 215.655C296.779 215.886 295.659 215.658 294.728 214.972C293.803 214.278 293.22 213.248 292.978 211.88C292.716 210.391 292.918 209.157 293.584 208.177C294.25 207.196 295.275 206.584 296.66 206.34C297.982 206.107 299.083 206.332 299.965 207.016C300.853 207.698 301.424 208.76 301.679 210.203C301.928 211.617 301.727 212.821 301.075 213.817C300.429 214.805 299.433 215.418 298.089 215.655ZM296.767 207.553C295.855 207.714 295.189 208.152 294.768 208.869C294.346 209.58 294.231 210.481 294.423 211.572C294.609 212.622 295.023 213.403 295.666 213.914C296.31 214.425 297.082 214.601 297.982 214.443C298.899 214.281 299.551 213.86 299.937 213.179C300.328 212.497 300.427 211.608 300.234 210.511C300.038 209.403 299.64 208.593 299.038 208.081C298.441 207.567 297.684 207.391 296.767 207.553ZM309.257 199.835L309.492 201.168C309.286 201.383 308.928 201.58 308.418 201.759C307.155 202.184 306.279 202.535 305.793 202.811C305.311 203.08 304.955 203.542 304.725 204.195C304.501 204.847 304.443 205.753 304.552 206.912L304.587 206.906C305.102 205.78 306.001 205.104 307.282 204.878C308.453 204.671 309.467 204.906 310.324 205.582C311.181 206.258 311.725 207.253 311.957 208.569C312.197 209.925 312.014 211.082 311.409 212.039C310.809 212.99 309.877 213.577 308.614 213.8C307.252 214.04 306.117 213.743 305.208 212.91C304.304 212.069 303.694 210.752 303.378 208.957C303.132 207.561 303.056 206.355 303.15 205.338C303.244 204.316 303.481 203.519 303.862 202.946C304.249 202.372 304.711 201.943 305.25 201.657C305.794 201.371 306.743 200.98 308.096 200.486C308.627 200.261 309.014 200.044 309.257 199.835ZM304.782 208.317L304.999 209.546C305.086 210.007 305.235 210.448 305.446 210.869C305.657 211.289 305.917 211.648 306.225 211.945C306.533 212.242 306.869 212.444 307.234 212.552C307.604 212.66 308.005 212.675 308.438 212.599C309.228 212.46 309.814 212.053 310.195 211.379C310.581 210.698 310.692 209.896 310.529 208.973C310.35 207.957 309.957 207.196 309.35 206.691C308.748 206.178 308.023 205.996 307.175 206.146C305.986 206.356 305.189 207.079 304.782 208.317ZM320.491 202.352L318.227 213.354C317.824 215.317 316.964 216.415 315.649 216.647C315.279 216.712 314.964 216.729 314.703 216.697L314.478 215.425C314.802 215.475 315.091 215.478 315.345 215.433C316.061 215.307 316.522 214.785 316.729 213.868L317.143 212.064L312.121 203.828L313.696 203.55L317.297 209.948C317.341 210.03 317.441 210.244 317.597 210.591L317.649 210.582C317.654 210.438 317.673 210.209 317.706 209.894L319.019 202.612L320.491 202.352ZM330.727 209.686L329.316 209.935L328.687 206.369C327.748 207.118 326.84 207.569 325.963 207.724C323.978 208.074 322.8 207.199 322.43 205.098L321.902 202.103L323.321 201.853L323.837 204.779C324.066 206.077 324.74 206.628 325.86 206.43C326.714 206.28 327.587 205.87 328.481 205.2L327.753 201.072L329.164 200.823L330.727 209.686ZM340.014 203.845L333.756 204.949C333.953 205.931 334.352 206.646 334.955 207.093C335.557 207.54 336.303 207.686 337.191 207.529C338.19 207.353 339.049 206.862 339.77 206.057L340.005 207.39C339.326 208.093 338.345 208.557 337.064 208.783C335.812 209.004 334.758 208.776 333.901 208.1C333.043 207.419 332.485 206.348 332.228 204.888C331.985 203.509 332.176 202.318 332.803 201.315C333.434 200.305 334.329 199.698 335.489 199.493C336.649 199.289 337.612 199.506 338.379 200.144C339.146 200.782 339.647 201.768 339.882 203.101L340.014 203.845ZM338.347 202.898C338.197 202.08 337.886 201.478 337.413 201.091C336.946 200.703 336.366 200.57 335.674 200.693C335.004 200.811 334.478 201.15 334.095 201.712C333.712 202.273 333.534 202.95 333.561 203.742L338.347 202.898ZM350.245 206.245L348.825 206.495L348.116 202.47L343.597 203.267L344.307 207.292L342.888 207.542L341.325 198.679L342.744 198.428L343.385 202.064L347.904 201.267L347.263 197.632L348.682 197.381L350.245 206.245ZM360.545 204.428L359.264 204.654L358.017 197.583C357.934 197.853 357.802 198.236 357.622 198.732L354.59 205.478L353.118 205.738L351.556 196.875L352.854 196.646L354.086 203.631C354.125 203.451 354.225 203.139 354.385 202.695L357.511 195.825L358.982 195.565L360.545 204.428ZM369.823 198.589L363.565 199.692C363.762 200.675 364.162 201.39 364.765 201.837C365.367 202.284 366.112 202.429 367.001 202.273C367.999 202.097 368.859 201.606 369.58 200.801L369.815 202.134C369.135 202.836 368.155 203.301 366.874 203.527C365.622 203.747 364.567 203.52 363.71 202.844C362.852 202.162 362.295 201.091 362.037 199.632C361.794 198.252 361.986 197.061 362.612 196.059C363.243 195.049 364.139 194.442 365.299 194.237C366.458 194.033 367.422 194.25 368.189 194.888C368.956 195.526 369.457 196.512 369.692 197.845L369.823 198.589ZM368.157 197.642C368.007 196.824 367.695 196.221 367.222 195.835C366.755 195.447 366.176 195.314 365.483 195.436C364.814 195.554 364.288 195.894 363.905 196.455C363.522 197.017 363.344 197.694 363.37 198.486L368.157 197.642Z" fill="#565656"/>
<g clip-path="url(#clip2_3920_1537)">
<path d="M268.188 256.07L266.579 256.354L265.841 252.166L261.297 252.968L262.035 257.155L260.433 257.437L258.73 247.784L260.333 247.501L261.048 251.561L265.593 250.759L264.877 246.7L266.486 246.416L268.188 256.07ZM273.481 255.303C272.417 255.491 271.51 255.32 270.76 254.79C270.013 254.256 269.546 253.457 269.358 252.393C269.154 251.235 269.325 250.272 269.87 249.505C270.419 248.737 271.255 248.255 272.377 248.057C273.454 247.867 274.349 248.035 275.062 248.562C275.775 249.089 276.23 249.913 276.428 251.035C276.622 252.135 276.452 253.074 275.919 253.853C275.389 254.627 274.576 255.11 273.481 255.303ZM272.502 249.319C271.892 249.426 271.447 249.725 271.168 250.214C270.888 250.702 270.815 251.322 270.947 252.071C271.074 252.794 271.354 253.332 271.787 253.686C272.219 254.036 272.735 254.157 273.337 254.051C273.951 253.943 274.387 253.656 274.642 253.19C274.902 252.723 274.966 252.112 274.833 251.358C274.699 250.6 274.43 250.043 274.025 249.689C273.625 249.334 273.117 249.21 272.502 249.319ZM278.636 254.228L277.421 247.334L280.713 246.753C281.453 246.623 282.065 246.67 282.549 246.895C283.033 247.119 283.321 247.492 283.413 248.013C283.568 248.892 283.211 249.506 282.342 249.854C283.439 249.799 284.068 250.234 284.231 251.159C284.332 251.729 284.19 252.249 283.805 252.719C283.42 253.185 282.891 253.477 282.218 253.596L278.636 254.228ZM279.177 248.163L279.48 249.879L280.86 249.636C281.641 249.498 281.978 249.126 281.871 248.521C281.776 247.982 281.388 247.773 280.705 247.893L279.177 248.163ZM279.671 250.963L280.002 252.841L281.604 252.559C282.403 252.418 282.746 252.024 282.632 251.378C282.525 250.772 282.038 250.546 281.172 250.698L279.671 250.963ZM289.342 252.507C288.278 252.694 287.371 252.523 286.621 251.994C285.874 251.459 285.407 250.66 285.219 249.596C285.015 248.438 285.185 247.476 285.73 246.709C286.28 245.941 287.116 245.458 288.238 245.26C289.315 245.07 290.21 245.239 290.923 245.765C291.636 246.292 292.091 247.116 292.289 248.238C292.483 249.338 292.313 250.277 291.779 251.056C291.249 251.83 290.437 252.313 289.342 252.507ZM288.363 246.522C287.753 246.63 287.308 246.928 287.028 247.417C286.749 247.906 286.675 248.525 286.807 249.274C286.935 249.997 287.215 250.535 287.648 250.889C288.079 251.239 288.596 251.361 289.197 251.255C289.812 251.146 290.248 250.859 290.503 250.393C290.763 249.926 290.827 249.315 290.694 248.561C290.56 247.803 290.291 247.247 289.886 246.892C289.485 246.537 288.978 246.414 288.363 246.522ZM299.376 250.244C298.88 250.66 298.255 250.935 297.501 251.068C296.478 251.248 295.596 251.075 294.855 250.549C294.114 250.018 293.653 249.243 293.473 248.224C293.273 247.089 293.449 246.118 294.001 245.313C294.557 244.502 295.401 243.997 296.532 243.798C297.16 243.687 297.733 243.699 298.252 243.834L298.509 245.288C297.965 245.014 297.422 244.925 296.879 245.02C296.219 245.137 295.718 245.457 295.375 245.98C295.032 246.498 294.924 247.119 295.051 247.842C295.177 248.555 295.474 249.084 295.941 249.427C296.414 249.769 296.984 249.882 297.653 249.764C298.214 249.665 298.708 249.372 299.136 248.885L299.376 250.244ZM304.69 243.81L302.724 244.156L303.72 249.805L302.151 250.081L301.155 244.433L299.176 244.782L298.957 243.537L304.47 242.564L304.69 243.81ZM313.185 248.136L311.772 248.385L310.88 243.329C310.822 243.525 310.729 243.798 310.601 244.149L308.459 248.969L306.924 249.24L305.709 242.346L307.143 242.093L308.016 247.048C308.045 246.923 308.115 246.702 308.226 246.386L310.401 241.519L311.97 241.242L313.185 248.136Z" fill="#565656"/>
<path d="M337.753 243.804L336.608 244.006L335.091 235.402L330.049 236.291L331.566 244.895L330.428 245.095L328.726 235.441L336.05 234.15L337.753 243.804ZM343.019 243.042C342 243.221 341.129 243.044 340.405 242.51C339.685 241.971 339.232 241.169 339.044 240.105C338.84 238.947 338.997 237.987 339.515 237.225C340.033 236.463 340.831 235.986 341.908 235.796C342.935 235.615 343.792 235.79 344.478 236.322C345.169 236.853 345.613 237.679 345.811 238.801C346.005 239.901 345.848 240.838 345.342 241.612C344.839 242.381 344.064 242.857 343.019 243.042ZM341.991 236.74C341.282 236.865 340.763 237.206 340.436 237.764C340.108 238.317 340.018 239.017 340.168 239.865C340.312 240.682 340.634 241.29 341.135 241.687C341.635 242.085 342.235 242.222 342.936 242.098C343.649 241.973 344.156 241.645 344.456 241.115C344.76 240.585 344.838 239.894 344.687 239.041C344.535 238.179 344.225 237.549 343.757 237.15C343.293 236.751 342.704 236.614 341.991 236.74ZM349.143 240.768L349.116 240.773L349.85 244.94L348.746 245.135L346.972 235.07L348.076 234.875L348.29 236.087L348.316 236.082C348.698 235.071 349.412 234.473 350.457 234.289C351.346 234.132 352.094 234.32 352.701 234.851C353.308 235.378 353.703 236.16 353.886 237.197C354.089 238.35 353.971 239.324 353.533 240.119C353.094 240.909 352.387 241.39 351.414 241.562C350.52 241.719 349.763 241.454 349.143 240.768ZM348.625 237.992L348.795 238.955C348.896 239.525 349.165 239.977 349.604 240.312C350.046 240.641 350.552 240.756 351.122 240.655C351.791 240.537 352.268 240.189 352.555 239.611C352.846 239.032 352.912 238.287 352.751 237.376C352.616 236.609 352.332 236.038 351.901 235.666C351.47 235.293 350.951 235.16 350.345 235.267C349.703 235.38 349.227 235.695 348.916 236.213C348.603 236.726 348.507 237.319 348.625 237.992ZM359.572 233.82L357.505 234.185L358.555 240.136L357.451 240.33L356.401 234.379L354.328 234.745L354.162 233.802L359.406 232.878L359.572 233.82ZM366.083 238.975L366.626 242.058L365.63 242.234L365.086 239.151L364.871 239.189C363.866 239.366 362.996 239.184 362.262 238.642C361.528 238.101 361.068 237.305 360.883 236.255C360.686 235.137 360.84 234.189 361.346 233.41C361.856 232.626 362.625 232.144 363.652 231.962L363.814 231.934L363.327 229.174L364.324 228.998L364.81 231.758L364.958 231.732C365.995 231.549 366.884 231.737 367.626 232.296C368.372 232.849 368.844 233.689 369.042 234.816C369.227 235.866 369.07 236.771 368.57 237.53C368.07 238.289 367.319 238.757 366.318 238.933L366.083 238.975ZM364.974 232.687L365.919 238.046L366.067 238.02C366.767 237.896 367.284 237.562 367.619 237.017C367.952 236.468 368.047 235.787 367.904 234.975C367.754 234.122 367.43 233.492 366.932 233.085C366.439 232.676 365.847 232.533 365.156 232.655L364.974 232.687ZM364.923 238.222L363.978 232.863L363.816 232.891C363.125 233.013 362.613 233.353 362.282 233.912C361.949 234.465 361.857 235.166 362.007 236.015C362.148 236.818 362.47 237.423 362.972 237.83C363.478 238.231 364.083 238.37 364.788 238.245L364.923 238.222ZM374.323 237.522C373.304 237.702 372.433 237.524 371.709 236.99C370.99 236.451 370.536 235.649 370.348 234.586C370.144 233.428 370.301 232.467 370.819 231.705C371.337 230.943 372.135 230.467 373.212 230.277C374.24 230.095 375.097 230.271 375.783 230.802C376.473 231.333 376.917 232.159 377.115 233.281C377.309 234.381 377.153 235.318 376.646 236.092C376.143 236.861 375.369 237.338 374.323 237.522ZM373.295 231.22C372.586 231.345 372.068 231.686 371.74 232.244C371.412 232.797 371.323 233.497 371.472 234.346C371.616 235.163 371.938 235.77 372.439 236.167C372.939 236.565 373.54 236.702 374.24 236.579C374.953 236.453 375.46 236.125 375.76 235.596C376.065 235.065 376.142 234.374 375.991 233.521C375.839 232.659 375.529 232.029 375.061 231.63C374.597 231.231 374.009 231.094 373.295 231.22ZM384.52 235.557L383.423 235.751L382.373 229.793L380.77 230.075C380.98 232.338 380.939 233.961 380.65 234.942C380.364 235.922 379.845 236.479 379.091 236.612C378.862 236.652 378.659 236.656 378.482 236.622L378.314 235.673C378.486 235.726 378.663 235.736 378.847 235.704C379.835 235.53 380.113 233.396 379.683 229.302L383.305 228.664L384.52 235.557ZM392.538 234.144L391.542 234.319L390.572 228.819C390.507 229.029 390.405 229.328 390.265 229.713L387.907 234.96L386.762 235.162L385.547 228.268L386.556 228.09L387.514 233.523C387.545 233.383 387.623 233.141 387.747 232.795L390.178 227.452L391.323 227.25L392.538 234.144ZM397.683 233.403C396.664 233.583 395.793 233.405 395.07 232.871C394.35 232.332 393.896 231.53 393.709 230.466C393.504 229.309 393.661 228.348 394.179 227.586C394.698 226.824 395.495 226.348 396.572 226.158C397.6 225.976 398.457 226.152 399.143 226.683C399.834 227.214 400.278 228.04 400.476 229.162C400.669 230.262 400.513 231.199 400.006 231.973C399.503 232.742 398.729 233.219 397.683 233.403ZM396.655 227.101C395.946 227.226 395.428 227.567 395.1 228.125C394.772 228.678 394.683 229.378 394.832 230.227C394.976 231.043 395.299 231.651 395.799 232.048C396.3 232.446 396.9 232.583 397.6 232.46C398.314 232.334 398.821 232.006 399.121 231.477C399.425 230.946 399.502 230.255 399.352 229.402C399.2 228.54 398.89 227.91 398.421 227.511C397.958 227.112 397.369 226.975 396.655 227.101Z" fill="#808080"/>
<path d="M427.918 227.905L426.794 228.103L425.652 221.627C425.562 221.116 425.483 220.484 425.415 219.732L425.388 219.737C425.357 220.191 425.316 220.52 425.264 220.724L423.273 228.724L422.721 228.822L418.131 222.037C417.998 221.838 417.844 221.525 417.667 221.099L417.64 221.103C417.744 221.483 417.873 222.11 418.027 222.986L419.167 229.448L418.076 229.641L416.374 219.987L417.868 219.723L422.018 225.933C422.337 226.409 422.554 226.769 422.666 227.013L422.706 227.006C422.806 226.442 422.891 226.02 422.962 225.739L424.802 218.501L426.216 218.251L427.918 227.905ZM435.25 226.612L434.146 226.807L433.956 225.73L433.929 225.735C433.594 226.645 432.96 227.183 432.026 227.347C431.34 227.468 430.769 227.382 430.315 227.087C429.865 226.792 429.587 226.343 429.48 225.742C429.253 224.454 429.88 223.57 431.359 223.092L433.375 222.438C433.169 221.267 432.592 220.764 431.645 220.931C430.815 221.078 430.115 221.493 429.546 222.176L429.346 221.045C429.948 220.495 430.691 220.142 431.575 219.986C433.195 219.7 434.157 220.414 434.459 222.129L435.25 226.612ZM433.531 223.32L431.908 223.842C431.409 224.004 431.046 224.2 430.818 224.43C430.589 224.655 430.516 224.999 430.597 225.461C430.657 225.798 430.824 226.053 431.1 226.227C431.38 226.395 431.719 226.444 432.118 226.373C432.666 226.277 433.083 226.006 433.371 225.562C433.662 225.113 433.755 224.595 433.652 224.007L433.531 223.32ZM440.609 219.531L438.542 219.896L439.592 225.847L438.488 226.042L437.438 220.09L435.365 220.456L435.199 219.513L440.443 218.589L440.609 219.531ZM447.966 221.101L443.099 221.959C443.252 222.723 443.563 223.279 444.032 223.627C444.5 223.975 445.08 224.088 445.771 223.966C446.548 223.829 447.216 223.447 447.777 222.821L447.959 223.858C447.431 224.404 446.669 224.766 445.672 224.941C444.699 225.113 443.878 224.936 443.212 224.41C442.544 223.88 442.111 223.047 441.91 221.912C441.721 220.839 441.87 219.913 442.358 219.133C442.848 218.347 443.545 217.875 444.447 217.716C445.349 217.557 446.098 217.726 446.695 218.222C447.292 218.719 447.681 219.485 447.864 220.522L447.966 221.101ZM446.67 220.364C446.553 219.728 446.311 219.259 445.943 218.959C445.58 218.657 445.129 218.554 444.591 218.649C444.07 218.741 443.661 219.005 443.363 219.441C443.065 219.878 442.927 220.404 442.947 221.021L446.67 220.364ZM451.157 222.78L451.13 222.785L451.865 226.952L450.761 227.147L448.986 217.082L450.09 216.888L450.304 218.099L450.331 218.095C450.712 217.083 451.426 216.486 452.472 216.301C453.36 216.144 454.108 216.332 454.716 216.863C455.322 217.39 455.717 218.172 455.9 219.209C456.103 220.362 455.986 221.336 455.547 222.131C455.108 222.921 454.402 223.402 453.428 223.574C452.535 223.731 451.778 223.467 451.157 222.78ZM450.64 220.005L450.809 220.967C450.91 221.537 451.179 221.99 451.618 222.324C452.06 222.653 452.566 222.768 453.136 222.667C453.805 222.549 454.283 222.201 454.569 221.623C454.861 221.044 454.926 220.299 454.765 219.388C454.63 218.621 454.347 218.051 453.915 217.678C453.484 217.305 452.965 217.172 452.359 217.279C451.718 217.392 451.241 217.707 450.93 218.225C450.618 218.738 450.521 219.331 450.64 220.005ZM464.083 221.528L463.087 221.704L462.117 216.204C462.052 216.414 461.95 216.712 461.81 217.098L459.451 222.345L458.307 222.547L457.091 215.653L458.101 215.475L459.059 220.908C459.09 220.768 459.168 220.526 459.292 220.18L461.723 214.836L462.868 214.635L464.083 221.528ZM471.253 220.264L470.149 220.459L469.959 219.382L469.932 219.386C469.597 220.297 468.963 220.834 468.03 220.999C467.343 221.12 466.772 221.033 466.318 220.739C465.868 220.443 465.59 219.995 465.484 219.393C465.257 218.105 465.883 217.222 467.363 216.744L469.378 216.09C469.172 214.918 468.595 214.416 467.648 214.583C466.818 214.729 466.118 215.144 465.549 215.828L465.35 214.697C465.951 214.146 466.694 213.793 467.578 213.637C469.199 213.352 470.16 214.066 470.462 215.781L471.253 220.264ZM469.534 216.972L467.911 217.494C467.412 217.656 467.049 217.852 466.821 218.082C466.592 218.307 466.519 218.651 466.6 219.113C466.66 219.45 466.827 219.705 467.103 219.878C467.383 220.046 467.722 220.095 468.122 220.025C468.669 219.928 469.087 219.658 469.374 219.214C469.665 218.765 469.759 218.246 469.655 217.658L469.534 216.972ZM478.362 219.011L477.265 219.204L476.214 213.246L474.612 213.529C474.821 215.792 474.781 217.414 474.491 218.395C474.206 219.376 473.686 219.932 472.932 220.065C472.703 220.106 472.5 220.109 472.323 220.075L472.156 219.126C472.327 219.179 472.505 219.19 472.689 219.157C473.676 218.983 473.955 216.849 473.524 212.756L477.146 212.117L478.362 219.011ZM488.144 217.286L487.053 217.478L485.837 210.584L486.928 210.392L488.144 217.286ZM480.604 218.615L479.388 211.722L480.492 211.527L480.959 214.173L482.817 213.845C483.521 213.721 484.113 213.806 484.59 214.102C485.073 214.396 485.372 214.873 485.488 215.533C485.605 216.197 485.489 216.759 485.14 217.218C484.791 217.678 484.297 217.964 483.66 218.076L480.604 218.615ZM481.126 215.122L481.542 217.478L483.198 217.186C484.113 217.025 484.5 216.54 484.357 215.732C484.223 214.969 483.693 214.669 482.769 214.832L481.126 215.122Z" fill="#808080"/>
<path d="M512.442 213.001L510.867 213.279L506.359 209.521C506.19 209.379 506.085 209.282 506.044 209.229L506.017 209.234L506.855 213.987L505.724 214.186L504.022 204.532L505.153 204.333L505.953 208.87L505.98 208.865C506.025 208.756 506.091 208.631 506.177 208.491L509.044 203.647L510.451 203.399L507.127 208.76L512.442 213.001ZM518.508 211.932L517.404 212.127L517.214 211.049L517.187 211.054C516.852 211.965 516.218 212.502 515.285 212.667C514.598 212.788 514.028 212.701 513.573 212.406C513.123 212.111 512.845 211.662 512.739 211.061C512.512 209.773 513.138 208.89 514.618 208.411L516.634 207.757C516.427 206.586 515.85 206.084 514.903 206.251C514.073 206.397 513.373 206.812 512.804 207.496L512.605 206.365C513.207 205.814 513.95 205.461 514.834 205.305C516.454 205.019 517.415 205.734 517.717 207.448L518.508 211.932ZM516.789 208.639L515.167 209.161C514.668 209.323 514.304 209.519 514.076 209.749C513.848 209.975 513.774 210.319 513.856 210.781C513.915 211.117 514.083 211.372 514.358 211.546C514.638 211.714 514.977 211.763 515.377 211.693C515.924 211.596 516.342 211.326 516.629 210.882C516.92 210.433 517.014 209.914 516.91 209.326L516.789 208.639ZM525.617 210.678L524.52 210.872L523.469 204.914L521.867 205.196C522.076 207.459 522.036 209.082 521.746 210.063C521.461 211.043 520.941 211.6 520.187 211.733C519.959 211.773 519.756 211.777 519.578 211.743L519.411 210.794C519.582 210.847 519.76 210.857 519.944 210.825C520.931 210.651 521.21 208.517 520.78 204.423L524.402 203.785L525.617 210.678ZM532.84 206.135L527.973 206.994C528.126 207.758 528.437 208.314 528.906 208.662C529.374 209.009 529.954 209.122 530.645 209C531.422 208.863 532.09 208.482 532.651 207.855L532.834 208.892C532.305 209.439 531.543 209.8 530.547 209.976C529.573 210.147 528.752 209.97 528.086 209.445C527.419 208.915 526.985 208.082 526.785 206.946C526.595 205.874 526.744 204.947 527.232 204.167C527.723 203.382 528.419 202.91 529.321 202.751C530.223 202.592 530.973 202.76 531.569 203.257C532.166 203.753 532.555 204.52 532.738 205.556L532.84 206.135ZM531.544 205.399C531.427 204.762 531.185 204.294 530.817 203.993C530.454 203.692 530.003 203.588 529.465 203.683C528.944 203.775 528.535 204.039 528.237 204.476C527.939 204.912 527.801 205.439 527.821 206.055L531.544 205.399ZM540.798 208.002L539.694 208.196L539.142 205.066L535.628 205.685L536.18 208.816L535.076 209.011L533.86 202.117L534.964 201.922L535.463 204.75L538.977 204.13L538.478 201.303L539.582 201.108L540.798 208.002ZM549.487 209.058L548.552 209.223L548.109 206.712L542.979 207.617L543.422 210.128L542.479 210.294L541.872 206.847L542.484 206.739C543.361 204.836 543.608 202.744 543.224 200.466L546.806 199.834L547.856 205.792L548.88 205.612L549.487 209.058ZM546.752 205.987L545.867 200.965L544.339 201.234C544.545 203.113 544.317 204.88 543.656 206.533L546.752 205.987ZM555.508 205.408L554.403 205.603L554.214 204.525L554.187 204.53C553.852 205.441 553.218 205.978 552.284 206.143C551.598 206.264 551.027 206.177 550.573 205.882C550.122 205.587 549.844 205.138 549.738 204.537C549.511 203.249 550.138 202.366 551.617 201.887L553.633 201.233C553.427 200.062 552.85 199.56 551.903 199.727C551.072 199.873 550.373 200.288 549.804 200.971L549.604 199.84C550.206 199.29 550.949 198.937 551.833 198.781C553.453 198.495 554.415 199.21 554.717 200.924L555.508 205.408ZM553.789 202.115L552.166 202.637C551.667 202.799 551.304 202.995 551.076 203.225C550.847 203.451 550.774 203.795 550.855 204.257C550.914 204.593 551.082 204.848 551.358 205.022C551.637 205.19 551.977 205.239 552.376 205.169C552.924 205.072 553.341 204.802 553.629 204.358C553.92 203.908 554.013 203.39 553.91 202.802L553.789 202.115ZM558.543 203.845L558.516 203.85L559.251 208.017L558.147 208.212L556.372 198.147L557.476 197.953L557.69 199.164L557.717 199.16C558.098 198.148 558.812 197.551 559.858 197.366C560.746 197.209 561.494 197.397 562.102 197.928C562.708 198.455 563.103 199.237 563.286 200.274C563.489 201.427 563.372 202.401 562.934 203.196C562.494 203.986 561.788 204.467 560.814 204.639C559.921 204.796 559.164 204.532 558.543 203.845ZM558.026 201.07L558.196 202.032C558.296 202.602 558.566 203.055 559.004 203.389C559.446 203.718 559.952 203.833 560.522 203.732C561.191 203.614 561.669 203.266 561.955 202.688C562.247 202.109 562.312 201.364 562.151 200.453C562.016 199.686 561.733 199.116 561.301 198.743C560.87 198.37 560.352 198.237 559.746 198.344C559.104 198.457 558.627 198.772 558.316 199.29C558.004 199.803 557.907 200.396 558.026 201.07ZM565.693 203.612L564.478 196.718L565.582 196.523L566.048 199.169L567.906 198.842C568.611 198.717 569.202 198.803 569.68 199.098C570.162 199.392 570.461 199.87 570.578 200.529C570.695 201.194 570.579 201.755 570.229 202.215C569.88 202.675 569.387 202.961 568.75 203.073L565.693 203.612ZM566.216 200.118L566.631 202.475L568.287 202.183C569.203 202.021 569.589 201.537 569.447 200.729C569.312 199.966 568.783 199.666 567.858 199.829L566.216 200.118Z" fill="#808080"/>
</g>
<g filter="url(#filter21_dd_3920_1537)">
<rect x="462.906" y="242.228" width="226" height="80" rx="10" transform="rotate(-10 462.906 242.228)" fill="white" fill-opacity="0.8"/>
</g>
<g filter="url(#filter22_dd_3920_1537)">
<rect x="478.534" y="330.86" width="226" height="103" rx="10" transform="rotate(-10 478.534 330.86)" fill="white" fill-opacity="0.8"/>
</g>
<g filter="url(#filter23_dd_3920_1537)">
<rect x="497.936" y="366.026" width="49" height="16" rx="8" transform="rotate(-10 497.936 366.026)" fill="white" fill-opacity="0.9"/>
</g>
<g filter="url(#filter24_dd_3920_1537)">
<rect x="557.024" y="355.607" width="94" height="16" rx="8" transform="rotate(-10 557.024 355.607)" fill="white" fill-opacity="0.9"/>
</g>
<g filter="url(#filter25_dd_3920_1537)">
<rect x="501.756" y="387.692" width="49" height="16" rx="8" transform="rotate(-10 501.756 387.692)" fill="white" fill-opacity="0.9"/>
</g>
<g filter="url(#filter26_dd_3920_1537)">
<rect x="560.844" y="377.273" width="94" height="16" rx="8" transform="rotate(-10 560.844 377.273)" fill="white" fill-opacity="0.9"/>
</g>
<path d="M481.241 264.381L479.539 254.727L482.602 254.187C483.536 254.022 484.31 254.096 484.925 254.409C485.545 254.721 485.912 255.204 486.028 255.859C486.124 256.407 486.053 256.91 485.815 257.368C485.576 257.827 485.198 258.19 484.681 258.457L484.686 258.484C485.363 258.443 485.936 258.596 486.405 258.944C486.877 259.287 487.172 259.79 487.289 260.454C487.435 261.28 487.227 262.006 486.667 262.633C486.106 263.259 485.33 263.66 484.338 263.834L481.241 264.381ZM481.361 255.731L481.846 258.478L482.882 258.295C483.439 258.197 483.851 257.99 484.119 257.674C484.391 257.353 484.485 256.953 484.4 256.473C484.255 255.647 483.63 255.331 482.526 255.526L481.361 255.731ZM482.072 259.764L482.611 262.82L483.978 262.579C484.575 262.474 485.011 262.256 485.285 261.925C485.564 261.589 485.661 261.179 485.575 260.694C485.399 259.693 484.617 259.315 483.23 259.56L482.072 259.764ZM497.795 261.462L496.234 261.737L495.018 254.843L496.58 254.568L497.795 261.462ZM489.401 262.942L488.185 256.048L489.747 255.773L490.196 258.317L492.081 257.985C492.794 257.859 493.395 257.948 493.883 258.25C494.371 258.548 494.674 259.032 494.792 259.701C494.913 260.387 494.789 260.969 494.419 261.446C494.053 261.918 493.539 262.212 492.874 262.329L489.401 262.942ZM490.394 259.442L490.764 261.542L492.191 261.29C492.981 261.151 493.312 260.72 493.185 259.998C493.066 259.32 492.606 259.052 491.808 259.192L490.394 259.442ZM506.096 259.998L504.682 260.247L503.791 255.191C503.733 255.387 503.64 255.66 503.512 256.011L501.37 260.831L499.835 261.102L498.62 254.208L500.054 253.955L500.927 258.91C500.956 258.785 501.026 258.564 501.137 258.249L503.312 253.381L504.881 253.104L506.096 259.998ZM511.28 253.26L508.715 253.712L509.711 259.36L508.143 259.637L506.927 252.743L511.061 252.015L511.28 253.26ZM515.005 257.379L514.978 257.384L515.717 261.571L514.155 261.846L512.38 251.782L513.942 251.506L514.156 252.718L514.183 252.714C514.555 251.704 515.255 251.108 516.283 250.927C517.158 250.773 517.895 250.96 518.492 251.489C519.09 252.017 519.48 252.8 519.663 253.837C519.866 254.985 519.752 255.954 519.322 256.743C518.891 257.531 518.198 258.01 517.242 258.178C516.363 258.333 515.617 258.067 515.005 257.379ZM514.485 254.666L514.636 255.521C514.725 256.024 514.959 256.422 515.339 256.716C515.724 257.009 516.164 257.112 516.657 257.025C517.236 256.923 517.65 256.619 517.898 256.112C518.151 255.6 518.206 254.94 518.063 254.133C517.944 253.455 517.695 252.953 517.318 252.626C516.945 252.293 516.496 252.174 515.971 252.266C515.414 252.364 515 252.641 514.729 253.096C514.462 253.55 514.381 254.074 514.485 254.666ZM527.033 256.306L525.518 256.573L525.328 255.496L525.301 255.501C524.971 256.411 524.346 256.947 523.426 257.109C522.748 257.228 522.184 257.138 521.733 256.838C521.287 256.537 521.01 256.084 520.903 255.478C520.674 254.177 521.29 253.286 522.751 252.806L524.746 252.156C524.573 251.173 524.019 250.764 523.086 250.928C522.265 251.073 521.574 251.487 521.014 252.168L520.773 250.802C521.424 250.243 522.225 249.879 523.177 249.712C524.918 249.405 525.94 250.108 526.242 251.823L527.033 256.306ZM524.928 253.186L523.516 253.643C523.078 253.781 522.758 253.95 522.558 254.152C522.361 254.349 522.298 254.647 522.368 255.046C522.42 255.338 522.565 255.56 522.805 255.712C523.048 255.859 523.345 255.901 523.695 255.84C524.171 255.756 524.534 255.52 524.785 255.134C525.04 254.742 525.123 254.292 525.033 253.785L524.928 253.186ZM535.084 254.886L533.516 255.163L532.984 252.147L529.982 252.677L530.513 255.692L528.945 255.969L527.729 249.075L529.298 248.799L529.775 251.505L532.778 250.976L532.3 248.269L533.869 247.993L535.084 254.886ZM543.257 253.445L541.689 253.722L541.157 250.706L538.154 251.235L538.686 254.251L537.118 254.528L535.902 247.634L537.471 247.358L537.948 250.064L540.95 249.535L540.473 246.828L542.042 246.552L543.257 253.445ZM553.685 251.607L552.123 251.882L550.908 244.988L552.47 244.713L553.685 251.607ZM545.29 253.087L544.075 246.193L545.637 245.918L546.085 248.463L547.97 248.13C548.684 248.004 549.285 248.093 549.773 248.395C550.261 248.694 550.564 249.177 550.681 249.846C550.803 250.532 550.678 251.114 550.309 251.591C549.943 252.063 549.428 252.357 548.764 252.474L545.29 253.087ZM546.284 249.587L546.654 251.687L548.081 251.436C548.871 251.296 549.202 250.865 549.075 250.143C548.955 249.465 548.496 249.197 547.697 249.338L546.284 249.587ZM561.029 247.195L556.33 248.024C556.46 248.658 556.742 249.115 557.175 249.395C557.613 249.674 558.16 249.756 558.815 249.64C559.551 249.51 560.188 249.171 560.725 248.623L560.947 249.882C560.389 250.388 559.593 250.732 558.561 250.914C557.547 251.092 556.695 250.921 556.006 250.399C555.321 249.872 554.878 249.041 554.678 247.905C554.489 246.833 554.651 245.904 555.165 245.119C555.683 244.329 556.413 243.851 557.356 243.685C558.298 243.519 559.081 243.693 559.704 244.208C560.327 244.723 560.733 245.519 560.923 246.596L561.029 247.195ZM559.326 246.357C559.223 245.797 559.014 245.385 558.699 245.121C558.383 244.853 557.996 244.759 557.538 244.84C557.09 244.919 556.737 245.15 556.481 245.533C556.229 245.915 556.114 246.377 556.135 246.92L559.326 246.357ZM569.931 248.909C568.868 249.096 567.961 248.925 567.21 248.396C566.463 247.861 565.996 247.062 565.809 245.998C565.604 244.84 565.775 243.878 566.32 243.111C566.869 242.343 567.705 241.86 568.827 241.662C569.904 241.472 570.799 241.641 571.512 242.167C572.225 242.694 572.681 243.519 572.878 244.641C573.072 245.74 572.902 246.679 572.369 247.458C571.839 248.232 571.026 248.716 569.931 248.909ZM568.952 242.924C568.342 243.032 567.897 243.33 567.618 243.819C567.338 244.308 567.265 244.927 567.397 245.677C567.524 246.399 567.804 246.937 568.237 247.292C568.669 247.641 569.186 247.763 569.787 247.657C570.402 247.548 570.837 247.261 571.093 246.795C571.353 246.328 571.416 245.718 571.283 244.964C571.15 244.205 570.88 243.649 570.475 243.294C570.075 242.939 569.567 242.816 568.952 242.924ZM580.789 246.828L579.22 247.104L578.215 241.402L576.808 241.65C576.986 243.817 576.911 245.376 576.584 246.326C576.26 247.272 575.694 247.816 574.887 247.959C574.617 248.006 574.379 248.009 574.173 247.966L573.968 246.802C574.138 246.85 574.313 246.859 574.493 246.827C575.458 246.657 575.735 244.609 575.325 240.683L579.573 239.934L580.789 246.828ZM589.089 245.364L587.676 245.613L586.784 240.557C586.726 240.753 586.633 241.026 586.505 241.377L584.363 246.197L582.828 246.468L581.613 239.574L583.047 239.321L583.92 244.276C583.949 244.151 584.019 243.93 584.13 243.615L586.305 238.747L587.874 238.47L589.089 245.364ZM599.248 243.573L597.753 243.836L596.78 238.316C596.739 238.61 596.675 239.045 596.587 239.62L595.788 244.183L594.401 244.427L592.06 240.405C591.934 240.186 591.725 239.8 591.432 239.245L592.408 244.779L591.136 245.003L589.92 238.109L591.953 237.751L594.286 241.727C594.452 242.017 594.672 242.42 594.943 242.937L595.152 241.602L595.945 237.047L598.032 236.679L599.248 243.573ZM607.427 242.13L605.859 242.407L604.853 236.705L601.851 237.234L602.856 242.936L601.288 243.213L600.072 236.319L606.212 235.237L607.427 242.13ZM615.721 240.668L614.308 240.917L613.416 235.862C613.358 236.057 613.265 236.33 613.137 236.681L610.995 241.501L609.461 241.772L608.245 234.878L609.679 234.625L610.553 239.58C610.581 239.455 610.651 239.234 610.762 238.919L612.937 234.051L614.506 233.774L615.721 240.668ZM623.059 239.374L621.545 239.641L621.355 238.564L621.328 238.569C620.998 239.479 620.373 240.014 619.453 240.177C618.775 240.296 618.211 240.206 617.76 239.906C617.313 239.605 617.037 239.152 616.93 238.546C616.7 237.245 617.316 236.354 618.777 235.874L620.773 235.224C620.599 234.241 620.046 233.832 619.112 233.996C618.291 234.141 617.6 234.555 617.04 235.236L616.799 233.87C617.451 233.311 618.252 232.947 619.203 232.779C620.945 232.472 621.966 233.176 622.269 234.891L623.059 239.374ZM620.954 236.254L619.542 236.711C619.104 236.848 618.785 237.018 618.584 237.22C618.387 237.417 618.324 237.715 618.395 238.114C618.446 238.406 618.592 238.628 618.831 238.78C619.075 238.927 619.371 238.969 619.722 238.908C620.197 238.824 620.561 238.588 620.812 238.202C621.067 237.81 621.149 237.36 621.06 236.853L620.954 236.254ZM632.011 240.385L630.712 240.614L630.269 238.103L625.362 238.968L625.804 241.479L624.519 241.706L623.866 238.003L624.478 237.895C625.291 236.077 625.515 234.078 625.149 231.898L629.296 231.166L630.302 236.869L631.359 236.682L632.011 240.385ZM628.74 237.144L627.943 232.627L626.631 232.858C626.817 234.547 626.625 236.133 626.054 237.618L628.74 237.144ZM641.364 236.147L639.802 236.422L638.586 229.528L640.148 229.253L641.364 236.147ZM632.969 237.627L631.753 230.733L633.315 230.458L633.764 233.002L635.649 232.67C636.363 232.544 636.964 232.633 637.452 232.935C637.939 233.233 638.242 233.717 638.36 234.386C638.481 235.072 638.357 235.654 637.988 236.131C637.622 236.603 637.107 236.897 636.443 237.014L632.969 237.627ZM633.962 234.127L634.333 236.227L635.76 235.976C636.55 235.836 636.881 235.405 636.754 234.683C636.634 234.005 636.175 233.737 635.376 233.877L633.962 234.127Z" fill="#808080"/>
<path d="M504.107 351.737L502.504 352.02L501.046 343.746L498.703 344.159C498.786 346.546 498.818 348.239 498.8 349.237C498.781 350.231 498.715 350.973 498.603 351.465C498.49 351.952 498.287 352.338 497.994 352.621C497.701 352.899 497.323 353.079 496.861 353.161C496.466 353.23 496.114 353.239 495.804 353.187L495.563 351.821C495.798 351.895 496.048 351.909 496.313 351.862C496.586 351.814 496.814 351.609 496.996 351.249C497.178 350.888 497.274 350.017 497.285 348.636C497.3 347.25 497.254 345.375 497.147 343.01L502.404 342.083L504.107 351.737ZM512.596 350.24L511.182 350.49L510.291 345.434C510.233 345.629 510.14 345.902 510.012 346.253L507.87 351.074L506.335 351.344L505.119 344.451L506.553 344.198L507.427 349.153C507.456 349.027 507.526 348.807 507.637 348.491L509.812 343.623L511.38 343.347L512.596 350.24ZM520.614 348.826L519.052 349.102L518.594 346.503C517.883 347.068 517.198 347.409 516.539 347.525C514.986 347.799 514.061 347.092 513.763 345.405L513.339 343.001L514.868 342.732L515.253 344.92C515.425 345.894 515.892 346.313 516.655 346.179C517.221 346.079 517.799 345.803 518.391 345.352L517.836 342.208L519.398 341.933L520.614 348.826ZM528.793 347.384L527.225 347.661L526.693 344.645L523.69 345.174L524.222 348.19L522.654 348.467L521.438 341.573L523.007 341.297L523.484 344.003L526.486 343.473L526.009 340.767L527.578 340.491L528.793 347.384ZM539.221 345.545L537.659 345.821L536.444 338.927L538.006 338.652L539.221 345.545ZM530.826 347.026L529.611 340.132L531.173 339.857L531.621 342.401L533.506 342.069C534.22 341.943 534.821 342.032 535.309 342.334C535.797 342.632 536.1 343.116 536.217 343.784C536.339 344.471 536.214 345.053 535.845 345.53C535.479 346.002 534.964 346.296 534.3 346.413L530.826 347.026ZM531.82 343.526L532.19 345.626L533.617 345.374C534.407 345.235 534.738 344.804 534.611 344.082C534.491 343.404 534.032 343.136 533.233 343.276L531.82 343.526ZM546.565 341.134L541.866 341.962C541.996 342.597 542.278 343.054 542.711 343.334C543.149 343.613 543.696 343.694 544.351 343.579C545.087 343.449 545.724 343.11 546.261 342.562L546.483 343.821C545.925 344.326 545.129 344.67 544.097 344.852C543.083 345.031 542.231 344.86 541.542 344.338C540.857 343.811 540.414 342.98 540.214 341.844C540.025 340.772 540.187 339.843 540.701 339.058C541.219 338.268 541.949 337.79 542.892 337.624C543.834 337.458 544.617 337.632 545.24 338.147C545.863 338.662 546.269 339.458 546.459 340.535L546.565 341.134ZM544.862 340.296C544.759 339.736 544.55 339.324 544.235 339.06C543.919 338.792 543.532 338.698 543.074 338.778C542.626 338.858 542.273 339.089 542.017 339.472C541.765 339.854 541.65 340.316 541.671 340.858L544.862 340.296ZM559.423 344.573L558.123 344.802L557.681 342.291L552.773 343.156L553.216 345.667L551.93 345.894L551.277 342.191L551.89 342.083C552.703 340.265 552.926 338.265 552.56 336.085L556.707 335.354L557.713 341.056L558.77 340.87L559.423 344.573ZM556.151 341.332L555.354 336.814L554.042 337.046C554.228 338.734 554.036 340.321 553.465 341.805L556.151 341.332ZM563.465 341.437C562.401 341.625 561.494 341.454 560.744 340.924C559.997 340.39 559.53 339.591 559.342 338.527C559.138 337.369 559.309 336.406 559.854 335.639C560.403 334.871 561.239 334.389 562.361 334.191C563.438 334.001 564.333 334.169 565.046 334.696C565.759 335.223 566.214 336.047 566.412 337.169C566.606 338.269 566.436 339.208 565.903 339.987C565.373 340.761 564.56 341.244 563.465 341.437ZM562.486 335.453C561.876 335.56 561.431 335.859 561.152 336.348C560.872 336.836 560.799 337.456 560.931 338.205C561.058 338.928 561.338 339.466 561.771 339.82C562.203 340.17 562.719 340.292 563.321 340.185C563.936 340.077 564.371 339.79 564.626 339.324C564.886 338.857 564.95 338.246 564.817 337.492C564.683 336.734 564.414 336.177 564.009 335.823C563.609 335.468 563.101 335.344 562.486 335.453ZM573.499 339.175C573.003 339.591 572.378 339.866 571.624 339.999C570.601 340.179 569.719 340.006 568.978 339.479C568.237 338.948 567.776 338.174 567.597 337.155C567.396 336.019 567.572 335.049 568.124 334.243C568.68 333.433 569.524 332.928 570.655 332.728C571.283 332.618 571.857 332.63 572.376 332.765L572.632 334.219C572.089 333.945 571.545 333.855 571.002 333.951C570.342 334.068 569.841 334.387 569.499 334.91C569.155 335.429 569.047 336.05 569.174 336.772C569.3 337.486 569.597 338.014 570.065 338.358C570.537 338.7 571.107 338.812 571.776 338.695C572.337 338.596 572.832 338.303 573.259 337.815L573.499 339.175ZM578.813 332.741L576.847 333.087L577.843 338.735L576.275 339.012L575.279 333.364L573.299 333.713L573.08 332.467L578.593 331.495L578.813 332.741ZM587.308 337.066L585.895 337.316L585.003 332.26C584.945 332.455 584.852 332.728 584.724 333.08L582.583 337.9L581.048 338.17L579.832 331.277L581.266 331.024L582.14 335.979C582.169 335.853 582.238 335.633 582.349 335.317L584.524 330.449L586.093 330.173L587.308 337.066ZM599.231 334.964L597.279 335.308L593.982 332.357L593.955 332.361L594.559 335.788L593.037 336.056L592.433 332.63L592.413 332.633L590.318 336.536L588.379 336.878L590.804 332.757L587.305 329.959L589.203 329.624L592.367 332.412L592.394 332.407L591.822 329.163L593.343 328.894L593.916 332.139L593.942 332.134L595.962 328.433L597.861 328.098L595.523 331.925L599.231 334.964ZM605.322 330.773L600.623 331.602C600.754 332.236 601.036 332.693 601.469 332.973C601.907 333.252 602.454 333.334 603.109 333.218C603.845 333.089 604.482 332.75 605.019 332.201L605.241 333.46C604.682 333.966 603.887 334.31 602.854 334.492C601.84 334.671 600.989 334.499 600.3 333.977C599.614 333.45 599.172 332.619 598.971 331.484C598.782 330.411 598.945 329.482 599.459 328.698C599.977 327.907 600.707 327.429 601.649 327.263C602.592 327.097 603.374 327.271 603.997 327.786C604.62 328.301 605.027 329.097 605.217 330.174L605.322 330.773ZM603.62 329.935C603.516 329.375 603.307 328.963 602.992 328.699C602.677 328.431 602.29 328.337 601.832 328.418C601.383 328.497 601.031 328.728 600.774 329.111C600.522 329.493 600.407 329.956 600.429 330.498L603.62 329.935ZM613.483 332.451L611.914 332.728L611.382 329.712L608.38 330.241L608.912 333.257L607.343 333.534L606.128 326.64L607.696 326.363L608.173 329.07L611.176 328.54L610.699 325.834L612.267 325.557L613.483 332.451ZM621.777 330.989L620.363 331.238L619.472 326.182C619.413 326.378 619.32 326.651 619.193 327.002L617.051 331.822L615.516 332.093L614.3 325.199L615.734 324.946L616.608 329.901C616.637 329.776 616.707 329.555 616.818 329.239L618.993 324.372L620.561 324.095L621.777 330.989ZM629.135 329.691L627.58 329.965L627.099 327.239L626.298 327.38C625.912 327.448 625.623 327.856 625.431 328.602L624.907 330.437L623.137 330.749L623.866 328.51C624.083 327.926 624.393 327.51 624.799 327.263C624.239 327.288 623.784 327.166 623.437 326.899C623.092 326.627 622.877 326.248 622.792 325.763C622.684 325.148 622.842 324.618 623.268 324.173C623.699 323.727 624.329 323.431 625.159 323.284L627.919 322.798L629.135 329.691ZM626.909 326.162L626.564 324.203L625.487 324.393C624.643 324.542 624.278 324.937 624.391 325.579C624.508 326.243 624.982 326.502 625.812 326.355L626.909 326.162Z" fill="#808080"/>
<rect x="258.416" y="263.054" width="64" height="1" transform="rotate(-10 258.416 263.054)" fill="#565656"/>
</g>
<defs>
<filter id="filter0_bd_3920_1537" x="0.937988" y="12.1814" width="637.576" height="548.349" filterUnits="userSpaceOnUse" color-interpolation-filters="sRGB">
<feFlood flood-opacity="0" result="BackgroundImageFix"/>
<feGaussianBlur in="BackgroundImageFix" stdDeviation="6"/>
<feComposite in2="SourceAlpha" operator="in" result="effect1_backgroundBlur_3920_1537"/>
<feColorMatrix in="SourceAlpha" type="matrix" values="0 0 0 0 0 0 0 0 0 0 0 0 0 0 0 0 0 0 127 0" result="hardAlpha"/>
<feOffset dy="20"/>
<feGaussianBlur stdDeviation="25"/>
<feColorMatrix type="matrix" values="0 0 0 0 0.225 0 0 0 0 0.0886448 0 0 0 0 0.013125 0 0 0 0.29 0"/>
<feBlend mode="normal" in2="effect1_backgroundBlur_3920_1537" result="effect2_dropShadow_3920_1537"/>
<feBlend mode="normal" in="SourceGraphic" in2="effect2_dropShadow_3920_1537" result="shape"/>
</filter>
<filter id="filter1_dd_3920_1537" x="54.0059" y="60.606" width="490.459" height="187.085" filterUnits="userSpaceOnUse" color-interpolation-filters="sRGB">
<feFlood flood-opacity="0" result="BackgroundImageFix"/>
<feColorMatrix in="SourceAlpha" type="matrix" values="0 0 0 0 0 0 0 0 0 0 0 0 0 0 0 0 0 0 127 0" result="hardAlpha"/>
<feOffset dy="4"/>
<feGaussianBlur stdDeviation="12"/>
<feColorMatrix type="matrix" values="0 0 0 0 0.435294 0 0 0 0 0.180392 0 0 0 0 0.0392157 0 0 0 0.1 0"/>
<feBlend mode="normal" in2="BackgroundImageFix" result="effect1_dropShadow_3920_1537"/>
<feColorMatrix in="SourceAlpha" type="matrix" values="0 0 0 0 0 0 0 0 0 0 0 0 0 0 0 0 0 0 127 0" result="hardAlpha"/>
<feOffset/>
<feGaussianBlur stdDeviation="2"/>
<feColorMatrix type="matrix" values="0 0 0 0 0.435294 0 0 0 0 0.180392 0 0 0 0 0.0392157 0 0 0 0.1 0"/>
<feBlend mode="normal" in2="effect1_dropShadow_3920_1537" result="effect2_dropShadow_3920_1537"/>
<feBlend mode="normal" in="SourceGraphic" in2="effect2_dropShadow_3920_1537" result="shape"/>
</filter>
<filter id="filter2_d_3920_1537" x="77.814" y="139.573" width="493.722" height="317.7" filterUnits="userSpaceOnUse" color-interpolation-filters="sRGB">
<feFlood flood-opacity="0" result="BackgroundImageFix"/>
<feColorMatrix in="SourceAlpha" type="matrix" values="0 0 0 0 0 0 0 0 0 0 0 0 0 0 0 0 0 0 127 0" result="hardAlpha"/>
<feOffset dy="4"/>
<feGaussianBlur stdDeviation="6"/>
<feColorMatrix type="matrix" values="0 0 0 0 0.435294 0 0 0 0 0.180392 0 0 0 0 0.0392157 0 0 0 0.2 0"/>
<feBlend mode="normal" in2="BackgroundImageFix" result="effect1_dropShadow_3920_1537"/>
<feBlend mode="normal" in="SourceGraphic" in2="effect1_dropShadow_3920_1537" result="shape"/>
</filter>
<filter id="filter3_dd_3920_1537" x="149.928" y="174.271" width="323.506" height="83.4026" filterUnits="userSpaceOnUse" color-interpolation-filters="sRGB">
<feFlood flood-opacity="0" result="BackgroundImageFix"/>
<feColorMatrix in="SourceAlpha" type="matrix" values="0 0 0 0 0 0 0 0 0 0 0 0 0 0 0 0 0 0 127 0" result="hardAlpha"/>
<feOffset dy="1"/>
<feGaussianBlur stdDeviation="4"/>
<feColorMatrix type="matrix" values="0 0 0 0 0.435294 0 0 0 0 0.180392 0 0 0 0 0.0392157 0 0 0 0.1 0"/>
<feBlend mode="normal" in2="BackgroundImageFix" result="effect1_dropShadow_3920_1537"/>
<feColorMatrix in="SourceAlpha" type="matrix" values="0 0 0 0 0 0 0 0 0 0 0 0 0 0 0 0 0 0 127 0" result="hardAlpha"/>
<feOffset dy="1"/>
<feGaussianBlur stdDeviation="1"/>
<feColorMatrix type="matrix" values="0 0 0 0 0.435294 0 0 0 0 0.180392 0 0 0 0 0.0392157 0 0 0 0.14 0"/>
<feBlend mode="normal" in2="effect1_dropShadow_3920_1537" result="effect2_dropShadow_3920_1537"/>
<feBlend mode="normal" in="SourceGraphic" in2="effect2_dropShadow_3920_1537" result="shape"/>
</filter>
<filter id="filter4_dd_3920_1537" x="160" y="231.39" width="323.506" height="83.4025" filterUnits="userSpaceOnUse" color-interpolation-filters="sRGB">
<feFlood flood-opacity="0" result="BackgroundImageFix"/>
<feColorMatrix in="SourceAlpha" type="matrix" values="0 0 0 0 0 0 0 0 0 0 0 0 0 0 0 0 0 0 127 0" result="hardAlpha"/>
<feOffset dy="1"/>
<feGaussianBlur stdDeviation="4"/>
<feColorMatrix type="matrix" values="0 0 0 0 0.435294 0 0 0 0 0.180392 0 0 0 0 0.0392157 0 0 0 0.1 0"/>
<feBlend mode="normal" in2="BackgroundImageFix" result="effect1_dropShadow_3920_1537"/>
<feColorMatrix in="SourceAlpha" type="matrix" values="0 0 0 0 0 0 0 0 0 0 0 0 0 0 0 0 0 0 127 0" result="hardAlpha"/>
<feOffset dy="1"/>
<feGaussianBlur stdDeviation="1"/>
<feColorMatrix type="matrix" values="0 0 0 0 0.435294 0 0 0 0 0.180392 0 0 0 0 0.0392157 0 0 0 0.14 0"/>
<feBlend mode="normal" in2="effect1_dropShadow_3920_1537" result="effect2_dropShadow_3920_1537"/>
<feBlend mode="normal" in="SourceGraphic" in2="effect2_dropShadow_3920_1537" result="shape"/>
</filter>
<filter id="filter5_dd_3920_1537" x="154.096" y="226.385" width="161.998" height="54.9242" filterUnits="userSpaceOnUse" color-interpolation-filters="sRGB">
<feFlood flood-opacity="0" result="BackgroundImageFix"/>
<feColorMatrix in="SourceAlpha" type="matrix" values="0 0 0 0 0 0 0 0 0 0 0 0 0 0 0 0 0 0 127 0" result="hardAlpha"/>
<feOffset dy="1"/>
<feGaussianBlur stdDeviation="4"/>
<feColorMatrix type="matrix" values="0 0 0 0 0.435294 0 0 0 0 0.180392 0 0 0 0 0.0392157 0 0 0 0.1 0"/>
<feBlend mode="normal" in2="BackgroundImageFix" result="effect1_dropShadow_3920_1537"/>
<feColorMatrix in="SourceAlpha" type="matrix" values="0 0 0 0 0 0 0 0 0 0 0 0 0 0 0 0 0 0 127 0" result="hardAlpha"/>
<feOffset dy="1"/>
<feGaussianBlur stdDeviation="1"/>
<feColorMatrix type="matrix" values="0 0 0 0 0.435294 0 0 0 0 0.180392 0 0 0 0 0.0392157 0 0 0 0.14 0"/>
<feBlend mode="normal" in2="effect1_dropShadow_3920_1537" result="effect2_dropShadow_3920_1537"/>
<feBlend mode="normal" in="SourceGraphic" in2="effect2_dropShadow_3920_1537" result="shape"/>
</filter>
<filter id="filter6_dd_3920_1537" x="164.167" y="283.504" width="161.998" height="54.9242" filterUnits="userSpaceOnUse" color-interpolation-filters="sRGB">
<feFlood flood-opacity="0" result="BackgroundImageFix"/>
<feColorMatrix in="SourceAlpha" type="matrix" values="0 0 0 0 0 0 0 0 0 0 0 0 0 0 0 0 0 0 127 0" result="hardAlpha"/>
<feOffset dy="1"/>
<feGaussianBlur stdDeviation="4"/>
<feColorMatrix type="matrix" values="0 0 0 0 0.435294 0 0 0 0 0.180392 0 0 0 0 0.0392157 0 0 0 0.1 0"/>
<feBlend mode="normal" in2="BackgroundImageFix" result="effect1_dropShadow_3920_1537"/>
<feColorMatrix in="SourceAlpha" type="matrix" values="0 0 0 0 0 0 0 0 0 0 0 0 0 0 0 0 0 0 127 0" result="hardAlpha"/>
<feOffset dy="1"/>
<feGaussianBlur stdDeviation="1"/>
<feColorMatrix type="matrix" values="0 0 0 0 0.435294 0 0 0 0 0.180392 0 0 0 0 0.0392157 0 0 0 0.14 0"/>
<feBlend mode="normal" in2="effect1_dropShadow_3920_1537" result="effect2_dropShadow_3920_1537"/>
<feBlend mode="normal" in="SourceGraphic" in2="effect2_dropShadow_3920_1537" result="shape"/>
</filter>
<filter id="filter7_dd_3920_1537" x="173.371" y="349.417" width="84.1978" height="41.2061" filterUnits="userSpaceOnUse" color-interpolation-filters="sRGB">
<feFlood flood-opacity="0" result="BackgroundImageFix"/>
<feColorMatrix in="SourceAlpha" type="matrix" values="0 0 0 0 0 0 0 0 0 0 0 0 0 0 0 0 0 0 127 0" result="hardAlpha"/>
<feOffset dy="1"/>
<feGaussianBlur stdDeviation="4"/>
<feColorMatrix type="matrix" values="0 0 0 0 0.435294 0 0 0 0 0.180392 0 0 0 0 0.0392157 0 0 0 0.1 0"/>
<feBlend mode="normal" in2="BackgroundImageFix" result="effect1_dropShadow_3920_1537"/>
<feColorMatrix in="SourceAlpha" type="matrix" values="0 0 0 0 0 0 0 0 0 0 0 0 0 0 0 0 0 0 127 0" result="hardAlpha"/>
<feOffset dy="1"/>
<feGaussianBlur stdDeviation="1"/>
<feColorMatrix type="matrix" values="0 0 0 0 0.435294 0 0 0 0 0.180392 0 0 0 0 0.0392157 0 0 0 0.14 0"/>
<feBlend mode="normal" in2="effect1_dropShadow_3920_1537" result="effect2_dropShadow_3920_1537"/>
<feBlend mode="normal" in="SourceGraphic" in2="effect2_dropShadow_3920_1537" result="shape"/>
</filter>
<filter id="filter8_dd_3920_1537" x="178.233" y="376.991" width="84.1978" height="41.2061" filterUnits="userSpaceOnUse" color-interpolation-filters="sRGB">
<feFlood flood-opacity="0" result="BackgroundImageFix"/>
<feColorMatrix in="SourceAlpha" type="matrix" values="0 0 0 0 0 0 0 0 0 0 0 0 0 0 0 0 0 0 127 0" result="hardAlpha"/>
<feOffset dy="1"/>
<feGaussianBlur stdDeviation="4"/>
<feColorMatrix type="matrix" values="0 0 0 0 0.435294 0 0 0 0 0.180392 0 0 0 0 0.0392157 0 0 0 0.1 0"/>
<feBlend mode="normal" in2="BackgroundImageFix" result="effect1_dropShadow_3920_1537"/>
<feColorMatrix in="SourceAlpha" type="matrix" values="0 0 0 0 0 0 0 0 0 0 0 0 0 0 0 0 0 0 127 0" result="hardAlpha"/>
<feOffset dy="1"/>
<feGaussianBlur stdDeviation="1"/>
<feColorMatrix type="matrix" values="0 0 0 0 0.435294 0 0 0 0 0.180392 0 0 0 0 0.0392157 0 0 0 0.14 0"/>
<feBlend mode="normal" in2="effect1_dropShadow_3920_1537" result="effect2_dropShadow_3920_1537"/>
<feBlend mode="normal" in="SourceGraphic" in2="effect2_dropShadow_3920_1537" result="shape"/>
</filter>
<filter id="filter9_dd_3920_1537" x="246.247" y="336.567" width="84.1975" height="41.2061" filterUnits="userSpaceOnUse" color-interpolation-filters="sRGB">
<feFlood flood-opacity="0" result="BackgroundImageFix"/>
<feColorMatrix in="SourceAlpha" type="matrix" values="0 0 0 0 0 0 0 0 0 0 0 0 0 0 0 0 0 0 127 0" result="hardAlpha"/>
<feOffset dy="1"/>
<feGaussianBlur stdDeviation="4"/>
<feColorMatrix type="matrix" values="0 0 0 0 0.435294 0 0 0 0 0.180392 0 0 0 0 0.0392157 0 0 0 0.1 0"/>
<feBlend mode="normal" in2="BackgroundImageFix" result="effect1_dropShadow_3920_1537"/>
<feColorMatrix in="SourceAlpha" type="matrix" values="0 0 0 0 0 0 0 0 0 0 0 0 0 0 0 0 0 0 127 0" result="hardAlpha"/>
<feOffset dy="1"/>
<feGaussianBlur stdDeviation="1"/>
<feColorMatrix type="matrix" values="0 0 0 0 0.435294 0 0 0 0 0.180392 0 0 0 0 0.0392157 0 0 0 0.14 0"/>
<feBlend mode="normal" in2="effect1_dropShadow_3920_1537" result="effect2_dropShadow_3920_1537"/>
<feBlend mode="normal" in="SourceGraphic" in2="effect2_dropShadow_3920_1537" result="shape"/>
</filter>
<filter id="filter10_dd_3920_1537" x="251.109" y="359.974" width="107.833" height="45.3735" filterUnits="userSpaceOnUse" color-interpolation-filters="sRGB">
<feFlood flood-opacity="0" result="BackgroundImageFix"/>
<feColorMatrix in="SourceAlpha" type="matrix" values="0 0 0 0 0 0 0 0 0 0 0 0 0 0 0 0 0 0 127 0" result="hardAlpha"/>
<feOffset dy="1"/>
<feGaussianBlur stdDeviation="4"/>
<feColorMatrix type="matrix" values="0 0 0 0 0.435294 0 0 0 0 0.180392 0 0 0 0 0.0392157 0 0 0 0.1 0"/>
<feBlend mode="normal" in2="BackgroundImageFix" result="effect1_dropShadow_3920_1537"/>
<feColorMatrix in="SourceAlpha" type="matrix" values="0 0 0 0 0 0 0 0 0 0 0 0 0 0 0 0 0 0 127 0" result="hardAlpha"/>
<feOffset dy="1"/>
<feGaussianBlur stdDeviation="1"/>
<feColorMatrix type="matrix" values="0 0 0 0 0.435294 0 0 0 0 0.180392 0 0 0 0 0.0392157 0 0 0 0.14 0"/>
<feBlend mode="normal" in2="effect1_dropShadow_3920_1537" result="effect2_dropShadow_3920_1537"/>
<feBlend mode="normal" in="SourceGraphic" in2="effect2_dropShadow_3920_1537" result="shape"/>
</filter>
<filter id="filter11_bd_3920_1537" x="166.64" y="75.4702" width="637.576" height="548.349" filterUnits="userSpaceOnUse" color-interpolation-filters="sRGB">
<feFlood flood-opacity="0" result="BackgroundImageFix"/>
<feGaussianBlur in="BackgroundImageFix" stdDeviation="6"/>
<feComposite in2="SourceAlpha" operator="in" result="effect1_backgroundBlur_3920_1537"/>
<feColorMatrix in="SourceAlpha" type="matrix" values="0 0 0 0 0 0 0 0 0 0 0 0 0 0 0 0 0 0 127 0" result="hardAlpha"/>
<feOffset dy="20"/>
<feGaussianBlur stdDeviation="25"/>
<feColorMatrix type="matrix" values="0 0 0 0 0.225 0 0 0 0 0.0886448 0 0 0 0 0.013125 0 0 0 0.29 0"/>
<feBlend mode="normal" in2="effect1_backgroundBlur_3920_1537" result="effect2_dropShadow_3920_1537"/>
<feBlend mode="normal" in="SourceGraphic" in2="effect2_dropShadow_3920_1537" result="shape"/>
</filter>
<filter id="filter12_dd_3920_1537" x="259.844" y="278.427" width="159.043" height="54.4033" filterUnits="userSpaceOnUse" color-interpolation-filters="sRGB">
<feFlood flood-opacity="0" result="BackgroundImageFix"/>
<feColorMatrix in="SourceAlpha" type="matrix" values="0 0 0 0 0 0 0 0 0 0 0 0 0 0 0 0 0 0 127 0" result="hardAlpha"/>
<feOffset dy="1"/>
<feGaussianBlur stdDeviation="4"/>
<feColorMatrix type="matrix" values="0 0 0 0 0.435294 0 0 0 0 0.180392 0 0 0 0 0.0392157 0 0 0 0.1 0"/>
<feBlend mode="normal" in2="BackgroundImageFix" result="effect1_dropShadow_3920_1537"/>
<feColorMatrix in="SourceAlpha" type="matrix" values="0 0 0 0 0 0 0 0 0 0 0 0 0 0 0 0 0 0 127 0" result="hardAlpha"/>
<feOffset dy="1"/>
<feGaussianBlur stdDeviation="1"/>
<feColorMatrix type="matrix" values="0 0 0 0 0.435294 0 0 0 0 0.180392 0 0 0 0 0.0392157 0 0 0 0.14 0"/>
<feBlend mode="normal" in2="effect1_dropShadow_3920_1537" result="effect2_dropShadow_3920_1537"/>
<feBlend mode="normal" in="SourceGraphic" in2="effect2_dropShadow_3920_1537" result="shape"/>
</filter>
<filter id="filter13_dd_3920_1537" x="276.167" y="376.556" width="127.529" height="48.8466" filterUnits="userSpaceOnUse" color-interpolation-filters="sRGB">
<feFlood flood-opacity="0" result="BackgroundImageFix"/>
<feColorMatrix in="SourceAlpha" type="matrix" values="0 0 0 0 0 0 0 0 0 0 0 0 0 0 0 0 0 0 127 0" result="hardAlpha"/>
<feOffset dy="1"/>
<feGaussianBlur stdDeviation="4"/>
<feColorMatrix type="matrix" values="0 0 0 0 0.435294 0 0 0 0 0.180392 0 0 0 0 0.0392157 0 0 0 0.1 0"/>
<feBlend mode="normal" in2="BackgroundImageFix" result="effect1_dropShadow_3920_1537"/>
<feColorMatrix in="SourceAlpha" type="matrix" values="0 0 0 0 0 0 0 0 0 0 0 0 0 0 0 0 0 0 127 0" result="hardAlpha"/>
<feOffset dy="1"/>
<feGaussianBlur stdDeviation="1"/>
<feColorMatrix type="matrix" values="0 0 0 0 0.435294 0 0 0 0 0.180392 0 0 0 0 0.0392157 0 0 0 0.14 0"/>
<feBlend mode="normal" in2="effect1_dropShadow_3920_1537" result="effect2_dropShadow_3920_1537"/>
<feBlend mode="normal" in="SourceGraphic" in2="effect2_dropShadow_3920_1537" result="shape"/>
</filter>
<filter id="filter14_dd_3920_1537" x="280.334" y="392.377" width="171.845" height="56.6606" filterUnits="userSpaceOnUse" color-interpolation-filters="sRGB">
<feFlood flood-opacity="0" result="BackgroundImageFix"/>
<feColorMatrix in="SourceAlpha" type="matrix" values="0 0 0 0 0 0 0 0 0 0 0 0 0 0 0 0 0 0 127 0" result="hardAlpha"/>
<feOffset dy="1"/>
<feGaussianBlur stdDeviation="4"/>
<feColorMatrix type="matrix" values="0 0 0 0 0.435294 0 0 0 0 0.180392 0 0 0 0 0.0392157 0 0 0 0.1 0"/>
<feBlend mode="normal" in2="BackgroundImageFix" result="effect1_dropShadow_3920_1537"/>
<feColorMatrix in="SourceAlpha" type="matrix" values="0 0 0 0 0 0 0 0 0 0 0 0 0 0 0 0 0 0 127 0" result="hardAlpha"/>
<feOffset dy="1"/>
<feGaussianBlur stdDeviation="1"/>
<feColorMatrix type="matrix" values="0 0 0 0 0.435294 0 0 0 0 0.180392 0 0 0 0 0.0392157 0 0 0 0.14 0"/>
<feBlend mode="normal" in2="effect1_dropShadow_3920_1537" result="effect2_dropShadow_3920_1537"/>
<feBlend mode="normal" in="SourceGraphic" in2="effect2_dropShadow_3920_1537" result="shape"/>
</filter>
<filter id="filter15_dd_3920_1537" x="284.502" y="429.904" width="93.0608" height="42.7688" filterUnits="userSpaceOnUse" color-interpolation-filters="sRGB">
<feFlood flood-opacity="0" result="BackgroundImageFix"/>
<feColorMatrix in="SourceAlpha" type="matrix" values="0 0 0 0 0 0 0 0 0 0 0 0 0 0 0 0 0 0 127 0" result="hardAlpha"/>
<feOffset dy="1"/>
<feGaussianBlur stdDeviation="4"/>
<feColorMatrix type="matrix" values="0 0 0 0 0.435294 0 0 0 0 0.180392 0 0 0 0 0.0392157 0 0 0 0.1 0"/>
<feBlend mode="normal" in2="BackgroundImageFix" result="effect1_dropShadow_3920_1537"/>
<feColorMatrix in="SourceAlpha" type="matrix" values="0 0 0 0 0 0 0 0 0 0 0 0 0 0 0 0 0 0 127 0" result="hardAlpha"/>
<feOffset dy="1"/>
<feGaussianBlur stdDeviation="1"/>
<feColorMatrix type="matrix" values="0 0 0 0 0.435294 0 0 0 0 0.180392 0 0 0 0 0.0392157 0 0 0 0.14 0"/>
<feBlend mode="normal" in2="effect1_dropShadow_3920_1537" result="effect2_dropShadow_3920_1537"/>
<feBlend mode="normal" in="SourceGraphic" in2="effect2_dropShadow_3920_1537" result="shape"/>
</filter>
<filter id="filter16_dd_3920_1537" x="254.46" y="239.91" width="204.344" height="62.391" filterUnits="userSpaceOnUse" color-interpolation-filters="sRGB">
<feFlood flood-opacity="0" result="BackgroundImageFix"/>
<feColorMatrix in="SourceAlpha" type="matrix" values="0 0 0 0 0 0 0 0 0 0 0 0 0 0 0 0 0 0 127 0" result="hardAlpha"/>
<feOffset dy="1"/>
<feGaussianBlur stdDeviation="4"/>
<feColorMatrix type="matrix" values="0 0 0 0 0.435294 0 0 0 0 0.180392 0 0 0 0 0.0392157 0 0 0 0.1 0"/>
<feBlend mode="normal" in2="BackgroundImageFix" result="effect1_dropShadow_3920_1537"/>
<feColorMatrix in="SourceAlpha" type="matrix" values="0 0 0 0 0 0 0 0 0 0 0 0 0 0 0 0 0 0 127 0" result="hardAlpha"/>
<feOffset dy="1"/>
<feGaussianBlur stdDeviation="1"/>
<feColorMatrix type="matrix" values="0 0 0 0 0.435294 0 0 0 0 0.180392 0 0 0 0 0.0392157 0 0 0 0.14 0"/>
<feBlend mode="normal" in2="effect1_dropShadow_3920_1537" result="effect2_dropShadow_3920_1537"/>
<feBlend mode="normal" in="SourceGraphic" in2="effect2_dropShadow_3920_1537" result="shape"/>
</filter>
<filter id="filter17_dd_3920_1537" x="264.011" y="321.337" width="49.7292" height="35.1283" filterUnits="userSpaceOnUse" color-interpolation-filters="sRGB">
<feFlood flood-opacity="0" result="BackgroundImageFix"/>
<feColorMatrix in="SourceAlpha" type="matrix" values="0 0 0 0 0 0 0 0 0 0 0 0 0 0 0 0 0 0 127 0" result="hardAlpha"/>
<feOffset dy="1"/>
<feGaussianBlur stdDeviation="4"/>
<feColorMatrix type="matrix" values="0 0 0 0 0.435294 0 0 0 0 0.180392 0 0 0 0 0.0392157 0 0 0 0.1 0"/>
<feBlend mode="normal" in2="BackgroundImageFix" result="effect1_dropShadow_3920_1537"/>
<feColorMatrix in="SourceAlpha" type="matrix" values="0 0 0 0 0 0 0 0 0 0 0 0 0 0 0 0 0 0 127 0" result="hardAlpha"/>
<feOffset dy="1"/>
<feGaussianBlur stdDeviation="1"/>
<feColorMatrix type="matrix" values="0 0 0 0 0.435294 0 0 0 0 0.180392 0 0 0 0 0.0392157 0 0 0 0.14 0"/>
<feBlend mode="normal" in2="effect1_dropShadow_3920_1537" result="effect2_dropShadow_3920_1537"/>
<feBlend mode="normal" in="SourceGraphic" in2="effect2_dropShadow_3920_1537" result="shape"/>
</filter>
<filter id="filter18_dd_3920_1537" x="302.419" y="305.709" width="99.9543" height="43.9844" filterUnits="userSpaceOnUse" color-interpolation-filters="sRGB">
<feFlood flood-opacity="0" result="BackgroundImageFix"/>
<feColorMatrix in="SourceAlpha" type="matrix" values="0 0 0 0 0 0 0 0 0 0 0 0 0 0 0 0 0 0 127 0" result="hardAlpha"/>
<feOffset dy="1"/>
<feGaussianBlur stdDeviation="4"/>
<feColorMatrix type="matrix" values="0 0 0 0 0.435294 0 0 0 0 0.180392 0 0 0 0 0.0392157 0 0 0 0.1 0"/>
<feBlend mode="normal" in2="BackgroundImageFix" result="effect1_dropShadow_3920_1537"/>
<feColorMatrix in="SourceAlpha" type="matrix" values="0 0 0 0 0 0 0 0 0 0 0 0 0 0 0 0 0 0 127 0" result="hardAlpha"/>
<feOffset dy="1"/>
<feGaussianBlur stdDeviation="1"/>
<feColorMatrix type="matrix" values="0 0 0 0 0.435294 0 0 0 0 0.180392 0 0 0 0 0.0392157 0 0 0 0.14 0"/>
<feBlend mode="normal" in2="effect1_dropShadow_3920_1537" result="effect2_dropShadow_3920_1537"/>
<feBlend mode="normal" in="SourceGraphic" in2="effect2_dropShadow_3920_1537" result="shape"/>
</filter>
<filter id="filter19_dd_3920_1537" x="268.179" y="344.973" width="49.7292" height="35.1283" filterUnits="userSpaceOnUse" color-interpolation-filters="sRGB">
<feFlood flood-opacity="0" result="BackgroundImageFix"/>
<feColorMatrix in="SourceAlpha" type="matrix" values="0 0 0 0 0 0 0 0 0 0 0 0 0 0 0 0 0 0 127 0" result="hardAlpha"/>
<feOffset dy="1"/>
<feGaussianBlur stdDeviation="4"/>
<feColorMatrix type="matrix" values="0 0 0 0 0.435294 0 0 0 0 0.180392 0 0 0 0 0.0392157 0 0 0 0.1 0"/>
<feBlend mode="normal" in2="BackgroundImageFix" result="effect1_dropShadow_3920_1537"/>
<feColorMatrix in="SourceAlpha" type="matrix" values="0 0 0 0 0 0 0 0 0 0 0 0 0 0 0 0 0 0 127 0" result="hardAlpha"/>
<feOffset dy="1"/>
<feGaussianBlur stdDeviation="1"/>
<feColorMatrix type="matrix" values="0 0 0 0 0.435294 0 0 0 0 0.180392 0 0 0 0 0.0392157 0 0 0 0.14 0"/>
<feBlend mode="normal" in2="effect1_dropShadow_3920_1537" result="effect2_dropShadow_3920_1537"/>
<feBlend mode="normal" in="SourceGraphic" in2="effect2_dropShadow_3920_1537" result="shape"/>
</filter>
<filter id="filter20_dd_3920_1537" x="306.586" y="329.344" width="99.9543" height="43.9844" filterUnits="userSpaceOnUse" color-interpolation-filters="sRGB">
<feFlood flood-opacity="0" result="BackgroundImageFix"/>
<feColorMatrix in="SourceAlpha" type="matrix" values="0 0 0 0 0 0 0 0 0 0 0 0 0 0 0 0 0 0 127 0" result="hardAlpha"/>
<feOffset dy="1"/>
<feGaussianBlur stdDeviation="4"/>
<feColorMatrix type="matrix" values="0 0 0 0 0.435294 0 0 0 0 0.180392 0 0 0 0 0.0392157 0 0 0 0.1 0"/>
<feBlend mode="normal" in2="BackgroundImageFix" result="effect1_dropShadow_3920_1537"/>
<feColorMatrix in="SourceAlpha" type="matrix" values="0 0 0 0 0 0 0 0 0 0 0 0 0 0 0 0 0 0 127 0" result="hardAlpha"/>
<feOffset dy="1"/>
<feGaussianBlur stdDeviation="1"/>
<feColorMatrix type="matrix" values="0 0 0 0 0.435294 0 0 0 0 0.180392 0 0 0 0 0.0392157 0 0 0 0.14 0"/>
<feBlend mode="normal" in2="effect1_dropShadow_3920_1537" result="effect2_dropShadow_3920_1537"/>
<feBlend mode="normal" in="SourceGraphic" in2="effect2_dropShadow_3920_1537" result="shape"/>
</filter>
<filter id="filter21_dd_3920_1537" x="456.489" y="197.566" width="249.292" height="130.863" filterUnits="userSpaceOnUse" color-interpolation-filters="sRGB">
<feFlood flood-opacity="0" result="BackgroundImageFix"/>
<feColorMatrix in="SourceAlpha" type="matrix" values="0 0 0 0 0 0 0 0 0 0 0 0 0 0 0 0 0 0 127 0" result="hardAlpha"/>
<feOffset dy="1"/>
<feGaussianBlur stdDeviation="4"/>
<feColorMatrix type="matrix" values="0 0 0 0 0.435294 0 0 0 0 0.180392 0 0 0 0 0.0392157 0 0 0 0.1 0"/>
<feBlend mode="normal" in2="BackgroundImageFix" result="effect1_dropShadow_3920_1537"/>
<feColorMatrix in="SourceAlpha" type="matrix" values="0 0 0 0 0 0 0 0 0 0 0 0 0 0 0 0 0 0 127 0" result="hardAlpha"/>
<feOffset dy="1"/>
<feGaussianBlur stdDeviation="1"/>
<feColorMatrix type="matrix" values="0 0 0 0 0.435294 0 0 0 0 0.180392 0 0 0 0 0.0392157 0 0 0 0.14 0"/>
<feBlend mode="normal" in2="effect1_dropShadow_3920_1537" result="effect2_dropShadow_3920_1537"/>
<feBlend mode="normal" in="SourceGraphic" in2="effect2_dropShadow_3920_1537" result="shape"/>
</filter>
<filter id="filter22_dd_3920_1537" x="472.117" y="286.199" width="253.286" height="153.514" filterUnits="userSpaceOnUse" color-interpolation-filters="sRGB">
<feFlood flood-opacity="0" result="BackgroundImageFix"/>
<feColorMatrix in="SourceAlpha" type="matrix" values="0 0 0 0 0 0 0 0 0 0 0 0 0 0 0 0 0 0 127 0" result="hardAlpha"/>
<feOffset dy="1"/>
<feGaussianBlur stdDeviation="4"/>
<feColorMatrix type="matrix" values="0 0 0 0 0.435294 0 0 0 0 0.180392 0 0 0 0 0.0392157 0 0 0 0.1 0"/>
<feBlend mode="normal" in2="BackgroundImageFix" result="effect1_dropShadow_3920_1537"/>
<feColorMatrix in="SourceAlpha" type="matrix" values="0 0 0 0 0 0 0 0 0 0 0 0 0 0 0 0 0 0 127 0" result="hardAlpha"/>
<feOffset dy="1"/>
<feGaussianBlur stdDeviation="1"/>
<feColorMatrix type="matrix" values="0 0 0 0 0.435294 0 0 0 0 0.180392 0 0 0 0 0.0392157 0 0 0 0.14 0"/>
<feBlend mode="normal" in2="effect1_dropShadow_3920_1537" result="effect2_dropShadow_3920_1537"/>
<feBlend mode="normal" in="SourceGraphic" in2="effect2_dropShadow_3920_1537" result="shape"/>
</filter>
<filter id="filter23_dd_3920_1537" x="491.202" y="351.783" width="64.5012" height="37.733" filterUnits="userSpaceOnUse" color-interpolation-filters="sRGB">
<feFlood flood-opacity="0" result="BackgroundImageFix"/>
<feColorMatrix in="SourceAlpha" type="matrix" values="0 0 0 0 0 0 0 0 0 0 0 0 0 0 0 0 0 0 127 0" result="hardAlpha"/>
<feOffset dy="1"/>
<feGaussianBlur stdDeviation="4"/>
<feColorMatrix type="matrix" values="0 0 0 0 0.435294 0 0 0 0 0.180392 0 0 0 0 0.0392157 0 0 0 0.1 0"/>
<feBlend mode="normal" in2="BackgroundImageFix" result="effect1_dropShadow_3920_1537"/>
<feColorMatrix in="SourceAlpha" type="matrix" values="0 0 0 0 0 0 0 0 0 0 0 0 0 0 0 0 0 0 127 0" result="hardAlpha"/>
<feOffset dy="1"/>
<feGaussianBlur stdDeviation="1"/>
<feColorMatrix type="matrix" values="0 0 0 0 0.435294 0 0 0 0 0.180392 0 0 0 0 0.0392157 0 0 0 0.14 0"/>
<feBlend mode="normal" in2="effect1_dropShadow_3920_1537" result="effect2_dropShadow_3920_1537"/>
<feBlend mode="normal" in="SourceGraphic" in2="effect2_dropShadow_3920_1537" result="shape"/>
</filter>
<filter id="filter24_dd_3920_1537" x="550.29" y="333.55" width="108.818" height="45.5472" filterUnits="userSpaceOnUse" color-interpolation-filters="sRGB">
<feFlood flood-opacity="0" result="BackgroundImageFix"/>
<feColorMatrix in="SourceAlpha" type="matrix" values="0 0 0 0 0 0 0 0 0 0 0 0 0 0 0 0 0 0 127 0" result="hardAlpha"/>
<feOffset dy="1"/>
<feGaussianBlur stdDeviation="4"/>
<feColorMatrix type="matrix" values="0 0 0 0 0.435294 0 0 0 0 0.180392 0 0 0 0 0.0392157 0 0 0 0.1 0"/>
<feBlend mode="normal" in2="BackgroundImageFix" result="effect1_dropShadow_3920_1537"/>
<feColorMatrix in="SourceAlpha" type="matrix" values="0 0 0 0 0 0 0 0 0 0 0 0 0 0 0 0 0 0 127 0" result="hardAlpha"/>
<feOffset dy="1"/>
<feGaussianBlur stdDeviation="1"/>
<feColorMatrix type="matrix" values="0 0 0 0 0.435294 0 0 0 0 0.180392 0 0 0 0 0.0392157 0 0 0 0.14 0"/>
<feBlend mode="normal" in2="effect1_dropShadow_3920_1537" result="effect2_dropShadow_3920_1537"/>
<feBlend mode="normal" in="SourceGraphic" in2="effect2_dropShadow_3920_1537" result="shape"/>
</filter>
<filter id="filter25_dd_3920_1537" x="495.022" y="373.449" width="64.5012" height="37.733" filterUnits="userSpaceOnUse" color-interpolation-filters="sRGB">
<feFlood flood-opacity="0" result="BackgroundImageFix"/>
<feColorMatrix in="SourceAlpha" type="matrix" values="0 0 0 0 0 0 0 0 0 0 0 0 0 0 0 0 0 0 127 0" result="hardAlpha"/>
<feOffset dy="1"/>
<feGaussianBlur stdDeviation="4"/>
<feColorMatrix type="matrix" values="0 0 0 0 0.435294 0 0 0 0 0.180392 0 0 0 0 0.0392157 0 0 0 0.1 0"/>
<feBlend mode="normal" in2="BackgroundImageFix" result="effect1_dropShadow_3920_1537"/>
<feColorMatrix in="SourceAlpha" type="matrix" values="0 0 0 0 0 0 0 0 0 0 0 0 0 0 0 0 0 0 127 0" result="hardAlpha"/>
<feOffset dy="1"/>
<feGaussianBlur stdDeviation="1"/>
<feColorMatrix type="matrix" values="0 0 0 0 0.435294 0 0 0 0 0.180392 0 0 0 0 0.0392157 0 0 0 0.14 0"/>
<feBlend mode="normal" in2="effect1_dropShadow_3920_1537" result="effect2_dropShadow_3920_1537"/>
<feBlend mode="normal" in="SourceGraphic" in2="effect2_dropShadow_3920_1537" result="shape"/>
</filter>
<filter id="filter26_dd_3920_1537" x="554.111" y="355.216" width="108.818" height="45.5472" filterUnits="userSpaceOnUse" color-interpolation-filters="sRGB">
<feFlood flood-opacity="0" result="BackgroundImageFix"/>
<feColorMatrix in="SourceAlpha" type="matrix" values="0 0 0 0 0 0 0 0 0 0 0 0 0 0 0 0 0 0 127 0" result="hardAlpha"/>
<feOffset dy="1"/>
<feGaussianBlur stdDeviation="4"/>
<feColorMatrix type="matrix" values="0 0 0 0 0.435294 0 0 0 0 0.180392 0 0 0 0 0.0392157 0 0 0 0.1 0"/>
<feBlend mode="normal" in2="BackgroundImageFix" result="effect1_dropShadow_3920_1537"/>
<feColorMatrix in="SourceAlpha" type="matrix" values="0 0 0 0 0 0 0 0 0 0 0 0 0 0 0 0 0 0 127 0" result="hardAlpha"/>
<feOffset dy="1"/>
<feGaussianBlur stdDeviation="1"/>
<feColorMatrix type="matrix" values="0 0 0 0 0.435294 0 0 0 0 0.180392 0 0 0 0 0.0392157 0 0 0 0.14 0"/>
<feBlend mode="normal" in2="effect1_dropShadow_3920_1537" result="effect2_dropShadow_3920_1537"/>
<feBlend mode="normal" in="SourceGraphic" in2="effect2_dropShadow_3920_1537" result="shape"/>
</filter>
<clipPath id="clip0_3920_1537">
<rect x="89.814" y="223.631" width="438" height="221" rx="4" transform="rotate(-10 89.814 223.631)" fill="white"/>
</clipPath>
<clipPath id="clip1_3920_1537">
<rect width="486" height="396" fill="white" transform="translate(210.001 167.001) rotate(-10)"/>
</clipPath>
<clipPath id="clip2_3920_1537">
<rect width="318" height="22" fill="white" transform="translate(256.289 240.906) rotate(-10)"/>
</clipPath>
</defs>
</svg>
