<svg xmlns="http://www.w3.org/2000/svg" width="200" height="236" fill="none">
    <g clip-path="url(#clip0_12_5181)">
        <path d="M53.4515 209.173L15.2961 66.7751C14.1717 62.5789 14.9754 58.0502 17.5303 54.1854C20.0852 50.3206 24.182 47.4362 28.9196 46.1668L189.686 3.08947C194.424 1.82004 199.414 2.26957 203.559 4.33915C207.704 6.40873 210.664 9.92883 211.789 14.1251L249.944 156.523C251.068 160.719 250.265 165.248 247.71 169.113C245.155 172.977 241.058 175.862 236.321 177.131L75.554 220.209C70.8164 221.478 65.8262 221.028 61.6812 218.959C57.5362 216.889 54.5759 213.369 53.4515 209.173Z" stroke="white" stroke-width="4"/>
        <path d="M148.816 64.9155L184.542 55.3428M166.834 132.159L202.56 122.586M173.193 155.892L208.919 146.319M59.5012 88.8474L77.3642 84.061M77.3642 84.061L95.2271 79.2746M77.3642 84.061L73.1247 68.239M77.3642 84.061L81.6037 99.883M88.9298 177.741L98.5616 163.171M98.5616 163.171L108.202 148.598M98.5616 163.171L82.9352 155.369M98.5616 163.171L114.197 170.971" stroke="white" stroke-width="4" stroke-linecap="round" stroke-linejoin="round"/>
    </g>
    <defs>
        <clipPath id="clip0_12_5181">
            <rect width="221.917" height="196.561" fill="white" transform="translate(0.00585938 45.4355) rotate(-15)"/>
        </clipPath>
    </defs>
</svg>