<svg width="96" height="84" viewBox="0 0 96 84" fill="none" xmlns="http://www.w3.org/2000/svg">
<g id="undraw_mail_sent_re_0ofv 1" clip-path="url(#clip0_115_34588)">
<path id="Vector" d="M95.157 32.2912C95.1227 32.2913 95.0891 32.2811 95.0609 32.262L48.4826 0.886171C48.3408 0.791133 48.1724 0.740343 47.9999 0.740627C47.8274 0.740912 47.6592 0.792257 47.5178 0.887762L1.27495 32.2617C1.23837 32.2865 1.19311 32.2963 1.1491 32.2888C1.1051 32.2813 1.06596 32.2573 1.04031 32.2219C1.01465 32.1865 1.00458 32.1427 1.0123 32.1002C1.02002 32.0576 1.04491 32.0198 1.08149 31.9949L47.3244 0.620975C47.5224 0.487288 47.7579 0.415424 47.9994 0.415041C48.2408 0.414657 48.4766 0.48577 48.6751 0.618827L95.2534 31.9946C95.2828 32.0144 95.305 32.0428 95.3165 32.0757C95.3281 32.1085 95.3286 32.1441 95.3178 32.1772C95.3071 32.2102 95.2857 32.2392 95.2568 32.2597C95.2278 32.2802 95.1929 32.2913 95.157 32.2912Z" fill="#3F3D56"/>
<path id="Vector_2" d="M3.91797 33.4037L48.0463 1.77051L92.5095 35.6545L50.32 59.8458L27.4147 54.7957L3.91797 33.4037Z" fill="#E6E6E6"/>
<path id="Vector_3" d="M29.3476 74.7877H7.54716C7.4133 74.7878 7.28071 74.7625 7.15699 74.713C7.03327 74.6636 6.92084 74.5911 6.82612 74.4996C6.7314 74.4081 6.65627 74.2994 6.605 74.1798C6.55373 74.0602 6.52734 73.932 6.52734 73.8025C6.52734 73.673 6.55373 73.5448 6.605 73.4252C6.65627 73.3056 6.7314 73.197 6.82612 73.1055C6.92084 73.014 7.03327 72.9414 7.15699 72.892C7.28071 72.8426 7.4133 72.8172 7.54716 72.8174H29.3476C29.4815 72.8172 29.6141 72.8426 29.7378 72.892C29.8615 72.9414 29.974 73.014 30.0687 73.1055C30.1634 73.197 30.2385 73.3056 30.2898 73.4252C30.3411 73.5448 30.3674 73.673 30.3674 73.8025C30.3674 73.932 30.3411 74.0602 30.2898 74.1798C30.2385 74.2994 30.1634 74.4081 30.0687 74.4996C29.974 74.5911 29.8615 74.6636 29.7378 74.713C29.6141 74.7625 29.4815 74.7878 29.3476 74.7877Z" fill="#3579F8"/>
<path id="Vector_4" d="M15.3687 70.5523H7.54716C7.4133 70.5525 7.28071 70.5271 7.15699 70.4777C7.03327 70.4283 6.92084 70.3557 6.82612 70.2642C6.7314 70.1727 6.65627 70.0641 6.605 69.9445C6.55373 69.8249 6.52734 69.6966 6.52734 69.5672C6.52734 69.4377 6.55373 69.3095 6.605 69.1899C6.65627 69.0703 6.7314 68.9616 6.82612 68.8701C6.92084 68.7786 7.03327 68.7061 7.15699 68.6567C7.28071 68.6072 7.4133 68.5819 7.54716 68.582H15.3687C15.5025 68.5819 15.6351 68.6072 15.7589 68.6567C15.8826 68.7061 15.995 68.7786 16.0897 68.8701C16.1844 68.9616 16.2596 69.0703 16.3108 69.1899C16.3621 69.3095 16.3885 69.4377 16.3885 69.5672C16.3885 69.6966 16.3621 69.8249 16.3108 69.9445C16.2596 70.0641 16.1844 70.1727 16.0897 70.2642C15.995 70.3557 15.8826 70.4283 15.7589 70.4777C15.6351 70.5271 15.5025 70.5525 15.3687 70.5523Z" fill="#3579F8"/>
<path id="Vector_5" d="M48.6673 51.0224C48.5016 51.0226 48.3374 50.9915 48.184 50.9309L20.9688 40.0083V5.81904C20.9691 5.51671 21.0934 5.22687 21.3145 5.01309C21.5355 4.79932 21.8351 4.67906 22.1477 4.67871H74.3582C74.6708 4.67906 74.9704 4.79932 75.1915 5.01309C75.4125 5.22687 75.5368 5.51671 75.5372 5.81904V40.0322L75.486 40.0534L49.1651 50.9255C49.0075 50.9896 48.8382 51.0225 48.6673 51.0224Z" fill="white"/>
<path id="Vector_6" d="M48.6675 51.1042C48.4908 51.1044 48.3158 51.0712 48.1522 51.0067L20.8848 40.0631V5.81944C20.8851 5.49551 21.0183 5.18496 21.2552 4.95591C21.492 4.72686 21.813 4.59802 22.1479 4.59766H74.3584C74.6933 4.59802 75.0144 4.72686 75.2512 4.95591C75.488 5.18496 75.6212 5.49551 75.6216 5.81944V40.0864L49.1984 51.0008C49.0303 51.0692 48.8498 51.1043 48.6675 51.1042ZM21.2216 39.8455L48.2806 50.7054C48.533 50.8045 48.8157 50.8028 49.0668 50.7009L75.2848 39.8713V5.81944C75.2845 5.5819 75.1868 5.35417 75.0131 5.1862C74.8395 5.01823 74.604 4.92375 74.3585 4.92346H22.1479C21.9023 4.92375 21.6669 5.01823 21.4932 5.1862C21.3196 5.35417 21.2219 5.5819 21.2216 5.81944L21.2216 39.8455Z" fill="#3F3D56"/>
<path id="Vector_7" d="M94.8211 31.9658H94.7873L75.4526 39.9514L48.9988 50.8773C48.8954 50.9194 48.7845 50.9413 48.6723 50.9419C48.5602 50.9425 48.449 50.9216 48.3452 50.8806L21.0526 39.9286L1.24293 31.9789L1.21266 31.9658H1.17895C0.866378 31.9662 0.566708 32.0864 0.345688 32.3002C0.124667 32.514 0.000346821 32.8038 0 33.1061V82.6289C0.000347266 82.9313 0.124667 83.2211 0.345688 83.4349C0.566708 83.6487 0.866378 83.7689 1.17895 83.7693H94.8211C95.1336 83.7689 95.4333 83.6487 95.6543 83.4349C95.8753 83.2211 95.9997 82.9313 96 82.6289V33.1061C95.9997 32.8038 95.8753 32.514 95.6543 32.3002C95.4333 32.0864 95.1336 31.9662 94.8211 31.9658ZM95.6632 82.6289C95.6631 82.8449 95.5743 83.0521 95.4164 83.2048C95.2585 83.3575 95.0444 83.4434 94.8211 83.4435H1.17895C0.955635 83.4434 0.741495 83.3575 0.583589 83.2048C0.425683 83.0521 0.336931 82.8449 0.336842 82.6289V33.1061C0.337148 32.8955 0.421619 32.6931 0.572595 32.5413C0.723571 32.3896 0.929364 32.3001 1.14696 32.2916L21.0526 40.2804L48.2156 51.182C48.5097 51.2977 48.8391 51.2959 49.1318 51.1771L75.4526 40.3049L94.8548 32.2916C95.072 32.3007 95.2772 32.3904 95.4278 32.5421C95.5784 32.6938 95.6627 32.8959 95.6632 33.1061V82.6289Z" fill="#3F3D56"/>
<path id="Vector_8" d="M48.3941 41.3275C47.3894 41.3294 46.4113 41.0151 45.6074 40.4322L45.5576 40.396L35.0631 32.6243C34.5771 32.2641 34.1691 31.8148 33.8626 31.3022C33.5561 30.7895 33.357 30.2234 33.2766 29.6363C33.1963 29.0492 33.2363 28.4526 33.3943 27.8804C33.5524 27.3083 33.8254 26.7718 34.1978 26.3017C34.5702 25.8316 35.0347 25.4371 35.5647 25.1406C36.0947 24.8441 36.68 24.6515 37.2869 24.5738C37.8939 24.4961 38.5108 24.5348 39.1023 24.6876C39.6939 24.8405 40.2485 25.1046 40.7345 25.4648L47.532 30.5063L63.5957 10.2432C63.9682 9.77322 64.4329 9.37882 64.963 9.08252C65.4931 8.78622 66.0784 8.59383 66.6854 8.51632C67.2925 8.43882 67.9093 8.47772 68.5008 8.63081C69.0923 8.7839 69.6468 9.04818 70.1326 9.40856L70.0328 9.53972L70.1352 9.41047C71.1153 10.1391 71.7566 11.214 71.9184 12.3993C72.0802 13.5847 71.7492 14.7837 70.9981 15.7333L52.1034 39.5676C51.6664 40.1168 51.1045 40.5613 50.4612 40.8665C49.8179 41.1717 49.1106 41.3295 48.3941 41.3275Z" fill="#3579F8"/>
</g>
<defs>
<clipPath id="clip0_115_34588">
<rect width="96" height="83.3538" fill="white" transform="translate(0 0.415039)"/>
</clipPath>
</defs>
</svg>
