<svg width="351" height="351" viewBox="0 0 351 351" fill="none" xmlns="http://www.w3.org/2000/svg">
<path d="M282.288 301.046C293.362 293.852 302.564 284.126 309.133 272.671C349.259 202.878 340.196 99.8665 262.92 55.7107C227.202 35.3036 175.788 22.3868 137.192 43.3485C105.883 60.3509 86.6901 92.3551 70.8178 121.481C60.8284 139.796 52.608 159.508 40.316 176.644C24.3595 198.87 6.80247 228.55 24.528 254.37C48.6838 289.54 94.3068 305.616 135.683 316.146C180.569 327.616 231.035 329.245 272.495 306.872C275.851 305.08 279.115 303.138 282.288 301.046Z" fill="#3579F8"/>
<path opacity="0.7" d="M282.288 301.046C293.362 293.852 302.564 284.126 309.133 272.671C349.259 202.878 340.196 99.8665 262.92 55.7107C227.202 35.3036 175.788 22.3868 137.192 43.3485C105.883 60.3509 86.6901 92.3551 70.8178 121.481C60.8284 139.796 52.608 159.508 40.316 176.644C24.3595 198.87 6.80247 228.55 24.528 254.37C48.6838 289.54 94.3068 305.616 135.683 316.146C180.569 327.616 231.035 329.245 272.495 306.872C275.851 305.08 279.115 303.138 282.288 301.046Z" fill="white"/>
<path d="M237.445 60.2808C266.929 60.7371 291.583 71.934 310.979 94.3278C311.602 95.0054 312.081 95.8021 312.387 96.6699C312.693 97.5376 312.821 98.4584 312.762 99.3767C312.703 100.295 312.458 101.192 312.043 102.013C311.628 102.835 311.051 103.563 310.347 104.156C309.663 104.738 308.87 105.178 308.013 105.449C307.156 105.719 306.254 105.816 305.359 105.732C304.465 105.648 303.596 105.386 302.805 104.961C302.013 104.536 301.315 103.957 300.751 103.257C293.828 95.0786 285.411 88.2934 275.949 83.2643C261.405 75.5373 244.874 72.3589 228.501 74.1414C212.128 75.9239 196.669 82.585 184.128 93.2608C180.562 96.2723 177.388 99.7753 174.173 103.18C171.365 106.135 167.287 106.606 164.345 104.072C161.404 101.537 161.221 97.3043 163.875 94.2435C180.119 75.4065 200.566 64.2798 225.216 60.8634C227.146 60.5967 229.091 60.3931 231.042 60.3019C233.169 60.2036 235.31 60.2808 237.445 60.2808Z" fill="#263238"/>
<path d="M239.88 87.6448C258.532 88.1292 276.075 96.0688 289.87 112.046C292.593 115.191 292.278 119.249 289.252 121.874C286.381 124.345 282.232 124.015 279.557 120.941C272.355 112.601 263.629 106.486 252.987 103.615C231.302 97.7606 212.551 103.096 196.827 119.151C196.244 119.747 195.703 120.386 195.149 121.011C193.965 122.377 192.286 123.218 190.483 123.347C188.679 123.476 186.898 122.883 185.531 121.699C184.165 120.515 183.325 118.836 183.196 117.033C183.067 115.229 183.659 113.448 184.843 112.081C190.91 104.882 198.398 99.0131 206.837 94.8403C216.518 90.0175 226.746 87.6939 239.88 87.6448Z" fill="#263238"/>
<path d="M270.572 134.321C270.576 135.7 270.161 137.049 269.383 138.188C268.604 139.327 267.499 140.204 266.212 140.702C264.905 141.217 263.468 141.31 262.105 140.968C260.741 140.625 259.519 139.865 258.61 138.792C255.767 135.463 252.205 132.822 248.192 131.07C236.96 126.325 224.64 129.273 216.307 138.68C214.335 140.912 211.871 141.72 209.021 140.856C207.934 140.526 206.947 139.928 206.149 139.119C205.352 138.31 204.77 137.314 204.455 136.223C204.14 135.131 204.104 133.978 204.348 132.869C204.593 131.759 205.11 130.728 205.855 129.87C220.119 112.671 246.36 110.214 263.524 124.577C265.486 126.211 267.293 128.023 268.922 129.989C269.87 131.141 270.277 132.734 270.93 134.131L270.572 134.321Z" fill="#263238"/>
<path d="M237.417 170.151C234.702 170.159 232.046 169.361 229.787 167.857C227.527 166.353 225.765 164.211 224.725 161.704C223.684 159.197 223.412 156.437 223.943 153.775C224.475 151.113 225.785 148.669 227.708 146.753C229.631 144.837 232.079 143.535 234.743 143.014C237.407 142.492 240.166 142.774 242.669 143.824C245.173 144.873 247.308 146.643 248.804 148.908C250.3 151.173 251.089 153.832 251.07 156.546C251.063 160.16 249.621 163.624 247.06 166.175C244.5 168.726 241.031 170.156 237.417 170.151Z" fill="#263238"/>
<path d="M155.331 235.728C161.705 229.354 161.705 219.02 155.331 212.646C148.957 206.272 138.623 206.272 132.249 212.646C125.875 219.02 125.875 229.354 132.249 235.728C138.623 242.102 148.957 242.102 155.331 235.728Z" stroke="#263238" stroke-width="2" stroke-linecap="round" stroke-linejoin="round"/>
<path d="M143.791 240.512C148.249 240.512 151.864 233.205 151.864 224.191C151.864 215.177 148.249 207.869 143.791 207.869C139.332 207.869 135.718 215.177 135.718 224.191C135.718 233.205 139.332 240.512 143.791 240.512Z" stroke="#263238" stroke-width="2" stroke-linecap="round" stroke-linejoin="round"/>
<path d="M132.559 212.643C135.618 215.545 139.681 217.15 143.897 217.123C148.114 217.095 152.156 215.437 155.177 212.495" stroke="#263238" stroke-width="2" stroke-linecap="round" stroke-linejoin="round"/>
<path d="M155.065 235.781C152.001 232.849 147.916 231.226 143.675 231.255C139.435 231.283 135.372 232.962 132.348 235.935" stroke="#263238" stroke-width="2" stroke-linecap="round" stroke-linejoin="round"/>
<path d="M127.469 224.191H160.112" stroke="#263238" stroke-width="2" stroke-linecap="round" stroke-linejoin="round"/>
<path d="M143.791 207.869V240.512" stroke="#263238" stroke-width="2" stroke-linecap="round" stroke-linejoin="round"/>
<path d="M143.868 202.71V200.955" stroke="#263238" stroke-linecap="round" stroke-linejoin="round"/>
<path d="M143.868 197.388V21.067" stroke="#263238" stroke-linecap="round" stroke-linejoin="round" stroke-dasharray="5.07 5.07"/>
<path d="M143.868 19.291V17.536" stroke="#263238" stroke-linecap="round" stroke-linejoin="round"/>
<path d="M117.536 107.568C114.848 107.571 112.272 108.642 110.372 110.544C108.473 112.446 107.406 115.024 107.406 117.711C107.406 123.327 117.55 134.763 117.55 134.763C117.55 134.763 127.687 123.313 127.687 117.711C127.688 116.378 127.426 115.058 126.916 113.827C126.406 112.595 125.658 111.476 124.716 110.534C123.773 109.592 122.653 108.845 121.421 108.336C120.189 107.827 118.869 107.566 117.536 107.568ZM117.536 122.31C116.623 122.311 115.731 122.041 114.971 121.535C114.212 121.029 113.619 120.309 113.269 119.466C112.919 118.623 112.828 117.695 113.005 116.799C113.183 115.904 113.622 115.082 114.268 114.436C114.913 113.791 115.736 113.351 116.631 113.174C117.526 112.996 118.454 113.088 119.297 113.438C120.14 113.788 120.861 114.38 121.367 115.139C121.873 115.899 122.143 116.792 122.141 117.704C122.141 118.926 121.656 120.098 120.793 120.963C119.929 121.828 118.758 122.315 117.536 122.317V122.31Z" fill="#263238" stroke="#263238" stroke-linecap="round" stroke-linejoin="round"/>
<path d="M117.536 107.568V105.812" stroke="#263238" stroke-linecap="round" stroke-linejoin="round"/>
<path d="M117.536 102.352V21.0179" stroke="#263238" stroke-linecap="round" stroke-linejoin="round" stroke-dasharray="4.93 4.93"/>
<path d="M117.536 19.291V17.536" stroke="#263238" stroke-linecap="round" stroke-linejoin="round"/>
<path d="M93.5554 190.776H73.4571C71.8857 190.776 70.3787 191.4 69.2676 192.511C68.1565 193.622 67.5322 195.129 67.5322 196.7V205.826C67.5322 207.398 68.1565 208.905 69.2676 210.016C70.3787 211.127 71.8857 211.751 73.4571 211.751L73.6607 220.947L79.9787 211.751H93.5694C95.1408 211.751 96.6478 211.127 97.7589 210.016C98.8701 208.905 99.4943 207.398 99.4943 205.826V196.7C99.4943 195.921 99.3406 195.15 99.0419 194.43C98.7433 193.71 98.3056 193.056 97.754 192.506C97.2023 191.956 96.5475 191.519 95.827 191.222C95.1066 190.926 94.3346 190.774 93.5554 190.776Z" fill="white" stroke="#263238" stroke-linecap="round" stroke-linejoin="round"/>
<path d="M85.9739 195.711H102.492C103.782 195.72 105.017 196.236 105.929 197.147C106.842 198.059 107.36 199.293 107.371 200.582V208.108C107.36 209.398 106.842 210.632 105.929 211.543C105.017 212.455 103.782 212.971 102.492 212.98L102.331 220.533L97.1498 212.98H85.9739C84.6818 212.98 83.4426 212.466 82.529 211.553C81.6153 210.639 81.1021 209.4 81.1021 208.108V200.582C81.1021 199.29 81.6153 198.051 82.529 197.138C83.4426 196.224 84.6818 195.711 85.9739 195.711Z" fill="#263238" stroke="#263238" stroke-linecap="round" stroke-linejoin="round"/>
<path d="M90.9088 204.338C90.9088 203.978 90.802 203.626 90.6019 203.327C90.4018 203.028 90.1174 202.795 89.7848 202.658C89.4522 202.52 89.0862 202.485 88.7333 202.555C88.3805 202.626 88.0565 202.8 87.8025 203.055C87.5485 203.31 87.3759 203.635 87.3065 203.988C87.2372 204.341 87.2742 204.707 87.4129 205.039C87.5516 205.371 87.7857 205.654 88.0856 205.853C88.3855 206.052 88.7378 206.158 89.0977 206.156C89.5787 206.155 90.0393 205.962 90.3788 205.621C90.7182 205.281 90.9088 204.819 90.9088 204.338Z" fill="#3579F8"/>
<path d="M94.7205 206.156C95.7247 206.156 96.5387 205.342 96.5387 204.338C96.5387 203.334 95.7247 202.52 94.7205 202.52C93.7164 202.52 92.9023 203.334 92.9023 204.338C92.9023 205.342 93.7164 206.156 94.7205 206.156Z" fill="#3579F8"/>
<path d="M100.344 206.156C101.348 206.156 102.162 205.342 102.162 204.338C102.162 203.334 101.348 202.52 100.344 202.52C99.3394 202.52 98.5254 203.334 98.5254 204.338C98.5254 205.342 99.3394 206.156 100.344 206.156Z" fill="#3579F8"/>
<path d="M89.5117 184.352V182.597" stroke="#263238" stroke-linecap="round" stroke-linejoin="round"/>
<path d="M89.5117 179.136V21.6497" stroke="#263238" stroke-linecap="round" stroke-linejoin="round" stroke-dasharray="4.93 4.93"/>
<path d="M89.5117 19.9158V18.1608" stroke="#263238" stroke-linecap="round" stroke-linejoin="round"/>
<path d="M82.0146 132.783H46.5215V153.527H82.0146V132.783Z" fill="white" stroke="#263238" stroke-linecap="round" stroke-linejoin="round"/>
<path d="M46.5215 153.527L63.9943 137.395L82.0216 153.527H46.5215Z" fill="white" stroke="#263238" stroke-linecap="round" stroke-linejoin="round"/>
<path d="M46.5215 132.783L64.2751 143.159L82.0216 132.783H46.5215Z" fill="white" stroke="#263238" stroke-linecap="round" stroke-linejoin="round"/>
<path d="M63.959 131.836V130.081" stroke="#263238" stroke-linecap="round" stroke-linejoin="round"/>
<path d="M63.959 126.788V102.071" stroke="#263238" stroke-linecap="round" stroke-linejoin="round" stroke-dasharray="4.69 4.69"/>
<path d="M63.959 100.428V98.6731" stroke="#263238" stroke-linecap="round" stroke-linejoin="round"/>
<path d="M73.4505 68.7117C71.7146 65.2287 68.9628 62.3543 65.5586 60.4686C62.1544 58.5828 58.2581 57.7744 54.3847 58.1502C50.5113 58.5259 46.843 60.0682 43.8648 62.5732C40.8866 65.0781 38.7386 68.4278 37.7046 72.1796C37.3957 72.1796 37.0869 72.1305 36.778 72.1305C33.785 72.0683 30.8831 73.1617 28.6753 75.1835C26.4676 77.2054 25.1238 80.0001 24.9232 82.987C24.7225 85.974 25.6805 88.9233 27.598 91.2223C29.5155 93.5212 32.2451 94.9929 35.2195 95.3316V95.472H71.1268C74.5443 95.5524 77.8641 94.3278 80.4108 92.0474C82.9575 89.767 84.5398 86.6021 84.8359 83.1965C85.1319 79.7909 84.1194 76.4004 82.0043 73.7148C79.8893 71.0292 76.8306 69.2502 73.4505 68.7398V68.7117Z" fill="white" stroke="#263238" stroke-linecap="round" stroke-linejoin="round"/>
<path d="M56.2163 58.0624V56.3074" stroke="#263238" stroke-linecap="round" stroke-linejoin="round"/>
<path d="M56.2163 52.8816V20.351" stroke="#263238" stroke-linecap="round" stroke-linejoin="round" stroke-dasharray="4.88 4.88"/>
<path d="M56.2163 18.6381V16.8831" stroke="#263238" stroke-linecap="round" stroke-linejoin="round"/>
<path d="M33.4009 183.292C32.5963 183.295 31.8147 183.562 31.1756 184.05L22.3374 177.417C22.5017 176.998 22.5851 176.553 22.5831 176.104C22.5911 175.27 22.3163 174.457 21.8036 173.799C21.2909 173.141 20.5705 172.676 19.7597 172.48C18.9489 172.283 18.0955 172.368 17.3386 172.718C16.5817 173.069 15.9658 173.665 15.5913 174.411C15.2168 175.156 15.1057 176.007 15.2762 176.823C15.4466 177.64 15.8886 178.375 16.5301 178.908C17.1715 179.441 17.9747 179.742 18.8087 179.76C19.6427 179.779 20.4584 179.514 21.123 179.01L29.9611 185.637C29.8008 186.059 29.7176 186.506 29.7154 186.957C29.717 187.406 29.8003 187.85 29.9611 188.269L21.123 194.896C20.4607 194.395 19.6483 194.131 18.8177 194.149C17.987 194.168 17.1869 194.466 16.547 194.996C15.9071 195.525 15.465 196.256 15.2925 197.069C15.1199 197.882 15.2271 198.729 15.5965 199.473C15.9659 200.217 16.576 200.815 17.3276 201.169C18.0793 201.522 18.9285 201.612 19.7375 201.423C20.5465 201.233 21.2677 200.776 21.7843 200.125C22.3008 199.475 22.5823 198.669 22.5831 197.838C22.5843 197.386 22.501 196.939 22.3374 196.518L31.1756 189.891C31.6419 190.243 32.1852 190.479 32.7607 190.58C33.3363 190.681 33.9275 190.643 34.4856 190.47C35.0438 190.298 35.5529 189.995 35.9709 189.587C36.389 189.178 36.704 188.677 36.89 188.123C37.076 187.569 37.1276 186.979 37.0407 186.401C36.9537 185.823 36.7306 185.275 36.3898 184.8C36.049 184.325 35.6003 183.939 35.0806 183.672C34.5609 183.405 33.9852 183.265 33.4009 183.264V183.292Z" fill="#263238"/>
<path d="M27.9673 62.3236V60.5686" stroke="#263238" stroke-linecap="round" stroke-linejoin="round"/>
<path d="M27.9673 56.7988V20.9968" stroke="#263238" stroke-linecap="round" stroke-linejoin="round" stroke-dasharray="5.37 5.37"/>
<path d="M27.9673 19.1155V17.3605" stroke="#263238" stroke-linecap="round" stroke-linejoin="round"/>
<path d="M27.9673 175.486V173.731" stroke="#263238" stroke-linecap="round" stroke-linejoin="round"/>
<path d="M27.9673 170.214V101.537" stroke="#263238" stroke-linecap="round" stroke-linejoin="round" stroke-dasharray="5.02 5.02"/>
<path d="M27.9673 99.7753V98.0203" stroke="#263238" stroke-linecap="round" stroke-linejoin="round"/>
<path d="M65.5601 284.443C70.4761 284.443 74.4614 273.99 74.4614 261.095C74.4614 248.2 70.4761 237.746 65.5601 237.746C60.644 237.746 56.6587 248.2 56.6587 261.095C56.6587 273.99 60.644 284.443 65.5601 284.443Z" fill="#3579F8" stroke="#263238" stroke-miterlimit="10"/>
<path d="M93.2168 246.709C95.9998 237.952 95.1646 229.87 91.3514 228.659C87.5382 227.447 82.191 233.563 79.4081 242.32C76.6252 251.077 77.4603 259.159 81.2735 260.371C85.0867 261.582 90.4339 255.466 93.2168 246.709Z" fill="#3579F8" stroke="#263238" stroke-miterlimit="10"/>
<path d="M27.9046 299.508C18.8417 297.971 12.0394 293.527 12.7063 289.589C13.3732 285.651 21.2636 283.692 30.3194 285.223C39.3752 286.753 46.1846 291.204 45.5177 295.142C44.8508 299.08 36.9604 301.039 27.9046 299.508Z" fill="#3579F8" stroke="#263238" stroke-miterlimit="10"/>
<path d="M101.601 277.922C94.033 285.426 85.0895 288.684 81.6287 285.188C78.1678 281.692 81.4953 272.783 89.0628 265.279C96.6304 257.774 105.574 254.517 109.035 258.013C112.496 261.509 109.168 270.417 101.601 277.922Z" fill="#3579F8" stroke="#263238" stroke-miterlimit="10"/>
<path d="M49.4492 257.332C56.771 267.953 58.9683 279.143 54.321 282.33C49.6738 285.517 40.0143 279.501 32.6924 268.866C25.3706 258.231 23.1663 247.104 27.8205 243.882C32.4748 240.66 42.1203 246.718 49.4492 257.332Z" fill="#3579F8" stroke="#263238" stroke-miterlimit="10"/>
<path d="M66.1846 283.278L66.8725 315.381" stroke="#263238" stroke-miterlimit="10" stroke-linecap="round"/>
<path d="M65.3564 252.411L66.1848 283.278" stroke="#263238" stroke-miterlimit="10" stroke-linecap="round"/>
<path d="M65.4126 247.378L65.3564 249.744" stroke="#263238" stroke-miterlimit="10" stroke-linecap="round"/>
<path d="M54.2856 280.8C59.393 291.349 62.3814 302.797 63.0817 314.496" stroke="#263238" stroke-miterlimit="10" stroke-linecap="round"/>
<path d="M38.9961 257.423C45.1041 264.505 50.2455 272.366 54.2857 280.8" stroke="#263238" stroke-miterlimit="10" stroke-linecap="round"/>
<path d="M34.1875 252.334C34.1875 252.334 35.1071 253.183 36.6234 254.791" stroke="#263238" stroke-miterlimit="10" stroke-linecap="round"/>
<path d="M82.1831 284.114C75.9393 292.866 71.0719 302.523 67.75 312.748" stroke="#263238" stroke-miterlimit="10" stroke-linecap="round"/>
<path d="M92.4183 272.376C88.6495 275.972 85.2231 279.911 82.1831 284.142" stroke="#263238" stroke-miterlimit="10" stroke-linecap="round"/>
<path d="M103.355 264.008C100.572 265.59 97.9588 267.453 95.5562 269.568" stroke="#263238" stroke-miterlimit="10" stroke-linecap="round"/>
<path d="M81.8042 258.189C76.8902 273.71 70.2563 296.637 67.1675 316.546" stroke="#263238" stroke-miterlimit="10" stroke-linecap="round"/>
<path d="M84.8088 248.985C83.9313 251.604 82.9134 254.707 81.8042 258.189" stroke="#263238" stroke-miterlimit="10" stroke-linecap="round"/>
<path d="M87.8906 240.084C87.8906 240.084 87.0272 242.464 85.6372 246.535" stroke="#263238" stroke-miterlimit="10" stroke-linecap="round"/>
<path d="M45.0615 292.994C51.2251 295.331 57.2342 299.838 60.1615 308.375" stroke="#263238" stroke-miterlimit="10" stroke-linecap="round"/>
<path d="M33.6963 290.677C37.5839 290.877 41.4196 291.657 45.0757 292.994" stroke="#263238" stroke-miterlimit="10" stroke-linecap="round"/>
<path d="M26.3042 290.86C26.3042 290.86 27.3993 290.705 29.2105 290.635" stroke="#263238" stroke-miterlimit="10" stroke-linecap="round"/>
<path d="M105.441 299.508C114.503 297.971 121.306 293.527 120.639 289.589C119.972 285.651 112.081 283.692 103.019 285.223C93.9559 286.753 87.1605 291.204 87.8274 295.142C88.4943 299.08 96.3778 301.039 105.441 299.508Z" fill="#3579F8" stroke="#263238" stroke-miterlimit="10"/>
<path d="M88.4519 292.924C82.2181 295.233 76.1107 299.747 73.1553 308.368" stroke="#263238" stroke-miterlimit="10" stroke-linecap="round"/>
<path d="M100.618 290.628C96.4668 290.746 92.3607 291.521 88.4521 292.924" stroke="#263238" stroke-miterlimit="10" stroke-linecap="round"/>
<path d="M107.034 290.86C107.034 290.86 106.332 290.761 105.075 290.684" stroke="#263238" stroke-miterlimit="10" stroke-linecap="round"/>
<path d="M88.3466 335.654C91.0878 329.913 92.5261 323.638 92.5586 317.276C92.5629 313.469 91.9949 309.682 90.8738 306.044H43.4608C42.3363 309.682 41.7683 313.468 41.776 317.276C41.8117 323.637 43.2499 329.912 45.988 335.654H88.3466Z" fill="#263238"/>
<path d="M42.2392 311.295C42.1059 312.158 42.0006 313.029 41.9233 313.92H92.4042C92.3269 313.029 92.2216 312.158 92.0883 311.295H42.2392Z" fill="#7A7A7A"/>
<path d="M91.8709 324.717C92.0253 323.847 92.1657 322.969 92.271 322.092H42.064C42.1693 322.969 42.3026 323.847 42.4641 324.717H91.8709Z" fill="#7A7A7A"/>
<path d="M47.9045 317.423C47.9045 317.827 47.7847 318.222 47.5602 318.558C47.3357 318.894 47.0167 319.156 46.6434 319.311C46.2701 319.465 45.8594 319.506 45.4631 319.427C45.0669 319.348 44.7029 319.154 44.4172 318.868C44.1315 318.582 43.9369 318.218 43.8581 317.822C43.7793 317.426 43.8197 317.015 43.9743 316.642C44.129 316.268 44.3908 315.949 44.7267 315.725C45.0627 315.5 45.4576 315.381 45.8617 315.381C46.4029 315.382 46.9214 315.598 47.3041 315.981C47.6868 316.364 47.9026 316.882 47.9045 317.423Z" fill="#8C8C8C"/>
<path d="M58.1188 317.423C58.1188 317.827 57.999 318.222 57.7746 318.558C57.5501 318.894 57.2311 319.156 56.8578 319.311C56.4845 319.465 56.0738 319.506 55.6775 319.427C55.2812 319.348 54.9172 319.154 54.6315 318.868C54.3458 318.582 54.1513 318.218 54.0725 317.822C53.9936 317.426 54.0341 317.015 54.1887 316.642C54.3433 316.268 54.6052 315.949 54.9411 315.725C55.277 315.5 55.672 315.381 56.076 315.381C56.6178 315.381 57.1374 315.596 57.5205 315.979C57.9036 316.362 58.1188 316.882 58.1188 317.423Z" fill="#8C8C8C"/>
<path d="M68.3327 317.423C68.3327 317.827 68.2129 318.222 67.9884 318.558C67.764 318.894 67.4449 319.156 67.0716 319.311C66.6984 319.465 66.2876 319.506 65.8914 319.427C65.4951 319.348 65.1311 319.154 64.8454 318.868C64.5597 318.582 64.3651 318.218 64.2863 317.822C64.2075 317.426 64.248 317.015 64.4026 316.642C64.5572 316.268 64.819 315.949 65.155 315.725C65.4909 315.5 65.8859 315.381 66.2899 315.381C66.8317 315.381 67.3513 315.596 67.7344 315.979C68.1175 316.362 68.3327 316.882 68.3327 317.423Z" fill="#8C8C8C"/>
<path d="M76.5042 319.466C77.6325 319.466 78.5471 318.552 78.5471 317.423C78.5471 316.295 77.6325 315.381 76.5042 315.381C75.376 315.381 74.4614 316.295 74.4614 317.423C74.4614 318.552 75.376 319.466 76.5042 319.466Z" fill="#8C8C8C"/>
<path d="M88.7609 317.423C88.7609 317.827 88.6411 318.222 88.4167 318.558C88.1922 318.894 87.8731 319.156 87.4999 319.311C87.1266 319.465 86.7158 319.506 86.3196 319.427C85.9233 319.348 85.5593 319.154 85.2736 318.868C84.9879 318.582 84.7934 318.218 84.7145 317.822C84.6357 317.426 84.6762 317.015 84.8308 316.642C84.9854 316.268 85.2472 315.949 85.5832 315.725C85.9191 315.5 86.3141 315.381 86.7181 315.381C87.2599 315.381 87.7795 315.596 88.1626 315.979C88.5457 316.362 88.7609 316.882 88.7609 317.423Z" fill="#8C8C8C"/>
<path d="M311.443 175.556C310.734 175.475 310.022 175.676 309.461 176.116C308.9 176.557 308.535 177.2 308.445 177.908L294.84 283.025L303.7 284.022L313.843 178.519C313.911 177.809 313.697 177.101 313.248 176.547C312.799 175.993 312.151 175.638 311.443 175.556Z" fill="#263238" stroke="#263238" stroke-linecap="round" stroke-linejoin="round"/>
<path d="M174.637 175.556C175.345 175.475 176.057 175.676 176.618 176.116C177.18 176.557 177.545 177.2 177.634 177.908L191.253 283.025L182.394 284.022L172.236 178.519C172.169 177.809 172.382 177.101 172.831 176.547C173.28 175.993 173.928 175.638 174.637 175.556Z" fill="#263238" stroke="#263238" stroke-linecap="round" stroke-linejoin="round"/>
<path d="M327.09 280.905H188.606C186.827 280.905 185.384 282.348 185.384 284.127V332.425C185.384 334.205 186.827 335.647 188.606 335.647H327.09C328.87 335.647 330.312 334.205 330.312 332.425V284.127C330.312 282.348 328.87 280.905 327.09 280.905Z" fill="white" stroke="#263238" stroke-linecap="round" stroke-linejoin="round"/>
<path d="M330.452 287.659H185.244C183.627 287.659 182.316 288.969 182.316 290.586V325.981C182.316 327.597 183.627 328.908 185.244 328.908H330.452C332.069 328.908 333.38 327.597 333.38 325.981V290.586C333.38 288.969 332.069 287.659 330.452 287.659Z" fill="white" stroke="#263238" stroke-linecap="round" stroke-linejoin="round"/>
<path d="M251.085 280.905H112.601C110.822 280.905 109.379 282.348 109.379 284.127V332.425C109.379 334.205 110.822 335.647 112.601 335.647H251.085C252.864 335.647 254.307 334.205 254.307 332.425V284.127C254.307 282.348 252.864 280.905 251.085 280.905Z" fill="white" stroke="#263238" stroke-linecap="round" stroke-linejoin="round"/>
<path d="M254.447 287.659H109.238C107.622 287.659 106.311 288.969 106.311 290.586V325.981C106.311 327.597 107.622 328.908 109.238 328.908H254.447C256.064 328.908 257.374 327.597 257.374 325.981V290.586C257.374 288.969 256.064 287.659 254.447 287.659Z" fill="white" stroke="#263238" stroke-linecap="round" stroke-linejoin="round"/>
<path d="M242.45 296.7H122.534C120.592 296.7 119.017 298.275 119.017 300.217V315.352C119.017 317.295 120.592 318.869 122.534 318.869H242.45C244.392 318.869 245.967 317.295 245.967 315.352V300.217C245.967 298.275 244.392 296.7 242.45 296.7Z" fill="#263238" stroke="#263238" stroke-linecap="round" stroke-linejoin="round"/>
<path d="M126.072 302.071C124.806 302.577 123.755 303.508 123.098 304.703C122.441 305.899 122.22 307.285 122.472 308.626C122.724 309.966 123.433 311.178 124.478 312.054C125.524 312.93 126.841 313.415 128.205 313.428C129.569 313.441 130.895 312.98 131.957 312.124C133.019 311.268 133.751 310.07 134.028 308.734C134.304 307.399 134.109 306.009 133.475 304.801C132.841 303.593 131.808 302.643 130.551 302.113" stroke="#3579F8" stroke-width="3" stroke-miterlimit="10" stroke-linecap="round"/>
<path d="M128.319 299.789V304.148" stroke="#3579F8" stroke-width="3" stroke-miterlimit="10" stroke-linecap="round"/>
<path d="M197.03 313.955C197.03 313.955 191.295 315.76 190.08 315.991C188.866 316.223 185.166 315.289 185.019 316.693C184.871 318.097 187.167 319.452 190.768 320.905C194.37 322.358 198.322 323.545 201.003 323.425C203.685 323.306 203.173 318.02 203.32 317.107C203.467 316.195 197.03 313.955 197.03 313.955Z" fill="white" stroke="#263238" stroke-linecap="round" stroke-linejoin="round"/>
<path d="M192.65 319.628C188.164 317.774 186.072 316.82 185.16 316.363C185.076 316.465 185.027 316.59 185.019 316.721C184.907 318.188 187.167 319.48 190.769 320.933C194.37 322.386 198.322 323.573 201.004 323.453C202.008 323.404 202.562 322.639 202.871 321.649C199.362 321.675 195.885 320.987 192.65 319.628Z" fill="white" stroke="#263238" stroke-linecap="round" stroke-linejoin="round"/>
<path d="M231.885 260.126L230.382 260.947V263.131C230.382 263.131 199.052 268.354 198.645 271.084C198.238 273.815 196.995 314.44 196.995 314.44C196.995 314.44 202.05 319.88 203.138 318.652C204.226 317.423 204.507 313.485 204.507 313.485L209.701 277.501C209.701 277.501 244.991 280.744 250.319 279.101C255.647 277.458 258.238 270.368 258.371 267.09C258.504 263.812 258.511 262.309 258.511 262.309L234.468 259.038L231.885 260.126Z" fill="#3579F8" stroke="#263238" stroke-linecap="round" stroke-linejoin="round"/>
<path d="M221.235 315.423L221.01 315.795C219.877 317.604 218.583 319.308 217.142 320.884C214.819 323.341 211 325.391 211.133 326.205C211.267 327.02 213.864 327.574 222.737 324.843C226.732 323.615 229.701 323.615 230.108 322.246C230.516 320.877 227.244 315.015 227.244 315.015L221.235 315.423Z" fill="white" stroke="#263238" stroke-linecap="round" stroke-linejoin="round"/>
<path d="M230.108 322.218C230.16 321.557 230.039 320.894 229.757 320.294C226.757 321.721 223.632 322.868 220.421 323.72C217.518 324.524 214.559 325.108 211.569 325.468C211.274 325.756 211.105 326.002 211.133 326.17C211.267 326.992 213.864 327.539 222.737 324.808C226.746 323.622 229.701 323.622 230.108 322.218Z" fill="white" stroke="#263238" stroke-linecap="round" stroke-linejoin="round"/>
<path d="M240.491 265.995C240.491 265.995 237.212 263.131 236.939 264.766C236.665 266.402 236.117 266.816 236.117 266.816C236.117 266.816 213.183 269.568 210.6 271.183C208.016 272.797 207.188 275.009 208.69 278.287C210.192 281.565 220.294 317.472 220.294 317.472C221.346 317.948 222.445 318.312 223.573 318.561C225.075 318.834 228.213 317.332 228.213 317.332C228.213 317.332 227.834 310.642 226.879 308.459C225.924 306.276 222.014 281.081 222.014 281.081C222.014 281.081 238.588 281.144 244.19 281.144C249.792 281.144 255.928 276.504 257.156 272.678C258.385 268.852 257.858 268.038 257.858 268.038" fill="#3579F8"/>
<path d="M240.491 265.995C240.491 265.995 237.212 263.131 236.939 264.766C236.665 266.402 236.117 266.816 236.117 266.816C236.117 266.816 213.183 269.568 210.6 271.183C208.016 272.797 207.188 275.009 208.69 278.287C210.192 281.565 220.294 317.472 220.294 317.472C221.346 317.948 222.445 318.312 223.573 318.561C225.075 318.834 228.213 317.332 228.213 317.332C228.213 317.332 227.834 310.642 226.879 308.459C225.924 306.276 222.014 281.081 222.014 281.081C222.014 281.081 238.588 281.144 244.19 281.144C249.792 281.144 255.928 276.504 257.156 272.678C258.385 268.852 257.858 268.038 257.858 268.038" stroke="#263238" stroke-linecap="round" stroke-linejoin="round"/>
<path d="M222 281.088L221.207 276.792" stroke="#263238" stroke-linecap="round" stroke-linejoin="round"/>
<path d="M248.065 272.032C248.505 272.645 248.861 273.313 249.125 274.019" stroke="#263238" stroke-linecap="round" stroke-linejoin="round"/>
<path d="M241.825 267.293C243.845 268.127 245.671 269.37 247.188 270.944" stroke="#263238" stroke-linecap="round" stroke-linejoin="round"/>
<path d="M247.013 268.066C249.124 269.033 250.874 270.645 252.011 272.671" stroke="#263238" stroke-linecap="round" stroke-linejoin="round"/>
<path d="M232.221 226.62C232.221 226.62 232.221 226.816 232.186 227.153C232.067 229.084 229.926 231.955 231.203 235.577C234.103 243.748 233.513 249.751 233.253 248.003C233.66 250.733 231.203 256.602 231.203 258.533C231.203 260.463 226.149 260.73 237.62 264.149C249.09 267.567 253.064 267.413 255.914 266.318C258.764 265.223 260.828 264.268 261.102 261.951C261.375 259.635 258.918 255.535 258.785 251.983C258.652 248.431 258.16 237.318 254.748 230.221C251.337 223.124 242.323 218.203 242.323 218.203L232.221 226.62Z" fill="white" stroke="#263238" stroke-linecap="round" stroke-linejoin="round"/>
<path d="M250.192 253.422C250.789 252.966 251.344 252.502 251.856 252.018" stroke="#263238" stroke-linecap="round" stroke-linejoin="round"/>
<path d="M235.802 261.453C240.031 259.594 244.112 257.417 248.01 254.938" stroke="#263238" stroke-linecap="round" stroke-linejoin="round"/>
<path d="M240.203 260.667C238.581 261.478 236.884 262.13 235.135 262.611" stroke="#263238" stroke-linecap="round" stroke-linejoin="round"/>
<path d="M242.422 259.466C242.422 259.466 242.035 259.705 241.39 260.056" stroke="#263238" stroke-linecap="round" stroke-linejoin="round"/>
<path d="M244.31 241.418L247.996 236.918" stroke="#263238" stroke-linecap="round" stroke-linejoin="round"/>
<path d="M230.958 196.342C230.034 197.307 229.21 198.363 228.501 199.494C227.904 200.674 227.799 201.53 226.781 202.302C225.763 203.074 223.657 202.576 223.713 203.791C223.769 205.005 225.033 206.163 225.033 206.163C225.033 206.163 224.008 213.576 224.394 214.756C224.78 215.935 230.087 216.16 230.087 216.16L232.79 224.963L242.33 218.497L242.583 215.935C242.821 214.896 244.534 211.681 245.952 209.266C247.37 206.851 246.739 200.491 243.313 197.753C239.887 195.016 235.352 195.296 233.955 195.198C232.558 195.1 230.958 196.342 230.958 196.342Z" fill="white" stroke="#263238" stroke-linecap="round" stroke-linejoin="round"/>
<path d="M225.651 207.595C226.101 208.046 226.67 208.359 227.291 208.501C227.912 208.643 228.56 208.606 229.161 208.396" stroke="#263238" stroke-linecap="round" stroke-linejoin="round"/>
<path d="M229.708 203.138C229.476 203.678 229.111 204.036 228.894 203.945C228.676 203.854 228.69 203.334 228.929 202.794C229.168 202.253 229.526 201.895 229.736 201.986C229.947 202.078 229.94 202.597 229.708 203.138Z" fill="#263238"/>
<path d="M229.336 200.456C229.336 200.456 231.393 200.049 231.702 202.085" stroke="#263238" stroke-linecap="round" stroke-linejoin="round"/>
<path d="M230.052 216.125L233.359 215.998L231.091 218.764L230.052 216.125Z" fill="#263238" stroke="#263238" stroke-linecap="round" stroke-linejoin="round"/>
<path d="M237.599 212.699L236.167 212.271L235.317 213.605" stroke="#263238" stroke-linecap="round" stroke-linejoin="round"/>
<path d="M236.798 193.085C236.798 193.085 238.862 190.712 236.384 189.575C233.906 188.438 225.475 190.495 226.381 194.194C227.286 197.894 235.156 198.364 235.907 198.406C236.658 198.448 234.405 199.263 235.022 200.386C235.64 201.509 237.128 202.071 237.206 203.285C237.283 204.5 235.802 206.128 236.504 206.837C237.206 207.546 238.329 206.486 239.045 206.212C239.761 205.939 241.719 207.911 240.175 210.424C238.631 212.938 237.592 212.678 237.592 212.678C237.41 213.141 237.38 213.649 237.506 214.13C237.633 214.61 237.908 215.039 238.294 215.352C239.698 216.539 242.506 216.188 243.208 215.037C243.91 213.885 245.124 212.846 247.651 210.361C250.179 207.876 251.379 201.6 249.631 197.269C247.883 192.938 239.957 191.176 236.798 193.085Z" fill="#263238" stroke="#263238" stroke-linecap="round" stroke-linejoin="round"/>
<path d="M242.295 216.139L229.287 225.721L230.031 229.856L244.675 219.066L242.295 216.139Z" fill="white" stroke="#263238" stroke-linecap="round" stroke-linejoin="round"/>
<path d="M209.821 272.011L232.734 266.992L227.378 263.812L205.637 268.662L209.821 272.011Z" fill="white" stroke="#263238" stroke-linecap="round" stroke-linejoin="round"/>
<path d="M199.62 250.27L209.821 272.011L205.637 268.662L195.268 248.262L199.62 250.27Z" fill="#263238" stroke="#263238" stroke-linecap="round" stroke-linejoin="round"/>
<path d="M218.048 262.766L212.769 264.127L209.498 268.866C209.629 268.993 209.785 269.091 209.957 269.154C210.129 269.217 210.312 269.243 210.494 269.231C211.042 269.14 212.495 267.862 212.495 267.862L216.321 266.858C216.321 266.858 214.32 268.045 214.32 268.318C214.32 268.592 214.685 268.683 215.591 268.592C216.496 268.501 218.687 266.486 218.687 266.486L220.147 264.661L218.048 262.766Z" fill="white" stroke="#263238" stroke-linecap="round" stroke-linejoin="round"/>
<path d="M232.312 239.059L229.61 251.386L218.048 262.766L220.779 265.314L230.382 260.947L231.049 259.213L233.365 248.887L232.312 239.059Z" fill="white" stroke="#263238" stroke-linecap="round" stroke-linejoin="round"/>
<path d="M214.847 260.281C214.847 260.281 211.161 260.828 209.799 260.828C208.437 260.828 205.159 261.102 204.612 261.376C204.064 261.649 201.467 263.285 201.607 264.514C201.747 265.742 204.064 264.654 204.064 264.654C204.546 265.759 205.141 266.81 205.84 267.792C206.928 269.294 207.476 268.747 209.659 267.932C211.842 267.118 215.121 264.654 215.121 264.654L217.037 262.878L214.847 260.281Z" fill="white" stroke="#263238" stroke-linecap="round" stroke-linejoin="round"/>
<path d="M246.907 221.895C246.907 221.895 241.291 221.074 239.262 223.805C236.932 227.098 235.39 230.884 234.756 234.868C234.341 238.413 231.751 245.517 231.751 245.517L214.391 259.972L217.395 264.471C217.395 264.471 238.455 254.643 238.989 253.984C239.522 253.324 246.493 235.275 246.493 235.275" fill="white"/>
<path d="M246.907 221.895C246.907 221.895 241.291 221.074 239.262 223.805C236.932 227.098 235.39 230.884 234.756 234.868C234.341 238.413 231.751 245.517 231.751 245.517L214.391 259.972L217.395 264.471C217.395 264.471 238.455 254.643 238.989 253.984C239.522 253.324 246.493 235.275 246.493 235.275" stroke="#263238" stroke-linecap="round" stroke-linejoin="round"/>
<path d="M20.0068 335.654H343.004" stroke="#263238" stroke-linecap="round" stroke-linejoin="round"/>
</svg>
