<svg width="27" height="27" viewBox="0 0 27 27" fill="none" xmlns="http://www.w3.org/2000/svg">
<g id="Frame">
<path id="Vector" d="M7.875 2.25H18.5625L23.625 7.3125V21.375" stroke="black" stroke-width="1.6875" stroke-linecap="round" stroke-linejoin="round"/>
<path id="Vector_2" d="M3.375 23.0625V7.3125C3.375 6.86495 3.55279 6.43572 3.86926 6.11926C4.18572 5.80279 4.61495 5.625 5.0625 5.625H16.0335C16.2125 5.62516 16.384 5.69638 16.5105 5.823L20.052 9.3645C20.115 9.42739 20.1649 9.5021 20.1989 9.58435C20.2328 9.6666 20.2502 9.75476 20.25 9.84375V23.0625C20.25 23.5101 20.0722 23.9393 19.7557 24.2557C19.4393 24.5722 19.0101 24.75 18.5625 24.75H5.0625C4.61495 24.75 4.18572 24.5722 3.86926 24.2557C3.55279 23.9393 3.375 23.5101 3.375 23.0625Z" stroke="black" stroke-width="1.6875" stroke-linecap="round" stroke-linejoin="round"/>
<path id="Vector_3" d="M15.75 5.625V9.45C15.75 9.62902 15.8211 9.80071 15.9477 9.9273C16.0743 10.0539 16.246 10.125 16.425 10.125H20.25" stroke="black" stroke-width="1.6875" stroke-linecap="round" stroke-linejoin="round"/>
</g>
</svg>
