<svg width="27" height="27" viewBox="0 0 27 27" fill="none" xmlns="http://www.w3.org/2000/svg">
<g id="ph:target">
<path id="Vector" d="M23.4002 8.77059C24.5711 11.2194 24.7933 14.015 24.0241 16.6181C23.2549 19.2211 21.5488 21.4469 19.235 22.866C16.9212 24.285 14.1638 24.7967 11.4949 24.3022C8.82602 23.8078 6.4349 22.3423 4.78301 20.1885C3.13113 18.0348 2.33559 15.3455 2.54993 12.6396C2.76427 9.93383 3.9733 7.40332 5.94367 5.5365C7.91404 3.66968 10.5061 2.59889 13.2195 2.5308C15.9329 2.46271 18.5754 3.40214 20.637 5.16778L23.0279 2.77575C23.1862 2.61743 23.401 2.52848 23.6249 2.52848C23.8488 2.52848 24.0635 2.61743 24.2218 2.77575C24.3802 2.93407 24.4691 3.1488 24.4691 3.3727C24.4691 3.5966 24.3802 3.81133 24.2218 3.96965L14.0968 14.0947C13.9385 14.253 13.7238 14.3419 13.4999 14.3419C13.276 14.3419 13.0612 14.253 12.9029 14.0947C12.7446 13.9363 12.6557 13.7216 12.6557 13.4977C12.6557 13.2738 12.7446 13.0591 12.9029 12.9007L15.8265 9.97715C15.0342 9.45314 14.0882 9.21186 13.1417 9.29239C12.1952 9.37292 11.3035 9.77054 10.6111 10.4209C9.91869 11.0712 9.46602 11.9362 9.32639 12.8758C9.18676 13.8155 9.36833 14.7747 9.84171 15.5983C10.3151 16.4219 11.0526 17.0616 11.9348 17.4139C12.817 17.7662 13.7923 17.8104 14.7027 17.5394C15.6132 17.2685 16.4056 16.6981 16.9516 15.9208C17.4976 15.1434 17.7652 14.2046 17.7112 13.2562C17.705 13.1454 17.7207 13.0344 17.7573 12.9297C17.794 12.8249 17.8509 12.7284 17.9248 12.6457C17.9988 12.5629 18.0883 12.4955 18.1883 12.4474C18.2882 12.3992 18.3967 12.3712 18.5075 12.365C18.7313 12.3524 18.9509 12.4292 19.1181 12.5785C19.2008 12.6525 19.2682 12.742 19.3164 12.842C19.3645 12.942 19.3925 13.0505 19.3987 13.1613C19.4757 14.5036 19.0923 15.8321 18.3119 16.927C17.5315 18.022 16.4009 18.8179 15.1069 19.1832C13.8129 19.5485 12.4329 19.4614 11.1952 18.9362C9.9574 18.411 8.93588 17.4792 8.29944 16.2948C7.66301 15.1103 7.44976 13.7442 7.69494 12.4222C7.94012 11.1001 8.62906 9.9013 9.64788 9.02385C10.6667 8.1464 11.9544 7.64285 13.2982 7.59642C14.642 7.54998 15.9614 7.96345 17.0384 8.76848L19.4378 6.36907C17.6794 4.90917 15.4436 4.15039 13.1599 4.23847C10.8762 4.32655 8.7055 5.25528 7.06479 6.84628C5.42409 8.43728 4.42905 10.5784 4.27078 12.8583C4.1125 15.1383 4.80217 17.3963 6.2073 19.1987C7.61244 21.0012 9.63397 22.2209 11.8836 22.6237C14.1333 23.0265 16.4524 22.5839 18.3957 21.3809C20.3389 20.178 21.7692 18.2995 22.4118 16.1063C23.0544 13.9131 22.864 11.5598 21.8773 9.49832C21.7808 9.29637 21.7684 9.06434 21.843 8.8533C21.9176 8.64226 22.0729 8.46948 22.2749 8.37297C22.4768 8.27647 22.7089 8.26415 22.9199 8.33871C23.131 8.41328 23.3037 8.56863 23.4002 8.77059Z" fill="black"/>
</g>
</svg>
