<svg width="27" height="27" viewBox="0 0 27 27" fill="none" xmlns="http://www.w3.org/2000/svg">
<g id="Frame">
<path id="Vector" d="M5.625 22.5V21.375C5.625 19.2864 6.45469 17.2834 7.93153 15.8065C9.40838 14.3297 11.4114 13.5 13.5 13.5M13.5 13.5C15.5886 13.5 17.5916 14.3297 19.0685 15.8065C20.5453 17.2834 21.375 19.2864 21.375 21.375V22.5M13.5 13.5C14.6935 13.5 15.8381 13.0259 16.682 12.182C17.5259 11.3381 18 10.1935 18 9C18 7.80653 17.5259 6.66193 16.682 5.81802C15.8381 4.97411 14.6935 4.5 13.5 4.5C12.3065 4.5 11.1619 4.97411 10.318 5.81802C9.47411 6.66193 9 7.80653 9 9C9 10.1935 9.47411 11.3381 10.318 12.182C11.1619 13.0259 12.3065 13.5 13.5 13.5Z" stroke="black" stroke-width="1.6875" stroke-linecap="round" stroke-linejoin="round"/>
</g>
</svg>
