<svg width="717" height="557" viewBox="0 0 717 557" fill="none" xmlns="http://www.w3.org/2000/svg">
<g filter="url(#filter0_b_1037_11578)">
<rect x="6.77246" y="122.801" width="486" height="376" rx="20" transform="rotate(-10 6.77246 122.801)" fill="#F3F3F3" fill-opacity="0.81"/>
</g>
<g filter="url(#filter1_dd_1037_11578)">
<rect x="37.0063" y="156.056" width="438" height="64" rx="32" transform="rotate(-10 37.0063 156.056)" fill="white" fill-opacity="0.8"/>
<circle cx="72.5046" cy="180.912" r="8.64286" transform="rotate(-10 72.5046 180.912)" stroke="#A0A0A0" stroke-width="2.5"/>
<path d="M78.8779 185.373L87.9801 191.746" stroke="#A0A0A0" stroke-width="2.5"/>
<path d="M113.473 182.388C111.713 182.699 110.2 182.368 108.934 181.395C107.673 180.421 106.879 179.005 106.551 177.147C106.199 175.151 106.458 173.463 107.328 172.084C108.197 170.705 109.561 169.852 111.419 169.524C113.133 169.222 114.613 169.556 115.861 170.526C117.115 171.495 117.906 172.911 118.235 174.775C118.592 176.8 118.338 178.496 117.472 179.863C116.606 181.229 115.273 182.071 113.473 182.388ZM111.547 170.858C110.243 171.088 109.267 171.745 108.619 172.829C107.971 173.913 107.782 175.22 108.052 176.749C108.322 178.278 108.934 179.44 109.889 180.236C110.85 181.024 111.967 181.306 113.242 181.081C114.604 180.841 115.599 180.208 116.227 179.181C116.855 178.154 117.028 176.841 116.747 175.243C116.458 173.604 115.854 172.404 114.934 171.644C114.015 170.884 112.886 170.622 111.547 170.858ZM128.073 179.6L126.662 179.849L125.311 172.189L123.251 172.552C123.52 175.461 123.469 177.547 123.096 178.809C122.729 180.069 122.061 180.785 121.092 180.956C120.798 181.008 120.537 181.012 120.309 180.969L120.094 179.748C120.314 179.817 120.542 179.83 120.779 179.788C122.048 179.564 122.407 176.821 121.853 171.558L126.51 170.737L128.073 179.6ZM138.382 177.782L137.101 178.008L135.854 170.936C135.77 171.207 135.639 171.59 135.458 172.086L132.427 178.832L130.955 179.092L129.392 170.228L130.691 169.999L131.922 176.984C131.962 176.805 132.062 176.493 132.221 176.048L135.347 169.178L136.819 168.919L138.382 177.782ZM150.828 175.587L149.426 175.835L148.138 168.529C148.076 168.921 147.976 169.498 147.836 170.26L146.622 176.329L145.349 176.554L142.063 171.278C141.888 170.994 141.596 170.486 141.188 169.755L142.476 177.06L141.255 177.275L139.692 168.412L141.501 168.093L144.858 173.463C145.099 173.855 145.416 174.4 145.807 175.099L146.136 173.273L147.378 167.057L149.265 166.724L150.828 175.587ZM161.059 173.784L159.64 174.034L158.29 166.382L153.772 167.179L155.121 174.83L153.702 175.081L152.139 166.218L159.496 164.92L161.059 173.784ZM171.359 171.967L170.078 172.193L168.831 165.122C168.748 165.392 168.616 165.775 168.436 166.271L165.404 173.017L163.933 173.277L162.37 164.414L163.668 164.185L164.9 171.17C164.94 170.99 165.039 170.678 165.199 170.233L168.325 163.364L169.796 163.104L171.359 171.967ZM180.577 170.342L179.158 170.592L178.914 169.207L178.879 169.213C178.449 170.384 177.634 171.075 176.433 171.287C175.55 171.442 174.817 171.331 174.232 170.952C173.654 170.572 173.296 169.996 173.16 169.222C172.868 167.566 173.673 166.431 175.576 165.816L178.167 164.975C177.902 163.469 177.16 162.823 175.943 163.038C174.875 163.226 173.976 163.759 173.244 164.638L172.988 163.184C173.761 162.476 174.716 162.022 175.853 161.822C177.936 161.455 179.172 162.373 179.561 164.577L180.577 170.342ZM178.367 166.109L176.281 166.78C175.64 166.988 175.172 167.24 174.879 167.536C174.585 167.826 174.491 168.268 174.596 168.862C174.672 169.295 174.887 169.623 175.242 169.846C175.602 170.062 176.038 170.125 176.552 170.034C177.256 169.91 177.792 169.563 178.162 168.992C178.536 168.414 178.656 167.747 178.523 166.992L178.367 166.109ZM191.551 171.736L190.347 171.948L189.778 168.72L183.183 169.883L183.752 173.111L182.54 173.325L181.759 168.893L182.546 168.754C183.674 166.306 183.991 163.618 183.498 160.688L188.103 159.876L189.453 167.536L190.769 167.304L191.551 171.736ZM188.034 167.787L186.895 161.33L184.931 161.676C185.196 164.092 184.903 166.363 184.052 168.489L188.034 167.787ZM202.64 166.452L201.238 166.699L199.675 157.836L201.077 157.588L202.64 166.452ZM192.946 168.161L191.383 159.298L192.803 159.047L193.403 162.449L195.791 162.028C196.697 161.868 197.458 161.978 198.072 162.358C198.692 162.736 199.077 163.349 199.226 164.198C199.377 165.052 199.228 165.774 198.778 166.365C198.329 166.956 197.695 167.324 196.876 167.468L192.946 168.161ZM193.618 163.669L194.152 166.699L196.281 166.323C197.458 166.116 197.955 165.493 197.772 164.454C197.599 163.473 196.918 163.087 195.73 163.297L193.618 163.669Z" fill="#565656"/>
<rect x="203" y="144.724" width="1" height="32" transform="rotate(-10 203 144.724)" fill="#565656"/>
</g>
<g filter="url(#filter2_d_1037_11578)">
<g clip-path="url(#clip0_1037_11578)">
<rect x="48.8145" y="223.023" width="438" height="221" rx="4" transform="rotate(-10 48.8145 223.023)" fill="white" fill-opacity="0.8"/>
<line x1="72.691" y1="358.434" x2="504.037" y2="282.376" stroke="#DADADA"/>
</g>
</g>
<g filter="url(#filter3_dd_1037_11578)">
<rect x="115.663" y="233.575" width="312" height="16" rx="8" transform="rotate(-10 115.663 233.575)" fill="white" fill-opacity="0.9"/>
</g>
<g filter="url(#filter4_dd_1037_11578)">
<rect x="125.734" y="290.694" width="312" height="16" rx="8" transform="rotate(-10 125.734 290.694)" fill="white" fill-opacity="0.9"/>
</g>
<g filter="url(#filter5_dd_1037_11578)">
<rect x="119.83" y="257.21" width="148" height="16" rx="8" transform="rotate(-10 119.83 257.21)" fill="white" fill-opacity="0.9"/>
</g>
<g filter="url(#filter6_dd_1037_11578)">
<rect x="129.901" y="314.329" width="148" height="16" rx="8" transform="rotate(-10 129.901 314.329)" fill="white" fill-opacity="0.9"/>
</g>
<g filter="url(#filter7_dd_1037_11578)">
<rect x="139.105" y="366.524" width="69" height="16" rx="8" transform="rotate(-10 139.105 366.524)" fill="white" fill-opacity="0.9"/>
</g>
<g filter="url(#filter8_dd_1037_11578)">
<rect x="143.967" y="394.099" width="69" height="16" rx="8" transform="rotate(-10 143.967 394.099)" fill="white" fill-opacity="0.9"/>
</g>
<g filter="url(#filter9_dd_1037_11578)">
<rect x="211.98" y="353.674" width="69" height="16" rx="8" transform="rotate(-10 211.98 353.674)" fill="white" fill-opacity="0.9"/>
</g>
<g filter="url(#filter10_dd_1037_11578)">
<rect x="216.843" y="381.249" width="93" height="16" rx="8" transform="rotate(-10 216.843 381.249)" fill="white" fill-opacity="0.9"/>
</g>
<g filter="url(#filter11_b_1037_11578)">
<rect x="172.475" y="186.089" width="486" height="376" rx="20" transform="rotate(-10 172.475 186.089)" fill="#F3F3F3" fill-opacity="0.81"/>
</g>
<g filter="url(#filter12_dd_1037_11578)">
<rect x="225.578" y="308.731" width="145" height="16" rx="8" transform="rotate(-10 225.578 308.731)" fill="#ECECEC"/>
</g>
<g filter="url(#filter13_dd_1037_11578)">
<rect x="241.901" y="401.303" width="113" height="16" rx="8" transform="rotate(-10 241.901 401.303)" fill="#ECECEC"/>
</g>
<g filter="url(#filter14_dd_1037_11578)">
<rect x="246.068" y="424.939" width="158" height="16" rx="8" transform="rotate(-10 246.068 424.939)" fill="#ECECEC"/>
</g>
<g filter="url(#filter15_dd_1037_11578)">
<rect x="250.236" y="448.574" width="78" height="16" rx="8" transform="rotate(-10 250.236 448.574)" fill="#ECECEC"/>
</g>
<g filter="url(#filter16_dd_1037_11578)">
<rect x="220.195" y="278.202" width="191" height="16" rx="8" transform="rotate(-10 220.195 278.202)" fill="#ECECEC"/>
</g>
<g filter="url(#filter17_dd_1037_11578)">
<rect x="229.745" y="332.367" width="34" height="16" rx="8" transform="rotate(-10 229.745 332.367)" fill="#ECECEC"/>
</g>
<g filter="url(#filter18_dd_1037_11578)">
<rect x="268.153" y="325.594" width="85" height="16" rx="8" transform="rotate(-10 268.153 325.594)" fill="#ECECEC"/>
</g>
<g filter="url(#filter19_dd_1037_11578)">
<rect x="233.913" y="356.002" width="34" height="16" rx="8" transform="rotate(-10 233.913 356.002)" fill="#ECECEC"/>
</g>
<g filter="url(#filter20_dd_1037_11578)">
<rect x="272.32" y="349.23" width="85" height="16" rx="8" transform="rotate(-10 272.32 349.23)" fill="#ECECEC"/>
</g>
<path d="M225.737 220.361L224.291 220.616L222.823 212.29C222.707 211.632 222.605 210.82 222.518 209.853L222.484 209.859C222.444 210.444 222.391 210.866 222.324 211.128L219.764 221.414L219.055 221.54L213.152 212.817C212.982 212.561 212.784 212.159 212.556 211.61L212.521 211.616C212.655 212.104 212.821 212.911 213.019 214.036L214.485 222.345L213.082 222.593L210.894 210.181L212.815 209.842L218.15 217.826C218.561 218.437 218.839 218.9 218.984 219.214L219.036 219.205C219.164 218.48 219.273 217.937 219.364 217.576L221.73 208.27L223.548 207.949L225.737 220.361ZM232.559 219.373C231.249 219.603 230.129 219.376 229.199 218.689C228.274 217.995 227.69 216.965 227.449 215.597C227.187 214.108 227.388 212.874 228.054 211.894C228.721 210.914 229.746 210.301 231.131 210.057C232.452 209.824 233.554 210.049 234.436 210.733C235.324 211.415 235.895 212.478 236.149 213.92C236.399 215.334 236.198 216.538 235.546 217.534C234.899 218.523 233.904 219.135 232.559 219.373ZM231.238 211.27C230.326 211.431 229.66 211.869 229.239 212.586C228.817 213.297 228.702 214.198 228.894 215.289C229.079 216.339 229.494 217.12 230.137 217.631C230.781 218.142 231.552 218.318 232.453 218.16C233.37 217.998 234.022 217.577 234.407 216.896C234.799 216.214 234.898 215.325 234.704 214.228C234.509 213.121 234.11 212.31 233.508 211.798C232.912 211.284 232.155 211.108 231.238 211.27ZM245.609 212.654L239.351 213.757C239.549 214.74 239.948 215.455 240.551 215.902C241.153 216.349 241.899 216.494 242.787 216.337C243.786 216.161 244.645 215.671 245.366 214.865L245.601 216.198C244.921 216.901 243.941 217.366 242.66 217.591C241.408 217.812 240.354 217.585 239.497 216.909C238.639 216.227 238.081 215.156 237.824 213.696C237.58 212.317 237.772 211.126 238.398 210.123C239.029 209.114 239.925 208.507 241.085 208.302C242.245 208.097 243.208 208.314 243.975 208.953C244.742 209.591 245.243 210.576 245.478 211.909L245.609 212.654ZM243.943 211.707C243.793 210.889 243.481 210.286 243.009 209.899C242.542 209.512 241.962 209.379 241.269 209.501C240.6 209.619 240.074 209.959 239.691 210.52C239.308 211.081 239.13 211.758 239.157 212.551L243.943 211.707ZM257.089 215.047C255.779 215.278 254.659 215.05 253.729 214.364C252.803 213.67 252.22 212.639 251.979 211.272C251.716 209.783 251.918 208.549 252.584 207.568C253.25 206.588 254.276 205.976 255.661 205.732C256.982 205.499 258.084 205.724 258.966 206.407C259.854 207.09 260.425 208.152 260.679 209.595C260.929 211.009 260.727 212.213 260.076 213.209C259.429 214.197 258.434 214.81 257.089 215.047ZM255.767 206.945C254.856 207.105 254.189 207.544 253.768 208.261C253.346 208.972 253.232 209.873 253.424 210.963C253.609 212.014 254.023 212.794 254.667 213.306C255.31 213.817 256.082 213.993 256.982 213.834C257.9 213.673 258.551 213.251 258.937 212.571C259.329 211.889 259.428 211 259.234 209.903C259.039 208.795 258.64 207.985 258.038 207.472C257.442 206.959 256.685 206.783 255.767 206.945ZM268.258 199.227L268.493 200.56C268.287 200.775 267.929 200.972 267.419 201.151C266.155 201.576 265.28 201.927 264.793 202.203C264.311 202.472 263.955 202.934 263.725 203.587C263.501 204.239 263.444 205.145 263.553 206.304L263.587 206.298C264.103 205.171 265.001 204.495 266.282 204.27C267.453 204.063 268.468 204.298 269.325 204.974C270.181 205.65 270.726 206.645 270.958 207.961C271.197 209.317 271.014 210.474 270.41 211.431C269.81 212.382 268.878 212.969 267.614 213.191C266.252 213.432 265.117 213.135 264.209 212.301C263.305 211.461 262.695 210.144 262.378 208.349C262.132 206.953 262.056 205.747 262.151 204.73C262.244 203.708 262.482 202.911 262.862 202.338C263.249 201.764 263.712 201.334 264.251 201.049C264.795 200.763 265.744 200.372 267.096 199.878C267.628 199.653 268.015 199.436 268.258 199.227ZM263.783 207.709L263.999 208.938C264.087 209.399 264.236 209.839 264.447 210.26C264.658 210.681 264.917 211.04 265.226 211.337C265.534 211.633 265.87 211.836 266.234 211.944C266.604 212.052 267.005 212.067 267.438 211.991C268.229 211.851 268.814 211.445 269.195 210.771C269.581 210.09 269.693 209.288 269.53 208.365C269.351 207.349 268.958 206.588 268.351 206.082C267.749 205.57 267.024 205.388 266.175 205.538C264.987 205.747 264.189 206.471 263.783 207.709ZM279.491 201.744L277.228 212.746C276.824 214.709 275.965 215.806 274.649 216.038C274.28 216.104 273.964 216.12 273.703 216.089L273.479 214.817C273.803 214.867 274.092 214.869 274.346 214.825C275.061 214.698 275.523 214.177 275.73 213.26L276.144 211.455L271.122 203.22L272.697 202.942L276.297 209.34C276.341 209.421 276.441 209.636 276.598 209.983L276.65 209.974C276.654 209.83 276.673 209.601 276.707 209.286L278.02 202.004L279.491 201.744ZM289.727 209.078L288.316 209.327L287.687 205.761C286.748 206.509 285.84 206.961 284.963 207.116C282.978 207.466 281.801 206.591 281.43 204.49L280.902 201.495L282.322 201.245L282.838 204.171C283.067 205.469 283.741 206.019 284.86 205.822C285.714 205.671 286.588 205.262 287.481 204.592L286.753 200.464L288.164 200.215L289.727 209.078ZM299.014 203.237L292.756 204.34C292.953 205.323 293.353 206.038 293.955 206.485C294.558 206.932 295.303 207.077 296.192 206.921C297.19 206.745 298.05 206.254 298.77 205.449L299.005 206.782C298.326 207.485 297.346 207.949 296.065 208.175C294.813 208.396 293.758 208.168 292.901 207.492C292.043 206.81 291.486 205.74 291.228 204.28C290.985 202.901 291.177 201.71 291.803 200.707C292.434 199.697 293.33 199.09 294.489 198.885C295.649 198.681 296.613 198.898 297.38 199.536C298.147 200.174 298.648 201.16 298.883 202.493L299.014 203.237ZM297.348 202.29C297.198 201.472 296.886 200.869 296.413 200.483C295.946 200.095 295.367 199.962 294.674 200.084C294.005 200.202 293.479 200.542 293.096 201.103C292.713 201.665 292.535 202.342 292.561 203.134L297.348 202.29ZM309.245 205.636L307.826 205.887L307.116 201.862L302.598 202.659L303.308 206.683L301.888 206.934L300.325 198.071L301.745 197.82L302.386 201.456L306.904 200.659L306.263 197.024L307.682 196.773L309.245 205.636ZM319.545 203.82L318.264 204.046L317.017 196.975C316.934 197.245 316.803 197.628 316.622 198.124L313.59 204.87L312.119 205.13L310.556 196.267L311.854 196.038L313.086 203.023C313.126 202.843 313.226 202.531 313.385 202.086L316.511 195.217L317.983 194.957L319.545 203.82ZM328.824 197.981L322.566 199.084C322.763 200.067 323.163 200.782 323.765 201.229C324.367 201.676 325.113 201.821 326.002 201.665C327 201.488 327.859 200.998 328.58 200.192L328.815 201.525C328.136 202.228 327.156 202.693 325.875 202.918C324.622 203.139 323.568 202.912 322.711 202.236C321.853 201.554 321.295 200.483 321.038 199.023C320.795 197.644 320.986 196.453 321.613 195.45C322.244 194.441 323.139 193.834 324.299 193.629C325.459 193.425 326.422 193.641 327.189 194.28C327.956 194.918 328.457 195.903 328.692 197.236L328.824 197.981ZM327.157 197.034C327.007 196.216 326.696 195.613 326.223 195.227C325.756 194.839 325.176 194.706 324.484 194.828C323.814 194.946 323.288 195.286 322.905 195.847C322.522 196.409 322.344 197.086 322.371 197.878L327.157 197.034Z" fill="#565656"/>
<g clip-path="url(#clip1_1037_11578)">
<path d="M227.189 255.462L225.58 255.745L224.841 251.558L220.297 252.359L221.035 256.547L219.433 256.829L217.731 247.175L219.333 246.893L220.049 250.952L224.593 250.151L223.877 246.092L225.486 245.808L227.189 255.462ZM232.481 254.695C231.418 254.883 230.511 254.712 229.76 254.182C229.014 253.648 228.546 252.848 228.359 251.785C228.155 250.627 228.325 249.664 228.87 248.897C229.42 248.129 230.255 247.646 231.377 247.449C232.454 247.259 233.349 247.427 234.062 247.954C234.775 248.481 235.231 249.305 235.429 250.427C235.623 251.527 235.453 252.466 234.919 253.245C234.389 254.019 233.577 254.502 232.481 254.695ZM231.503 248.711C230.892 248.818 230.447 249.117 230.168 249.605C229.889 250.094 229.815 250.713 229.947 251.463C230.075 252.186 230.355 252.724 230.787 253.078C231.219 253.428 231.736 253.549 232.337 253.443C232.952 253.335 233.387 253.048 233.643 252.581C233.903 252.114 233.967 251.504 233.834 250.75C233.7 249.991 233.43 249.435 233.026 249.081C232.625 248.726 232.117 248.602 231.503 248.711ZM237.637 253.619L236.421 246.726L239.713 246.145C240.454 246.015 241.066 246.062 241.55 246.287C242.034 246.511 242.321 246.884 242.413 247.405C242.568 248.284 242.212 248.898 241.343 249.245C242.439 249.191 243.069 249.626 243.232 250.55C243.332 251.12 243.19 251.641 242.806 252.111C242.421 252.577 241.891 252.869 241.218 252.988L237.637 253.619ZM238.178 247.554L238.48 249.271L239.86 249.028C240.641 248.89 240.978 248.518 240.872 247.912C240.777 247.374 240.388 247.165 239.706 247.285L238.178 247.554ZM238.671 250.355L239.003 252.233L240.605 251.951C241.404 251.81 241.746 251.416 241.632 250.77C241.525 250.164 241.039 249.938 240.173 250.09L238.671 250.355ZM248.342 251.898C247.279 252.086 246.372 251.915 245.621 251.386C244.874 250.851 244.407 250.052 244.22 248.988C244.015 247.83 244.186 246.868 244.731 246.1C245.28 245.333 246.116 244.85 247.238 244.652C248.315 244.462 249.21 244.63 249.923 245.157C250.636 245.684 251.092 246.508 251.289 247.63C251.483 248.73 251.313 249.669 250.78 250.448C250.25 251.222 249.437 251.705 248.342 251.898ZM247.363 245.914C246.753 246.022 246.308 246.32 246.029 246.809C245.749 247.298 245.676 247.917 245.808 248.666C245.935 249.389 246.215 249.927 246.648 250.281C247.08 250.631 247.597 250.753 248.198 250.647C248.813 250.538 249.248 250.251 249.504 249.785C249.764 249.318 249.827 248.707 249.694 247.953C249.561 247.195 249.291 246.638 248.886 246.284C248.486 245.929 247.978 245.806 247.363 245.914ZM258.376 249.636C257.88 250.052 257.256 250.327 256.502 250.46C255.478 250.64 254.596 250.467 253.856 249.941C253.114 249.41 252.654 248.635 252.474 247.616C252.274 246.48 252.45 245.51 253.002 244.705C253.558 243.894 254.401 243.389 255.532 243.189C256.16 243.079 256.734 243.091 257.253 243.226L257.509 244.68C256.966 244.406 256.423 244.317 255.88 244.412C255.22 244.529 254.719 244.848 254.376 245.372C254.032 245.89 253.924 246.511 254.052 247.234C254.177 247.947 254.474 248.476 254.942 248.819C255.414 249.161 255.985 249.274 256.653 249.156C257.214 249.057 257.709 248.764 258.137 248.276L258.376 249.636ZM263.69 243.202L261.725 243.548L262.72 249.197L261.152 249.473L260.156 243.825L258.177 244.174L257.957 242.928L263.471 241.956L263.69 243.202ZM272.186 247.528L270.772 247.777L269.881 242.721C269.822 242.916 269.729 243.19 269.602 243.541L267.46 248.361L265.925 248.631L264.709 241.738L266.143 241.485L267.017 246.44C267.046 246.314 267.116 246.094 267.227 245.778L269.402 240.91L270.97 240.634L272.186 247.528Z" fill="#565656"/>
<path d="M296.753 243.196L295.609 243.397L294.092 234.794L289.049 235.683L290.566 244.286L289.429 244.487L287.726 234.833L295.051 233.542L296.753 243.196ZM302.019 242.434C301 242.613 300.129 242.436 299.406 241.902C298.686 241.362 298.232 240.561 298.045 239.497C297.84 238.339 297.997 237.379 298.515 236.617C299.033 235.854 299.831 235.378 300.908 235.188C301.936 235.007 302.793 235.182 303.479 235.714C304.169 236.245 304.614 237.071 304.812 238.193C305.005 239.292 304.849 240.229 304.342 241.004C303.839 241.773 303.065 242.249 302.019 242.434ZM300.991 236.132C300.282 236.257 299.764 236.598 299.436 237.155C299.108 237.708 299.019 238.409 299.168 239.257C299.312 240.074 299.635 240.681 300.135 241.079C300.636 241.477 301.236 241.614 301.936 241.49C302.65 241.365 303.157 241.037 303.456 240.507C303.761 239.977 303.838 239.285 303.688 238.433C303.536 237.571 303.226 236.941 302.757 236.542C302.294 236.143 301.705 236.006 300.991 236.132ZM308.143 240.16L308.116 240.165L308.851 244.332L307.747 244.526L305.972 234.462L307.076 234.267L307.29 235.479L307.317 235.474C307.699 234.463 308.412 233.865 309.458 233.681C310.347 233.524 311.095 233.711 311.702 234.243C312.309 234.77 312.703 235.552 312.886 236.589C313.089 237.742 312.972 238.716 312.534 239.511C312.094 240.301 311.388 240.782 310.414 240.953C309.521 241.111 308.764 240.846 308.143 240.16ZM307.626 237.384L307.796 238.347C307.896 238.917 308.166 239.369 308.604 239.704C309.046 240.033 309.552 240.147 310.122 240.047C310.791 239.929 311.269 239.581 311.556 239.003C311.847 238.424 311.912 237.679 311.752 236.768C311.616 236 311.333 235.43 310.902 235.057C310.47 234.685 309.952 234.552 309.346 234.658C308.704 234.772 308.227 235.087 307.916 235.605C307.604 236.118 307.507 236.711 307.626 237.384ZM318.573 233.212L316.506 233.576L317.555 239.528L316.451 239.722L315.402 233.771L313.328 234.137L313.162 233.194L318.406 232.27L318.573 233.212ZM325.083 238.367L325.627 241.45L324.631 241.626L324.087 238.542L323.871 238.58C322.866 238.758 321.996 238.576 321.262 238.034C320.528 237.492 320.069 236.697 319.883 235.646C319.686 234.529 319.841 233.581 320.347 232.802C320.856 232.018 321.625 231.535 322.653 231.354L322.814 231.326L322.328 228.566L323.324 228.39L323.811 231.15L323.959 231.124C324.996 230.941 325.885 231.129 326.627 231.688C327.372 232.241 327.844 233.081 328.043 234.208C328.228 235.258 328.07 236.163 327.57 236.922C327.07 237.681 326.32 238.149 325.319 238.325L325.083 238.367ZM323.975 232.079L324.919 237.438L325.068 237.412C325.768 237.288 326.285 236.954 326.619 236.409C326.953 235.86 327.048 235.179 326.905 234.367C326.754 233.514 326.43 232.884 325.933 232.476C325.44 232.068 324.847 231.925 324.156 232.047L323.975 232.079ZM323.923 237.613L322.978 232.255L322.817 232.283C322.125 232.405 321.614 232.745 321.282 233.303C320.949 233.857 320.858 234.558 321.007 235.407C321.149 236.21 321.471 236.815 321.973 237.222C322.479 237.623 323.084 237.761 323.788 237.637L323.923 237.613ZM333.323 236.914C332.305 237.093 331.433 236.916 330.71 236.382C329.99 235.843 329.536 235.041 329.349 233.977C329.145 232.819 329.302 231.859 329.82 231.097C330.338 230.335 331.135 229.858 332.212 229.669C333.24 229.487 334.097 229.662 334.783 230.194C335.474 230.725 335.918 231.551 336.116 232.673C336.31 233.773 336.153 234.71 335.646 235.484C335.143 236.253 334.369 236.729 333.323 236.914ZM332.295 230.612C331.586 230.737 331.068 231.078 330.741 231.636C330.412 232.189 330.323 232.889 330.473 233.738C330.617 234.554 330.939 235.162 331.439 235.559C331.94 235.957 332.54 236.094 333.24 235.971C333.954 235.845 334.461 235.517 334.761 234.988C335.065 234.457 335.142 233.766 334.992 232.913C334.84 232.051 334.53 231.421 334.062 231.022C333.598 230.623 333.009 230.486 332.295 230.612ZM343.521 234.949L342.424 235.143L341.373 229.185L339.771 229.467C339.98 231.73 339.94 233.352 339.65 234.334C339.365 235.314 338.845 235.871 338.091 236.004C337.862 236.044 337.659 236.047 337.482 236.014L337.315 235.065C337.486 235.118 337.664 235.128 337.848 235.096C338.835 234.922 339.114 232.788 338.683 228.694L342.305 228.055L343.521 234.949ZM351.539 233.535L350.542 233.711L349.573 228.211C349.508 228.421 349.405 228.719 349.265 229.105L346.907 234.352L345.763 234.554L344.547 227.66L345.557 227.482L346.515 232.915C346.546 232.775 346.623 232.533 346.747 232.187L349.179 226.844L350.323 226.642L351.539 233.535ZM356.684 232.795C355.665 232.974 354.794 232.797 354.07 232.263C353.35 231.724 352.897 230.922 352.709 229.858C352.505 228.7 352.662 227.74 353.18 226.978C353.698 226.216 354.496 225.739 355.573 225.549C356.6 225.368 357.457 225.543 358.143 226.075C358.834 226.606 359.278 227.432 359.476 228.554C359.67 229.654 359.513 230.591 359.007 231.365C358.504 232.134 357.729 232.61 356.684 232.795ZM355.656 226.493C354.947 226.618 354.428 226.959 354.101 227.517C353.773 228.07 353.683 228.77 353.833 229.619C353.977 230.435 354.299 231.043 354.8 231.44C355.3 231.838 355.901 231.975 356.601 231.852C357.314 231.726 357.821 231.398 358.121 230.868C358.425 230.338 358.503 229.647 358.352 228.794C358.2 227.932 357.89 227.302 357.422 226.903C356.958 226.504 356.369 226.367 355.656 226.493Z" fill="#808080"/>
<path d="M386.919 227.297L385.795 227.495L384.653 221.019C384.562 220.507 384.483 219.876 384.416 219.124L384.389 219.129C384.358 219.583 384.316 219.912 384.264 220.116L382.274 228.116L381.722 228.213L377.131 221.429C376.999 221.23 376.844 220.917 376.667 220.49L376.64 220.495C376.744 220.875 376.873 221.502 377.028 222.377L378.167 228.84L377.077 229.032L375.374 219.379L376.869 219.115L381.018 225.325C381.338 225.801 381.554 226.161 381.666 226.405L381.707 226.397C381.806 225.834 381.892 225.412 381.962 225.131L383.803 217.892L385.217 217.643L386.919 227.297ZM394.25 226.004L393.146 226.199L392.956 225.122L392.929 225.127C392.595 226.037 391.96 226.575 391.027 226.739C390.34 226.86 389.77 226.774 389.315 226.479C388.865 226.183 388.587 225.735 388.481 225.134C388.254 223.845 388.88 222.962 390.36 222.484L392.376 221.83C392.169 220.658 391.592 220.156 390.645 220.323C389.815 220.47 389.115 220.885 388.546 221.568L388.347 220.437C388.949 219.887 389.692 219.534 390.576 219.378C392.196 219.092 393.157 219.806 393.46 221.521L394.25 226.004ZM392.531 222.712L390.909 223.234C390.41 223.396 390.046 223.592 389.818 223.822C389.59 224.047 389.516 224.391 389.598 224.853C389.657 225.19 389.825 225.445 390.101 225.618C390.38 225.787 390.72 225.836 391.119 225.765C391.667 225.669 392.084 225.398 392.371 224.954C392.662 224.505 392.756 223.986 392.652 223.398L392.531 222.712ZM399.61 218.923L397.543 219.288L398.592 225.239L397.488 225.433L396.439 219.482L394.365 219.848L394.199 218.905L399.443 217.981L399.61 218.923ZM406.967 220.493L402.099 221.351C402.253 222.115 402.564 222.671 403.032 223.019C403.501 223.367 404.08 223.48 404.772 223.358C405.548 223.221 406.217 222.839 406.777 222.213L406.96 223.25C406.432 223.796 405.669 224.157 404.673 224.333C403.699 224.505 402.879 224.328 402.212 223.802C401.545 223.272 401.111 222.439 400.911 221.304C400.722 220.231 400.871 219.305 401.358 218.525C401.849 217.739 402.545 217.267 403.448 217.108C404.35 216.949 405.099 217.118 405.696 217.614C406.292 218.11 406.682 218.877 406.865 219.914L406.967 220.493ZM405.671 219.756C405.554 219.12 405.312 218.651 404.944 218.35C404.581 218.049 404.13 217.946 403.591 218.041C403.071 218.132 402.661 218.397 402.363 218.833C402.066 219.27 401.927 219.796 401.948 220.413L405.671 219.756ZM410.157 222.172L410.13 222.177L410.865 226.344L409.761 226.539L407.987 216.474L409.091 216.28L409.304 217.491L409.331 217.487C409.713 216.475 410.426 215.877 411.472 215.693C412.361 215.536 413.109 215.724 413.716 216.255C414.323 216.782 414.717 217.564 414.9 218.601C415.104 219.754 414.986 220.728 414.548 221.523C414.109 222.313 413.402 222.794 412.428 222.966C411.535 223.123 410.778 222.859 410.157 222.172ZM409.64 219.397L409.81 220.359C409.91 220.929 410.18 221.381 410.618 221.716C411.061 222.045 411.567 222.16 412.137 222.059C412.805 221.941 413.283 221.593 413.57 221.015C413.861 220.436 413.926 219.691 413.766 218.78C413.63 218.013 413.347 217.443 412.916 217.07C412.484 216.697 411.966 216.564 411.36 216.671C410.718 216.784 410.242 217.099 409.93 217.617C409.618 218.13 409.521 218.723 409.64 219.397ZM423.084 220.92L422.087 221.096L421.117 215.596C421.053 215.806 420.95 216.104 420.81 216.49L418.452 221.737L417.307 221.939L416.092 215.045L417.102 214.867L418.06 220.3C418.091 220.16 418.168 219.917 418.292 219.572L420.724 214.228L421.868 214.027L423.084 220.92ZM430.253 219.656L429.149 219.851L428.959 218.774L428.932 218.778C428.598 219.689 427.964 220.226 427.03 220.391C426.343 220.512 425.773 220.425 425.318 220.13C424.868 219.835 424.59 219.387 424.484 218.785C424.257 217.497 424.883 216.614 426.363 216.135L428.379 215.482C428.172 214.31 427.596 213.808 426.649 213.975C425.818 214.121 425.119 214.536 424.55 215.22L424.35 214.089C424.952 213.538 425.695 213.185 426.579 213.029C428.199 212.744 429.16 213.458 429.463 215.172L430.253 219.656ZM428.534 216.363L426.912 216.886C426.413 217.048 426.049 217.244 425.822 217.473C425.593 217.699 425.519 218.043 425.601 218.505C425.66 218.842 425.828 219.097 426.104 219.27C426.383 219.438 426.723 219.487 427.122 219.417C427.67 219.32 428.087 219.05 428.374 218.606C428.665 218.157 428.759 217.638 428.655 217.05L428.534 216.363ZM437.362 218.402L436.265 218.596L435.214 212.638L433.612 212.921C433.822 215.184 433.781 216.806 433.492 217.787C433.206 218.767 432.687 219.324 431.933 219.457C431.704 219.497 431.501 219.501 431.324 219.467L431.156 218.518C431.328 218.571 431.505 218.581 431.689 218.549C432.677 218.375 432.955 216.241 432.525 212.147L436.147 211.509L437.362 218.402ZM447.144 216.678L446.053 216.87L444.838 209.976L445.929 209.784L447.144 216.678ZM439.604 218.007L438.389 211.114L439.493 210.919L439.959 213.565L441.817 213.237C442.522 213.113 443.113 213.198 443.591 213.493C444.073 213.788 444.372 214.265 444.489 214.925C444.606 215.589 444.49 216.151 444.14 216.61C443.791 217.07 443.298 217.356 442.661 217.468L439.604 218.007ZM440.127 214.514L440.542 216.87L442.198 216.578C443.114 216.417 443.5 215.932 443.358 215.124C443.223 214.361 442.694 214.061 441.769 214.224L440.127 214.514Z" fill="#808080"/>
<path d="M471.443 212.393L469.868 212.671L465.359 208.912C465.191 208.771 465.086 208.674 465.044 208.621L465.017 208.626L465.855 213.378L464.724 213.578L463.022 203.924L464.153 203.725L464.953 208.262L464.98 208.257C465.025 208.148 465.091 208.023 465.178 207.882L468.044 203.039L469.451 202.79L466.128 208.152L471.443 212.393ZM477.508 211.324L476.404 211.518L476.214 210.441L476.188 210.446C475.853 211.356 475.219 211.894 474.285 212.059C473.599 212.18 473.028 212.093 472.574 211.798C472.123 211.503 471.845 211.054 471.739 210.453C471.512 209.165 472.139 208.282 473.618 207.803L475.634 207.149C475.427 205.978 474.851 205.476 473.904 205.643C473.073 205.789 472.374 206.204 471.805 206.887L471.605 205.756C472.207 205.206 472.95 204.853 473.834 204.697C475.454 204.411 476.416 205.126 476.718 206.84L477.508 211.324ZM475.79 208.031L474.167 208.553C473.668 208.715 473.305 208.911 473.077 209.141C472.848 209.367 472.775 209.71 472.856 210.173C472.915 210.509 473.083 210.764 473.359 210.938C473.638 211.106 473.978 211.155 474.377 211.084C474.925 210.988 475.342 210.718 475.63 210.274C475.921 209.824 476.014 209.306 475.911 208.718L475.79 208.031ZM484.618 210.07L483.52 210.264L482.47 204.306L480.867 204.588C481.077 206.851 481.037 208.473 480.747 209.455C480.462 210.435 479.942 210.992 479.188 211.125C478.959 211.165 478.756 211.168 478.579 211.135L478.411 210.186C478.583 210.239 478.76 210.249 478.945 210.217C479.932 210.043 480.21 207.909 479.78 203.815L483.402 203.177L484.618 210.07ZM491.841 205.527L486.973 206.385C487.127 207.15 487.438 207.706 487.906 208.053C488.375 208.401 488.955 208.514 489.646 208.392C490.422 208.255 491.091 207.874 491.651 207.247L491.834 208.284C491.306 208.831 490.543 209.192 489.547 209.368C488.573 209.539 487.753 209.362 487.086 208.837C486.419 208.306 485.985 207.474 485.785 206.338C485.596 205.265 485.745 204.339 486.232 203.559C486.723 202.774 487.42 202.302 488.322 202.142C489.224 201.983 489.973 202.152 490.57 202.648C491.166 203.145 491.556 203.911 491.739 204.948L491.841 205.527ZM490.545 204.791C490.428 204.154 490.186 203.686 489.818 203.385C489.455 203.083 489.004 202.98 488.465 203.075C487.945 203.167 487.535 203.431 487.238 203.868C486.94 204.304 486.801 204.831 486.822 205.447L490.545 204.791ZM499.798 207.393L498.694 207.588L498.142 204.458L494.628 205.077L495.18 208.208L494.076 208.402L492.861 201.509L493.965 201.314L494.463 204.142L497.977 203.522L497.479 200.694L498.583 200.5L499.798 207.393ZM508.488 208.45L507.552 208.615L507.109 206.104L501.98 207.009L502.422 209.52L501.48 209.686L500.872 206.239L501.485 206.131C502.361 204.227 502.608 202.136 502.225 199.858L505.806 199.226L506.857 205.184L507.88 205.003L508.488 208.45ZM505.753 205.379L504.867 200.356L503.339 200.626C503.546 202.505 503.318 204.272 502.656 205.925L505.753 205.379ZM514.508 204.8L513.404 204.994L513.214 203.917L513.187 203.922C512.852 204.832 512.218 205.37 511.285 205.535C510.598 205.656 510.028 205.569 509.573 205.274C509.123 204.979 508.845 204.53 508.739 203.929C508.512 202.641 509.138 201.758 510.618 201.279L512.634 200.625C512.427 199.454 511.85 198.952 510.903 199.119C510.073 199.265 509.373 199.68 508.804 200.363L508.605 199.232C509.207 198.682 509.95 198.329 510.834 198.173C512.454 197.887 513.415 198.602 513.717 200.316L514.508 204.8ZM512.789 201.507L511.167 202.029C510.668 202.191 510.304 202.387 510.076 202.617C509.848 202.843 509.774 203.186 509.856 203.649C509.915 203.985 510.083 204.24 510.358 204.414C510.638 204.582 510.977 204.631 511.377 204.56C511.924 204.464 512.342 204.194 512.629 203.75C512.92 203.3 513.014 202.782 512.91 202.194L512.789 201.507ZM517.544 203.237L517.517 203.242L518.251 207.409L517.147 207.604L515.373 197.539L516.477 197.345L516.69 198.556L516.717 198.552C517.099 197.54 517.813 196.942 518.858 196.758C519.747 196.601 520.495 196.789 521.102 197.32C521.709 197.847 522.104 198.629 522.286 199.666C522.49 200.819 522.372 201.793 521.934 202.588C521.495 203.378 520.788 203.859 519.814 204.031C518.921 204.188 518.164 203.924 517.544 203.237ZM517.026 200.461L517.196 201.424C517.297 201.994 517.566 202.446 518.005 202.781C518.447 203.11 518.953 203.225 519.523 203.124C520.191 203.006 520.669 202.658 520.956 202.08C521.247 201.501 521.313 200.756 521.152 199.845C521.017 199.078 520.733 198.508 520.302 198.135C519.871 197.762 519.352 197.629 518.746 197.736C518.104 197.849 517.628 198.164 517.316 198.682C517.004 199.195 516.908 199.788 517.026 200.461ZM524.694 203.004L523.478 196.11L524.582 195.915L525.049 198.561L526.907 198.233C527.611 198.109 528.203 198.195 528.68 198.49C529.163 198.784 529.462 199.261 529.578 199.921C529.695 200.585 529.579 201.147 529.23 201.607C528.881 202.066 528.387 202.352 527.75 202.465L524.694 203.004ZM525.216 199.51L525.632 201.867L527.288 201.574C528.203 201.413 528.59 200.928 528.447 200.121C528.313 199.358 527.783 199.058 526.859 199.221L525.216 199.51Z" fill="#808080"/>
</g>
<g filter="url(#filter21_dd_1037_11578)">
<rect x="421.906" y="241.62" width="226" height="80" rx="10" transform="rotate(-10 421.906 241.62)" fill="white" fill-opacity="0.8"/>
</g>
<g filter="url(#filter22_dd_1037_11578)">
<rect x="437.535" y="330.252" width="226" height="103" rx="10" transform="rotate(-10 437.535 330.252)" fill="white" fill-opacity="0.8"/>
</g>
<g filter="url(#filter23_dd_1037_11578)">
<rect x="456.936" y="365.418" width="49" height="16" rx="8" transform="rotate(-10 456.936 365.418)" fill="white" fill-opacity="0.9"/>
</g>
<g filter="url(#filter24_dd_1037_11578)">
<rect x="516.024" y="354.999" width="94" height="16" rx="8" transform="rotate(-10 516.024 354.999)" fill="white" fill-opacity="0.9"/>
</g>
<g filter="url(#filter25_dd_1037_11578)">
<rect x="631.651" y="342.734" width="25" height="16" rx="8" transform="rotate(-10 631.651 342.734)" fill="white" fill-opacity="0.9"/>
</g>
<g filter="url(#filter26_dd_1037_11578)">
<rect x="460.756" y="387.083" width="49" height="16" rx="8" transform="rotate(-10 460.756 387.083)" fill="white" fill-opacity="0.9"/>
</g>
<g filter="url(#filter27_dd_1037_11578)">
<rect x="519.845" y="376.665" width="94" height="16" rx="8" transform="rotate(-10 519.845 376.665)" fill="white" fill-opacity="0.9"/>
</g>
<g filter="url(#filter28_dd_1037_11578)">
<rect x="635.472" y="364.4" width="25" height="16" rx="8" transform="rotate(-10 635.472 364.4)" fill="white" fill-opacity="0.9"/>
</g>
<path d="M440.242 263.772L438.54 254.119L441.603 253.578C442.536 253.414 443.31 253.488 443.925 253.801C444.545 254.112 444.913 254.596 445.028 255.251C445.125 255.799 445.054 256.302 444.815 256.76C444.577 257.219 444.199 257.582 443.681 257.849L443.686 257.876C444.364 257.835 444.937 257.988 445.405 258.336C445.878 258.679 446.172 259.182 446.29 259.846C446.435 260.672 446.228 261.398 445.667 262.024C445.107 262.651 444.33 263.051 443.339 263.226L440.242 263.772ZM440.362 255.123L440.846 257.87L441.883 257.687C442.439 257.589 442.852 257.382 443.12 257.066C443.392 256.745 443.486 256.345 443.401 255.864C443.255 255.039 442.63 254.723 441.526 254.918L440.362 255.123ZM441.073 259.156L441.612 262.212L442.978 261.971C443.575 261.866 444.011 261.648 444.286 261.317C444.565 260.981 444.661 260.571 444.576 260.086C444.399 259.085 443.618 258.707 442.231 258.951L441.073 259.156ZM456.796 260.853L455.234 261.129L454.019 254.235L455.58 253.96L456.796 260.853ZM448.401 262.334L447.185 255.44L448.747 255.165L449.196 257.709L451.081 257.377C451.795 257.251 452.396 257.34 452.884 257.642C453.372 257.94 453.674 258.424 453.792 259.092C453.913 259.779 453.789 260.361 453.42 260.838C453.054 261.31 452.539 261.604 451.875 261.721L448.401 262.334ZM449.394 258.834L449.765 260.934L451.192 260.682C451.982 260.543 452.313 260.112 452.186 259.39C452.066 258.712 451.607 258.443 450.808 258.584L449.394 258.834ZM465.097 259.39L463.683 259.639L462.791 254.583C462.733 254.779 462.64 255.052 462.512 255.403L460.371 260.223L458.836 260.494L457.62 253.6L459.054 253.347L459.928 258.302C459.957 258.177 460.026 257.956 460.137 257.64L462.312 252.773L463.881 252.496L465.097 259.39ZM470.281 252.652L467.716 253.104L468.712 258.752L467.143 259.029L465.928 252.135L470.061 251.406L470.281 252.652ZM474.006 256.771L473.979 256.775L474.717 260.963L473.155 261.238L471.381 251.174L472.942 250.898L473.156 252.11L473.183 252.105C473.556 251.096 474.256 250.5 475.284 250.319C476.159 250.165 476.895 250.352 477.493 250.88C478.09 251.409 478.481 252.192 478.663 253.228C478.866 254.377 478.752 255.346 478.322 256.135C477.892 256.923 477.199 257.402 476.243 257.57C475.363 257.725 474.618 257.459 474.006 256.771ZM473.486 254.058L473.636 254.913C473.725 255.416 473.96 255.814 474.34 256.108C474.725 256.401 475.164 256.504 475.658 256.417C476.237 256.315 476.65 256.01 476.899 255.504C477.151 254.992 477.206 254.332 477.064 253.524C476.944 252.847 476.696 252.344 476.319 252.018C475.946 251.685 475.497 251.566 474.971 251.658C474.415 251.756 474.001 252.033 473.729 252.488C473.462 252.942 473.381 253.466 473.486 254.058ZM486.033 255.698L484.519 255.965L484.329 254.888L484.302 254.893C483.972 255.802 483.347 256.338 482.427 256.501C481.749 256.62 481.185 256.53 480.734 256.23C480.287 255.929 480.011 255.476 479.904 254.87C479.674 253.568 480.29 252.678 481.751 252.198L483.747 251.548C483.573 250.565 483.02 250.156 482.086 250.32C481.265 250.465 480.574 250.878 480.014 251.56L479.773 250.194C480.425 249.635 481.226 249.271 482.177 249.103C483.919 248.796 484.941 249.5 485.243 251.214L486.033 255.698ZM483.928 252.578L482.517 253.035C482.078 253.172 481.759 253.342 481.558 253.544C481.361 253.741 481.298 254.039 481.369 254.438C481.42 254.73 481.566 254.952 481.805 255.104C482.049 255.251 482.346 255.293 482.696 255.231C483.171 255.148 483.535 254.912 483.786 254.526C484.041 254.134 484.123 253.684 484.034 253.177L483.928 252.578ZM494.085 254.278L492.516 254.555L491.985 251.539L488.982 252.068L489.514 255.084L487.945 255.361L486.73 248.467L488.298 248.191L488.776 250.897L491.778 250.368L491.301 247.661L492.869 247.385L494.085 254.278ZM502.258 252.837L500.689 253.114L500.157 250.098L497.155 250.627L497.687 253.643L496.118 253.92L494.903 247.026L496.471 246.75L496.948 249.456L499.951 248.926L499.474 246.22L501.042 245.944L502.258 252.837ZM512.686 250.999L511.124 251.274L509.908 244.38L511.47 244.105L512.686 250.999ZM504.291 252.479L503.075 245.585L504.637 245.31L505.086 247.854L506.971 247.522C507.684 247.396 508.285 247.485 508.774 247.787C509.261 248.085 509.564 248.569 509.682 249.238C509.803 249.924 509.679 250.506 509.309 250.983C508.944 251.455 508.429 251.749 507.765 251.866L504.291 252.479ZM505.284 248.979L505.654 251.079L507.082 250.827C507.871 250.688 508.203 250.257 508.075 249.535C507.956 248.857 507.497 248.589 506.698 248.729L505.284 248.979ZM520.029 246.587L515.33 247.416C515.461 248.05 515.742 248.507 516.176 248.787C516.614 249.066 517.16 249.147 517.816 249.032C518.552 248.902 519.188 248.563 519.726 248.015L519.948 249.274C519.389 249.78 518.594 250.123 517.561 250.305C516.547 250.484 515.695 250.313 515.006 249.791C514.321 249.264 513.878 248.433 513.678 247.297C513.489 246.225 513.652 245.296 514.166 244.511C514.683 243.721 515.414 243.243 516.356 243.077C517.299 242.911 518.081 243.085 518.704 243.6C519.327 244.115 519.734 244.911 519.924 245.988L520.029 246.587ZM518.327 245.749C518.223 245.189 518.014 244.777 517.699 244.513C517.383 244.245 516.997 244.151 516.539 244.232C516.09 244.311 515.737 244.542 515.481 244.925C515.229 245.307 515.114 245.769 515.136 246.311L518.327 245.749ZM528.932 248.3C527.868 248.488 526.961 248.317 526.211 247.788C525.464 247.253 524.997 246.454 524.809 245.39C524.605 244.232 524.775 243.27 525.32 242.503C525.87 241.735 526.706 241.252 527.828 241.054C528.905 240.864 529.8 241.033 530.513 241.559C531.226 242.086 531.681 242.91 531.879 244.032C532.073 245.132 531.903 246.071 531.369 246.85C530.839 247.624 530.027 248.107 528.932 248.3ZM527.953 242.316C527.343 242.424 526.898 242.722 526.618 243.211C526.339 243.7 526.265 244.319 526.397 245.068C526.525 245.791 526.805 246.329 527.238 246.683C527.669 247.033 528.186 247.155 528.787 247.049C529.402 246.94 529.838 246.653 530.093 246.187C530.353 245.72 530.417 245.109 530.284 244.355C530.15 243.597 529.881 243.04 529.476 242.686C529.075 242.331 528.568 242.208 527.953 242.316ZM539.789 246.219L538.22 246.496L537.215 240.794L535.808 241.042C535.986 243.209 535.912 244.767 535.584 245.718C535.261 246.664 534.695 247.208 533.887 247.35C533.618 247.398 533.38 247.4 533.173 247.358L532.968 246.194C533.139 246.242 533.314 246.251 533.493 246.219C534.458 246.049 534.736 244.001 534.326 240.075L538.574 239.326L539.789 246.219ZM548.09 244.756L546.676 245.005L545.785 239.949C545.726 240.145 545.633 240.418 545.506 240.769L543.364 245.589L541.829 245.86L540.613 238.966L542.047 238.713L542.921 243.668C542.95 243.543 543.02 243.322 543.131 243.006L545.306 238.139L546.874 237.862L548.09 244.756ZM558.248 242.965L556.754 243.228L555.781 237.708C555.74 238.002 555.675 238.437 555.587 239.012L554.788 243.575L553.401 243.819L551.061 239.796C550.934 239.578 550.725 239.192 550.433 238.637L551.409 244.171L550.136 244.395L548.921 237.501L550.954 237.143L553.286 241.119C553.453 241.408 553.672 241.812 553.944 242.328L554.153 240.994L554.946 236.439L557.033 236.071L558.248 242.965ZM566.428 241.522L564.859 241.799L563.854 236.097L560.851 236.626L561.857 242.328L560.288 242.605L559.073 235.711L565.212 234.629L566.428 241.522ZM574.722 240.06L573.308 240.309L572.417 235.253C572.359 235.449 572.266 235.722 572.138 236.073L569.996 240.893L568.461 241.164L567.245 234.27L568.679 234.017L569.553 238.972C569.582 238.847 569.652 238.626 569.763 238.31L571.938 233.443L573.506 233.166L574.722 240.06ZM582.06 238.766L580.545 239.033L580.355 237.956L580.328 237.961C579.998 238.87 579.373 239.406 578.453 239.569C577.775 239.688 577.211 239.598 576.76 239.298C576.314 238.997 576.037 238.544 575.93 237.938C575.701 236.636 576.317 235.746 577.778 235.266L579.773 234.616C579.6 233.633 579.046 233.224 578.113 233.388C577.292 233.533 576.601 233.946 576.041 234.628L575.8 233.262C576.451 232.703 577.252 232.339 578.204 232.171C579.945 231.864 580.967 232.568 581.269 234.282L582.06 238.766ZM579.955 235.646L578.543 236.103C578.104 236.24 577.785 236.41 577.585 236.612C577.388 236.809 577.325 237.107 577.395 237.506C577.447 237.798 577.592 238.02 577.832 238.172C578.075 238.319 578.372 238.361 578.722 238.299C579.198 238.216 579.561 237.98 579.812 237.594C580.067 237.202 580.15 236.752 580.06 236.245L579.955 235.646ZM591.012 239.777L589.713 240.006L589.27 237.495L584.362 238.36L584.805 240.871L583.519 241.098L582.866 237.395L583.479 237.287C584.292 235.469 584.516 233.469 584.15 231.289L588.297 230.558L589.302 236.26L590.359 236.074L591.012 239.777ZM587.74 236.536L586.944 232.019L585.631 232.25C585.818 233.939 585.625 235.525 585.054 237.009L587.74 236.536ZM600.364 235.538L598.803 235.814L597.587 228.92L599.149 228.645L600.364 235.538ZM591.969 237.019L590.754 230.125L592.316 229.85L592.764 232.394L594.649 232.062C595.363 231.936 595.964 232.025 596.452 232.327C596.94 232.625 597.243 233.109 597.361 233.777C597.482 234.464 597.358 235.046 596.988 235.523C596.622 235.995 596.107 236.289 595.443 236.406L591.969 237.019ZM592.963 233.519L593.333 235.619L594.76 235.367C595.55 235.228 595.881 234.797 595.754 234.075C595.634 233.397 595.175 233.128 594.376 233.269L592.963 233.519Z" fill="#808080"/>
<path d="M463.107 351.129L461.505 351.411L460.046 343.138L457.703 343.551C457.786 345.938 457.819 347.63 457.8 348.629C457.781 349.622 457.716 350.365 457.603 350.857C457.49 351.344 457.287 351.729 456.995 352.012C456.702 352.291 456.324 352.471 455.861 352.552C455.466 352.622 455.114 352.631 454.804 352.579L454.563 351.212C454.798 351.287 455.048 351.3 455.313 351.254C455.587 351.205 455.815 351.001 455.996 350.64C456.178 350.28 456.274 349.409 456.285 348.028C456.3 346.642 456.254 344.766 456.147 342.402L461.405 341.475L463.107 351.129ZM471.596 349.632L470.183 349.881L469.291 344.825C469.233 345.021 469.14 345.294 469.012 345.645L466.87 350.465L465.335 350.736L464.12 343.842L465.554 343.589L466.428 348.544C466.456 348.419 466.526 348.198 466.637 347.883L468.812 343.015L470.381 342.738L471.596 349.632ZM479.614 348.218L478.052 348.494L477.594 345.895C476.884 346.46 476.199 346.8 475.539 346.917C473.986 347.191 473.061 346.484 472.764 344.796L472.34 342.393L473.868 342.123L474.254 344.311C474.426 345.285 474.893 345.705 475.656 345.57C476.221 345.471 476.8 345.195 477.391 344.744L476.837 341.6L478.399 341.325L479.614 348.218ZM487.794 346.776L486.225 347.053L485.693 344.037L482.691 344.566L483.223 347.582L481.654 347.859L480.439 340.965L482.007 340.688L482.484 343.395L485.487 342.865L485.01 340.159L486.578 339.882L487.794 346.776ZM498.222 344.937L496.66 345.213L495.444 338.319L497.006 338.044L498.222 344.937ZM489.827 346.417L488.611 339.524L490.173 339.248L490.622 341.793L492.507 341.461C493.22 341.335 493.821 341.423 494.31 341.726C494.797 342.024 495.1 342.507 495.218 343.176C495.339 343.863 495.215 344.445 494.845 344.922C494.48 345.393 493.965 345.688 493.301 345.805L489.827 346.417ZM490.82 342.917L491.19 345.018L492.618 344.766C493.407 344.627 493.739 344.196 493.611 343.473C493.492 342.796 493.033 342.527 492.234 342.668L490.82 342.917ZM505.565 340.526L500.866 341.354C500.997 341.988 501.278 342.445 501.712 342.725C502.15 343.004 502.696 343.086 503.352 342.971C504.088 342.841 504.724 342.502 505.262 341.954L505.484 343.212C504.925 343.718 504.13 344.062 503.097 344.244C502.083 344.423 501.231 344.251 500.542 343.73C499.857 343.203 499.414 342.371 499.214 341.236C499.025 340.163 499.188 339.235 499.702 338.45C500.219 337.66 500.95 337.182 501.892 337.015C502.835 336.849 503.617 337.024 504.24 337.538C504.863 338.053 505.27 338.849 505.46 339.926L505.565 340.526ZM503.863 339.687C503.759 339.127 503.55 338.715 503.235 338.451C502.919 338.183 502.533 338.089 502.075 338.17C501.626 338.249 501.273 338.48 501.017 338.863C500.765 339.246 500.65 339.708 500.672 340.25L503.863 339.687ZM518.423 343.964L517.124 344.193L516.681 341.682L511.773 342.548L512.216 345.059L510.93 345.285L510.277 341.583L510.89 341.475C511.703 339.656 511.927 337.657 511.561 335.477L515.708 334.746L516.713 340.448L517.77 340.262L518.423 343.964ZM515.151 340.723L514.355 336.206L513.042 336.438C513.229 338.126 513.037 339.713 512.465 341.197L515.151 340.723ZM522.465 340.829C521.402 341.017 520.495 340.846 519.744 340.316C518.998 339.781 518.53 338.982 518.343 337.919C518.139 336.761 518.309 335.798 518.854 335.031C519.404 334.263 520.239 333.78 521.361 333.582C522.438 333.393 523.333 333.561 524.046 334.088C524.759 334.615 525.215 335.439 525.413 336.561C525.607 337.661 525.437 338.6 524.903 339.379C524.373 340.152 523.561 340.636 522.465 340.829ZM521.487 334.845C520.876 334.952 520.431 335.25 520.152 335.739C519.873 336.228 519.799 336.847 519.931 337.597C520.059 338.319 520.339 338.858 520.771 339.212C521.203 339.561 521.72 339.683 522.321 339.577C522.936 339.469 523.371 339.181 523.627 338.715C523.887 338.248 523.951 337.638 523.818 336.884C523.684 336.125 523.415 335.569 523.01 335.215C522.609 334.859 522.102 334.736 521.487 334.845ZM532.5 338.567C532.004 338.983 531.379 339.257 530.625 339.39C529.602 339.571 528.72 339.398 527.979 338.871C527.237 338.34 526.777 337.565 526.597 336.546C526.397 335.411 526.573 334.441 527.125 333.635C527.681 332.825 528.524 332.319 529.655 332.12C530.284 332.009 530.857 332.021 531.376 332.157L531.633 333.611C531.089 333.336 530.546 333.247 530.003 333.343C529.343 333.459 528.842 333.779 528.499 334.302C528.155 334.821 528.047 335.442 528.175 336.164C528.301 336.878 528.597 337.406 529.065 337.749C529.537 338.092 530.108 338.204 530.777 338.086C531.338 337.987 531.832 337.694 532.26 337.207L532.5 338.567ZM537.814 332.132L535.848 332.479L536.844 338.127L535.275 338.404L534.279 332.755L532.3 333.104L532.08 331.859L537.594 330.887L537.814 332.132ZM546.309 336.458L544.895 336.707L544.004 331.652C543.946 331.847 543.853 332.12 543.725 332.471L541.583 337.291L540.048 337.562L538.833 330.668L540.267 330.416L541.14 335.37C541.169 335.245 541.239 335.024 541.35 334.709L543.525 329.841L545.093 329.564L546.309 336.458ZM558.231 334.356L556.279 334.7L552.982 331.748L552.955 331.753L553.559 335.18L552.038 335.448L551.434 332.021L551.414 332.025L549.318 335.928L547.379 336.269L549.804 332.149L546.305 329.351L548.204 329.016L551.368 331.804L551.395 331.799L550.822 328.554L552.344 328.286L552.916 331.531L552.943 331.526L554.963 327.824L556.861 327.489L554.523 331.317L558.231 334.356ZM564.323 330.165L559.624 330.994C559.754 331.628 560.036 332.085 560.47 332.365C560.907 332.644 561.454 332.726 562.109 332.61C562.845 332.48 563.482 332.141 564.019 331.593L564.241 332.852C563.683 333.358 562.887 333.702 561.855 333.884C560.841 334.062 559.989 333.891 559.3 333.369C558.615 332.842 558.172 332.011 557.972 330.875C557.783 329.803 557.945 328.874 558.459 328.089C558.977 327.299 559.707 326.821 560.65 326.655C561.592 326.489 562.375 326.663 562.998 327.178C563.621 327.693 564.027 328.489 564.217 329.566L564.323 330.165ZM562.62 329.327C562.517 328.767 562.308 328.355 561.993 328.091C561.677 327.823 561.29 327.729 560.833 327.81C560.384 327.889 560.031 328.12 559.775 328.503C559.523 328.885 559.408 329.347 559.429 329.89L562.62 329.327ZM572.483 331.843L570.915 332.119L570.383 329.103L567.38 329.633L567.912 332.649L566.344 332.925L565.128 326.032L566.697 325.755L567.174 328.462L570.176 327.932L569.699 325.226L571.268 324.949L572.483 331.843ZM580.777 330.38L579.364 330.63L578.472 325.574C578.414 325.769 578.321 326.042 578.193 326.394L576.051 331.214L574.516 331.484L573.301 324.591L574.735 324.338L575.608 329.293C575.637 329.167 575.707 328.947 575.818 328.631L577.993 323.763L579.562 323.487L580.777 330.38ZM588.135 329.083L586.58 329.357L586.1 326.631L585.298 326.772C584.912 326.84 584.623 327.247 584.431 327.994L583.908 329.828L582.137 330.141L582.867 327.902C583.083 327.318 583.394 326.902 583.799 326.655C583.239 326.679 582.785 326.558 582.437 326.291C582.093 326.018 581.878 325.64 581.793 325.155C581.684 324.54 581.843 324.01 582.269 323.565C582.699 323.119 583.329 322.822 584.16 322.676L586.92 322.189L588.135 329.083ZM585.91 325.554L585.564 323.595L584.487 323.784C583.643 323.933 583.278 324.329 583.391 324.97C583.508 325.635 583.982 325.893 584.812 325.747L585.91 325.554Z" fill="#808080"/>
<rect x="217.417" y="262.445" width="64" height="1" transform="rotate(-10 217.417 262.445)" fill="#565656"/>
<defs>
<filter id="filter0_b_1037_11578" x="-2.06152" y="29.5732" width="561.576" height="472.349" filterUnits="userSpaceOnUse" color-interpolation-filters="sRGB">
<feFlood flood-opacity="0" result="BackgroundImageFix"/>
<feGaussianBlur in="BackgroundImageFix" stdDeviation="6"/>
<feComposite in2="SourceAlpha" operator="in" result="effect1_backgroundBlur_1037_11578"/>
<feBlend mode="normal" in="SourceGraphic" in2="effect1_backgroundBlur_1037_11578" result="shape"/>
</filter>
<filter id="filter1_dd_1037_11578" x="13.0063" y="59.9978" width="490.459" height="187.085" filterUnits="userSpaceOnUse" color-interpolation-filters="sRGB">
<feFlood flood-opacity="0" result="BackgroundImageFix"/>
<feColorMatrix in="SourceAlpha" type="matrix" values="0 0 0 0 0 0 0 0 0 0 0 0 0 0 0 0 0 0 127 0" result="hardAlpha"/>
<feOffset dy="4"/>
<feGaussianBlur stdDeviation="12"/>
<feColorMatrix type="matrix" values="0 0 0 0 0.435294 0 0 0 0 0.180392 0 0 0 0 0.0392157 0 0 0 0.1 0"/>
<feBlend mode="normal" in2="BackgroundImageFix" result="effect1_dropShadow_1037_11578"/>
<feColorMatrix in="SourceAlpha" type="matrix" values="0 0 0 0 0 0 0 0 0 0 0 0 0 0 0 0 0 0 127 0" result="hardAlpha"/>
<feOffset/>
<feGaussianBlur stdDeviation="2"/>
<feColorMatrix type="matrix" values="0 0 0 0 0.435294 0 0 0 0 0.180392 0 0 0 0 0.0392157 0 0 0 0.1 0"/>
<feBlend mode="normal" in2="effect1_dropShadow_1037_11578" result="effect2_dropShadow_1037_11578"/>
<feBlend mode="normal" in="SourceGraphic" in2="effect2_dropShadow_1037_11578" result="shape"/>
</filter>
<filter id="filter2_d_1037_11578" x="36.8145" y="138.965" width="493.722" height="317.7" filterUnits="userSpaceOnUse" color-interpolation-filters="sRGB">
<feFlood flood-opacity="0" result="BackgroundImageFix"/>
<feColorMatrix in="SourceAlpha" type="matrix" values="0 0 0 0 0 0 0 0 0 0 0 0 0 0 0 0 0 0 127 0" result="hardAlpha"/>
<feOffset dy="4"/>
<feGaussianBlur stdDeviation="6"/>
<feColorMatrix type="matrix" values="0 0 0 0 0.435294 0 0 0 0 0.180392 0 0 0 0 0.0392157 0 0 0 0.2 0"/>
<feBlend mode="normal" in2="BackgroundImageFix" result="effect1_dropShadow_1037_11578"/>
<feBlend mode="normal" in="SourceGraphic" in2="effect1_dropShadow_1037_11578" result="shape"/>
</filter>
<filter id="filter3_dd_1037_11578" x="108.929" y="173.663" width="323.506" height="83.4026" filterUnits="userSpaceOnUse" color-interpolation-filters="sRGB">
<feFlood flood-opacity="0" result="BackgroundImageFix"/>
<feColorMatrix in="SourceAlpha" type="matrix" values="0 0 0 0 0 0 0 0 0 0 0 0 0 0 0 0 0 0 127 0" result="hardAlpha"/>
<feOffset dy="1"/>
<feGaussianBlur stdDeviation="4"/>
<feColorMatrix type="matrix" values="0 0 0 0 0.435294 0 0 0 0 0.180392 0 0 0 0 0.0392157 0 0 0 0.1 0"/>
<feBlend mode="normal" in2="BackgroundImageFix" result="effect1_dropShadow_1037_11578"/>
<feColorMatrix in="SourceAlpha" type="matrix" values="0 0 0 0 0 0 0 0 0 0 0 0 0 0 0 0 0 0 127 0" result="hardAlpha"/>
<feOffset dy="1"/>
<feGaussianBlur stdDeviation="1"/>
<feColorMatrix type="matrix" values="0 0 0 0 0.435294 0 0 0 0 0.180392 0 0 0 0 0.0392157 0 0 0 0.14 0"/>
<feBlend mode="normal" in2="effect1_dropShadow_1037_11578" result="effect2_dropShadow_1037_11578"/>
<feBlend mode="normal" in="SourceGraphic" in2="effect2_dropShadow_1037_11578" result="shape"/>
</filter>
<filter id="filter4_dd_1037_11578" x="119" y="230.782" width="323.506" height="83.4026" filterUnits="userSpaceOnUse" color-interpolation-filters="sRGB">
<feFlood flood-opacity="0" result="BackgroundImageFix"/>
<feColorMatrix in="SourceAlpha" type="matrix" values="0 0 0 0 0 0 0 0 0 0 0 0 0 0 0 0 0 0 127 0" result="hardAlpha"/>
<feOffset dy="1"/>
<feGaussianBlur stdDeviation="4"/>
<feColorMatrix type="matrix" values="0 0 0 0 0.435294 0 0 0 0 0.180392 0 0 0 0 0.0392157 0 0 0 0.1 0"/>
<feBlend mode="normal" in2="BackgroundImageFix" result="effect1_dropShadow_1037_11578"/>
<feColorMatrix in="SourceAlpha" type="matrix" values="0 0 0 0 0 0 0 0 0 0 0 0 0 0 0 0 0 0 127 0" result="hardAlpha"/>
<feOffset dy="1"/>
<feGaussianBlur stdDeviation="1"/>
<feColorMatrix type="matrix" values="0 0 0 0 0.435294 0 0 0 0 0.180392 0 0 0 0 0.0392157 0 0 0 0.14 0"/>
<feBlend mode="normal" in2="effect1_dropShadow_1037_11578" result="effect2_dropShadow_1037_11578"/>
<feBlend mode="normal" in="SourceGraphic" in2="effect2_dropShadow_1037_11578" result="shape"/>
</filter>
<filter id="filter5_dd_1037_11578" x="113.096" y="225.777" width="161.998" height="54.9243" filterUnits="userSpaceOnUse" color-interpolation-filters="sRGB">
<feFlood flood-opacity="0" result="BackgroundImageFix"/>
<feColorMatrix in="SourceAlpha" type="matrix" values="0 0 0 0 0 0 0 0 0 0 0 0 0 0 0 0 0 0 127 0" result="hardAlpha"/>
<feOffset dy="1"/>
<feGaussianBlur stdDeviation="4"/>
<feColorMatrix type="matrix" values="0 0 0 0 0.435294 0 0 0 0 0.180392 0 0 0 0 0.0392157 0 0 0 0.1 0"/>
<feBlend mode="normal" in2="BackgroundImageFix" result="effect1_dropShadow_1037_11578"/>
<feColorMatrix in="SourceAlpha" type="matrix" values="0 0 0 0 0 0 0 0 0 0 0 0 0 0 0 0 0 0 127 0" result="hardAlpha"/>
<feOffset dy="1"/>
<feGaussianBlur stdDeviation="1"/>
<feColorMatrix type="matrix" values="0 0 0 0 0.435294 0 0 0 0 0.180392 0 0 0 0 0.0392157 0 0 0 0.14 0"/>
<feBlend mode="normal" in2="effect1_dropShadow_1037_11578" result="effect2_dropShadow_1037_11578"/>
<feBlend mode="normal" in="SourceGraphic" in2="effect2_dropShadow_1037_11578" result="shape"/>
</filter>
<filter id="filter6_dd_1037_11578" x="123.167" y="282.896" width="161.998" height="54.9243" filterUnits="userSpaceOnUse" color-interpolation-filters="sRGB">
<feFlood flood-opacity="0" result="BackgroundImageFix"/>
<feColorMatrix in="SourceAlpha" type="matrix" values="0 0 0 0 0 0 0 0 0 0 0 0 0 0 0 0 0 0 127 0" result="hardAlpha"/>
<feOffset dy="1"/>
<feGaussianBlur stdDeviation="4"/>
<feColorMatrix type="matrix" values="0 0 0 0 0.435294 0 0 0 0 0.180392 0 0 0 0 0.0392157 0 0 0 0.1 0"/>
<feBlend mode="normal" in2="BackgroundImageFix" result="effect1_dropShadow_1037_11578"/>
<feColorMatrix in="SourceAlpha" type="matrix" values="0 0 0 0 0 0 0 0 0 0 0 0 0 0 0 0 0 0 127 0" result="hardAlpha"/>
<feOffset dy="1"/>
<feGaussianBlur stdDeviation="1"/>
<feColorMatrix type="matrix" values="0 0 0 0 0.435294 0 0 0 0 0.180392 0 0 0 0 0.0392157 0 0 0 0.14 0"/>
<feBlend mode="normal" in2="effect1_dropShadow_1037_11578" result="effect2_dropShadow_1037_11578"/>
<feBlend mode="normal" in="SourceGraphic" in2="effect2_dropShadow_1037_11578" result="shape"/>
</filter>
<filter id="filter7_dd_1037_11578" x="132.371" y="348.809" width="84.1978" height="41.2061" filterUnits="userSpaceOnUse" color-interpolation-filters="sRGB">
<feFlood flood-opacity="0" result="BackgroundImageFix"/>
<feColorMatrix in="SourceAlpha" type="matrix" values="0 0 0 0 0 0 0 0 0 0 0 0 0 0 0 0 0 0 127 0" result="hardAlpha"/>
<feOffset dy="1"/>
<feGaussianBlur stdDeviation="4"/>
<feColorMatrix type="matrix" values="0 0 0 0 0.435294 0 0 0 0 0.180392 0 0 0 0 0.0392157 0 0 0 0.1 0"/>
<feBlend mode="normal" in2="BackgroundImageFix" result="effect1_dropShadow_1037_11578"/>
<feColorMatrix in="SourceAlpha" type="matrix" values="0 0 0 0 0 0 0 0 0 0 0 0 0 0 0 0 0 0 127 0" result="hardAlpha"/>
<feOffset dy="1"/>
<feGaussianBlur stdDeviation="1"/>
<feColorMatrix type="matrix" values="0 0 0 0 0.435294 0 0 0 0 0.180392 0 0 0 0 0.0392157 0 0 0 0.14 0"/>
<feBlend mode="normal" in2="effect1_dropShadow_1037_11578" result="effect2_dropShadow_1037_11578"/>
<feBlend mode="normal" in="SourceGraphic" in2="effect2_dropShadow_1037_11578" result="shape"/>
</filter>
<filter id="filter8_dd_1037_11578" x="137.233" y="376.383" width="84.1978" height="41.2061" filterUnits="userSpaceOnUse" color-interpolation-filters="sRGB">
<feFlood flood-opacity="0" result="BackgroundImageFix"/>
<feColorMatrix in="SourceAlpha" type="matrix" values="0 0 0 0 0 0 0 0 0 0 0 0 0 0 0 0 0 0 127 0" result="hardAlpha"/>
<feOffset dy="1"/>
<feGaussianBlur stdDeviation="4"/>
<feColorMatrix type="matrix" values="0 0 0 0 0.435294 0 0 0 0 0.180392 0 0 0 0 0.0392157 0 0 0 0.1 0"/>
<feBlend mode="normal" in2="BackgroundImageFix" result="effect1_dropShadow_1037_11578"/>
<feColorMatrix in="SourceAlpha" type="matrix" values="0 0 0 0 0 0 0 0 0 0 0 0 0 0 0 0 0 0 127 0" result="hardAlpha"/>
<feOffset dy="1"/>
<feGaussianBlur stdDeviation="1"/>
<feColorMatrix type="matrix" values="0 0 0 0 0.435294 0 0 0 0 0.180392 0 0 0 0 0.0392157 0 0 0 0.14 0"/>
<feBlend mode="normal" in2="effect1_dropShadow_1037_11578" result="effect2_dropShadow_1037_11578"/>
<feBlend mode="normal" in="SourceGraphic" in2="effect2_dropShadow_1037_11578" result="shape"/>
</filter>
<filter id="filter9_dd_1037_11578" x="205.247" y="335.959" width="84.1978" height="41.2061" filterUnits="userSpaceOnUse" color-interpolation-filters="sRGB">
<feFlood flood-opacity="0" result="BackgroundImageFix"/>
<feColorMatrix in="SourceAlpha" type="matrix" values="0 0 0 0 0 0 0 0 0 0 0 0 0 0 0 0 0 0 127 0" result="hardAlpha"/>
<feOffset dy="1"/>
<feGaussianBlur stdDeviation="4"/>
<feColorMatrix type="matrix" values="0 0 0 0 0.435294 0 0 0 0 0.180392 0 0 0 0 0.0392157 0 0 0 0.1 0"/>
<feBlend mode="normal" in2="BackgroundImageFix" result="effect1_dropShadow_1037_11578"/>
<feColorMatrix in="SourceAlpha" type="matrix" values="0 0 0 0 0 0 0 0 0 0 0 0 0 0 0 0 0 0 127 0" result="hardAlpha"/>
<feOffset dy="1"/>
<feGaussianBlur stdDeviation="1"/>
<feColorMatrix type="matrix" values="0 0 0 0 0.435294 0 0 0 0 0.180392 0 0 0 0 0.0392157 0 0 0 0.14 0"/>
<feBlend mode="normal" in2="effect1_dropShadow_1037_11578" result="effect2_dropShadow_1037_11578"/>
<feBlend mode="normal" in="SourceGraphic" in2="effect2_dropShadow_1037_11578" result="shape"/>
</filter>
<filter id="filter10_dd_1037_11578" x="210.109" y="359.366" width="107.833" height="45.3738" filterUnits="userSpaceOnUse" color-interpolation-filters="sRGB">
<feFlood flood-opacity="0" result="BackgroundImageFix"/>
<feColorMatrix in="SourceAlpha" type="matrix" values="0 0 0 0 0 0 0 0 0 0 0 0 0 0 0 0 0 0 127 0" result="hardAlpha"/>
<feOffset dy="1"/>
<feGaussianBlur stdDeviation="4"/>
<feColorMatrix type="matrix" values="0 0 0 0 0.435294 0 0 0 0 0.180392 0 0 0 0 0.0392157 0 0 0 0.1 0"/>
<feBlend mode="normal" in2="BackgroundImageFix" result="effect1_dropShadow_1037_11578"/>
<feColorMatrix in="SourceAlpha" type="matrix" values="0 0 0 0 0 0 0 0 0 0 0 0 0 0 0 0 0 0 127 0" result="hardAlpha"/>
<feOffset dy="1"/>
<feGaussianBlur stdDeviation="1"/>
<feColorMatrix type="matrix" values="0 0 0 0 0.435294 0 0 0 0 0.180392 0 0 0 0 0.0392157 0 0 0 0.14 0"/>
<feBlend mode="normal" in2="effect1_dropShadow_1037_11578" result="effect2_dropShadow_1037_11578"/>
<feBlend mode="normal" in="SourceGraphic" in2="effect2_dropShadow_1037_11578" result="shape"/>
</filter>
<filter id="filter11_b_1037_11578" x="163.641" y="92.8621" width="561.576" height="472.349" filterUnits="userSpaceOnUse" color-interpolation-filters="sRGB">
<feFlood flood-opacity="0" result="BackgroundImageFix"/>
<feGaussianBlur in="BackgroundImageFix" stdDeviation="6"/>
<feComposite in2="SourceAlpha" operator="in" result="effect1_backgroundBlur_1037_11578"/>
<feBlend mode="normal" in="SourceGraphic" in2="effect1_backgroundBlur_1037_11578" result="shape"/>
</filter>
<filter id="filter12_dd_1037_11578" x="218.844" y="277.819" width="159.043" height="54.4033" filterUnits="userSpaceOnUse" color-interpolation-filters="sRGB">
<feFlood flood-opacity="0" result="BackgroundImageFix"/>
<feColorMatrix in="SourceAlpha" type="matrix" values="0 0 0 0 0 0 0 0 0 0 0 0 0 0 0 0 0 0 127 0" result="hardAlpha"/>
<feOffset dy="1"/>
<feGaussianBlur stdDeviation="4"/>
<feColorMatrix type="matrix" values="0 0 0 0 0.435294 0 0 0 0 0.180392 0 0 0 0 0.0392157 0 0 0 0.1 0"/>
<feBlend mode="normal" in2="BackgroundImageFix" result="effect1_dropShadow_1037_11578"/>
<feColorMatrix in="SourceAlpha" type="matrix" values="0 0 0 0 0 0 0 0 0 0 0 0 0 0 0 0 0 0 127 0" result="hardAlpha"/>
<feOffset dy="1"/>
<feGaussianBlur stdDeviation="1"/>
<feColorMatrix type="matrix" values="0 0 0 0 0.435294 0 0 0 0 0.180392 0 0 0 0 0.0392157 0 0 0 0.14 0"/>
<feBlend mode="normal" in2="effect1_dropShadow_1037_11578" result="effect2_dropShadow_1037_11578"/>
<feBlend mode="normal" in="SourceGraphic" in2="effect2_dropShadow_1037_11578" result="shape"/>
</filter>
<filter id="filter13_dd_1037_11578" x="235.167" y="375.947" width="127.529" height="48.8467" filterUnits="userSpaceOnUse" color-interpolation-filters="sRGB">
<feFlood flood-opacity="0" result="BackgroundImageFix"/>
<feColorMatrix in="SourceAlpha" type="matrix" values="0 0 0 0 0 0 0 0 0 0 0 0 0 0 0 0 0 0 127 0" result="hardAlpha"/>
<feOffset dy="1"/>
<feGaussianBlur stdDeviation="4"/>
<feColorMatrix type="matrix" values="0 0 0 0 0.435294 0 0 0 0 0.180392 0 0 0 0 0.0392157 0 0 0 0.1 0"/>
<feBlend mode="normal" in2="BackgroundImageFix" result="effect1_dropShadow_1037_11578"/>
<feColorMatrix in="SourceAlpha" type="matrix" values="0 0 0 0 0 0 0 0 0 0 0 0 0 0 0 0 0 0 127 0" result="hardAlpha"/>
<feOffset dy="1"/>
<feGaussianBlur stdDeviation="1"/>
<feColorMatrix type="matrix" values="0 0 0 0 0.435294 0 0 0 0 0.180392 0 0 0 0 0.0392157 0 0 0 0.14 0"/>
<feBlend mode="normal" in2="effect1_dropShadow_1037_11578" result="effect2_dropShadow_1037_11578"/>
<feBlend mode="normal" in="SourceGraphic" in2="effect2_dropShadow_1037_11578" result="shape"/>
</filter>
<filter id="filter14_dd_1037_11578" x="239.334" y="391.769" width="171.845" height="56.6609" filterUnits="userSpaceOnUse" color-interpolation-filters="sRGB">
<feFlood flood-opacity="0" result="BackgroundImageFix"/>
<feColorMatrix in="SourceAlpha" type="matrix" values="0 0 0 0 0 0 0 0 0 0 0 0 0 0 0 0 0 0 127 0" result="hardAlpha"/>
<feOffset dy="1"/>
<feGaussianBlur stdDeviation="4"/>
<feColorMatrix type="matrix" values="0 0 0 0 0.435294 0 0 0 0 0.180392 0 0 0 0 0.0392157 0 0 0 0.1 0"/>
<feBlend mode="normal" in2="BackgroundImageFix" result="effect1_dropShadow_1037_11578"/>
<feColorMatrix in="SourceAlpha" type="matrix" values="0 0 0 0 0 0 0 0 0 0 0 0 0 0 0 0 0 0 127 0" result="hardAlpha"/>
<feOffset dy="1"/>
<feGaussianBlur stdDeviation="1"/>
<feColorMatrix type="matrix" values="0 0 0 0 0.435294 0 0 0 0 0.180392 0 0 0 0 0.0392157 0 0 0 0.14 0"/>
<feBlend mode="normal" in2="effect1_dropShadow_1037_11578" result="effect2_dropShadow_1037_11578"/>
<feBlend mode="normal" in="SourceGraphic" in2="effect2_dropShadow_1037_11578" result="shape"/>
</filter>
<filter id="filter15_dd_1037_11578" x="243.502" y="429.296" width="93.0608" height="42.769" filterUnits="userSpaceOnUse" color-interpolation-filters="sRGB">
<feFlood flood-opacity="0" result="BackgroundImageFix"/>
<feColorMatrix in="SourceAlpha" type="matrix" values="0 0 0 0 0 0 0 0 0 0 0 0 0 0 0 0 0 0 127 0" result="hardAlpha"/>
<feOffset dy="1"/>
<feGaussianBlur stdDeviation="4"/>
<feColorMatrix type="matrix" values="0 0 0 0 0.435294 0 0 0 0 0.180392 0 0 0 0 0.0392157 0 0 0 0.1 0"/>
<feBlend mode="normal" in2="BackgroundImageFix" result="effect1_dropShadow_1037_11578"/>
<feColorMatrix in="SourceAlpha" type="matrix" values="0 0 0 0 0 0 0 0 0 0 0 0 0 0 0 0 0 0 127 0" result="hardAlpha"/>
<feOffset dy="1"/>
<feGaussianBlur stdDeviation="1"/>
<feColorMatrix type="matrix" values="0 0 0 0 0.435294 0 0 0 0 0.180392 0 0 0 0 0.0392157 0 0 0 0.14 0"/>
<feBlend mode="normal" in2="effect1_dropShadow_1037_11578" result="effect2_dropShadow_1037_11578"/>
<feBlend mode="normal" in="SourceGraphic" in2="effect2_dropShadow_1037_11578" result="shape"/>
</filter>
<filter id="filter16_dd_1037_11578" x="213.461" y="239.302" width="204.344" height="62.3911" filterUnits="userSpaceOnUse" color-interpolation-filters="sRGB">
<feFlood flood-opacity="0" result="BackgroundImageFix"/>
<feColorMatrix in="SourceAlpha" type="matrix" values="0 0 0 0 0 0 0 0 0 0 0 0 0 0 0 0 0 0 127 0" result="hardAlpha"/>
<feOffset dy="1"/>
<feGaussianBlur stdDeviation="4"/>
<feColorMatrix type="matrix" values="0 0 0 0 0.435294 0 0 0 0 0.180392 0 0 0 0 0.0392157 0 0 0 0.1 0"/>
<feBlend mode="normal" in2="BackgroundImageFix" result="effect1_dropShadow_1037_11578"/>
<feColorMatrix in="SourceAlpha" type="matrix" values="0 0 0 0 0 0 0 0 0 0 0 0 0 0 0 0 0 0 127 0" result="hardAlpha"/>
<feOffset dy="1"/>
<feGaussianBlur stdDeviation="1"/>
<feColorMatrix type="matrix" values="0 0 0 0 0.435294 0 0 0 0 0.180392 0 0 0 0 0.0392157 0 0 0 0.14 0"/>
<feBlend mode="normal" in2="effect1_dropShadow_1037_11578" result="effect2_dropShadow_1037_11578"/>
<feBlend mode="normal" in="SourceGraphic" in2="effect2_dropShadow_1037_11578" result="shape"/>
</filter>
<filter id="filter17_dd_1037_11578" x="223.012" y="320.729" width="49.7292" height="35.1284" filterUnits="userSpaceOnUse" color-interpolation-filters="sRGB">
<feFlood flood-opacity="0" result="BackgroundImageFix"/>
<feColorMatrix in="SourceAlpha" type="matrix" values="0 0 0 0 0 0 0 0 0 0 0 0 0 0 0 0 0 0 127 0" result="hardAlpha"/>
<feOffset dy="1"/>
<feGaussianBlur stdDeviation="4"/>
<feColorMatrix type="matrix" values="0 0 0 0 0.435294 0 0 0 0 0.180392 0 0 0 0 0.0392157 0 0 0 0.1 0"/>
<feBlend mode="normal" in2="BackgroundImageFix" result="effect1_dropShadow_1037_11578"/>
<feColorMatrix in="SourceAlpha" type="matrix" values="0 0 0 0 0 0 0 0 0 0 0 0 0 0 0 0 0 0 127 0" result="hardAlpha"/>
<feOffset dy="1"/>
<feGaussianBlur stdDeviation="1"/>
<feColorMatrix type="matrix" values="0 0 0 0 0.435294 0 0 0 0 0.180392 0 0 0 0 0.0392157 0 0 0 0.14 0"/>
<feBlend mode="normal" in2="effect1_dropShadow_1037_11578" result="effect2_dropShadow_1037_11578"/>
<feBlend mode="normal" in="SourceGraphic" in2="effect2_dropShadow_1037_11578" result="shape"/>
</filter>
<filter id="filter18_dd_1037_11578" x="261.419" y="305.101" width="99.9543" height="43.9846" filterUnits="userSpaceOnUse" color-interpolation-filters="sRGB">
<feFlood flood-opacity="0" result="BackgroundImageFix"/>
<feColorMatrix in="SourceAlpha" type="matrix" values="0 0 0 0 0 0 0 0 0 0 0 0 0 0 0 0 0 0 127 0" result="hardAlpha"/>
<feOffset dy="1"/>
<feGaussianBlur stdDeviation="4"/>
<feColorMatrix type="matrix" values="0 0 0 0 0.435294 0 0 0 0 0.180392 0 0 0 0 0.0392157 0 0 0 0.1 0"/>
<feBlend mode="normal" in2="BackgroundImageFix" result="effect1_dropShadow_1037_11578"/>
<feColorMatrix in="SourceAlpha" type="matrix" values="0 0 0 0 0 0 0 0 0 0 0 0 0 0 0 0 0 0 127 0" result="hardAlpha"/>
<feOffset dy="1"/>
<feGaussianBlur stdDeviation="1"/>
<feColorMatrix type="matrix" values="0 0 0 0 0.435294 0 0 0 0 0.180392 0 0 0 0 0.0392157 0 0 0 0.14 0"/>
<feBlend mode="normal" in2="effect1_dropShadow_1037_11578" result="effect2_dropShadow_1037_11578"/>
<feBlend mode="normal" in="SourceGraphic" in2="effect2_dropShadow_1037_11578" result="shape"/>
</filter>
<filter id="filter19_dd_1037_11578" x="227.179" y="344.365" width="49.7292" height="35.1284" filterUnits="userSpaceOnUse" color-interpolation-filters="sRGB">
<feFlood flood-opacity="0" result="BackgroundImageFix"/>
<feColorMatrix in="SourceAlpha" type="matrix" values="0 0 0 0 0 0 0 0 0 0 0 0 0 0 0 0 0 0 127 0" result="hardAlpha"/>
<feOffset dy="1"/>
<feGaussianBlur stdDeviation="4"/>
<feColorMatrix type="matrix" values="0 0 0 0 0.435294 0 0 0 0 0.180392 0 0 0 0 0.0392157 0 0 0 0.1 0"/>
<feBlend mode="normal" in2="BackgroundImageFix" result="effect1_dropShadow_1037_11578"/>
<feColorMatrix in="SourceAlpha" type="matrix" values="0 0 0 0 0 0 0 0 0 0 0 0 0 0 0 0 0 0 127 0" result="hardAlpha"/>
<feOffset dy="1"/>
<feGaussianBlur stdDeviation="1"/>
<feColorMatrix type="matrix" values="0 0 0 0 0.435294 0 0 0 0 0.180392 0 0 0 0 0.0392157 0 0 0 0.14 0"/>
<feBlend mode="normal" in2="effect1_dropShadow_1037_11578" result="effect2_dropShadow_1037_11578"/>
<feBlend mode="normal" in="SourceGraphic" in2="effect2_dropShadow_1037_11578" result="shape"/>
</filter>
<filter id="filter20_dd_1037_11578" x="265.587" y="328.736" width="99.9543" height="43.9846" filterUnits="userSpaceOnUse" color-interpolation-filters="sRGB">
<feFlood flood-opacity="0" result="BackgroundImageFix"/>
<feColorMatrix in="SourceAlpha" type="matrix" values="0 0 0 0 0 0 0 0 0 0 0 0 0 0 0 0 0 0 127 0" result="hardAlpha"/>
<feOffset dy="1"/>
<feGaussianBlur stdDeviation="4"/>
<feColorMatrix type="matrix" values="0 0 0 0 0.435294 0 0 0 0 0.180392 0 0 0 0 0.0392157 0 0 0 0.1 0"/>
<feBlend mode="normal" in2="BackgroundImageFix" result="effect1_dropShadow_1037_11578"/>
<feColorMatrix in="SourceAlpha" type="matrix" values="0 0 0 0 0 0 0 0 0 0 0 0 0 0 0 0 0 0 127 0" result="hardAlpha"/>
<feOffset dy="1"/>
<feGaussianBlur stdDeviation="1"/>
<feColorMatrix type="matrix" values="0 0 0 0 0.435294 0 0 0 0 0.180392 0 0 0 0 0.0392157 0 0 0 0.14 0"/>
<feBlend mode="normal" in2="effect1_dropShadow_1037_11578" result="effect2_dropShadow_1037_11578"/>
<feBlend mode="normal" in="SourceGraphic" in2="effect2_dropShadow_1037_11578" result="shape"/>
</filter>
<filter id="filter21_dd_1037_11578" x="415.49" y="196.958" width="249.292" height="130.863" filterUnits="userSpaceOnUse" color-interpolation-filters="sRGB">
<feFlood flood-opacity="0" result="BackgroundImageFix"/>
<feColorMatrix in="SourceAlpha" type="matrix" values="0 0 0 0 0 0 0 0 0 0 0 0 0 0 0 0 0 0 127 0" result="hardAlpha"/>
<feOffset dy="1"/>
<feGaussianBlur stdDeviation="4"/>
<feColorMatrix type="matrix" values="0 0 0 0 0.435294 0 0 0 0 0.180392 0 0 0 0 0.0392157 0 0 0 0.1 0"/>
<feBlend mode="normal" in2="BackgroundImageFix" result="effect1_dropShadow_1037_11578"/>
<feColorMatrix in="SourceAlpha" type="matrix" values="0 0 0 0 0 0 0 0 0 0 0 0 0 0 0 0 0 0 127 0" result="hardAlpha"/>
<feOffset dy="1"/>
<feGaussianBlur stdDeviation="1"/>
<feColorMatrix type="matrix" values="0 0 0 0 0.435294 0 0 0 0 0.180392 0 0 0 0 0.0392157 0 0 0 0.14 0"/>
<feBlend mode="normal" in2="effect1_dropShadow_1037_11578" result="effect2_dropShadow_1037_11578"/>
<feBlend mode="normal" in="SourceGraphic" in2="effect2_dropShadow_1037_11578" result="shape"/>
</filter>
<filter id="filter22_dd_1037_11578" x="431.118" y="285.591" width="253.286" height="153.514" filterUnits="userSpaceOnUse" color-interpolation-filters="sRGB">
<feFlood flood-opacity="0" result="BackgroundImageFix"/>
<feColorMatrix in="SourceAlpha" type="matrix" values="0 0 0 0 0 0 0 0 0 0 0 0 0 0 0 0 0 0 127 0" result="hardAlpha"/>
<feOffset dy="1"/>
<feGaussianBlur stdDeviation="4"/>
<feColorMatrix type="matrix" values="0 0 0 0 0.435294 0 0 0 0 0.180392 0 0 0 0 0.0392157 0 0 0 0.1 0"/>
<feBlend mode="normal" in2="BackgroundImageFix" result="effect1_dropShadow_1037_11578"/>
<feColorMatrix in="SourceAlpha" type="matrix" values="0 0 0 0 0 0 0 0 0 0 0 0 0 0 0 0 0 0 127 0" result="hardAlpha"/>
<feOffset dy="1"/>
<feGaussianBlur stdDeviation="1"/>
<feColorMatrix type="matrix" values="0 0 0 0 0.435294 0 0 0 0 0.180392 0 0 0 0 0.0392157 0 0 0 0.14 0"/>
<feBlend mode="normal" in2="effect1_dropShadow_1037_11578" result="effect2_dropShadow_1037_11578"/>
<feBlend mode="normal" in="SourceGraphic" in2="effect2_dropShadow_1037_11578" result="shape"/>
</filter>
<filter id="filter23_dd_1037_11578" x="450.202" y="351.175" width="64.5012" height="37.7332" filterUnits="userSpaceOnUse" color-interpolation-filters="sRGB">
<feFlood flood-opacity="0" result="BackgroundImageFix"/>
<feColorMatrix in="SourceAlpha" type="matrix" values="0 0 0 0 0 0 0 0 0 0 0 0 0 0 0 0 0 0 127 0" result="hardAlpha"/>
<feOffset dy="1"/>
<feGaussianBlur stdDeviation="4"/>
<feColorMatrix type="matrix" values="0 0 0 0 0.435294 0 0 0 0 0.180392 0 0 0 0 0.0392157 0 0 0 0.1 0"/>
<feBlend mode="normal" in2="BackgroundImageFix" result="effect1_dropShadow_1037_11578"/>
<feColorMatrix in="SourceAlpha" type="matrix" values="0 0 0 0 0 0 0 0 0 0 0 0 0 0 0 0 0 0 127 0" result="hardAlpha"/>
<feOffset dy="1"/>
<feGaussianBlur stdDeviation="1"/>
<feColorMatrix type="matrix" values="0 0 0 0 0.435294 0 0 0 0 0.180392 0 0 0 0 0.0392157 0 0 0 0.14 0"/>
<feBlend mode="normal" in2="effect1_dropShadow_1037_11578" result="effect2_dropShadow_1037_11578"/>
<feBlend mode="normal" in="SourceGraphic" in2="effect2_dropShadow_1037_11578" result="shape"/>
</filter>
<filter id="filter24_dd_1037_11578" x="509.291" y="332.942" width="108.818" height="45.5474" filterUnits="userSpaceOnUse" color-interpolation-filters="sRGB">
<feFlood flood-opacity="0" result="BackgroundImageFix"/>
<feColorMatrix in="SourceAlpha" type="matrix" values="0 0 0 0 0 0 0 0 0 0 0 0 0 0 0 0 0 0 127 0" result="hardAlpha"/>
<feOffset dy="1"/>
<feGaussianBlur stdDeviation="4"/>
<feColorMatrix type="matrix" values="0 0 0 0 0.435294 0 0 0 0 0.180392 0 0 0 0 0.0392157 0 0 0 0.1 0"/>
<feBlend mode="normal" in2="BackgroundImageFix" result="effect1_dropShadow_1037_11578"/>
<feColorMatrix in="SourceAlpha" type="matrix" values="0 0 0 0 0 0 0 0 0 0 0 0 0 0 0 0 0 0 127 0" result="hardAlpha"/>
<feOffset dy="1"/>
<feGaussianBlur stdDeviation="1"/>
<feColorMatrix type="matrix" values="0 0 0 0 0.435294 0 0 0 0 0.180392 0 0 0 0 0.0392157 0 0 0 0.14 0"/>
<feBlend mode="normal" in2="effect1_dropShadow_1037_11578" result="effect2_dropShadow_1037_11578"/>
<feBlend mode="normal" in="SourceGraphic" in2="effect2_dropShadow_1037_11578" result="shape"/>
</filter>
<filter id="filter25_dd_1037_11578" x="624.918" y="332.659" width="40.866" height="33.5657" filterUnits="userSpaceOnUse" color-interpolation-filters="sRGB">
<feFlood flood-opacity="0" result="BackgroundImageFix"/>
<feColorMatrix in="SourceAlpha" type="matrix" values="0 0 0 0 0 0 0 0 0 0 0 0 0 0 0 0 0 0 127 0" result="hardAlpha"/>
<feOffset dy="1"/>
<feGaussianBlur stdDeviation="4"/>
<feColorMatrix type="matrix" values="0 0 0 0 0.435294 0 0 0 0 0.180392 0 0 0 0 0.0392157 0 0 0 0.1 0"/>
<feBlend mode="normal" in2="BackgroundImageFix" result="effect1_dropShadow_1037_11578"/>
<feColorMatrix in="SourceAlpha" type="matrix" values="0 0 0 0 0 0 0 0 0 0 0 0 0 0 0 0 0 0 127 0" result="hardAlpha"/>
<feOffset dy="1"/>
<feGaussianBlur stdDeviation="1"/>
<feColorMatrix type="matrix" values="0 0 0 0 0.435294 0 0 0 0 0.180392 0 0 0 0 0.0392157 0 0 0 0.14 0"/>
<feBlend mode="normal" in2="effect1_dropShadow_1037_11578" result="effect2_dropShadow_1037_11578"/>
<feBlend mode="normal" in="SourceGraphic" in2="effect2_dropShadow_1037_11578" result="shape"/>
</filter>
<filter id="filter26_dd_1037_11578" x="454.023" y="372.841" width="64.5012" height="37.7332" filterUnits="userSpaceOnUse" color-interpolation-filters="sRGB">
<feFlood flood-opacity="0" result="BackgroundImageFix"/>
<feColorMatrix in="SourceAlpha" type="matrix" values="0 0 0 0 0 0 0 0 0 0 0 0 0 0 0 0 0 0 127 0" result="hardAlpha"/>
<feOffset dy="1"/>
<feGaussianBlur stdDeviation="4"/>
<feColorMatrix type="matrix" values="0 0 0 0 0.435294 0 0 0 0 0.180392 0 0 0 0 0.0392157 0 0 0 0.1 0"/>
<feBlend mode="normal" in2="BackgroundImageFix" result="effect1_dropShadow_1037_11578"/>
<feColorMatrix in="SourceAlpha" type="matrix" values="0 0 0 0 0 0 0 0 0 0 0 0 0 0 0 0 0 0 127 0" result="hardAlpha"/>
<feOffset dy="1"/>
<feGaussianBlur stdDeviation="1"/>
<feColorMatrix type="matrix" values="0 0 0 0 0.435294 0 0 0 0 0.180392 0 0 0 0 0.0392157 0 0 0 0.14 0"/>
<feBlend mode="normal" in2="effect1_dropShadow_1037_11578" result="effect2_dropShadow_1037_11578"/>
<feBlend mode="normal" in="SourceGraphic" in2="effect2_dropShadow_1037_11578" result="shape"/>
</filter>
<filter id="filter27_dd_1037_11578" x="513.111" y="354.608" width="108.818" height="45.5474" filterUnits="userSpaceOnUse" color-interpolation-filters="sRGB">
<feFlood flood-opacity="0" result="BackgroundImageFix"/>
<feColorMatrix in="SourceAlpha" type="matrix" values="0 0 0 0 0 0 0 0 0 0 0 0 0 0 0 0 0 0 127 0" result="hardAlpha"/>
<feOffset dy="1"/>
<feGaussianBlur stdDeviation="4"/>
<feColorMatrix type="matrix" values="0 0 0 0 0.435294 0 0 0 0 0.180392 0 0 0 0 0.0392157 0 0 0 0.1 0"/>
<feBlend mode="normal" in2="BackgroundImageFix" result="effect1_dropShadow_1037_11578"/>
<feColorMatrix in="SourceAlpha" type="matrix" values="0 0 0 0 0 0 0 0 0 0 0 0 0 0 0 0 0 0 127 0" result="hardAlpha"/>
<feOffset dy="1"/>
<feGaussianBlur stdDeviation="1"/>
<feColorMatrix type="matrix" values="0 0 0 0 0.435294 0 0 0 0 0.180392 0 0 0 0 0.0392157 0 0 0 0.14 0"/>
<feBlend mode="normal" in2="effect1_dropShadow_1037_11578" result="effect2_dropShadow_1037_11578"/>
<feBlend mode="normal" in="SourceGraphic" in2="effect2_dropShadow_1037_11578" result="shape"/>
</filter>
<filter id="filter28_dd_1037_11578" x="628.738" y="354.325" width="40.866" height="33.5657" filterUnits="userSpaceOnUse" color-interpolation-filters="sRGB">
<feFlood flood-opacity="0" result="BackgroundImageFix"/>
<feColorMatrix in="SourceAlpha" type="matrix" values="0 0 0 0 0 0 0 0 0 0 0 0 0 0 0 0 0 0 127 0" result="hardAlpha"/>
<feOffset dy="1"/>
<feGaussianBlur stdDeviation="4"/>
<feColorMatrix type="matrix" values="0 0 0 0 0.435294 0 0 0 0 0.180392 0 0 0 0 0.0392157 0 0 0 0.1 0"/>
<feBlend mode="normal" in2="BackgroundImageFix" result="effect1_dropShadow_1037_11578"/>
<feColorMatrix in="SourceAlpha" type="matrix" values="0 0 0 0 0 0 0 0 0 0 0 0 0 0 0 0 0 0 127 0" result="hardAlpha"/>
<feOffset dy="1"/>
<feGaussianBlur stdDeviation="1"/>
<feColorMatrix type="matrix" values="0 0 0 0 0.435294 0 0 0 0 0.180392 0 0 0 0 0.0392157 0 0 0 0.14 0"/>
<feBlend mode="normal" in2="effect1_dropShadow_1037_11578" result="effect2_dropShadow_1037_11578"/>
<feBlend mode="normal" in="SourceGraphic" in2="effect2_dropShadow_1037_11578" result="shape"/>
</filter>
<clipPath id="clip0_1037_11578">
<rect x="48.8145" y="223.023" width="438" height="221" rx="4" transform="rotate(-10 48.8145 223.023)" fill="white"/>
</clipPath>
<clipPath id="clip1_1037_11578">
<rect width="318" height="22" fill="white" transform="translate(215.29 240.298) rotate(-10)"/>
</clipPath>
</defs>
</svg>
