<svg width="38" height="38" viewBox="0 0 38 38" fill="none" xmlns="http://www.w3.org/2000/svg">
<g id="Frame">
<path id="Vector" d="M19.0013 33.2503V11.0837M19.0013 11.0837C19.0013 10.2438 19.3349 9.43835 19.9288 8.84449C20.5227 8.25062 21.3281 7.91699 22.168 7.91699H33.8846C34.0094 7.91699 34.1329 7.94156 34.2482 7.98931C34.3634 8.03705 34.4682 8.10703 34.5564 8.19524C34.6446 8.28346 34.7146 8.38818 34.7623 8.50344C34.8101 8.6187 34.8346 8.74224 34.8346 8.86699V29.6308M19.0013 11.0837C19.0013 10.2438 18.6677 9.43835 18.0738 8.84449C17.4799 8.25062 16.6745 7.91699 15.8346 7.91699H4.11797C3.86601 7.91699 3.62438 8.01708 3.44622 8.19524C3.26806 8.3734 3.16797 8.61504 3.16797 8.86699V29.6308M22.168 30.0837H34.8346M15.8346 30.0837H3.16797" stroke="white" stroke-width="2" stroke-linecap="round"/>
<path id="Vector_2" d="M22.1654 30.083C21.3255 30.083 20.5201 30.4166 19.9262 31.0105C19.3323 31.6044 18.9987 32.4098 18.9987 33.2497C18.9987 32.4098 18.6651 31.6044 18.0712 31.0105C17.4773 30.4166 16.6719 30.083 15.832 30.083" stroke="white" stroke-width="2" stroke-linecap="round" stroke-linejoin="round"/>
</g>
</svg>
