<svg width="38" height="38" viewBox="0 0 38 38" fill="none" xmlns="http://www.w3.org/2000/svg">
<g id="Frame">
<path id="Vector" d="M13.597 13.0399L17.7105 4.75592C17.8303 4.51618 18.0144 4.31453 18.2424 4.1736C18.4703 4.03266 18.733 3.95801 19.0009 3.95801C19.2689 3.95801 19.5316 4.03266 19.7595 4.1736C19.9875 4.31453 20.1716 4.51618 20.2914 4.75592L24.4049 13.0399L33.6009 14.3763C33.8661 14.413 34.1157 14.5236 34.3211 14.6955C34.5265 14.8673 34.6794 15.0934 34.7625 15.348C34.8455 15.6026 34.8553 15.8754 34.7907 16.1353C34.7262 16.3951 34.5898 16.6316 34.3973 16.8178L27.7441 23.2619L29.3148 32.3661C29.5159 33.5346 28.2809 34.4244 27.2248 33.8734L19.0009 29.5731L10.7755 33.8734C9.72103 34.426 8.48603 33.5346 8.68711 32.3645L10.2578 23.2603L3.60461 16.8162C3.41301 16.6299 3.27749 16.3937 3.21347 16.1342C3.14945 15.8748 3.15949 15.6026 3.24246 15.3486C3.32542 15.0946 3.47797 14.869 3.68278 14.6974C3.88759 14.5258 4.13643 14.4151 4.40103 14.3778L13.597 13.0399Z" stroke="white" stroke-width="2.5" stroke-linecap="round" stroke-linejoin="round"/>
</g>
</svg>
