<svg width="512" height="512" viewBox="0 0 512 512" fill="none" xmlns="http://www.w3.org/2000/svg">
<rect width="512" height="512" rx="57" fill="white"/>
<path d="M255.503 325.706V378.356" stroke="url(#paint0_linear_3833_13752)" stroke-width="17" stroke-linecap="round"/>
<path d="M255.497 325.704C154.409 325.704 136.508 224.967 133.349 145.044C132.454 122.826 132.015 111.699 140.369 101.433C148.705 91.1484 158.691 89.4636 178.68 86.094C204.072 81.9325 229.767 79.8955 255.497 80.0041C286.806 80.0041 312.587 82.7595 332.313 86.094C352.303 89.4636 362.289 91.1484 370.642 101.433C378.996 111.717 378.54 122.826 377.662 145.044C374.503 224.95 356.602 325.704 255.514 325.704H255.497Z" stroke="url(#paint1_linear_3833_13752)" stroke-width="17"/>
<path d="M378.35 132.656L395.005 138.202C412.379 143.994 421.067 146.889 426.033 153.786C431 160.684 431 169.845 431 188.149V189.43C431 204.523 431 212.088 427.367 218.265C423.734 224.443 417.118 228.111 403.92 235.464L352.025 264.281M132.65 132.656L115.995 138.202C98.6206 143.994 89.9333 146.889 84.9667 153.786C80 160.684 80 169.862 80 188.149V189.43C80 204.523 80 212.088 83.6329 218.265C87.2657 224.443 93.8821 228.111 107.08 235.464L158.975 264.281" stroke="url(#paint2_linear_3833_13752)" stroke-width="17"/>
<path d="M316.923 431.002H194.073L200.04 401.238C200.835 397.261 202.983 393.682 206.118 391.109C209.254 388.537 213.184 387.13 217.239 387.127H293.757C297.813 387.13 301.743 388.537 304.878 391.109C308.014 393.682 310.161 397.261 310.956 401.238L316.923 431.002Z" stroke="url(#paint3_linear_3833_13752)" stroke-width="17" stroke-linecap="round" stroke-linejoin="round"/>
<path d="M360.804 431.005H150.204" stroke="url(#paint4_linear_3833_13752)" stroke-width="17" stroke-linecap="round"/>
<g clip-path="url(#clip0_3833_13752)">
<path d="M248.809 147.449C251.188 141.059 260.227 141.059 262.606 147.449L273.291 176.148C274.041 178.162 275.632 179.747 277.649 180.489L306.397 191.061C312.824 193.425 312.824 202.515 306.397 204.879L277.649 215.451C275.632 216.193 274.041 217.778 273.291 219.791L262.606 248.491C260.227 254.881 251.188 254.881 248.809 248.491L238.124 219.791C237.374 217.778 235.782 216.193 233.766 215.451L205.018 204.879C198.59 202.515 198.59 193.425 205.018 191.061L233.766 180.489C235.782 179.747 237.374 178.162 238.124 176.148L248.809 147.449Z" fill="url(#paint5_linear_3833_13752)"/>
</g>
<defs>
<linearGradient id="paint0_linear_3833_13752" x1="255.904" y1="326.924" x2="256.961" y2="326.936" gradientUnits="userSpaceOnUse">
<stop stop-color="#3579F8"/>
<stop offset="0.906213" stop-color="#1760E8"/>
</linearGradient>
<linearGradient id="paint1_linear_3833_13752" x1="231.17" y1="85.6876" x2="422.485" y2="199.793" gradientUnits="userSpaceOnUse">
<stop stop-color="#3579F8"/>
<stop offset="0.906213" stop-color="#1760E8"/>
</linearGradient>
<linearGradient id="paint2_linear_3833_13752" x1="220.674" y1="135.703" x2="325.561" y2="302.847" gradientUnits="userSpaceOnUse">
<stop stop-color="#3579F8"/>
<stop offset="0.906213" stop-color="#1760E8"/>
</linearGradient>
<linearGradient id="paint3_linear_3833_13752" x1="243.309" y1="388.143" x2="277.505" y2="445.361" gradientUnits="userSpaceOnUse">
<stop stop-color="#3579F8"/>
<stop offset="0.906213" stop-color="#1760E8"/>
</linearGradient>
<linearGradient id="paint4_linear_3833_13752" x1="234.608" y1="431.029" x2="234.622" y2="432.798" gradientUnits="userSpaceOnUse">
<stop stop-color="#3579F8"/>
<stop offset="0.906213" stop-color="#1760E8"/>
</linearGradient>
<linearGradient id="paint5_linear_3833_13752" x1="244.692" y1="250.722" x2="331.054" y2="198.931" gradientUnits="userSpaceOnUse">
<stop stop-color="#3579F8"/>
<stop offset="0.906213" stop-color="#1760E8"/>
</linearGradient>
<clipPath id="clip0_3833_13752">
<rect width="111.019" height="110.627" fill="white" transform="translate(200.198 142.657)"/>
</clipPath>
</defs>
</svg>
