<svg width="144" height="144" viewBox="0 0 144 144" fill="none" xmlns="http://www.w3.org/2000/svg">
<rect width="144" height="144" rx="16.36" fill="white"/>
<path d="M71.5 91.3013V106.151" stroke="url(#paint0_linear_3833_13612)" stroke-width="4.9" stroke-linecap="round"/>
<path d="M71.4987 91.3012C42.9867 91.3012 37.9377 62.8882 37.0467 40.3459C36.7942 34.0792 36.6705 30.9409 39.0267 28.0451C41.3779 25.1444 44.1945 24.6692 49.8325 23.7188C56.9943 22.5451 64.2415 21.9705 71.4987 22.0012C80.3295 22.0012 87.6011 22.7783 93.1649 23.7188C98.8029 24.6692 101.619 25.1444 103.976 28.0451C106.332 30.9458 106.203 34.0792 105.956 40.3459C105.065 62.8832 100.016 91.3012 71.5036 91.3012H71.4987Z" stroke="url(#paint1_linear_3833_13612)" stroke-width="4.9"/>
<path d="M106.15 36.8516L110.848 38.4158C115.748 40.0493 118.198 40.866 119.599 42.8114C121 44.7567 121 47.3406 121 52.5035V52.8648C121 57.1218 121 59.2553 119.975 60.9977C118.951 62.7401 117.085 63.7746 113.362 65.8487L98.725 73.9766M36.85 36.8516L32.1525 38.4158C27.252 40.0493 24.8017 40.866 23.4008 42.8114C22 44.7567 22 47.3456 22 52.5035V52.8648C22 57.1218 22 59.2553 23.0247 60.9977C24.0493 62.7401 25.9154 63.7746 29.6378 65.8487L44.275 73.9766" stroke="url(#paint2_linear_3833_13612)" stroke-width="4.9"/>
<path d="M88.8248 121.001H54.1748L55.8578 112.606C56.082 111.484 56.6878 110.475 57.5722 109.749C58.4565 109.024 59.5649 108.627 60.7088 108.626H82.2908C83.4347 108.627 84.5431 109.024 85.4274 109.749C86.3118 110.475 86.9176 111.484 87.1418 112.606L88.8248 121.001Z" stroke="url(#paint3_linear_3833_13612)" stroke-width="4.9" stroke-linecap="round" stroke-linejoin="round"/>
<path d="M101.201 121.001H41.8008" stroke="url(#paint4_linear_3833_13612)" stroke-width="4.9" stroke-linecap="round"/>
<g clip-path="url(#clip0_3833_13612)">
<path d="M69.6128 41.0239C70.2838 39.2215 72.8332 39.2215 73.5042 41.0239L76.518 49.1185C76.7294 49.6864 77.1784 50.1335 77.7471 50.3427L85.8556 53.3247C87.6684 53.9914 87.6684 56.5552 85.8556 57.2219L77.7471 60.2039C77.1784 60.4131 76.7294 60.8602 76.518 61.4281L73.5042 69.5227C72.8332 71.3251 70.2838 71.3251 69.6128 69.5227L66.599 61.4281C66.3876 60.8602 65.9386 60.4131 65.3699 60.2039L57.2614 57.2219C55.4487 56.5552 55.4487 53.9914 57.2614 53.3247L65.3699 50.3427C65.9386 50.1335 66.3876 49.6864 66.599 49.1185L69.6128 41.0239Z" fill="url(#paint5_linear_3833_13612)"/>
</g>
<defs>
<linearGradient id="paint0_linear_3833_13612" x1="71.9008" y1="91.645" x2="72.9567" y2="91.6875" gradientUnits="userSpaceOnUse">
<stop stop-color="#3579F8"/>
<stop offset="0.906213" stop-color="#1760E8"/>
</linearGradient>
<linearGradient id="paint1_linear_3833_13612" x1="64.6374" y1="23.6042" x2="118.598" y2="55.7877" gradientUnits="userSpaceOnUse">
<stop stop-color="#3579F8"/>
<stop offset="0.906213" stop-color="#1760E8"/>
</linearGradient>
<linearGradient id="paint2_linear_3833_13612" x1="61.6773" y1="37.7109" x2="91.2609" y2="84.854" gradientUnits="userSpaceOnUse">
<stop stop-color="#3579F8"/>
<stop offset="0.906213" stop-color="#1760E8"/>
</linearGradient>
<linearGradient id="paint3_linear_3833_13612" x1="68.0619" y1="108.912" x2="77.7068" y2="125.051" gradientUnits="userSpaceOnUse">
<stop stop-color="#3579F8"/>
<stop offset="0.906213" stop-color="#1760E8"/>
</linearGradient>
<linearGradient id="paint4_linear_3833_13612" x1="65.6072" y1="121.025" x2="65.657" y2="122.793" gradientUnits="userSpaceOnUse">
<stop stop-color="#3579F8"/>
<stop offset="0.906213" stop-color="#1760E8"/>
</linearGradient>
<linearGradient id="paint5_linear_3833_13612" x1="68.4516" y1="70.1522" x2="92.8101" y2="55.5443" gradientUnits="userSpaceOnUse">
<stop stop-color="#3579F8"/>
<stop offset="0.906213" stop-color="#1760E8"/>
</linearGradient>
<clipPath id="clip0_3833_13612">
<rect width="31.3132" height="31.2024" fill="white" transform="translate(55.9019 39.6724)"/>
</clipPath>
</defs>
</svg>
