<svg width="96" height="96" viewBox="0 0 96 96" fill="none" xmlns="http://www.w3.org/2000/svg">
<rect width="96" height="96" rx="10.8" fill="white"/>
<path d="M48 61.2012V71.1012" stroke="url(#paint0_linear_3833_13542)" stroke-width="3.25" stroke-linecap="round"/>
<path d="M47.9996 61.2008C28.9916 61.2008 25.6256 42.2588 25.0316 27.2306C24.8633 23.0528 24.7808 20.9606 26.3516 19.0301C27.9191 17.0963 29.7968 16.7795 33.5555 16.1459C38.33 15.3634 43.1615 14.9803 47.9996 15.0008C53.8868 15.0008 58.7345 15.5189 62.4437 16.1459C66.2024 16.7795 68.0801 17.0963 69.6509 19.0301C71.2217 20.9639 71.1359 23.0528 70.9709 27.2306C70.3769 42.2555 67.0109 61.2008 48.0029 61.2008H47.9996Z" stroke="url(#paint1_linear_3833_13542)" stroke-width="3.25"/>
<path d="M71.1 24.9009L74.2317 25.9437C77.4987 27.0327 79.1322 27.5772 80.0661 28.8741C81 30.171 81 31.8936 81 35.3355V35.5764C81 38.4144 81 39.8367 80.3169 40.9983C79.6338 42.1599 78.3897 42.8496 75.9081 44.2323L66.15 49.6509M24.9 24.9009L21.7683 25.9437C18.5013 27.0327 16.8678 27.5772 15.9339 28.8741C15 30.171 15 31.8969 15 35.3355V35.5764C15 38.4144 15 39.8367 15.6831 40.9983C16.3662 42.1599 17.6103 42.8496 20.0919 44.2323L29.85 49.6509" stroke="url(#paint2_linear_3833_13542)" stroke-width="3.25"/>
<path d="M59.5497 81.0005H36.4497L37.5717 75.4037C37.7212 74.6559 38.125 73.9829 38.7146 73.4992C39.3042 73.0155 40.0431 72.7509 40.8057 72.7505H55.1937C55.9563 72.7509 56.6952 73.0155 57.2848 73.4992C57.8744 73.9829 58.2782 74.6559 58.4277 75.4037L59.5497 81.0005Z" stroke="url(#paint3_linear_3833_13542)" stroke-width="3.25" stroke-linecap="round" stroke-linejoin="round"/>
<path d="M67.8002 81.001H28.2002" stroke="url(#paint4_linear_3833_13542)" stroke-width="3.25" stroke-linecap="round"/>
<g clip-path="url(#clip0_3833_13542)">
<path d="M46.7422 27.6831C47.1896 26.4815 48.8891 26.4815 49.3365 27.6831L51.3457 33.0795C51.4866 33.4581 51.7859 33.7562 52.1651 33.8956L57.5707 35.8836C58.7792 36.3281 58.7792 38.0373 57.5707 38.4818L52.1651 40.4698C51.7859 40.6092 51.4866 40.9073 51.3457 41.2859L49.3365 46.6823C48.8891 47.8839 47.1896 47.8839 46.7422 46.6823L44.733 41.2859C44.5921 40.9073 44.2927 40.6092 43.9136 40.4698L38.5079 38.4818C37.2994 38.0373 37.2994 36.3281 38.5079 35.8836L43.9136 33.8956C44.2927 33.7562 44.5921 33.4581 44.733 33.0795L46.7422 27.6831Z" fill="url(#paint5_linear_3833_13542)"/>
</g>
<defs>
<linearGradient id="paint0_linear_3833_13542" x1="48.4008" y1="61.4303" x2="49.4546" y2="61.4939" gradientUnits="userSpaceOnUse">
<stop stop-color="#3579F8"/>
<stop offset="0.906213" stop-color="#1760E8"/>
</linearGradient>
<linearGradient id="paint1_linear_3833_13542" x1="43.4254" y1="16.0695" x2="79.399" y2="37.5251" gradientUnits="userSpaceOnUse">
<stop stop-color="#3579F8"/>
<stop offset="0.906213" stop-color="#1760E8"/>
</linearGradient>
<linearGradient id="paint2_linear_3833_13542" x1="41.4516" y1="25.4738" x2="61.174" y2="56.9025" gradientUnits="userSpaceOnUse">
<stop stop-color="#3579F8"/>
<stop offset="0.906213" stop-color="#1760E8"/>
</linearGradient>
<linearGradient id="paint3_linear_3833_13542" x1="45.7078" y1="72.9415" x2="52.1377" y2="83.7003" gradientUnits="userSpaceOnUse">
<stop stop-color="#3579F8"/>
<stop offset="0.906213" stop-color="#1760E8"/>
</linearGradient>
<linearGradient id="paint4_linear_3833_13542" x1="44.0711" y1="81.0241" x2="44.1458" y2="82.7909" gradientUnits="userSpaceOnUse">
<stop stop-color="#3579F8"/>
<stop offset="0.906213" stop-color="#1760E8"/>
</linearGradient>
<linearGradient id="paint5_linear_3833_13542" x1="45.9681" y1="47.102" x2="62.2071" y2="37.3634" gradientUnits="userSpaceOnUse">
<stop stop-color="#3579F8"/>
<stop offset="0.906213" stop-color="#1760E8"/>
</linearGradient>
<clipPath id="clip0_3833_13542">
<rect width="20.8755" height="20.8016" fill="white" transform="translate(37.6016 26.7817)"/>
</clipPath>
</defs>
</svg>
