<svg width="192" height="192" viewBox="0 0 192 192" fill="none" xmlns="http://www.w3.org/2000/svg">
<rect width="192" height="192" rx="21.5" fill="white"/>
<path d="M95.5005 121.702V141.352" stroke="url(#paint0_linear_3833_13682)" stroke-width="6.5" stroke-linecap="round"/>
<path d="M95.4981 121.702C57.7701 121.702 51.0891 84.1045 49.9101 54.2758C49.576 45.9835 49.4123 41.8308 52.5301 37.9991C55.6413 34.1608 59.3683 33.532 66.8287 32.2744C76.3054 30.7212 85.8951 29.961 95.4981 30.0015C107.183 30.0015 116.805 31.0299 124.167 32.2744C131.628 33.532 135.355 34.1608 138.473 37.9991C141.59 41.8374 141.42 45.9835 141.093 54.2758C139.914 84.098 133.233 121.702 95.5046 121.702H95.4981Z" stroke="url(#paint1_linear_3833_13682)" stroke-width="6.5"/>
<path d="M141.35 49.6523L147.566 51.7221C154.05 53.8836 157.293 54.9644 159.146 57.5385C161 60.1127 161 63.5318 161 70.3634V70.8416C161 76.4746 161 79.2976 159.644 81.6032C158.288 83.9088 155.819 85.2778 150.893 88.0222L131.525 98.7773M49.65 49.6523L43.4341 51.7221C36.9496 53.8836 33.7073 54.9644 31.8537 57.5385C30 60.1127 30 63.5383 30 70.3634V70.8416C30 76.4746 30 79.2976 31.3559 81.6032C32.7117 83.9088 35.181 85.2778 40.1066 88.0222L59.475 98.7773" stroke="url(#paint2_linear_3833_13682)" stroke-width="6.5"/>
<path d="M118.425 161.001H72.5747L74.8017 149.892C75.0984 148.408 75.9 147.072 77.0702 146.112C78.2404 145.152 79.7071 144.627 81.2207 144.626H109.779C111.292 144.627 112.759 145.152 113.929 146.112C115.099 147.072 115.901 148.408 116.198 149.892L118.425 161.001Z" stroke="url(#paint3_linear_3833_13682)" stroke-width="6.5" stroke-linecap="round" stroke-linejoin="round"/>
<path d="M134.801 161.002H56.2012" stroke="url(#paint4_linear_3833_13682)" stroke-width="6.5" stroke-linecap="round"/>
<g clip-path="url(#clip0_3833_13682)">
<path d="M93.0031 55.1735C93.8911 52.7886 97.2644 52.7886 98.1524 55.1735L102.14 65.8846C102.42 66.636 103.014 67.2277 103.767 67.5045L114.496 71.4504C116.895 72.3325 116.895 75.7251 114.496 76.6073L103.767 80.5532C103.014 80.8299 102.42 81.4216 102.14 82.1731L98.1524 92.8841C97.2644 95.2691 93.8911 95.2691 93.0031 92.8841L89.0152 82.1731C88.7354 81.4216 88.1413 80.8299 87.3888 80.5532L76.6594 76.6073C74.2607 75.7251 74.2607 72.3325 76.6594 71.4504L87.3888 67.5045C88.1413 67.2277 88.7354 66.636 89.0152 65.8846L93.0031 55.1735Z" fill="url(#paint5_linear_3833_13682)"/>
</g>
<defs>
<linearGradient id="paint0_linear_3833_13682" x1="95.9013" y1="122.157" x2="96.958" y2="122.189" gradientUnits="userSpaceOnUse">
<stop stop-color="#3579F8"/>
<stop offset="0.906213" stop-color="#1760E8"/>
</linearGradient>
<linearGradient id="paint1_linear_3833_13682" x1="86.419" y1="32.1227" x2="157.821" y2="74.7089" gradientUnits="userSpaceOnUse">
<stop stop-color="#3579F8"/>
<stop offset="0.906213" stop-color="#1760E8"/>
</linearGradient>
<linearGradient id="paint2_linear_3833_13682" x1="82.5023" y1="50.7895" x2="121.648" y2="113.171" gradientUnits="userSpaceOnUse">
<stop stop-color="#3579F8"/>
<stop offset="0.906213" stop-color="#1760E8"/>
</linearGradient>
<linearGradient id="paint3_linear_3833_13682" x1="90.9505" y1="145.005" x2="103.713" y2="166.36" gradientUnits="userSpaceOnUse">
<stop stop-color="#3579F8"/>
<stop offset="0.906213" stop-color="#1760E8"/>
</linearGradient>
<linearGradient id="paint4_linear_3833_13682" x1="87.7026" y1="161.025" x2="87.7402" y2="162.794" gradientUnits="userSpaceOnUse">
<stop stop-color="#3579F8"/>
<stop offset="0.906213" stop-color="#1760E8"/>
</linearGradient>
<linearGradient id="paint5_linear_3833_13682" x1="91.4666" y1="93.7171" x2="123.699" y2="74.3874" gradientUnits="userSpaceOnUse">
<stop stop-color="#3579F8"/>
<stop offset="0.906213" stop-color="#1760E8"/>
</linearGradient>
<clipPath id="clip0_3833_13682">
<rect width="41.4346" height="41.288" fill="white" transform="translate(74.8604 53.3848)"/>
</clipPath>
</defs>
</svg>
