<svg width="384" height="384" viewBox="0 0 384 384" fill="none" xmlns="http://www.w3.org/2000/svg">
<rect width="384" height="384" rx="43" fill="white"/>
<path d="M192.002 244.804V284.404" stroke="url(#paint0_linear_3833_13717)" stroke-width="13" stroke-linecap="round"/>
<path d="M191.997 244.803C115.965 244.803 102.501 169.035 100.125 108.922C99.4518 92.2111 99.1218 83.8423 105.405 76.1203C111.675 68.3851 119.186 67.1179 134.221 64.5835C153.319 61.4535 172.644 59.9214 191.997 60.0031C215.546 60.0031 234.937 62.0755 249.773 64.5835C264.808 67.1179 272.319 68.3851 278.602 76.1203C284.885 83.8555 284.542 92.2111 283.882 108.922C281.506 169.022 268.042 244.803 192.01 244.803H191.997Z" stroke="url(#paint1_linear_3833_13717)" stroke-width="13"/>
<path d="M284.4 99.6045L296.927 103.776C309.995 108.132 316.529 110.31 320.264 115.497C324 120.685 324 127.575 324 141.343V142.306C324 153.658 324 159.348 321.268 163.994C318.535 168.64 313.559 171.399 303.632 176.93L264.6 198.604M99.6 99.6045L87.0732 103.776C74.0052 108.132 67.4712 110.31 63.7356 115.497C60 120.685 60 127.588 60 141.343V142.306C60 153.658 60 159.348 62.7324 163.994C65.4648 168.64 70.4412 171.399 80.3676 176.93L119.4 198.604" stroke="url(#paint2_linear_3833_13717)" stroke-width="13"/>
<path d="M238.198 324.002H145.798L150.286 301.615C150.884 298.624 152.5 295.932 154.858 293.997C157.216 292.062 160.172 291.004 163.222 291.002H220.774C223.825 291.004 226.78 292.062 229.139 293.997C231.497 295.932 233.112 298.624 233.71 301.615L238.198 324.002Z" stroke="url(#paint3_linear_3833_13717)" stroke-width="13" stroke-linecap="round" stroke-linejoin="round"/>
<path d="M271.202 324.004H112.802" stroke="url(#paint4_linear_3833_13717)" stroke-width="13" stroke-linecap="round"/>
<g clip-path="url(#clip0_3833_13717)">
<path d="M186.968 110.731C188.758 105.925 195.556 105.925 197.345 110.731L205.382 132.317C205.946 133.831 207.143 135.024 208.66 135.581L230.282 143.533C235.116 145.311 235.116 152.148 230.282 153.926L208.66 161.878C207.143 162.436 205.946 163.628 205.382 165.143L197.345 186.728C195.556 191.535 188.758 191.535 186.968 186.728L178.932 165.143C178.368 163.628 177.171 162.436 175.654 161.878L154.031 153.926C149.197 152.148 149.197 145.311 154.031 143.533L175.654 135.581C177.171 135.024 178.368 133.831 178.932 132.317L186.968 110.731Z" fill="url(#paint5_linear_3833_13717)"/>
</g>
<defs>
<linearGradient id="paint0_linear_3833_13717" x1="192.403" y1="245.721" x2="193.46" y2="245.737" gradientUnits="userSpaceOnUse">
<stop stop-color="#3579F8"/>
<stop offset="0.906213" stop-color="#1760E8"/>
</linearGradient>
<linearGradient id="paint1_linear_3833_13717" x1="173.7" y1="64.2778" x2="317.595" y2="150.1" gradientUnits="userSpaceOnUse">
<stop stop-color="#3579F8"/>
<stop offset="0.906213" stop-color="#1760E8"/>
</linearGradient>
<linearGradient id="paint2_linear_3833_13717" x1="165.806" y1="101.896" x2="244.696" y2="227.611" gradientUnits="userSpaceOnUse">
<stop stop-color="#3579F8"/>
<stop offset="0.906213" stop-color="#1760E8"/>
</linearGradient>
<linearGradient id="paint3_linear_3833_13717" x1="182.831" y1="291.766" x2="208.55" y2="334.801" gradientUnits="userSpaceOnUse">
<stop stop-color="#3579F8"/>
<stop offset="0.906213" stop-color="#1760E8"/>
</linearGradient>
<linearGradient id="paint4_linear_3833_13717" x1="176.286" y1="324.027" x2="176.305" y2="325.797" gradientUnits="userSpaceOnUse">
<stop stop-color="#3579F8"/>
<stop offset="0.906213" stop-color="#1760E8"/>
</linearGradient>
<linearGradient id="paint5_linear_3833_13717" x1="183.872" y1="188.407" x2="248.828" y2="149.452" gradientUnits="userSpaceOnUse">
<stop stop-color="#3579F8"/>
<stop offset="0.906213" stop-color="#1760E8"/>
</linearGradient>
<clipPath id="clip0_3833_13717">
<rect width="83.5018" height="83.2063" fill="white" transform="translate(150.406 107.126)"/>
</clipPath>
</defs>
</svg>
