<svg width="152" height="152" viewBox="0 0 152 152" fill="none" xmlns="http://www.w3.org/2000/svg">
<rect width="152" height="152" rx="17.11" fill="white"/>
<path d="M76.0005 96.8018V112.402" stroke="url(#paint0_linear_3833_13647)" stroke-width="5" stroke-linecap="round"/>
<path d="M75.9987 96.8012C46.0467 96.8012 40.7427 66.9532 39.8067 43.2724C39.5415 36.6892 39.4115 33.3924 41.8867 30.3504C44.3567 27.3032 47.3155 26.804 53.2383 25.8056C60.7617 24.5726 68.3749 23.969 75.9987 24.0012C85.2755 24.0012 92.9143 24.8176 98.7591 25.8056C104.682 26.804 107.641 27.3032 110.116 30.3504C112.591 33.3976 112.456 36.6892 112.196 43.2724C111.26 66.948 105.956 96.8012 76.0039 96.8012H75.9987Z" stroke="url(#paint1_linear_3833_13647)" stroke-width="5"/>
<path d="M112.4 39.6016L117.335 41.2448C122.483 42.9608 125.057 43.8188 126.528 45.8624C128 47.906 128 50.6204 128 56.044V56.4236C128 60.8956 128 63.1368 126.924 64.9672C125.847 66.7976 123.887 67.8844 119.976 70.0632L104.6 78.6016M39.6 39.6016L34.6652 41.2448C29.5172 42.9608 26.9432 43.8188 25.4716 45.8624C24 47.906 24 50.6256 24 56.044V56.4236C24 60.8956 24 63.1368 25.0764 64.9672C26.1528 66.7976 28.1132 67.8844 32.0236 70.0632L47.4 78.6016" stroke="url(#paint2_linear_3833_13647)" stroke-width="5"/>
<path d="M94.1998 128.001H57.7998L59.5678 119.182C59.8033 118.003 60.4397 116.943 61.3687 116.181C62.2978 115.419 63.4621 115.002 64.6638 115.001H87.3358C88.5375 115.002 89.7018 115.419 90.6309 116.181C91.5599 116.943 92.1963 118.003 92.4318 119.182L94.1998 128.001Z" stroke="url(#paint3_linear_3833_13647)" stroke-width="5" stroke-linecap="round" stroke-linejoin="round"/>
<path d="M107.201 128.001H44.8008" stroke="url(#paint4_linear_3833_13647)" stroke-width="5" stroke-linecap="round"/>
<g clip-path="url(#clip0_3833_13647)">
<path d="M74.0182 43.985C74.7231 42.0916 77.4012 42.0916 78.1061 43.985L81.2721 52.4885C81.4942 53.085 81.9659 53.5548 82.5633 53.7745L91.0813 56.9071C92.9856 57.6074 92.9856 60.3008 91.0813 61.0011L82.5633 64.1337C81.9659 64.3535 81.4942 64.8232 81.2721 65.4198L78.1061 73.9232C77.4012 75.8166 74.7231 75.8166 74.0182 73.9232L70.8522 65.4198C70.6301 64.8232 70.1584 64.3535 69.561 64.1337L61.043 61.0011C59.1387 60.3008 59.1387 57.6074 61.043 56.9071L69.561 53.7745C70.1584 53.5548 70.6301 53.085 70.8522 52.4885L74.0182 43.985Z" fill="url(#paint5_linear_3833_13647)"/>
</g>
<defs>
<linearGradient id="paint0_linear_3833_13647" x1="76.4013" y1="97.1629" x2="77.4574" y2="97.2033" gradientUnits="userSpaceOnUse">
<stop stop-color="#3579F8"/>
<stop offset="0.906213" stop-color="#1760E8"/>
</linearGradient>
<linearGradient id="paint1_linear_3833_13647" x1="68.7909" y1="25.6852" x2="125.477" y2="59.4941" gradientUnits="userSpaceOnUse">
<stop stop-color="#3579F8"/>
<stop offset="0.906213" stop-color="#1760E8"/>
</linearGradient>
<linearGradient id="paint2_linear_3833_13647" x1="65.6812" y1="40.5043" x2="96.759" y2="90.0283" gradientUnits="userSpaceOnUse">
<stop stop-color="#3579F8"/>
<stop offset="0.906213" stop-color="#1760E8"/>
</linearGradient>
<linearGradient id="paint3_linear_3833_13647" x1="72.3882" y1="115.302" x2="82.5203" y2="132.255" gradientUnits="userSpaceOnUse">
<stop stop-color="#3579F8"/>
<stop offset="0.906213" stop-color="#1760E8"/>
</linearGradient>
<linearGradient id="paint4_linear_3833_13647" x1="69.8095" y1="128.025" x2="69.857" y2="129.793" gradientUnits="userSpaceOnUse">
<stop stop-color="#3579F8"/>
<stop offset="0.906213" stop-color="#1760E8"/>
</linearGradient>
<linearGradient id="paint5_linear_3833_13647" x1="72.7984" y1="74.5845" x2="98.387" y2="59.2388" gradientUnits="userSpaceOnUse">
<stop stop-color="#3579F8"/>
<stop offset="0.906213" stop-color="#1760E8"/>
</linearGradient>
<clipPath id="clip0_3833_13647">
<rect width="32.8947" height="32.7782" fill="white" transform="translate(59.6147 42.5649)"/>
</clipPath>
</defs>
</svg>
