<svg width="42" height="42" viewBox="0 0 42 42" fill="none" xmlns="http://www.w3.org/2000/svg">
<g clip-path="url(#clip0_1093_12965)">
<path d="M21 42C32.598 42 42 32.598 42 21C42 9.40202 32.598 0 21 0C9.40202 0 0 9.40202 0 21C0 32.598 9.40202 42 21 42Z" fill="#99A2AD"/>
<path fill-rule="evenodd" clip-rule="evenodd" d="M9.50529 20.7784C15.6272 18.1112 19.7095 16.3528 21.752 15.5032C27.5839 13.0775 28.7958 12.6562 29.5856 12.6422C29.7593 12.6392 30.1478 12.6822 30.3994 12.8864C30.6118 13.0588 30.6703 13.2917 30.6982 13.4551C30.7262 13.6185 30.7611 13.9909 30.7334 14.2818C30.4173 17.6024 29.0499 25.6606 28.3542 29.3797C28.0598 30.9534 27.4802 31.4811 26.919 31.5327C25.6995 31.6449 24.7735 30.7268 23.5923 29.9525C21.744 28.7409 20.6999 27.9867 18.9058 26.8045C16.8324 25.4382 18.1765 24.6872 19.3581 23.46C19.6673 23.1388 25.0405 18.2515 25.1445 17.8081C25.1575 17.7526 25.1696 17.546 25.0468 17.4368C24.924 17.3277 24.7428 17.365 24.612 17.3947C24.4266 17.4368 21.474 19.3883 15.7541 23.2494C14.916 23.8249 14.1569 24.1053 13.4767 24.0906C12.7269 24.0744 11.2846 23.6667 10.2124 23.3182C8.89724 22.8907 7.85201 22.6646 7.94302 21.9386C7.99043 21.5605 8.51119 21.1737 9.50529 20.7784Z" fill="white"/>
</g>
<defs>
<clipPath id="clip0_1093_12965">
<rect width="42" height="42" fill="white"/>
</clipPath>
</defs>
</svg>
