<svg width="42" height="42" viewBox="0 0 42 42" fill="none" xmlns="http://www.w3.org/2000/svg">
<g clip-path="url(#clip0_1093_12964)">
<path d="M0 20.16C0 10.6565 0 5.90473 2.95236 2.95236C5.90473 0 10.6565 0 20.16 0H21.84C31.3435 0 36.0952 0 39.0477 2.95236C42 5.90473 42 10.6565 42 20.16V21.84C42 31.3435 42 36.0952 39.0477 39.0477C36.0952 42 31.3435 42 21.84 42H20.16C10.6565 42 5.90473 42 2.95236 39.0477C0 36.0952 0 31.3435 0 21.84V20.16Z" fill="#99A2AD"/>
<path d="M22.3473 30.2576C12.7748 30.2576 7.3149 23.6951 7.0874 12.7751H11.8824C12.0399 20.7901 15.5748 24.1851 18.3748 24.8851V12.7751H22.89V19.6876C25.655 19.3901 28.5596 16.2401 29.5396 12.7751H34.0547C33.3022 17.0451 30.1522 20.1951 27.9122 21.4901C30.1522 22.5401 33.7399 25.2876 35.1049 30.2576H30.1347C29.0672 26.9326 26.4075 24.3601 22.89 24.0101V30.2576H22.3473Z" fill="white"/>
</g>
<defs>
<clipPath id="clip0_1093_12964">
<rect width="42" height="42" fill="white"/>
</clipPath>
</defs>
</svg>
