<svg width="49" height="49" viewBox="0 0 49 49" fill="none" xmlns="http://www.w3.org/2000/svg">
<path id="Vector" d="M26.5338 2.69152L29.353 17.9957C29.5141 18.8415 30.1585 19.4858 31.0043 19.6469L46.3085 22.4661C48.5638 22.8689 48.5638 26.1311 46.3085 26.5338L31.0043 29.353C30.1585 29.5141 29.5141 30.1585 29.353 31.0043L26.5338 46.3085C26.1311 48.5638 22.8689 48.5638 22.4662 46.3085L19.647 31.0043C19.4859 30.1585 18.8415 29.5141 17.9957 29.353L2.69152 26.5338C0.436161 26.1311 0.436161 22.8689 2.69152 22.4661L17.9957 19.6469C18.8415 19.4858 19.4859 18.8415 19.647 17.9957L22.4662 2.69152C22.9092 0.436161 26.1311 0.436161 26.5338 2.69152Z" stroke="white" stroke-width="2" stroke-linecap="round"/>
</svg>
