<svg width="147" height="226" viewBox="0 0 147 226" fill="none" xmlns="http://www.w3.org/2000/svg">
<g id="openmoji:thought-balloon">
<path id="Vector" d="M61.4601 147.936C58.924 143.832 57.3476 139.259 56.8377 134.526C56.3279 129.793 56.8965 125.012 58.505 120.506C42.4465 116.099 31.5324 101.313 33.3596 85.0061C35.4082 66.6994 52.7176 53.4361 72.0124 55.3828C75.1046 55.6961 78.0457 56.4161 80.8252 57.4194C85.7692 31.9661 110.588 14.0194 138.172 16.7861C161.736 19.1628 180.022 35.9194 184.344 56.8861C185.697 56.8728 187.064 56.9161 188.445 57.0528C207.743 58.9994 221.722 75.4194 219.673 93.7194C219.119 98.689 217.391 103.476 214.618 107.725C211.845 111.974 208.099 115.576 203.657 118.263C203.889 121.223 203.889 124.236 203.544 127.296C200.47 154.753 174.509 174.663 145.565 171.729C133.484 170.526 122.218 165.383 113.687 157.179C110.767 159.388 107.496 161.143 103.996 162.379" stroke="url(#paint0_linear_3263_38752)" stroke-width="4.03043" stroke-miterlimit="10" stroke-linecap="round" stroke-linejoin="round"/>
<path id="Ellipse 27" d="M96.3819 172.666C96.3819 182.5 87.9463 190.651 77.3138 190.651C66.6813 190.651 58.2457 182.5 58.2457 172.666C58.2457 162.832 66.6813 154.681 77.3138 154.681C87.9463 154.681 96.3819 162.832 96.3819 172.666Z" stroke="url(#paint1_linear_3263_38752)" stroke-width="4.03043"/>
<path id="Ellipse 28" d="M54.4735 196.003C54.4735 200.476 50.6238 204.256 45.6784 204.256C40.733 204.256 36.8832 200.476 36.8832 196.003C36.8832 191.53 40.733 187.749 45.6784 187.749C50.6238 187.749 54.4735 191.53 54.4735 196.003Z" stroke="url(#paint2_linear_3263_38752)" stroke-width="3.49304"/>
</g>
<defs>
<linearGradient id="paint0_linear_3263_38752" x1="126.516" y1="16.5049" x2="126.516" y2="172.016" gradientUnits="userSpaceOnUse">
<stop stop-color="white"/>
<stop offset="1" stop-color="#FFA674"/>
</linearGradient>
<linearGradient id="paint1_linear_3263_38752" x1="77.3138" y1="152.666" x2="77.3138" y2="192.666" gradientUnits="userSpaceOnUse">
<stop stop-color="white"/>
<stop offset="1" stop-color="#FFA674"/>
</linearGradient>
<linearGradient id="paint2_linear_3263_38752" x1="45.6784" y1="186.003" x2="45.6784" y2="206.003" gradientUnits="userSpaceOnUse">
<stop stop-color="white"/>
<stop offset="1" stop-color="#FFA674"/>
</linearGradient>
</defs>
</svg>
