<svg width="160" height="222" viewBox="0 0 160 222" fill="none" xmlns="http://www.w3.org/2000/svg">
<g id="Frame">
<path id="Vector" d="M72.4191 132.034C68.5644 132.377 64.8277 133.521 61.4701 135.386C58.1124 137.252 55.2145 139.794 52.9788 142.835C50.743 145.875 49.2232 149.342 48.5254 152.993C47.8277 156.643 47.9687 160.389 48.9387 163.97C49.9088 167.551 51.6844 170.88 54.1417 173.725C56.5991 176.569 59.6789 178.861 63.1663 180.441C66.6536 182.02 70.4645 182.849 74.3329 182.869C78.2014 182.889 82.0342 182.1 85.5638 180.557M49.4424 147.719C43.9439 145.746 39.0553 142.488 35.2179 138.239C31.3804 133.991 28.7149 128.886 27.4618 123.385C26.2087 117.884 26.4075 112.161 28.0403 106.731C29.6731 101.301 32.6885 96.3365 36.8143 92.2843M37.0193 91.5762C33.7598 87.6801 32.0531 82.7944 32.2014 77.7838C32.3497 72.7733 34.3434 67.9612 37.8295 64.1995C41.3157 60.4377 46.0695 57.969 51.2493 57.2302C56.4291 56.4914 61.7008 57.5303 66.1312 60.163M68.2813 60.5287C66.6216 57.7859 65.6294 54.7162 65.3781 51.5465C65.1267 48.3768 65.6225 45.1881 66.829 42.2161C68.0354 39.244 69.9216 36.5647 72.3481 34.3761C74.7746 32.1876 77.6794 30.5457 80.8477 29.5719C84.0161 28.598 87.367 28.3172 90.6528 28.75C93.9386 29.1829 97.0752 30.3184 99.8309 32.0726C102.587 33.8269 104.891 36.1549 106.573 38.8848C108.256 41.6147 109.273 44.6766 109.551 47.8441M109.551 47.8441L121.017 178.903M109.551 47.8441C109.274 44.6765 109.745 41.4844 110.928 38.5038C112.111 35.5233 113.976 32.8304 116.385 30.6243C118.794 28.4183 121.686 26.7553 124.846 25.7585C128.007 24.7616 131.356 24.4563 134.645 24.8652C137.935 25.274 141.08 26.3866 143.85 28.1205C146.62 29.8545 148.942 32.1656 150.647 34.883C152.351 37.6003 153.393 40.6545 153.696 43.8197C153.999 46.9849 153.555 50.1803 152.396 53.1696M121.017 178.903C121.41 183.388 119.925 187.853 116.89 191.314C113.855 194.775 109.518 196.95 104.833 197.36C100.148 197.77 95.4994 196.381 91.9094 193.499C88.3193 190.618 86.082 186.479 85.6896 181.994M121.017 178.903C121.41 183.388 123.647 187.527 127.237 190.409C130.827 193.29 135.476 194.679 140.161 194.269C144.845 193.859 149.182 191.684 152.217 188.223C155.253 184.762 156.737 180.298 156.345 175.813M111.4 68.9827C111.989 75.7103 115.345 81.9181 120.73 86.2404C126.115 90.5628 133.088 92.6457 140.115 92.0309M160.738 124.307C164.594 123.976 168.472 124.453 172.103 125.707C175.734 126.961 179.029 128.961 181.759 131.568C184.488 134.174 186.587 137.324 187.908 140.798C189.229 144.272 189.741 147.986 189.407 151.681C189.074 155.376 187.903 158.962 185.977 162.191C184.051 165.419 181.416 168.211 178.256 170.372C175.096 172.533 171.487 174.01 167.681 174.702C163.875 175.393 159.963 175.282 156.219 174.375M186.09 135.764C191.162 132.866 195.41 128.808 198.452 123.958C201.493 119.108 203.232 113.618 203.511 107.983C203.789 102.348 202.6 96.746 200.049 91.6823C197.498 86.6186 193.666 82.2527 188.9 78.9786M188.575 78.3169C191.108 73.9139 191.941 68.806 190.924 63.8974C189.908 58.9887 187.109 54.596 183.023 51.4967C178.937 48.3975 173.826 46.7917 168.597 46.9636C163.367 47.1355 158.356 49.0741 154.45 52.4361" stroke="url(#paint0_linear_3263_38772)" stroke-width="3.99107" stroke-linecap="round" stroke-linejoin="round"/>
</g>
<defs>
<linearGradient id="paint0_linear_3263_38772" x1="107.702" y1="26.7089" x2="122.497" y2="195.814" gradientUnits="userSpaceOnUse">
<stop stop-color="white"/>
<stop offset="1" stop-color="#FFA4A9"/>
</linearGradient>
</defs>
</svg>
