<svg width="74" height="17" viewBox="0 0 74 17" fill="none" xmlns="http://www.w3.org/2000/svg">
<path d="M12.6487 0.548114V13.3374H10.119V5.04265L6.48132 10.9806H6.18588L2.54821 5.06092V13.3374H0V0.548114H2.62207L6.3336 6.59564L10.0267 0.548114H12.6487Z" fill="#3579F8"/>
<path d="M20.9661 4.20221H23.5143L20.1536 13.3374C19.6735 14.6529 19.0334 15.603 18.2332 16.1876C17.4453 16.7845 16.4605 17.0524 15.2787 16.9915V14.7991C15.9189 14.8113 16.4236 14.6773 16.7929 14.3971C17.1745 14.117 17.4761 13.6663 17.6977 13.0451L13.9123 4.20221H16.5159L18.9164 10.3411L20.9661 4.20221Z" fill="#3579F8"/>
<path d="M35.6347 11.6748C34.3298 12.9538 32.7418 13.5932 30.8707 13.5932C28.9995 13.5932 27.4115 12.9538 26.1066 11.6748C24.8141 10.3837 24.1678 8.80637 24.1678 6.94278C24.1678 5.07919 24.8141 3.50793 26.1066 2.229C27.4115 0.937884 28.9995 0.292327 30.8707 0.292327C32.7418 0.292327 34.3298 0.937884 35.6347 2.229C36.9396 3.50793 37.592 5.07919 37.592 6.94278C37.592 8.80637 36.9396 10.3837 35.6347 11.6748ZM27.8978 9.95741C28.6979 10.7369 29.6889 11.1267 30.8707 11.1267C32.0525 11.1267 33.0434 10.7369 33.8436 9.95741C34.6437 9.16569 35.0438 8.16081 35.0438 6.94278C35.0438 5.72475 34.6437 4.71987 33.8436 3.92815C33.0434 3.13643 32.0525 2.74057 30.8707 2.74057C29.6889 2.74057 28.6979 3.13643 27.8978 3.92815C27.0976 4.71987 26.6975 5.72475 26.6975 6.94278C26.6975 8.16081 27.0976 9.16569 27.8978 9.95741Z" fill="#3579F8"/>
<path d="M39.2722 13.3374V0H41.6543V13.3374H39.2722Z" fill="#3579F8"/>
<path d="M45.0162 3.10598C44.6223 3.10598 44.2776 2.96591 43.9822 2.68576C43.6991 2.39343 43.5575 2.05238 43.5575 1.66261C43.5575 1.27284 43.6991 0.931794 43.9822 0.639466C44.2776 0.347138 44.6223 0.200975 45.0162 0.200975C45.4225 0.200975 45.7672 0.347138 46.0503 0.639466C46.3458 0.931794 46.4935 1.27284 46.4935 1.66261C46.4935 2.05238 46.3458 2.39343 46.0503 2.68576C45.7672 2.96591 45.4225 3.10598 45.0162 3.10598ZM43.8345 13.3374V4.20221H46.2165V13.3374H43.8345Z" fill="#3579F8"/>
<path d="M58.608 3.94642C59.6667 3.94642 60.5099 4.28747 61.1378 4.96957C61.7779 5.65167 62.0979 6.56519 62.0979 7.71014V13.3374H59.7159V7.87457C59.7159 7.32646 59.5805 6.90015 59.3097 6.59564C59.0389 6.29113 58.6573 6.13888 58.1648 6.13888C57.6232 6.13888 57.1985 6.31549 56.8907 6.66872C56.5953 7.02195 56.4476 7.53352 56.4476 8.20344V13.3374H54.0656V7.87457C54.0656 7.32646 53.9301 6.90015 53.6593 6.59564C53.3885 6.29113 53.0069 6.13888 52.5145 6.13888C51.9851 6.13888 51.5604 6.31549 51.2404 6.66872C50.9326 7.02195 50.7787 7.53352 50.7787 8.20344V13.3374H48.3967V4.20221H50.7787V5.17054C51.3327 4.35446 52.1882 3.94642 53.3454 3.94642C54.4779 3.94642 55.315 4.38491 55.8567 5.2619C56.4722 4.38491 57.3893 3.94642 58.608 3.94642Z" fill="#3579F8"/>
<path d="M69.4945 3.94642C70.7378 3.94642 71.7965 4.41536 72.6705 5.35325C73.5568 6.27895 74 7.41781 74 8.76983C74 10.1218 73.5568 11.2668 72.6705 12.2047C71.7965 13.1304 70.7378 13.5932 69.4945 13.5932C68.2019 13.5932 67.2048 13.1487 66.5031 12.2595V16.9915H64.1211V4.20221H66.5031V5.28017C67.2048 4.391 68.2019 3.94642 69.4945 3.94642ZM67.2232 10.6334C67.7033 11.1084 68.3127 11.346 69.0513 11.346C69.7899 11.346 70.3993 11.1084 70.8794 10.6334C71.3718 10.1462 71.618 9.52501 71.618 8.76983C71.618 8.01465 71.3718 7.39954 70.8794 6.92451C70.3993 6.4373 69.7899 6.19369 69.0513 6.19369C68.3127 6.19369 67.7033 6.4373 67.2232 6.92451C66.7431 7.39954 66.5031 8.01465 66.5031 8.76983C66.5031 9.52501 66.7431 10.1462 67.2232 10.6334Z" fill="#3579F8"/>
<path d="M46.4772 1.71968C46.4772 2.53701 45.8075 3.19959 44.9815 3.19959C44.1554 3.19959 43.4858 2.53701 43.4858 1.71968C43.4858 0.90235 44.1554 0.239772 44.9815 0.239772C45.8075 0.239772 46.4772 0.90235 46.4772 1.71968Z" fill="#3579F8"/>
</svg>
