<svg width="115" height="28" viewBox="0 0 115 28" fill="none" xmlns="http://www.w3.org/2000/svg">
<g id="Vector">
<path d="M19.6568 0.902776V21.9676H15.7255V8.30554L10.0723 18.0856H9.61319L3.96006 8.33564V21.9676H0V0.902776H4.07484L9.84276 10.8634L15.582 0.902776H19.6568Z" fill="#3579F8"/>
<path d="M32.5824 6.92129H36.5424L31.3198 21.9676C30.5737 24.1342 29.5789 25.699 28.3354 26.662C27.111 27.645 25.5805 28.0864 23.744 27.9861V24.375C24.7388 24.395 25.5231 24.1743 26.0971 23.7129C26.6901 23.2515 27.1588 22.5092 27.5032 21.4861L21.6205 6.92129H25.6666L29.3971 17.0324L32.5824 6.92129Z" fill="#3579F8"/>
<path d="M55.3783 19.2291C53.3504 21.3356 50.8826 22.3889 47.9747 22.3889C45.0668 22.3889 42.599 21.3356 40.5711 19.2291C38.5624 17.1026 37.558 14.5046 37.558 11.4352C37.558 8.36573 38.5624 5.77777 40.5711 3.67129C42.599 1.54475 45.0668 0.48148 47.9747 0.48148C50.8826 0.48148 53.3504 1.54475 55.3783 3.67129C57.4061 5.77777 58.4201 8.36573 58.4201 11.4352C58.4201 14.5046 57.4061 17.1026 55.3783 19.2291ZM43.3546 16.4004C44.5981 17.6844 46.1381 18.3264 47.9747 18.3264C49.8112 18.3264 51.3513 17.6844 52.5948 16.4004C53.8383 15.0964 54.46 13.4413 54.46 11.4352C54.46 9.429 53.8383 7.77391 52.5948 6.4699C51.3513 5.16589 49.8112 4.51388 47.9747 4.51388C46.1381 4.51388 44.5981 5.16589 43.3546 6.4699C42.1111 7.77391 41.4894 9.429 41.4894 11.4352C41.4894 13.4413 42.1111 15.0964 43.3546 16.4004Z" fill="#3579F8"/>
<path d="M61.0312 21.9676V0H64.733V21.9676H61.0312Z" fill="#3579F8"/>
<path d="M69.9577 5.11573C69.3455 5.11573 68.8098 4.88502 68.3507 4.4236C67.9107 3.94212 67.6907 3.3804 67.6907 2.73842C67.6907 2.09645 67.9107 1.53472 68.3507 1.05324C68.8098 0.571758 69.3455 0.331017 69.9577 0.331017C70.589 0.331017 71.1247 0.571758 71.5647 1.05324C72.0238 1.53472 72.2534 2.09645 72.2534 2.73842C72.2534 3.3804 72.0238 3.94212 71.5647 4.4236C71.1247 4.88502 70.589 5.11573 69.9577 5.11573ZM68.1211 21.9676V6.92129H71.8229V21.9676H68.1211Z" fill="#3579F8"/>
<path d="M91.08 6.49999C92.7253 6.49999 94.0357 7.06172 95.0114 8.18517C96.0062 9.30863 96.5036 10.8133 96.5036 12.6991V21.9676H92.8018V12.9699C92.8018 12.0671 92.5913 11.365 92.1705 10.8634C91.7496 10.3619 91.1565 10.1111 90.3913 10.1111C89.5496 10.1111 88.8896 10.402 88.4113 10.9838C87.9522 11.5656 87.7226 12.4082 87.7226 13.5116V21.9676H84.0208V12.9699C84.0208 12.0671 83.8103 11.365 83.3895 10.8634C82.9686 10.3619 82.3755 10.1111 81.6103 10.1111C80.7877 10.1111 80.1277 10.402 79.6303 10.9838C79.152 11.5656 78.9129 12.4082 78.9129 13.5116V21.9676H75.2111V6.92129H78.9129V8.51619C79.7738 7.17206 81.1034 6.49999 82.9016 6.49999C84.6617 6.49999 85.9626 7.22221 86.8043 8.66665C87.7608 7.22221 89.1861 6.49999 91.08 6.49999Z" fill="#3579F8"/>
<path d="M107.998 6.49999C109.93 6.49999 111.576 7.27237 112.934 8.81712C114.311 10.3418 115 12.2176 115 14.4444C115 16.6713 114.311 18.5571 112.934 20.1018C111.576 21.6265 109.93 22.3889 107.998 22.3889C105.989 22.3889 104.44 21.6566 103.349 20.1921V27.9861H99.6476V6.92129H103.349V8.69675C104.44 7.23224 105.989 6.49999 107.998 6.49999ZM104.469 17.5139C105.215 18.2963 106.162 18.6875 107.309 18.6875C108.457 18.6875 109.404 18.2963 110.15 17.5139C110.916 16.7114 111.298 15.6882 111.298 14.4444C111.298 13.2006 110.916 12.1875 110.15 11.4051C109.404 10.6026 108.457 10.2014 107.309 10.2014C106.162 10.2014 105.215 10.6026 104.469 11.4051C103.722 12.1875 103.349 13.2006 103.349 14.4444C103.349 15.6882 103.722 16.7114 104.469 17.5139Z" fill="#3579F8"/>
<path d="M72.2281 2.83242C72.2281 4.17861 71.1874 5.26991 69.9037 5.26991C68.6199 5.26991 67.5793 4.17861 67.5793 2.83242C67.5793 1.48622 68.6199 0.394919 69.9037 0.394919C71.1874 0.394919 72.2281 1.48622 72.2281 2.83242Z" fill="#3579F8"/>
</g>
</svg>
