<svg width="16" height="16" viewBox="0 0 16 16" fill="none" xmlns="http://www.w3.org/2000/svg">
<g clip-path="url(#clip0_3_1678)">
<path d="M8.66667 5.99996C8.66667 5.99996 9.33333 4.66663 9.33333 3.33329C9.33333 1.99996 8 0.666626 8 0.666626C8 0.666626 6.66667 1.99996 6.66667 3.33329C6.66667 4.66663 7.33333 5.99996 7.33333 5.99996M8 9.99996C8.53043 9.99996 9.03914 9.78925 9.41421 9.41417C9.78929 9.0391 10 8.53039 10 7.99996C10 7.46953 9.78929 6.96082 9.41421 6.58575C9.03914 6.21067 8.53043 5.99996 8 5.99996C7.46957 5.99996 6.96086 6.21067 6.58579 6.58575C6.21071 6.96082 6 7.46953 6 7.99996C6 8.53039 6.21071 9.0391 6.58579 9.41417C6.96086 9.78925 7.46957 9.99996 8 9.99996Z" stroke="#3579F8" stroke-width="1.2" stroke-miterlimit="1.5" stroke-linecap="round" stroke-linejoin="round"/>
<path d="M5.99935 7.33336C5.99935 7.33336 4.66602 6.6667 3.33268 6.6667C1.99935 6.6667 0.666016 8.00003 0.666016 8.00003C0.666016 8.00003 1.99935 9.33336 3.33268 9.33336C4.66602 9.33336 5.99935 8.6667 5.99935 8.6667M8.66602 10C8.66602 10 9.33268 11.3334 9.33268 12.6667C9.33268 14 7.99935 15.3334 7.99935 15.3334C7.99935 15.3334 6.66602 14 6.66602 12.6667C6.66602 11.3334 7.33268 10 7.33268 10M9.99935 7.33336C9.99935 7.33336 11.3327 6.6667 12.666 6.6667C13.9993 6.6667 15.3327 8.00003 15.3327 8.00003C15.3327 8.00003 13.9993 9.33336 12.666 9.33336C11.3327 9.33336 9.99935 8.6667 9.99935 8.6667M7.05668 6.1147C7.05668 6.1147 6.58535 4.70003 5.64202 3.75736C4.69935 2.8147 2.81402 2.8147 2.81402 2.8147C2.81402 2.8147 2.81402 4.70003 3.75668 5.64336C4.69935 6.58603 6.11402 7.05736 6.11402 7.05736M6.11402 8.9427C6.11402 8.9427 4.69935 9.41403 3.75668 10.3574C2.81402 11.3 2.81402 13.1854 2.81402 13.1854C2.81402 13.1854 4.69935 13.1854 5.64202 12.2427C6.58535 11.3 7.05668 9.88536 7.05668 9.88536M9.88535 8.9427C9.88535 8.9427 11.2987 9.41403 12.242 10.3574C13.1847 11.3 13.1847 13.1854 13.1847 13.1854C13.1847 13.1854 11.2993 13.1854 10.3567 12.2427C9.41335 11.3 8.94202 9.88536 8.94202 9.88536M8.94202 6.1147C8.94202 6.1147 9.41335 4.70003 10.3567 3.75736C11.2993 2.8147 13.1847 2.8147 13.1847 2.8147C13.1847 2.8147 13.1847 4.70003 12.242 5.64336C11.2993 6.58603 9.88468 7.05736 9.88468 7.05736" stroke="#3579F8" stroke-width="1.2" stroke-miterlimit="1.5" stroke-linecap="round" stroke-linejoin="round"/>
</g>
<defs>
<clipPath id="clip0_3_1678">
<rect width="16" height="16" fill="white"/>
</clipPath>
</defs>
</svg>
