<svg width="16" height="16" viewBox="0 0 16 16" fill="none" xmlns="http://www.w3.org/2000/svg">
<path d="M12.3327 10H3.66602" stroke="#3579F8" stroke-width="1.2" stroke-linejoin="round"/>
<path d="M10.6667 2.66664H5.33333M6 2.99997V6.83998C6.00016 7.15831 5.88641 7.4662 5.67933 7.70798L2.32 11.6253C2.11316 11.8672 1.99966 12.1751 2 12.4933V12.6666C2 13.0203 2.14048 13.3594 2.39052 13.6095C2.64057 13.8595 2.97971 14 3.33333 14H12.6667C13.0203 14 13.3594 13.8595 13.6095 13.6095C13.8595 13.3594 14 13.0203 14 12.6666V12.4933C14 12.1749 13.886 11.867 13.6787 11.6253L10.3207 7.70798C10.1136 7.4662 9.99984 7.15831 10 6.83998V2.99997M8 6.00664L8.00667 5.99931M7.33333 1.33997L7.34 1.33264" stroke="#3579F8" stroke-width="1.2" stroke-linecap="round" stroke-linejoin="round"/>
</svg>
