<svg width="16" height="16" viewBox="0 0 16 16" fill="none" xmlns="http://www.w3.org/2000/svg">
<path d="M2.66602 12.6667V3.33333C2.66602 2.97971 2.80649 2.64057 3.05654 2.39052C3.30659 2.14048 3.64573 2 3.99935 2H12.9327C13.0388 2 13.1405 2.04214 13.2155 2.11716C13.2905 2.19217 13.3327 2.29391 13.3327 2.4V11.1427" stroke="#3579F8" stroke-width="1.2" stroke-linecap="round"/>
<path d="M6.66678 9.33335C6.66678 9.33335 7.26678 7.25468 8.66678 6.00002M8.53478 8.28335L8.44545 8.29135C7.903 8.34193 7.36257 8.17585 6.94214 7.82936C6.52172 7.48288 6.25544 6.98414 6.20145 6.44202C6.17479 6.17436 6.20134 5.90407 6.27955 5.64671C6.35776 5.38935 6.4861 5.15 6.65717 4.94243C6.82824 4.73486 7.03868 4.56317 7.27636 4.43725C7.51405 4.31132 7.77429 4.23364 8.04211 4.20868L10.0328 4.02202C10.0942 4.01625 10.1554 4.03504 10.203 4.07427C10.2506 4.11349 10.2807 4.16997 10.2868 4.23135L10.4568 5.95135C10.4847 6.23085 10.4571 6.51312 10.3754 6.7819C10.2938 7.05067 10.1598 7.30064 9.98117 7.5174C9.80252 7.73417 9.58274 7.91344 9.33451 8.0449C9.08627 8.17635 8.81447 8.25739 8.53478 8.28335Z" stroke="#3579F8" stroke-width="1.2" stroke-linecap="round" stroke-linejoin="round"/>
<path d="M4 11.3334H13.3333M4 14H13.3333" stroke="#3579F8" stroke-width="1.2" stroke-linecap="round"/>
<path d="M3.99935 14C3.64573 14 3.30659 13.8596 3.05654 13.6095C2.80649 13.3595 2.66602 13.0203 2.66602 12.6667C2.66602 12.3131 2.80649 11.9739 3.05654 11.7239C3.30659 11.4739 3.64573 11.3334 3.99935 11.3334" stroke="#3579F8" stroke-width="1.2" stroke-linecap="round" stroke-linejoin="round"/>
</svg>
