<svg width="16" height="16" viewBox="0 0 16 16" fill="none" xmlns="http://www.w3.org/2000/svg">
<g clip-path="url(#clip0_3_1661)">
<path d="M0.666016 14V1.99996C0.666016 1.64634 0.806491 1.3072 1.05654 1.05715C1.30659 0.807102 1.64573 0.666626 1.99935 0.666626H13.9993C14.353 0.666626 14.6921 0.807102 14.9422 1.05715C15.1922 1.3072 15.3327 1.64634 15.3327 1.99996V14C15.3327 14.3536 15.1922 14.6927 14.9422 14.9428C14.6921 15.1928 14.353 15.3333 13.9993 15.3333H1.99935C1.64573 15.3333 1.30659 15.1928 1.05654 14.9428C0.806491 14.6927 0.666016 14.3536 0.666016 14Z" stroke="#3579F8" stroke-width="1.2"/>
<path d="M10.0007 4.66671H12.6673M10.0007 10.3334H12.6673M10.0007 12.3334H12.6673M3.33398 4.66671H4.66732M4.66732 4.66671H6.00065M4.66732 4.66671V3.33337M4.66732 4.66671V6.00004M3.72465 12.276L4.66732 11.3334M4.66732 11.3334L5.61065 10.3907M4.66732 11.3334L3.72465 10.3907M4.66732 11.3334L5.61065 12.276" stroke="#3579F8" stroke-width="1.2" stroke-linecap="round" stroke-linejoin="round"/>
</g>
<defs>
<clipPath id="clip0_3_1661">
<rect width="16" height="16" fill="white"/>
</clipPath>
</defs>
</svg>
