<svg width="16" height="16" viewBox="0 0 16 16" fill="none" xmlns="http://www.w3.org/2000/svg">
<g clip-path="url(#clip0_3_1621)">
<path d="M8.00065 14.6667C11.6827 14.6667 14.6673 11.682 14.6673 8.00004C14.6673 4.31804 11.6827 1.33337 8.00065 1.33337C4.31865 1.33337 1.33398 4.31804 1.33398 8.00004C1.33398 9.21404 1.65865 10.3534 2.22598 11.3334L1.66732 14.3334L4.66732 13.7747C5.68034 14.3607 6.83033 14.6685 8.00065 14.6667Z" stroke="#3579F8" stroke-width="1.2" stroke-linecap="round" stroke-linejoin="round"/>
<path d="M8.14133 11.0998C6.41477 11.0997 5.33573 9.91677 5.33583 8.00759C5.33592 6.10671 6.41509 4.91145 8.14165 4.91154C9.86406 4.91162 10.9473 6.10699 10.9472 8.00787C10.9471 9.12847 10.5735 10.0083 9.90528 10.5271L10.6855 11.6353L9.71431 11.6352L9.20384 10.9214C8.88426 11.0417 8.52732 11.0998 8.14133 11.0998ZM8.14138 10.2863C8.34059 10.2863 8.52736 10.2573 8.70168 10.2033L7.98787 9.19473L8.93001 9.19478L9.35332 9.76755C9.76007 9.38989 9.99253 8.77979 9.99257 8.00782C9.99264 6.60914 9.27881 5.72507 8.14161 5.72501C7.0044 5.72495 6.28634 6.60895 6.28627 8.00763C6.2862 9.40216 7.00417 10.2862 8.14138 10.2863Z" fill="#3579F8"/>
</g>
<defs>
<clipPath id="clip0_3_1621">
<rect width="16" height="16" fill="white"/>
</clipPath>
</defs>
</svg>
