<svg width="17" height="16" viewBox="0 0 17 16" fill="none" xmlns="http://www.w3.org/2000/svg">
<path d="M8.99935 6.33333V1M3.66602 6.33333H14.3327M8.82068 14.244L5.14068 12.404C4.6976 12.1826 4.32494 11.8421 4.06447 11.4208C3.80401 10.9995 3.66603 10.514 3.66602 10.0187V1.4C3.66602 1.29391 3.70816 1.19217 3.78317 1.11716C3.85819 1.04214 3.95993 1 4.06602 1H13.9327C14.0388 1 14.1405 1.04214 14.2155 1.11716C14.2905 1.19217 14.3327 1.29391 14.3327 1.4V10.0187C14.3327 10.5139 14.1949 10.9994 13.9345 11.4207C13.6742 11.842 13.3016 12.1825 12.8587 12.404L9.17868 14.244C9.12311 14.2718 9.06182 14.2863 8.99968 14.2863C8.93754 14.2863 8.87625 14.2718 8.82068 14.244Z" stroke="#3579F8" stroke-width="1.2" stroke-linecap="round" stroke-linejoin="round"/>
</svg>
