<svg width="17" height="16" viewBox="0 0 17 16" fill="none" xmlns="http://www.w3.org/2000/svg">
<path d="M2 14H12M14.6667 14H15.3333" stroke="#3579F8" stroke-width="1.2" stroke-linecap="round" stroke-linejoin="round"/>
<path d="M2 10.9333V2.4C2 2.29391 2.04214 2.19217 2.11716 2.11716C2.19217 2.04214 2.29391 2 2.4 2H14.9333C15.0394 2 15.1412 2.04214 15.2162 2.11716C15.2912 2.19217 15.3333 2.29391 15.3333 2.4V10.9333C15.3333 11.0394 15.2912 11.1412 15.2162 11.2162C15.1412 11.2912 15.0394 11.3333 14.9333 11.3333H2.4C2.29391 11.3333 2.19217 11.2912 2.11716 11.2162C2.04214 11.1412 2 11.0394 2 10.9333Z" stroke="#3579F8" stroke-width="1.2"/>
</svg>
