<svg width="16" height="16" viewBox="0 0 16 16" fill="none" xmlns="http://www.w3.org/2000/svg">
<path d="M2.66602 12.6667V3.33333C2.66602 2.97971 2.80649 2.64057 3.05654 2.39052C3.30659 2.14048 3.64573 2 3.99935 2H12.9327C13.0388 2 13.1405 2.04214 13.2155 2.11716C13.2905 2.19217 13.3327 2.29391 13.3327 2.4V11.1427" stroke="#3579F8" stroke-width="1.2" stroke-linecap="round"/>
<path d="M9.33333 6.66667H9.6C9.70609 6.66667 9.80783 6.70881 9.88284 6.78382C9.95786 6.85884 10 6.96058 10 7.06667V8.93333C10 9.03942 9.95786 9.14116 9.88284 9.21618C9.80783 9.29119 9.70609 9.33333 9.6 9.33333H6.4C6.29391 9.33333 6.19217 9.29119 6.11716 9.21618C6.04214 9.14116 6 9.03942 6 8.93333V7.06667C6 6.96058 6.04214 6.85884 6.11716 6.78382C6.19217 6.70881 6.29391 6.66667 6.4 6.66667H6.66667M9.33333 6.66667V5.33333C9.33333 4.88867 9.06667 4 8 4C6.93333 4 6.66667 4.88867 6.66667 5.33333V6.66667M9.33333 6.66667H6.66667" stroke="#3579F8" stroke-width="1.2" stroke-linecap="round" stroke-linejoin="round"/>
<path d="M4 11.3334H13.3333M4 14H13.3333" stroke="#3579F8" stroke-width="1.2" stroke-linecap="round"/>
<path d="M3.99935 14C3.64573 14 3.30659 13.8596 3.05654 13.6095C2.80649 13.3595 2.66602 13.0203 2.66602 12.6667C2.66602 12.3131 2.80649 11.9739 3.05654 11.7239C3.30659 11.4739 3.64573 11.3334 3.99935 11.3334" stroke="#3579F8" stroke-width="1.2" stroke-linecap="round" stroke-linejoin="round"/>
</svg>
