<svg width="16" height="16" viewBox="0 0 16 16" fill="none" xmlns="http://www.w3.org/2000/svg">
<path d="M2.66602 12.6667V3.33333C2.66602 2.97971 2.80649 2.64057 3.05654 2.39052C3.30659 2.14048 3.64573 2 3.99935 2H12.9327C13.0388 2 13.1405 2.04214 13.2155 2.11716C13.2905 2.19217 13.3327 2.29391 13.3327 2.4V11.1427" stroke="#3579F8" stroke-width="1.2" stroke-linecap="round"/>
<path d="M10.6675 5.85332C10.6674 6.25447 10.5087 6.63932 10.2261 6.92399C9.57545 7.57999 8.94412 8.26399 8.26878 8.89599C8.19339 8.96468 8.0945 9.0018 7.99252 8.99969C7.89055 8.99758 7.79328 8.9564 7.72078 8.88466L5.77545 6.92466C5.49267 6.6398 5.33398 6.2547 5.33398 5.85332C5.33398 5.45195 5.49267 5.06685 5.77545 4.78199C5.91655 4.63985 6.08439 4.52703 6.26929 4.45004C6.45419 4.37305 6.6525 4.33342 6.85278 4.33342C7.05307 4.33342 7.25138 4.37305 7.43628 4.45004C7.62118 4.52703 7.78902 4.63985 7.93012 4.78199L8.00078 4.85332L8.07145 4.78199C8.28325 4.5679 8.55397 4.42168 8.84913 4.36194C9.1443 4.3022 9.45057 4.33165 9.72895 4.44653C10.0073 4.56142 10.2452 4.75654 10.4124 5.00706C10.5795 5.25758 10.6683 5.55217 10.6675 5.85332Z" stroke="#3579F8" stroke-width="1.2" stroke-linejoin="round"/>
<path d="M4 11.3334H13.3333M4 14H13.3333" stroke="#3579F8" stroke-width="1.2" stroke-linecap="round"/>
<path d="M3.99935 14C3.64573 14 3.30659 13.8596 3.05654 13.6095C2.80649 13.3595 2.66602 13.0203 2.66602 12.6667C2.66602 12.3131 2.80649 11.9739 3.05654 11.7239C3.30659 11.4739 3.64573 11.3334 3.99935 11.3334" stroke="#3579F8" stroke-width="1.2" stroke-linecap="round" stroke-linejoin="round"/>
</svg>
