<svg width="16" height="16" viewBox="0 0 16 16" fill="none" xmlns="http://www.w3.org/2000/svg">
<g clip-path="url(#clip0_264_30184)">
<path d="M0.666016 14.0001V2.00008C0.666016 1.64646 0.806491 1.30732 1.05654 1.05727C1.30659 0.807224 1.64573 0.666748 1.99935 0.666748H13.9993C14.353 0.666748 14.6921 0.807224 14.9422 1.05727C15.1922 1.30732 15.3327 1.64646 15.3327 2.00008V14.0001C15.3327 14.3537 15.1922 14.6928 14.9422 14.9429C14.6921 15.1929 14.353 15.3334 13.9993 15.3334H1.99935C1.64573 15.3334 1.30659 15.1929 1.05654 14.9429C0.806491 14.6928 0.666016 14.3537 0.666016 14.0001Z" stroke="#3579F8" stroke-width="1.2"/>
<path d="M10.0007 4.66659H12.6673M10.0007 10.3333H12.6673M10.0007 12.3333H12.6673M3.33398 4.66659H4.66732M4.66732 4.66659H6.00065M4.66732 4.66659V3.33325M4.66732 4.66659V5.99992M3.72465 12.2759L4.66732 11.3333M4.66732 11.3333L5.61065 10.3906M4.66732 11.3333L3.72465 10.3906M4.66732 11.3333L5.61065 12.2759" stroke="#3579F8" stroke-width="1.2" stroke-linecap="round" stroke-linejoin="round"/>
</g>
<defs>
<clipPath id="clip0_264_30184">
<rect width="16" height="16" fill="white"/>
</clipPath>
</defs>
</svg>
