<svg width="16" height="16" viewBox="0 0 16 16" fill="none" xmlns="http://www.w3.org/2000/svg">
<mask id="mask0_3_1629" style="mask-type:luminance" maskUnits="userSpaceOnUse" x="0" y="0" width="16" height="16">
<path d="M0 0H16V16H0V0Z" fill="white"/>
</mask>
<g mask="url(#mask0_3_1629)">
<path d="M14.666 7.99996H15.3327M7.99935 1.33329V0.666626M7.99935 15.3333V14.6666M13.3327 13.3333L12.666 12.6666M13.3327 2.66663L12.666 3.33329M2.66602 13.3333L3.33268 12.6666M2.66602 2.66663L3.33268 3.33329M0.666016 7.99996H1.33268M6.63402 6.41529L7.67335 4.21196C7.70135 4.14887 7.74705 4.09526 7.80492 4.05764C7.86279 4.02001 7.93033 3.99998 7.99935 3.99998C8.06837 3.99998 8.13591 4.02001 8.19378 4.05764C8.25164 4.09526 8.29735 4.14887 8.32535 4.21196L9.36468 6.41529L11.688 6.77063C11.986 6.81596 12.1047 7.19996 11.8893 7.41996L10.208 9.13329L10.6047 11.554C10.656 11.8653 10.344 12.102 10.0773 11.9553L7.99935 10.812L5.92135 11.9553C5.65468 12.102 5.34268 11.8653 5.39402 11.554L5.79068 9.13396L4.10935 7.41996C3.89402 7.19996 4.01268 6.81596 4.31068 6.77063L6.63402 6.41529Z" stroke="#3579F8" stroke-width="1.2" stroke-linecap="round" stroke-linejoin="round"/>
</g>
</svg>
