<svg width="16" height="16" viewBox="0 0 16 16" fill="none" xmlns="http://www.w3.org/2000/svg">
<path d="M2.936 9.07333C2.34333 8.76333 2 8.39467 2 8C2 6.89533 4.68667 6 8 6C11.3133 6 14 6.89533 14 8C14 8.476 13.5 8.91333 12.6667 9.25733M8 7.34L8.00667 7.33267" stroke="#3579F8" stroke-width="1.2" stroke-linecap="round" stroke-linejoin="round"/>
<path d="M11.2553 4.00003C11.2519 3.31803 11.0799 2.83536 10.7239 2.65336C9.73926 2.1527 7.72193 4.14003 6.21726 7.09203C4.71326 10.0447 4.29126 12.8447 5.27593 13.346C5.62726 13.5254 6.1106 13.3867 6.65593 13" stroke="#3579F8" stroke-width="1.2" stroke-linecap="round" stroke-linejoin="round"/>
<path d="M6.3999 2.83474C5.9599 2.57741 5.57123 2.50341 5.2759 2.65408C4.29123 3.15541 4.71323 5.95541 6.2179 8.90741C7.7219 11.8607 9.73923 13.8474 10.7232 13.3461C11.5986 12.9001 11.3626 10.6387 10.2432 8.06808" stroke="#3579F8" stroke-width="1.2" stroke-linecap="round" stroke-linejoin="round"/>
</svg>
