<svg width="16" height="16" viewBox="0 0 16 16" fill="none" xmlns="http://www.w3.org/2000/svg">
<g clip-path="url(#clip0_3_1611)">
<path d="M8.00065 14.6667C11.6827 14.6667 14.6673 11.682 14.6673 8.00004C14.6673 4.31804 11.6827 1.33337 8.00065 1.33337C4.31865 1.33337 1.33398 4.31804 1.33398 8.00004C1.33398 9.21404 1.65865 10.3534 2.22598 11.3334L1.66732 14.3334L4.66732 13.7747C5.68034 14.3607 6.83033 14.6685 8.00065 14.6667Z" stroke="#3579F8" stroke-width="1.2" stroke-linecap="round" stroke-linejoin="round"/>
<path d="M9.17885 7.80539L9.17897 5.48947L7.88698 5.4894C7.05202 5.48936 6.5686 5.91121 6.56856 6.6451C6.56852 7.38338 7.0519 7.80528 7.88686 7.80532L9.17885 7.80539ZM8.03184 8.61392L6.37059 11.0001L5.24119 11L7.00792 8.48643C6.13782 8.26226 5.55777 7.5679 5.55782 6.64065C5.55788 5.46731 6.41925 4.65876 7.68927 4.65883L10.159 4.65895L10.1587 11.0003L9.17869 11.0002L9.17881 8.61398L8.03184 8.61392Z" fill="#3579F8"/>
</g>
<defs>
<clipPath id="clip0_3_1611">
<rect width="16" height="16" fill="white"/>
</clipPath>
</defs>
</svg>
