<svg width="16" height="16" viewBox="0 0 16 16" fill="none" xmlns="http://www.w3.org/2000/svg">
<path d="M0.666016 13.3333V12.6667C0.666016 11.429 1.15768 10.242 2.03285 9.36684C2.90802 8.49167 4.09501 8 5.33268 8C6.57036 8 7.75734 8.49167 8.63251 9.36684C9.50768 10.242 9.99935 11.429 9.99935 12.6667V13.3333" stroke="#3579F8" stroke-width="1.2" stroke-linecap="round"/>
<path d="M8.66602 9.33333C8.66602 8.44928 9.01721 7.60143 9.64233 6.97631C10.2674 6.35119 11.1153 6 11.9993 6C12.4371 6 12.8705 6.08622 13.275 6.25373C13.6794 6.42125 14.0468 6.66678 14.3564 6.97631C14.6659 7.28584 14.9114 7.6533 15.0789 8.05772C15.2465 8.46214 15.3327 8.89559 15.3327 9.33333V9.66667" stroke="#3579F8" stroke-width="1.2" stroke-linecap="round"/>
<path d="M5.33268 8C6.03993 8 6.7182 7.71905 7.2183 7.21895C7.7184 6.71885 7.99935 6.04058 7.99935 5.33333C7.99935 4.62609 7.7184 3.94781 7.2183 3.44772C6.7182 2.94762 6.03993 2.66667 5.33268 2.66667C4.62544 2.66667 3.94716 2.94762 3.44706 3.44772C2.94697 3.94781 2.66602 4.62609 2.66602 5.33333C2.66602 6.04058 2.94697 6.71885 3.44706 7.21895C3.94716 7.71905 4.62544 8 5.33268 8ZM11.9993 6C12.5298 6 13.0385 5.78929 13.4136 5.41421C13.7886 5.03914 13.9993 4.53043 13.9993 4C13.9993 3.46957 13.7886 2.96086 13.4136 2.58579C13.0385 2.21071 12.5298 2 11.9993 2C11.4689 2 10.9602 2.21071 10.5851 2.58579C10.2101 2.96086 9.99935 3.46957 9.99935 4C9.99935 4.53043 10.2101 5.03914 10.5851 5.41421C10.9602 5.78929 11.4689 6 11.9993 6Z" stroke="#3579F8" stroke-width="1.2" stroke-linecap="round" stroke-linejoin="round"/>
</svg>
