<svg width="16" height="16" viewBox="0 0 16 16" fill="none" xmlns="http://www.w3.org/2000/svg">
<path d="M6.70009 7.0713L1.98675 11.7846C1.86278 11.9085 1.76444 12.0555 1.69734 12.2174C1.63024 12.3792 1.5957 12.5527 1.5957 12.728C1.5957 12.9032 1.63024 13.0767 1.69734 13.2386C1.76444 13.4004 1.86278 13.5475 1.98675 13.6713C2.23679 13.9213 2.57587 14.0617 2.92942 14.0617C3.28297 14.0617 3.62205 13.9213 3.87209 13.6713L8.58542 8.95663M11.4621 9.19997L14.0474 11.7853C14.2974 12.0353 14.4378 12.3744 14.4378 12.728C14.4378 13.0815 14.2974 13.4206 14.0474 13.6706C13.7974 13.9206 13.4583 14.061 13.1048 14.061C12.7512 14.061 12.4121 13.9206 12.1621 13.6706L8.02275 9.53197M4.48875 3.93597L3.07342 4.40663L1.66009 2.04997L2.60275 1.1073L4.96009 2.5213L4.48875 3.93597ZM4.48875 3.93597L6.37542 5.82263" stroke="#3579F8" stroke-width="1.2" stroke-linecap="round" stroke-linejoin="round"/>
<path d="M6.70044 7.07139C6.13777 5.63605 6.24777 3.75272 7.40777 2.59272C8.56777 1.43272 10.7078 1.17872 11.8858 1.88605L9.8591 3.91272L9.67044 5.98672L11.7444 5.79872L13.7711 3.77139C14.4791 4.95005 14.2244 7.09005 13.0644 8.24939C11.9044 9.40939 10.0218 9.51939 8.58644 8.95672" stroke="#3579F8" stroke-width="1.2" stroke-linecap="round" stroke-linejoin="round"/>
</svg>
