<svg width="134" height="34" viewBox="0 0 134 34" fill="none" xmlns="http://www.w3.org/2000/svg">
<path d="M22.9045 1.09623V26.6749H18.3236V10.0853L11.7364 21.9611H11.2015L4.61433 10.1218V26.6749H0V1.09623H4.74808L11.469 13.1913L18.1564 1.09623H22.9045Z" fill="white"/>
<path d="M37.9656 8.40442H42.5799L36.4943 26.6749C35.625 29.3058 34.4658 31.206 33.0169 32.3753C31.5902 33.569 29.8069 34.1049 27.6669 33.9831V29.5982C28.8261 29.6225 29.74 29.3546 30.4088 28.7943C31.0998 28.234 31.6459 27.3326 32.0472 26.0902L25.1926 8.40442H29.9072L34.254 20.6822L37.9656 8.40442Z" fill="white"/>
<path d="M64.5277 23.3497C62.1648 25.9075 59.2892 27.1865 55.9009 27.1865C52.5126 27.1865 49.637 25.9075 47.2742 23.3497C44.9336 20.7674 43.7633 17.6127 43.7633 13.8856C43.7633 10.1584 44.9336 7.01586 47.2742 4.45799C49.637 1.87577 52.5126 0.584654 55.9009 0.584654C59.2892 0.584654 62.1648 1.87577 64.5277 4.45799C66.8906 7.01586 68.0721 10.1584 68.0721 13.8856C68.0721 17.6127 66.8906 20.7674 64.5277 23.3497ZM50.5176 19.9148C51.9665 21.4739 53.761 22.2534 55.9009 22.2534C58.0409 22.2534 59.8354 21.4739 61.2843 19.9148C62.7333 18.3314 63.4577 16.3216 63.4577 13.8856C63.4577 11.4495 62.7333 9.43974 61.2843 7.8563C59.8354 6.27286 58.0409 5.48114 55.9009 5.48114C53.761 5.48114 51.9665 6.27286 50.5176 7.8563C49.0686 9.43974 48.3441 11.4495 48.3441 13.8856C48.3441 16.3216 49.0686 18.3314 50.5176 19.9148Z" fill="white"/>
<path d="M71.1146 26.6749V0H75.428V26.6749H71.1146Z" fill="white"/>
<path d="M81.5159 6.21196C80.8026 6.21196 80.1784 5.93181 79.6434 5.37152C79.1307 4.78686 78.8744 4.10477 78.8744 3.32522C78.8744 2.54569 79.1307 1.86359 79.6434 1.27893C80.1784 0.694277 80.8026 0.40195 81.5159 0.40195C82.2515 0.40195 82.8757 0.694277 83.3884 1.27893C83.9234 1.86359 84.1909 2.54569 84.1909 3.32522C84.1909 4.10477 83.9234 4.78686 83.3884 5.37152C82.8757 5.93181 82.2515 6.21196 81.5159 6.21196ZM79.3759 26.6749V8.40442H83.6893V26.6749H79.3759Z" fill="white"/>
<path d="M106.128 7.89285C108.045 7.89285 109.572 8.57494 110.709 9.93914C111.868 11.3033 112.448 13.1304 112.448 15.4203V26.6749H108.134V15.7491C108.134 14.6529 107.889 13.8003 107.399 13.1913C106.908 12.5823 106.217 12.2778 105.326 12.2778C104.345 12.2778 103.576 12.631 103.018 13.3374C102.483 14.0439 102.216 15.0671 102.216 16.4069V26.6749H97.9025V15.7491C97.9025 14.6529 97.6573 13.8003 97.1669 13.1913C96.6765 12.5823 95.9854 12.2778 95.0938 12.2778C94.1352 12.2778 93.3662 12.631 92.7866 13.3374C92.2293 14.0439 91.9507 15.0671 91.9507 16.4069V26.6749H87.6373V8.40442H91.9507V10.3411C92.9538 8.70893 94.503 7.89285 96.5984 7.89285C98.6492 7.89285 100.165 8.76983 101.146 10.5238C102.26 8.76983 103.921 7.89285 106.128 7.89285Z" fill="white"/>
<path d="M125.841 7.89285C128.093 7.89285 130.01 8.83073 131.593 10.7065C133.197 12.5579 134 14.8356 134 17.5397C134 20.2437 133.197 22.5336 131.593 24.4094C130.01 26.2608 128.093 27.1865 125.841 27.1865C123.501 27.1865 121.695 26.2973 120.425 24.519V33.9831H116.111V8.40442H120.425V10.5603C121.695 8.78201 123.501 7.89285 125.841 7.89285ZM121.729 21.2668C122.598 22.2169 123.701 22.6919 125.039 22.6919C126.376 22.6919 127.48 22.2169 128.349 21.2668C129.241 20.2924 129.687 19.05 129.687 17.5397C129.687 16.0293 129.241 14.7991 128.349 13.849C127.48 12.8746 126.376 12.3874 125.039 12.3874C123.701 12.3874 122.598 12.8746 121.729 13.849C120.859 14.7991 120.425 16.0293 120.425 17.5397C120.425 19.05 120.859 20.2924 121.729 21.2668Z" fill="white"/>
<path d="M84.1614 3.43936C84.1614 5.07402 82.9488 6.39918 81.453 6.39918C79.9572 6.39918 78.7446 5.07402 78.7446 3.43936C78.7446 1.8047 79.9572 0.479544 81.453 0.479544C82.9488 0.479544 84.1614 1.8047 84.1614 3.43936Z" fill="white"/>
</svg>
