<svg xmlns="http://www.w3.org/2000/svg" width="24" height="24" viewBox="0 0 24 24" fill="none">
    <path d="M16.8722 2C18.6553 2 19.3018 2.18565 19.9537 2.53427C20.6055 2.88288 21.1171 3.39446 21.4657 4.04631C21.8143 4.69816 22 5.34473 22 7.12777V16.8722C22 18.6553 21.8143 19.3018 21.4657 19.9537C21.1171 20.6055 20.6055 21.1171 19.9537 21.4657C19.3018 21.8143 18.6553 22 16.8722 22H7.12777C5.34473 22 4.69816 21.8143 4.04631 21.4657C3.39446 21.1171 2.88288 20.6055 2.53427 19.9537C2.18565 19.3018 2 18.6553 2 16.8722V7.12777C2 5.34473 2.18565 4.69816 2.53427 4.04631C2.88288 3.39446 3.39446 2.88288 4.04631 2.53427C4.69816 2.18565 5.34473 2 7.12777 2H16.8722ZM17.4361 4H6.56389C5.67237 4 5.34908 4.09283 5.02315 4.26713C4.69723 4.44144 4.44144 4.69723 4.26713 5.02315C4.09283 5.34908 4 5.67237 4 6.56389V17.4361C4 18.3276 4.09283 18.6509 4.26713 18.9768C4.44144 19.3028 4.69723 19.5586 5.02315 19.7329C5.34908 19.9072 5.67237 20 6.56389 20H17.4361C18.3276 20 18.6509 19.9072 18.9768 19.7329C19.3028 19.5586 19.5586 19.3028 19.7329 18.9768C19.9072 18.6509 20 18.3276 20 17.4361V6.56389C20 5.67237 19.9072 5.34908 19.7329 5.02315C19.5586 4.69723 19.3028 4.44144 18.9768 4.26713C18.6509 4.09283 18.3276 4 17.4361 4Z"
          fill='#3579F8'/>
</svg>