<svg width="20" height="20" viewBox="0 0 20 20" fill="none" xmlns="http://www.w3.org/2000/svg">
<path d="M2.5 2.5L17.5 17.5M8.75 8.8975C8.46922 9.21542 8.32022 9.62844 8.33335 10.0524C8.34649 10.4764 8.52078 10.8794 8.82071 11.1793C9.12064 11.4792 9.52364 11.6535 9.9476 11.6666C10.3716 11.6798 10.7846 11.5308 11.1025 11.25" stroke="#99A2AD" stroke-width="1.4" stroke-linecap="round" stroke-linejoin="round"/>
<path d="M6.135 6.30083C4.73333 7.28333 3.56583 8.68333 2.5 10C4.07417 12.4925 6.90167 15 10 15C11.2917 15 12.5358 14.5642 13.6625 13.875M10 5C13.34 5 15.5842 7.63167 17.5 10C17.2254 10.434 16.9254 10.8514 16.6017 11.25" stroke="#99A2AD" stroke-width="1.4" stroke-linecap="round" stroke-linejoin="round"/>
</svg>
