<svg width="51" height="79" viewBox="0 0 51 79" fill="none" xmlns="http://www.w3.org/2000/svg">
<path id="Vector 696" d="M12.7784 75.838C13.0233 74.2048 13.1703 72.3519 12.7784 70.8025C12.3865 69.2531 3.37812 59.5697 2.59539 56.8583C1.81266 54.1468 1.79049 52.4024 2.59539 49.8861L6.51193 39.4279C7.73948 37.3678 8.57309 36.5486 10.4285 35.9419C10.4285 35.9419 17.1151 35.7725 21.8786 35.8141M26.8777 61.8936C23.3624 53.0938 13.517 45.3062 13.9534 46.0127C14.1139 46.2726 15.9461 45.9724 18.2613 45.3547M12.3865 35.5545C12.3865 35.5545 11.9948 12.7011 11.9948 6.50389C11.9948 0.306657 21.3945 0.693868 21.3945 6.50389C21.3945 12.3139 21.8786 35.8141 21.8786 35.8141M21.8786 35.8141C22.3964 35.8186 22.8915 35.8256 23.3528 35.8356M23.3528 35.8356C24.3178 35.8565 25.1349 35.8904 25.703 35.9419C29.0405 36.2441 29.7085 37.8937 28.4446 40.59C27.6456 42.2944 22.2401 44.2933 18.2613 45.3547M23.3528 35.8356C23.3528 35.8356 21.3155 36.2384 25.703 31.2938C30.0904 26.3492 36.0721 31.7897 33.9275 35.8141M33.9275 35.8141C36.0642 31.3521 44.1952 32.9363 42.5439 38.6533C40.8926 44.3702 35.85 51.6875 33.9275 53.3722C32.0049 55.057 25.8215 53.2418 26.5695 48.7241M33.9275 35.8141C32.0511 39.3351 28.7633 45.5432 26.5695 48.7241M18.2613 45.3547C18.2691 49.8415 23.6116 52.399 25.703 49.8861C25.9646 49.5718 26.2559 49.1789 26.5695 48.7241M41.3689 42.1393C44.183 40.1611 50.1353 42.3716 48.8103 47.1748C47.4854 51.9779 45.0578 55.9858 42.5439 58.0203C40.0299 60.0548 33.3215 57.4278 34.7108 52.5975M47.2437 53.3722C47.3267 61.0848 42.5439 68.4785 40.5856 70.4152C38.6273 72.3519 40.5856 77 40.5856 77" stroke="black" stroke-width="3" stroke-linecap="round"/>
</svg>
